G04 Layer_Color=8388736*
%FSLAX44Y44*%
%MOMM*%
G71*
G01*
G75*
%ADD71R,1.0532X1.1532*%
%ADD72R,1.0032X1.0032*%
G04:AMPARAMS|DCode=73|XSize=3.4032mm|YSize=2.8532mm|CornerRadius=0mm|HoleSize=0mm|Usage=FLASHONLY|Rotation=90.000|XOffset=0mm|YOffset=0mm|HoleType=Round|Shape=Octagon|*
%AMOCTAGOND73*
4,1,8,0.7133,1.7016,-0.7133,1.7016,-1.4266,0.9883,-1.4266,-0.9883,-0.7133,-1.7016,0.7133,-1.7016,1.4266,-0.9883,1.4266,0.9883,0.7133,1.7016,0.0*
%
%ADD73OCTAGOND73*%

G04:AMPARAMS|DCode=74|XSize=0.9032mm|YSize=1.8032mm|CornerRadius=0.2766mm|HoleSize=0mm|Usage=FLASHONLY|Rotation=90.000|XOffset=0mm|YOffset=0mm|HoleType=Round|Shape=RoundedRectangle|*
%AMROUNDEDRECTD74*
21,1,0.9032,1.2500,0,0,90.0*
21,1,0.3500,1.8032,0,0,90.0*
1,1,0.5532,0.6250,0.1750*
1,1,0.5532,0.6250,-0.1750*
1,1,0.5532,-0.6250,-0.1750*
1,1,0.5532,-0.6250,0.1750*
%
%ADD74ROUNDEDRECTD74*%
%ADD75R,1.1032X1.2032*%
%ADD76R,1.2032X1.1032*%
G04:AMPARAMS|DCode=77|XSize=0.4832mm|YSize=2.0032mm|CornerRadius=0.1506mm|HoleSize=0mm|Usage=FLASHONLY|Rotation=180.000|XOffset=0mm|YOffset=0mm|HoleType=Round|Shape=RoundedRectangle|*
%AMROUNDEDRECTD77*
21,1,0.4832,1.7020,0,0,180.0*
21,1,0.1820,2.0032,0,0,180.0*
1,1,0.3012,-0.0910,0.8510*
1,1,0.3012,0.0910,0.8510*
1,1,0.3012,0.0910,-0.8510*
1,1,0.3012,-0.0910,-0.8510*
%
%ADD77ROUNDEDRECTD77*%
G04:AMPARAMS|DCode=78|XSize=0.4832mm|YSize=2.0032mm|CornerRadius=0.1506mm|HoleSize=0mm|Usage=FLASHONLY|Rotation=270.000|XOffset=0mm|YOffset=0mm|HoleType=Round|Shape=RoundedRectangle|*
%AMROUNDEDRECTD78*
21,1,0.4832,1.7020,0,0,270.0*
21,1,0.1820,2.0032,0,0,270.0*
1,1,0.3012,-0.8510,-0.0910*
1,1,0.3012,-0.8510,0.0910*
1,1,0.3012,0.8510,0.0910*
1,1,0.3012,0.8510,-0.0910*
%
%ADD78ROUNDEDRECTD78*%
%ADD79R,1.8032X3.7032*%
%ADD80R,1.1532X1.0532*%
G04:AMPARAMS|DCode=81|XSize=1.4032mm|YSize=2.2032mm|CornerRadius=0.3416mm|HoleSize=0mm|Usage=FLASHONLY|Rotation=90.000|XOffset=0mm|YOffset=0mm|HoleType=Round|Shape=RoundedRectangle|*
%AMROUNDEDRECTD81*
21,1,1.4032,1.5200,0,0,90.0*
21,1,0.7200,2.2032,0,0,90.0*
1,1,0.6832,0.7600,0.3600*
1,1,0.6832,0.7600,-0.3600*
1,1,0.6832,-0.7600,-0.3600*
1,1,0.6832,-0.7600,0.3600*
%
%ADD81ROUNDEDRECTD81*%
G04:AMPARAMS|DCode=82|XSize=2.1032mm|YSize=2.6032mm|CornerRadius=0.4816mm|HoleSize=0mm|Usage=FLASHONLY|Rotation=90.000|XOffset=0mm|YOffset=0mm|HoleType=Round|Shape=RoundedRectangle|*
%AMROUNDEDRECTD82*
21,1,2.1032,1.6400,0,0,90.0*
21,1,1.1400,2.6032,0,0,90.0*
1,1,0.9632,0.8200,0.5700*
1,1,0.9632,0.8200,-0.5700*
1,1,0.9632,-0.8200,-0.5700*
1,1,0.9632,-0.8200,0.5700*
%
%ADD82ROUNDEDRECTD82*%
G04:AMPARAMS|DCode=83|XSize=2.5032mm|YSize=2.5032mm|CornerRadius=0.6766mm|HoleSize=0mm|Usage=FLASHONLY|Rotation=0.000|XOffset=0mm|YOffset=0mm|HoleType=Round|Shape=RoundedRectangle|*
%AMROUNDEDRECTD83*
21,1,2.5032,1.1500,0,0,0.0*
21,1,1.1500,2.5032,0,0,0.0*
1,1,1.3532,0.5750,-0.5750*
1,1,1.3532,-0.5750,-0.5750*
1,1,1.3532,-0.5750,0.5750*
1,1,1.3532,0.5750,0.5750*
%
%ADD83ROUNDEDRECTD83*%
%ADD84R,2.5032X2.5032*%
%ADD85R,1.5532X1.3532*%
%ADD86R,2.2032X1.4032*%
%ADD87R,2.1032X2.0032*%
G04:AMPARAMS|DCode=88|XSize=1.8032mm|YSize=1.6032mm|CornerRadius=0.4516mm|HoleSize=0mm|Usage=FLASHONLY|Rotation=0.000|XOffset=0mm|YOffset=0mm|HoleType=Round|Shape=RoundedRectangle|*
%AMROUNDEDRECTD88*
21,1,1.8032,0.7000,0,0,0.0*
21,1,0.9000,1.6032,0,0,0.0*
1,1,0.9032,0.4500,-0.3500*
1,1,0.9032,-0.4500,-0.3500*
1,1,0.9032,-0.4500,0.3500*
1,1,0.9032,0.4500,0.3500*
%
%ADD88ROUNDEDRECTD88*%
%ADD89O,0.6032X1.5532*%
%ADD90R,2.2032X2.4032*%
%ADD91O,1.2032X2.0032*%
%ADD92C,1.9032*%
%ADD93R,1.9032X1.9032*%
%ADD94O,2.7032X1.7032*%
%ADD95O,1.7032X2.7032*%
%ADD96C,0.2032*%
G36*
X227952Y23770D02*
X228367Y23740D01*
X228782Y23681D01*
X229700Y23533D01*
X229759D01*
X229907Y23474D01*
X230114Y23415D01*
X230381Y23355D01*
X230707Y23237D01*
X231032Y23089D01*
X231358Y22911D01*
X231684Y22704D01*
X231714Y22674D01*
X231832Y22615D01*
X231980Y22467D01*
X232158Y22319D01*
X232365Y22082D01*
X232572Y21845D01*
X232780Y21549D01*
X232957Y21223D01*
X232987Y21193D01*
X233046Y21045D01*
X233106Y20868D01*
X233194Y20601D01*
X233283Y20275D01*
X233372Y19890D01*
X233402Y19446D01*
X233431Y18972D01*
Y18943D01*
Y18824D01*
Y18646D01*
X233402Y18409D01*
X233372Y18143D01*
X233313Y17847D01*
X233135Y17284D01*
Y17254D01*
X233076Y17165D01*
X233017Y17017D01*
X232928Y16840D01*
X232691Y16425D01*
X232365Y15981D01*
X232335Y15951D01*
X232276Y15892D01*
X232158Y15803D01*
X232039Y15685D01*
X231862Y15537D01*
X231654Y15388D01*
X231151Y15122D01*
X231121D01*
X231032Y15063D01*
X230884Y15003D01*
X230707Y14944D01*
X230470Y14855D01*
X230203Y14796D01*
X229611Y14648D01*
X229640D01*
X229729Y14619D01*
X229848Y14589D01*
X229996Y14530D01*
X230173Y14411D01*
X230381Y14293D01*
X230588Y14145D01*
X230795Y13937D01*
X230825Y13908D01*
X230884Y13819D01*
X231003Y13700D01*
X231121Y13493D01*
X231299Y13256D01*
X231477Y12960D01*
X231654Y12605D01*
X231862Y12220D01*
X234646Y6385D01*
X230795D01*
X228337Y11983D01*
Y12012D01*
X228278Y12101D01*
X228189Y12249D01*
X228100Y12427D01*
X227804Y12842D01*
X227597Y13019D01*
X227390Y13197D01*
X227360Y13226D01*
X227271Y13256D01*
X227153Y13315D01*
X226975Y13404D01*
X226768Y13493D01*
X226531Y13552D01*
X226234Y13582D01*
X225938Y13612D01*
X225316D01*
Y6385D01*
X222029D01*
Y23800D01*
X227597D01*
X227952Y23770D01*
D02*
G37*
G36*
X293375Y21134D02*
X289554D01*
Y9080D01*
X293375D01*
Y6385D01*
X282387D01*
Y9080D01*
X286208D01*
Y21134D01*
X282387D01*
Y23800D01*
X293375D01*
Y21134D01*
D02*
G37*
G36*
X263877D02*
X255821Y9347D01*
X263995D01*
Y6385D01*
X251734D01*
Y8814D01*
X259701Y20838D01*
X252001D01*
Y23800D01*
X263877D01*
Y21134D01*
D02*
G37*
G36*
X288103Y29042D02*
X288340Y29012D01*
X288607Y28894D01*
X288636D01*
X288666Y28864D01*
X288844Y28775D01*
X289051Y28657D01*
X289258Y28479D01*
X289317Y28420D01*
X289436Y28301D01*
X289584Y28094D01*
X289732Y27827D01*
Y27798D01*
X289762Y27768D01*
X289821Y27590D01*
X289880Y27353D01*
X289910Y27057D01*
Y27028D01*
Y26998D01*
X289880Y26791D01*
X289851Y26524D01*
X289732Y26258D01*
Y26228D01*
X289702Y26198D01*
X289614Y26050D01*
X289495Y25843D01*
X289288Y25636D01*
X289229Y25606D01*
X289110Y25488D01*
X288903Y25340D01*
X288636Y25221D01*
X288607D01*
X288577Y25192D01*
X288399Y25162D01*
X288162Y25103D01*
X287837Y25073D01*
X287777D01*
X287570Y25103D01*
X287333Y25132D01*
X287037Y25221D01*
X287007D01*
X286978Y25251D01*
X286830Y25340D01*
X286622Y25458D01*
X286415Y25636D01*
X286385Y25695D01*
X286267Y25814D01*
X286119Y26021D01*
X286000Y26258D01*
Y26287D01*
X285971Y26317D01*
X285941Y26495D01*
X285882Y26732D01*
X285852Y27057D01*
Y27087D01*
Y27117D01*
X285882Y27324D01*
X285912Y27561D01*
X286000Y27827D01*
Y27857D01*
X286030Y27887D01*
X286119Y28064D01*
X286237Y28272D01*
X286415Y28479D01*
X286474Y28538D01*
X286593Y28627D01*
X286800Y28775D01*
X287037Y28894D01*
X287067D01*
X287096Y28923D01*
X287274Y28982D01*
X287540Y29042D01*
X287837Y29071D01*
X287896D01*
X288103Y29042D01*
D02*
G37*
G36*
X275190Y24066D02*
X275546Y24037D01*
X275931Y24007D01*
X276760Y23859D01*
X276819D01*
X276967Y23829D01*
X277175Y23770D01*
X277471Y23711D01*
X277826Y23651D01*
X278211Y23533D01*
X279070Y23326D01*
Y20097D01*
X279011Y20127D01*
X278892Y20186D01*
X278685Y20246D01*
X278419Y20364D01*
X278093Y20482D01*
X277708Y20601D01*
X277323Y20719D01*
X276879Y20838D01*
X276819Y20868D01*
X276671Y20897D01*
X276434Y20956D01*
X276138Y21016D01*
X275783Y21075D01*
X275368Y21105D01*
X274924Y21164D01*
X274272D01*
X274035Y21134D01*
X273769Y21105D01*
X273413Y21045D01*
X273058Y20986D01*
X272673Y20868D01*
X272318Y20719D01*
X272288Y20690D01*
X272170Y20631D01*
X271992Y20542D01*
X271755Y20423D01*
X271518Y20246D01*
X271252Y20038D01*
X270985Y19801D01*
X270748Y19505D01*
X270718Y19476D01*
X270659Y19357D01*
X270541Y19209D01*
X270393Y18972D01*
X270245Y18706D01*
X270096Y18380D01*
X269948Y17995D01*
X269800Y17580D01*
Y17521D01*
X269741Y17373D01*
X269711Y17136D01*
X269652Y16840D01*
X269593Y16455D01*
X269534Y16011D01*
X269504Y15537D01*
X269475Y15003D01*
Y14974D01*
Y14944D01*
Y14767D01*
Y14500D01*
X269504Y14174D01*
X269534Y13789D01*
X269563Y13345D01*
X269711Y12486D01*
Y12427D01*
X269771Y12308D01*
X269830Y12101D01*
X269919Y11834D01*
X270037Y11538D01*
X270185Y11213D01*
X270541Y10591D01*
X270570Y10561D01*
X270630Y10472D01*
X270778Y10324D01*
X270926Y10146D01*
X271133Y9969D01*
X271399Y9761D01*
X271666Y9584D01*
X271992Y9406D01*
X272022Y9376D01*
X272140Y9347D01*
X272347Y9287D01*
X272584Y9228D01*
X272910Y9140D01*
X273265Y9080D01*
X273710Y9051D01*
X274154Y9021D01*
X274717D01*
X274835Y9051D01*
X274983D01*
X275131Y9080D01*
X275161D01*
X275250Y9110D01*
X275368Y9140D01*
X275516Y9169D01*
X275546D01*
X275635Y9199D01*
X275753Y9258D01*
X275901Y9287D01*
Y13760D01*
X272940D01*
Y16455D01*
X279129D01*
Y7155D01*
X279070Y7125D01*
X278922Y7066D01*
X278685Y6977D01*
X278359Y6859D01*
X277974Y6711D01*
X277560Y6592D01*
X277086Y6444D01*
X276612Y6356D01*
X276553D01*
X276375Y6326D01*
X276108Y6267D01*
X275783Y6237D01*
X275338Y6178D01*
X274865Y6119D01*
X274332Y6089D01*
X273473D01*
X273295Y6119D01*
X273117D01*
X272673Y6148D01*
X272170Y6207D01*
X271637Y6326D01*
X271074Y6444D01*
X270511Y6622D01*
X270481D01*
X270452Y6652D01*
X270274Y6740D01*
X270008Y6859D01*
X269652Y7037D01*
X269267Y7274D01*
X268853Y7570D01*
X268438Y7896D01*
X268053Y8281D01*
X268023Y8340D01*
X267875Y8488D01*
X267698Y8725D01*
X267490Y9051D01*
X267224Y9436D01*
X266987Y9909D01*
X266720Y10443D01*
X266513Y11035D01*
Y11064D01*
X266483Y11124D01*
X266454Y11213D01*
X266424Y11331D01*
X266394Y11479D01*
X266335Y11687D01*
X266246Y12131D01*
X266157Y12693D01*
X266069Y13345D01*
X266009Y14056D01*
X265980Y14826D01*
Y14855D01*
Y14915D01*
Y15033D01*
Y15211D01*
X266009Y15388D01*
Y15625D01*
X266039Y16129D01*
X266128Y16751D01*
X266217Y17402D01*
X266365Y18084D01*
X266542Y18735D01*
Y18765D01*
X266572Y18824D01*
X266602Y18913D01*
X266661Y19031D01*
X266779Y19327D01*
X266957Y19742D01*
X267194Y20186D01*
X267461Y20690D01*
X267786Y21164D01*
X268171Y21638D01*
X268231Y21697D01*
X268379Y21845D01*
X268616Y22052D01*
X268912Y22319D01*
X269297Y22615D01*
X269771Y22911D01*
X270274Y23178D01*
X270837Y23444D01*
X270866D01*
X270896Y23474D01*
X270985Y23503D01*
X271133Y23533D01*
X271281Y23592D01*
X271459Y23651D01*
X271903Y23770D01*
X272436Y23888D01*
X273028Y24007D01*
X273710Y24066D01*
X274450Y24096D01*
X274894D01*
X275190Y24066D01*
D02*
G37*
G36*
X243501D02*
X243797Y24037D01*
X244123Y23977D01*
X244478Y23918D01*
X244863Y23800D01*
X245278Y23681D01*
X245722Y23533D01*
X246137Y23355D01*
X246581Y23148D01*
X246996Y22882D01*
X247410Y22556D01*
X247766Y22230D01*
X248121Y21815D01*
X248151Y21786D01*
X248210Y21697D01*
X248269Y21578D01*
X248388Y21401D01*
X248536Y21164D01*
X248684Y20868D01*
X248832Y20512D01*
X249009Y20127D01*
X249158Y19683D01*
X249306Y19179D01*
X249454Y18646D01*
X249602Y18054D01*
X249720Y17402D01*
X249780Y16692D01*
X249839Y15951D01*
X249868Y15152D01*
Y15122D01*
Y15033D01*
Y14915D01*
Y14767D01*
X249839Y14559D01*
Y14322D01*
X249809Y13760D01*
X249720Y13108D01*
X249632Y12427D01*
X249483Y11746D01*
X249306Y11064D01*
Y11035D01*
X249276Y10976D01*
X249247Y10887D01*
X249217Y10768D01*
X249069Y10472D01*
X248891Y10058D01*
X248684Y9613D01*
X248417Y9140D01*
X248121Y8666D01*
X247766Y8221D01*
X247736Y8162D01*
X247588Y8044D01*
X247410Y7836D01*
X247144Y7599D01*
X246788Y7333D01*
X246403Y7066D01*
X245989Y6829D01*
X245515Y6592D01*
X245456Y6563D01*
X245278Y6504D01*
X245011Y6444D01*
X244685Y6356D01*
X244271Y6237D01*
X243797Y6178D01*
X243264Y6119D01*
X242731Y6089D01*
X242583D01*
X242405Y6119D01*
X242168D01*
X241872Y6148D01*
X241546Y6207D01*
X241191Y6267D01*
X240806Y6385D01*
X240391Y6504D01*
X239947Y6652D01*
X239532Y6829D01*
X239088Y7066D01*
X238673Y7303D01*
X238259Y7629D01*
X237903Y7955D01*
X237548Y8369D01*
X237518Y8399D01*
X237489Y8488D01*
X237400Y8606D01*
X237281Y8784D01*
X237163Y9021D01*
X237015Y9317D01*
X236837Y9672D01*
X236689Y10058D01*
X236541Y10502D01*
X236363Y11005D01*
X236215Y11538D01*
X236097Y12131D01*
X235978Y12782D01*
X235919Y13463D01*
X235860Y14204D01*
X235830Y15003D01*
Y15033D01*
Y15122D01*
Y15240D01*
Y15388D01*
X235860Y15596D01*
Y15833D01*
X235889Y16395D01*
X235949Y17047D01*
X236067Y17728D01*
X236186Y18409D01*
X236363Y19091D01*
Y19120D01*
X236393Y19179D01*
X236423Y19268D01*
X236482Y19387D01*
X236600Y19683D01*
X236778Y20097D01*
X236985Y20542D01*
X237252Y21016D01*
X237548Y21460D01*
X237874Y21904D01*
X237933Y21963D01*
X238051Y22082D01*
X238259Y22289D01*
X238525Y22526D01*
X238851Y22793D01*
X239236Y23089D01*
X239680Y23326D01*
X240154Y23563D01*
X240184D01*
X240214Y23592D01*
X240391Y23651D01*
X240658Y23740D01*
X240984Y23829D01*
X241398Y23918D01*
X241872Y24007D01*
X242405Y24066D01*
X242938Y24096D01*
X243264D01*
X243501Y24066D01*
D02*
G37*
%LPC*%
G36*
X226738Y21075D02*
X225316D01*
Y16158D01*
X226886D01*
X227093Y16188D01*
X227538Y16218D01*
X228011Y16307D01*
X228041D01*
X228130Y16336D01*
X228219Y16366D01*
X228367Y16425D01*
X228722Y16573D01*
X229048Y16781D01*
X229078Y16810D01*
X229137Y16840D01*
X229315Y17017D01*
X229522Y17254D01*
X229729Y17580D01*
Y17610D01*
X229759Y17669D01*
X229818Y17758D01*
X229877Y17906D01*
X229966Y18232D01*
X229996Y18676D01*
Y18706D01*
Y18735D01*
Y18883D01*
X229966Y19120D01*
X229907Y19387D01*
X229788Y19683D01*
X229640Y19979D01*
X229433Y20275D01*
X229167Y20512D01*
X229137Y20542D01*
X229018Y20601D01*
X228841Y20690D01*
X228574Y20808D01*
X228219Y20897D01*
X227804Y20986D01*
X227301Y21045D01*
X226738Y21075D01*
D02*
G37*
G36*
X242849Y21134D02*
X242701D01*
X242494Y21105D01*
X242287Y21075D01*
X242020Y21045D01*
X241724Y20956D01*
X241457Y20868D01*
X241191Y20719D01*
X241161Y20690D01*
X241072Y20660D01*
X240954Y20571D01*
X240806Y20423D01*
X240628Y20275D01*
X240450Y20068D01*
X240273Y19831D01*
X240095Y19564D01*
X240065Y19535D01*
X240036Y19446D01*
X239947Y19268D01*
X239858Y19061D01*
X239769Y18794D01*
X239651Y18469D01*
X239562Y18113D01*
X239473Y17699D01*
Y17639D01*
X239443Y17491D01*
X239414Y17284D01*
X239384Y16958D01*
X239355Y16603D01*
X239325Y16158D01*
X239295Y15685D01*
Y15152D01*
Y15122D01*
Y15003D01*
Y14855D01*
Y14648D01*
X239325Y14382D01*
X239355Y14085D01*
Y13760D01*
X239414Y13434D01*
X239503Y12664D01*
X239651Y11923D01*
X239858Y11183D01*
X239977Y10857D01*
X240125Y10561D01*
Y10531D01*
X240154Y10502D01*
X240273Y10324D01*
X240480Y10087D01*
X240776Y9821D01*
X241161Y9524D01*
X241635Y9287D01*
X242198Y9110D01*
X242494Y9080D01*
X242849Y9051D01*
X242997D01*
X243175Y9080D01*
X243412Y9110D01*
X243649Y9140D01*
X243916Y9228D01*
X244182Y9317D01*
X244449Y9436D01*
X244478Y9465D01*
X244567Y9495D01*
X244685Y9584D01*
X244834Y9732D01*
X245011Y9880D01*
X245189Y10087D01*
X245367Y10295D01*
X245544Y10561D01*
X245574Y10591D01*
X245604Y10709D01*
X245693Y10857D01*
X245781Y11094D01*
X245900Y11361D01*
X246018Y11687D01*
X246107Y12042D01*
X246196Y12427D01*
Y12486D01*
X246226Y12634D01*
X246255Y12871D01*
X246314Y13167D01*
X246344Y13552D01*
X246374Y13996D01*
X246403Y14470D01*
Y15003D01*
Y15033D01*
Y15152D01*
Y15300D01*
Y15507D01*
X246374Y15774D01*
Y16070D01*
X246344Y16395D01*
X246314Y16721D01*
X246196Y17491D01*
X246048Y18232D01*
X245841Y18972D01*
X245722Y19298D01*
X245574Y19594D01*
Y19624D01*
X245544Y19653D01*
X245426Y19831D01*
X245219Y20068D01*
X244923Y20364D01*
X244538Y20660D01*
X244064Y20897D01*
X243501Y21075D01*
X243205Y21105D01*
X242849Y21134D01*
D02*
G37*
%LPD*%
D71*
X86500Y53250D02*
D03*
X99500D02*
D03*
X459500Y158500D02*
D03*
X446500D02*
D03*
X202500Y145000D02*
D03*
X215500D02*
D03*
X459500Y143750D02*
D03*
X446500D02*
D03*
X202500Y160000D02*
D03*
X215500D02*
D03*
X575500Y53250D02*
D03*
X562500D02*
D03*
D72*
X102000Y34500D02*
D03*
Y19500D02*
D03*
X560000Y34500D02*
D03*
Y19500D02*
D03*
X577000Y19500D02*
D03*
Y34500D02*
D03*
X84750Y19500D02*
D03*
Y34500D02*
D03*
X484500Y183000D02*
D03*
Y198000D02*
D03*
X500500Y183000D02*
D03*
Y198000D02*
D03*
X323000Y72500D02*
D03*
Y57500D02*
D03*
X339000Y72500D02*
D03*
Y57500D02*
D03*
D73*
X545750Y135750D02*
D03*
X116250Y134250D02*
D03*
D74*
X517750Y116700D02*
D03*
X573750D02*
D03*
X517750Y154800D02*
D03*
X573750D02*
D03*
X517750Y129400D02*
D03*
X573750D02*
D03*
X517750Y142100D02*
D03*
X573750D02*
D03*
X144250Y153300D02*
D03*
X88250D02*
D03*
X144250Y115200D02*
D03*
X88250D02*
D03*
X144250Y140600D02*
D03*
X88250D02*
D03*
X144250Y127900D02*
D03*
X88250D02*
D03*
D75*
X627000Y50000D02*
D03*
X613500D02*
D03*
X33500D02*
D03*
X47000D02*
D03*
X109125Y99000D02*
D03*
X122625D02*
D03*
D76*
X526000Y29250D02*
D03*
Y42750D02*
D03*
X470500Y111250D02*
D03*
Y124750D02*
D03*
D77*
X358500Y222000D02*
D03*
X353500D02*
D03*
X348500D02*
D03*
X343500D02*
D03*
X338500D02*
D03*
X333500D02*
D03*
X328500D02*
D03*
X323500D02*
D03*
X318500D02*
D03*
X313500D02*
D03*
X308500D02*
D03*
X303500D02*
D03*
Y303000D02*
D03*
X308500D02*
D03*
X313500D02*
D03*
X318500D02*
D03*
X323500D02*
D03*
X328500D02*
D03*
X333500D02*
D03*
X338500D02*
D03*
X343500D02*
D03*
X348500D02*
D03*
X353500D02*
D03*
X358500D02*
D03*
D78*
X290500Y235000D02*
D03*
Y240000D02*
D03*
Y245000D02*
D03*
Y250000D02*
D03*
Y255000D02*
D03*
Y260000D02*
D03*
Y265000D02*
D03*
Y270000D02*
D03*
Y275000D02*
D03*
Y280000D02*
D03*
Y285000D02*
D03*
Y290000D02*
D03*
X371500D02*
D03*
Y285000D02*
D03*
Y280000D02*
D03*
Y275000D02*
D03*
Y270000D02*
D03*
Y265000D02*
D03*
Y260000D02*
D03*
Y255000D02*
D03*
Y250000D02*
D03*
Y245000D02*
D03*
Y240000D02*
D03*
Y235000D02*
D03*
D79*
X268000Y75000D02*
D03*
Y129000D02*
D03*
X394000Y73000D02*
D03*
Y127000D02*
D03*
D80*
X417000Y278250D02*
D03*
Y291250D02*
D03*
X484750Y227000D02*
D03*
Y214000D02*
D03*
X500500Y226750D02*
D03*
Y213750D02*
D03*
X400500Y278000D02*
D03*
Y291000D02*
D03*
X437750Y124250D02*
D03*
Y111250D02*
D03*
X454000Y124500D02*
D03*
Y111500D02*
D03*
D81*
X447000Y33000D02*
D03*
Y58000D02*
D03*
Y83000D02*
D03*
X506000D02*
D03*
Y58000D02*
D03*
Y33000D02*
D03*
D82*
X444250Y246500D02*
D03*
Y283500D02*
D03*
D83*
X371500Y32000D02*
D03*
D84*
X416500D02*
D03*
D85*
X342250Y92750D02*
D03*
Y110250D02*
D03*
X318250Y92750D02*
D03*
Y110250D02*
D03*
D86*
X458750Y214000D02*
D03*
X430750D02*
D03*
D87*
X179250Y29750D02*
D03*
X155250D02*
D03*
D88*
X199250Y54250D02*
D03*
X135250D02*
D03*
D89*
X167250Y56500D02*
D03*
X160750D02*
D03*
X154250D02*
D03*
X180250D02*
D03*
X173750D02*
D03*
D90*
X102125Y177000D02*
D03*
X132125D02*
D03*
X559875Y93500D02*
D03*
X529875D02*
D03*
D91*
X200250Y29750D02*
D03*
X134250D02*
D03*
D92*
X317300Y25000D02*
D03*
X54750Y27000D02*
D03*
X634200D02*
D03*
D93*
X342700Y25000D02*
D03*
X29350Y27000D02*
D03*
X608800D02*
D03*
D94*
X551000Y220000D02*
D03*
Y240000D02*
D03*
Y260000D02*
D03*
X111000D02*
D03*
Y240000D02*
D03*
Y220000D02*
D03*
D95*
X364167Y378250D02*
D03*
X444167D02*
D03*
X384167D02*
D03*
X404167D02*
D03*
X424167D02*
D03*
X176000D02*
D03*
X156000D02*
D03*
X136000D02*
D03*
X196000D02*
D03*
X116000D02*
D03*
X548250D02*
D03*
X488250D02*
D03*
X508250D02*
D03*
X528250D02*
D03*
X240083D02*
D03*
X320083D02*
D03*
X260083D02*
D03*
X280083D02*
D03*
X300083D02*
D03*
D96*
X46000Y350000D02*
D03*
X616000D02*
D03*
M02*
