G04 Layer_Physical_Order=1*
G04 Layer_Color=255*
%FSLAX44Y44*%
%MOMM*%
G71*
G01*
G75*
%ADD10C,0.6000*%
%ADD11R,0.8500X0.9500*%
%ADD12R,0.8000X0.8000*%
G04:AMPARAMS|DCode=13|XSize=3.2mm|YSize=2.65mm|CornerRadius=0mm|HoleSize=0mm|Usage=FLASHONLY|Rotation=90.000|XOffset=0mm|YOffset=0mm|HoleType=Round|Shape=Octagon|*
%AMOCTAGOND13*
4,1,8,0.6625,1.6000,-0.6625,1.6000,-1.3250,0.9375,-1.3250,-0.9375,-0.6625,-1.6000,0.6625,-1.6000,1.3250,-0.9375,1.3250,0.9375,0.6625,1.6000,0.0*
%
%ADD13OCTAGOND13*%

G04:AMPARAMS|DCode=14|XSize=0.7mm|YSize=1.6mm|CornerRadius=0.175mm|HoleSize=0mm|Usage=FLASHONLY|Rotation=90.000|XOffset=0mm|YOffset=0mm|HoleType=Round|Shape=RoundedRectangle|*
%AMROUNDEDRECTD14*
21,1,0.7000,1.2500,0,0,90.0*
21,1,0.3500,1.6000,0,0,90.0*
1,1,0.3500,0.6250,0.1750*
1,1,0.3500,0.6250,-0.1750*
1,1,0.3500,-0.6250,-0.1750*
1,1,0.3500,-0.6250,0.1750*
%
%ADD14ROUNDEDRECTD14*%
%ADD15R,0.9000X1.0000*%
%ADD16R,1.0000X0.9000*%
G04:AMPARAMS|DCode=17|XSize=0.28mm|YSize=1.8mm|CornerRadius=0.049mm|HoleSize=0mm|Usage=FLASHONLY|Rotation=180.000|XOffset=0mm|YOffset=0mm|HoleType=Round|Shape=RoundedRectangle|*
%AMROUNDEDRECTD17*
21,1,0.2800,1.7020,0,0,180.0*
21,1,0.1820,1.8000,0,0,180.0*
1,1,0.0980,-0.0910,0.8510*
1,1,0.0980,0.0910,0.8510*
1,1,0.0980,0.0910,-0.8510*
1,1,0.0980,-0.0910,-0.8510*
%
%ADD17ROUNDEDRECTD17*%
G04:AMPARAMS|DCode=18|XSize=0.28mm|YSize=1.8mm|CornerRadius=0.049mm|HoleSize=0mm|Usage=FLASHONLY|Rotation=270.000|XOffset=0mm|YOffset=0mm|HoleType=Round|Shape=RoundedRectangle|*
%AMROUNDEDRECTD18*
21,1,0.2800,1.7020,0,0,270.0*
21,1,0.1820,1.8000,0,0,270.0*
1,1,0.0980,-0.8510,-0.0910*
1,1,0.0980,-0.8510,0.0910*
1,1,0.0980,0.8510,0.0910*
1,1,0.0980,0.8510,-0.0910*
%
%ADD18ROUNDEDRECTD18*%
%ADD19R,1.6000X3.5000*%
%ADD20R,0.9500X0.8500*%
G04:AMPARAMS|DCode=21|XSize=1.2mm|YSize=2mm|CornerRadius=0.24mm|HoleSize=0mm|Usage=FLASHONLY|Rotation=90.000|XOffset=0mm|YOffset=0mm|HoleType=Round|Shape=RoundedRectangle|*
%AMROUNDEDRECTD21*
21,1,1.2000,1.5200,0,0,90.0*
21,1,0.7200,2.0000,0,0,90.0*
1,1,0.4800,0.7600,0.3600*
1,1,0.4800,0.7600,-0.3600*
1,1,0.4800,-0.7600,-0.3600*
1,1,0.4800,-0.7600,0.3600*
%
%ADD21ROUNDEDRECTD21*%
G04:AMPARAMS|DCode=22|XSize=1.9mm|YSize=2.4mm|CornerRadius=0.38mm|HoleSize=0mm|Usage=FLASHONLY|Rotation=90.000|XOffset=0mm|YOffset=0mm|HoleType=Round|Shape=RoundedRectangle|*
%AMROUNDEDRECTD22*
21,1,1.9000,1.6400,0,0,90.0*
21,1,1.1400,2.4000,0,0,90.0*
1,1,0.7600,0.8200,0.5700*
1,1,0.7600,0.8200,-0.5700*
1,1,0.7600,-0.8200,-0.5700*
1,1,0.7600,-0.8200,0.5700*
%
%ADD22ROUNDEDRECTD22*%
G04:AMPARAMS|DCode=23|XSize=2.3mm|YSize=2.3mm|CornerRadius=0.575mm|HoleSize=0mm|Usage=FLASHONLY|Rotation=0.000|XOffset=0mm|YOffset=0mm|HoleType=Round|Shape=RoundedRectangle|*
%AMROUNDEDRECTD23*
21,1,2.3000,1.1500,0,0,0.0*
21,1,1.1500,2.3000,0,0,0.0*
1,1,1.1500,0.5750,-0.5750*
1,1,1.1500,-0.5750,-0.5750*
1,1,1.1500,-0.5750,0.5750*
1,1,1.1500,0.5750,0.5750*
%
%ADD23ROUNDEDRECTD23*%
%ADD24R,2.3000X2.3000*%
%ADD25R,1.3500X1.1500*%
%ADD26R,2.0000X1.2000*%
%ADD27R,1.9000X1.8000*%
G04:AMPARAMS|DCode=28|XSize=1.6mm|YSize=1.4mm|CornerRadius=0.35mm|HoleSize=0mm|Usage=FLASHONLY|Rotation=0.000|XOffset=0mm|YOffset=0mm|HoleType=Round|Shape=RoundedRectangle|*
%AMROUNDEDRECTD28*
21,1,1.6000,0.7000,0,0,0.0*
21,1,0.9000,1.4000,0,0,0.0*
1,1,0.7000,0.4500,-0.3500*
1,1,0.7000,-0.4500,-0.3500*
1,1,0.7000,-0.4500,0.3500*
1,1,0.7000,0.4500,0.3500*
%
%ADD28ROUNDEDRECTD28*%
%ADD29O,0.4000X1.3500*%
%ADD30R,2.0000X2.2000*%
%ADD31C,0.2500*%
%ADD32C,0.5000*%
%ADD33C,1.0000*%
%ADD34C,0.3000*%
%ADD35C,1.5000*%
%ADD36C,0.4000*%
%ADD37R,10.6000X2.3000*%
%ADD38R,7.6000X3.7000*%
%ADD39R,1.8000X2.5000*%
%ADD40O,1.0000X1.8000*%
%ADD41C,1.7000*%
%ADD42R,1.7000X1.7000*%
%ADD43O,2.5000X1.5000*%
%ADD44O,1.5000X2.5000*%
%ADD45C,0.8000*%
%ADD46C,0.6000*%
G36*
X590724Y405920D02*
X592000Y405666D01*
X593483Y405625D01*
X599469Y405289D01*
X606844Y404035D01*
X614032Y401964D01*
X620943Y399102D01*
X627491Y395483D01*
X633592Y391154D01*
X639170Y386170D01*
X644154Y380592D01*
X648483Y374491D01*
X652102Y367944D01*
X654964Y361032D01*
X657035Y353844D01*
X658288Y346469D01*
X658624Y340483D01*
X658666Y339000D01*
X658920Y337724D01*
X658941Y337692D01*
Y3059D01*
X3059D01*
Y337692D01*
X3080Y337724D01*
X3334Y339000D01*
X3375Y340483D01*
X3711Y346469D01*
X4965Y353844D01*
X7035Y361032D01*
X9898Y367943D01*
X13517Y374491D01*
X17846Y380592D01*
X22830Y386170D01*
X28408Y391154D01*
X34509Y395483D01*
X41056Y399102D01*
X47968Y401964D01*
X55156Y404035D01*
X62531Y405289D01*
X68517Y405625D01*
X70000Y405666D01*
X71276Y405920D01*
X71308Y405941D01*
X590692D01*
X590724Y405920D01*
D02*
G37*
%LPC*%
G36*
X136962Y40788D02*
X137044Y40229D01*
X137210Y39415D01*
X137334Y38955D01*
X138427Y40049D01*
X138053Y40336D01*
X136962Y40788D01*
D02*
G37*
G36*
X177980Y41340D02*
X169750D01*
X168759Y41143D01*
X167919Y40581D01*
X166581D01*
X165741Y41143D01*
X164750Y41340D01*
X156520D01*
Y29750D01*
Y18160D01*
X164750D01*
X165741Y18357D01*
X166581Y18919D01*
X167919D01*
X168759Y18357D01*
X169750Y18160D01*
X177980D01*
Y29750D01*
Y41340D01*
D02*
G37*
G36*
X516480Y160924D02*
X511500D01*
X509826Y160591D01*
X508407Y159643D01*
X507459Y158224D01*
X507126Y156550D01*
Y156070D01*
X516480D01*
Y160924D01*
D02*
G37*
G36*
X131538Y40788D02*
X130448Y40336D01*
X130073Y40049D01*
X131166Y38955D01*
X131290Y39415D01*
X131455Y40229D01*
X131538Y40788D01*
D02*
G37*
G36*
X197980Y52980D02*
X188592D01*
Y50750D01*
X189060Y48393D01*
X190395Y46395D01*
X192393Y45061D01*
X194750Y44592D01*
X197980D01*
Y52980D01*
D02*
G37*
G36*
X209908D02*
X200520D01*
Y44592D01*
X203750D01*
X206107Y45061D01*
X208105Y46395D01*
X209440Y48393D01*
X209908Y50750D01*
Y52980D01*
D02*
G37*
G36*
X524000Y160924D02*
X519020D01*
Y156070D01*
X528374D01*
Y156550D01*
X528041Y158224D01*
X527093Y159643D01*
X525674Y160591D01*
X524000Y160924D01*
D02*
G37*
G36*
X145908Y52980D02*
X136520D01*
Y47380D01*
X139250Y47281D01*
X138775Y47237D01*
X138350Y47069D01*
X137975Y46776D01*
X137650Y46360D01*
X137375Y45819D01*
X137150Y45154D01*
X137025Y44592D01*
X139750D01*
X142107Y45061D01*
X144105Y46395D01*
X145440Y48393D01*
X145908Y50750D01*
Y52980D01*
D02*
G37*
G36*
X153980Y41340D02*
X145750D01*
X144759Y41143D01*
X143919Y40581D01*
X143357Y39741D01*
X143160Y38750D01*
Y35328D01*
X141660Y35230D01*
X141596Y35718D01*
X140836Y37552D01*
X140549Y37927D01*
X135311Y32689D01*
X134250Y33750D01*
X133189Y32689D01*
X127951Y37927D01*
X127664Y37552D01*
X126904Y35718D01*
X126645Y33750D01*
Y33258D01*
X127149Y33350D01*
X127863Y33547D01*
X128448Y33787D01*
X128905Y34071D01*
X129232Y34399D01*
X129430Y34771D01*
X129499Y35186D01*
X129393Y24806D01*
X129333Y25223D01*
X129144Y25596D01*
X128827Y25925D01*
X128381Y26210D01*
X127806Y26451D01*
X127102Y26649D01*
X126645Y26733D01*
Y25750D01*
X126904Y23782D01*
X127664Y21948D01*
X127951Y21573D01*
X133189Y26811D01*
X134250Y25750D01*
X135311Y26811D01*
X140549Y21573D01*
X140836Y21948D01*
X141596Y23782D01*
X141660Y24270D01*
X143160Y24172D01*
Y20750D01*
X143357Y19759D01*
X143919Y18919D01*
X144759Y18357D01*
X145750Y18160D01*
X153980D01*
Y29750D01*
Y41340D01*
D02*
G37*
G36*
X528605Y107090D02*
X519875D01*
X518884Y106893D01*
X518044Y106331D01*
X517482Y105491D01*
X517285Y104500D01*
Y94770D01*
X528605D01*
Y107090D01*
D02*
G37*
G36*
X142125Y190590D02*
X133395D01*
Y178270D01*
X144715D01*
Y188000D01*
X144518Y188991D01*
X143956Y189831D01*
X143116Y190393D01*
X142125Y190590D01*
D02*
G37*
G36*
X539875Y107090D02*
X531145D01*
Y94770D01*
X542465D01*
Y104500D01*
X542268Y105491D01*
X541706Y106331D01*
X540866Y106893D01*
X539875Y107090D01*
D02*
G37*
G36*
X134635Y36256D02*
X133865D01*
X134250Y35871D01*
X134635Y36256D01*
D02*
G37*
G36*
X107855Y97730D02*
X102035D01*
Y94000D01*
X102232Y93009D01*
X102794Y92169D01*
X103634Y91607D01*
X104625Y91410D01*
X107855D01*
Y97730D01*
D02*
G37*
G36*
X124082Y225960D02*
X118121Y220000D01*
X124082Y214040D01*
X124770Y214937D01*
X125782Y217379D01*
X126127Y220000D01*
X125782Y222621D01*
X124770Y225063D01*
X124082Y225960D01*
D02*
G37*
G36*
X200250Y41355D02*
X198282Y41096D01*
X196448Y40336D01*
X196073Y40049D01*
X200250Y35871D01*
X204427Y40049D01*
X204053Y40336D01*
X202218Y41096D01*
X200250Y41355D01*
D02*
G37*
G36*
X343000Y79090D02*
X340270D01*
Y73770D01*
X345590D01*
Y76500D01*
X345393Y77491D01*
X344831Y78331D01*
X343991Y78893D01*
X343000Y79090D01*
D02*
G37*
G36*
X130855Y190590D02*
X122125D01*
X121134Y190393D01*
X120294Y189831D01*
X119732Y188991D01*
X119535Y188000D01*
Y178270D01*
X130855D01*
Y190590D01*
D02*
G37*
G36*
X133980Y63908D02*
X130750D01*
X128393Y63439D01*
X126395Y62105D01*
X125061Y60107D01*
X124592Y57750D01*
Y57386D01*
X124668Y57392D01*
X125412Y57502D01*
X126041Y57643D01*
X126556Y57816D01*
X126957Y58020D01*
X127243Y58256D01*
X127415Y58523D01*
X127472Y58822D01*
Y55520D01*
X133980D01*
Y63908D01*
D02*
G37*
G36*
X329590Y71230D02*
X316410D01*
Y68500D01*
X316607Y67509D01*
X317169Y66669D01*
X318009Y66107D01*
X318112Y66087D01*
X318357Y65706D01*
X318671Y64446D01*
X317752Y63072D01*
X317558Y62942D01*
X317116Y62280D01*
X316961Y61500D01*
Y53500D01*
X317116Y52720D01*
X317558Y52058D01*
X318220Y51616D01*
X319000Y51461D01*
X327000D01*
X327780Y51616D01*
X328442Y52058D01*
X328884Y52720D01*
X329039Y53500D01*
Y58849D01*
X329367Y60500D01*
X328902Y62841D01*
X327771Y64534D01*
X327899Y65448D01*
X327975Y65761D01*
X328174Y66230D01*
X328831Y66669D01*
X329393Y67509D01*
X329590Y68500D01*
Y71230D01*
D02*
G37*
G36*
X345590D02*
X332410D01*
Y68500D01*
X332607Y67509D01*
X333169Y66669D01*
X334009Y66107D01*
X334112Y66087D01*
X334357Y65706D01*
X334671Y64446D01*
X333752Y63071D01*
X333558Y62942D01*
X333116Y62280D01*
X332961Y61500D01*
Y53500D01*
X333116Y52720D01*
X333558Y52058D01*
X334220Y51616D01*
X335000Y51461D01*
X343000D01*
X343780Y51616D01*
X344442Y52058D01*
X344884Y52720D01*
X345039Y53500D01*
Y58850D01*
X345368Y60500D01*
X344902Y62841D01*
X343771Y64534D01*
X343899Y65449D01*
X343975Y65761D01*
X344174Y66230D01*
X344831Y66669D01*
X345393Y67509D01*
X345590Y68500D01*
Y71230D01*
D02*
G37*
G36*
X139750Y63908D02*
X136520D01*
Y55520D01*
X145908D01*
Y57750D01*
X145440Y60107D01*
X144105Y62105D01*
X142107Y63439D01*
X139750Y63908D01*
D02*
G37*
G36*
X97918Y225960D02*
X97230Y225063D01*
X96218Y222621D01*
X95873Y220000D01*
X96218Y217379D01*
X97230Y214937D01*
X97918Y214040D01*
X103879Y220000D01*
X97918Y225960D01*
D02*
G37*
G36*
X195839Y63908D02*
X194750D01*
X192393Y63439D01*
X190395Y62105D01*
X189060Y60107D01*
X188592Y57750D01*
Y55520D01*
X197980D01*
Y60856D01*
X193262D01*
X193829Y60932D01*
X194338Y61160D01*
X194786Y61539D01*
X195174Y62071D01*
X195503Y62754D01*
X195772Y63590D01*
X195839Y63908D01*
D02*
G37*
G36*
X203750D02*
X202661D01*
X202728Y63590D01*
X202997Y62754D01*
X203326Y62071D01*
X203714Y61539D01*
X204163Y61160D01*
X204671Y60932D01*
X205238Y60856D01*
X200520D01*
Y55520D01*
X209908D01*
Y57750D01*
X209440Y60107D01*
X208105Y62105D01*
X206107Y63439D01*
X203750Y63908D01*
D02*
G37*
G36*
X537918Y265960D02*
X537230Y265063D01*
X536218Y262621D01*
X535873Y260000D01*
X536218Y257379D01*
X537230Y254937D01*
X537918Y254040D01*
X543879Y260000D01*
X537918Y265960D01*
D02*
G37*
G36*
X184879Y55230D02*
X181520D01*
Y47374D01*
X182022Y47473D01*
X183523Y48477D01*
X184527Y49979D01*
X184879Y51750D01*
Y55230D01*
D02*
G37*
G36*
X337730Y79090D02*
X335000D01*
X334009Y78893D01*
X333169Y78331D01*
X332607Y77491D01*
X332410Y76500D01*
Y73770D01*
X337730D01*
Y79090D01*
D02*
G37*
G36*
X564082Y265960D02*
X558121Y260000D01*
X564082Y254040D01*
X564770Y254937D01*
X565782Y257379D01*
X566127Y260000D01*
X565782Y262621D01*
X564770Y265063D01*
X564082Y265960D01*
D02*
G37*
G36*
X130855Y175730D02*
X119535D01*
Y166000D01*
X119732Y165009D01*
X120294Y164169D01*
X121134Y163607D01*
X122125Y163410D01*
X130855D01*
Y175730D01*
D02*
G37*
G36*
X144715D02*
X133395D01*
Y163410D01*
X142125D01*
X143116Y163607D01*
X143956Y164169D01*
X144518Y165009D01*
X144715Y166000D01*
Y175730D01*
D02*
G37*
G36*
X133980Y52980D02*
X127472D01*
Y49678D01*
X127415Y49977D01*
X127243Y50244D01*
X126957Y50480D01*
X126556Y50684D01*
X126041Y50857D01*
X125412Y50999D01*
X124668Y51108D01*
X124592Y51115D01*
Y50750D01*
X125061Y48393D01*
X126395Y46395D01*
X128393Y45061D01*
X130750Y44592D01*
X131501D01*
X131352Y45299D01*
X131128Y46000D01*
X130854Y46578D01*
X130531Y47031D01*
X130157Y47359D01*
X129734Y47564D01*
X129262Y47644D01*
X133980Y47473D01*
Y52980D01*
D02*
G37*
G36*
X327000Y79090D02*
X324270D01*
Y73770D01*
X329590D01*
Y76500D01*
X329393Y77491D01*
X328831Y78331D01*
X327991Y78893D01*
X327000Y79090D01*
D02*
G37*
G36*
X240083Y371129D02*
X234123Y365168D01*
X235020Y364480D01*
X237462Y363468D01*
X238306Y363357D01*
X238276Y363708D01*
X238102Y364652D01*
X237879Y365438D01*
X237605Y366065D01*
X237282Y366534D01*
X236909Y366844D01*
X236487Y366996D01*
X236014Y366990D01*
X243017Y368195D01*
X240083Y371129D01*
D02*
G37*
G36*
X508250D02*
X502290Y365168D01*
X503187Y364480D01*
X505629Y363468D01*
X508250Y363123D01*
X510871Y363468D01*
X513313Y364480D01*
X514210Y365168D01*
X508250Y371129D01*
D02*
G37*
G36*
X362000Y46039D02*
X361220Y45884D01*
X360558Y45442D01*
X360558Y45442D01*
X351155Y36039D01*
X334000D01*
X333220Y35884D01*
X332558Y35442D01*
X332116Y34780D01*
X331961Y34000D01*
Y17000D01*
X332116Y16220D01*
X332259Y16005D01*
X332316Y15720D01*
X332758Y15058D01*
X333420Y14616D01*
X334200Y14461D01*
X351200D01*
X351980Y14616D01*
X352496Y14961D01*
X383000D01*
X383000Y14961D01*
X383780Y15116D01*
X384442Y15558D01*
X388442Y19558D01*
X388884Y20220D01*
X389039Y21000D01*
X389039Y44000D01*
X388884Y44780D01*
X388442Y45442D01*
X387780Y45884D01*
X387000Y46039D01*
X362000Y46039D01*
D02*
G37*
G36*
X113250Y190039D02*
X91500D01*
X90720Y189884D01*
X90058Y189442D01*
X90058Y189442D01*
X75558Y174942D01*
X75116Y174280D01*
X74961Y173500D01*
Y153461D01*
X74940Y153300D01*
X74961Y153139D01*
Y151500D01*
X75116Y150720D01*
X75558Y150058D01*
X76015Y149601D01*
X76353Y149160D01*
X75613Y147660D01*
X44850D01*
X43023Y147420D01*
X41320Y146714D01*
X39858Y145592D01*
X24008Y129742D01*
X22886Y128280D01*
X22180Y126577D01*
X21940Y124750D01*
Y46763D01*
X21839Y43264D01*
X21693Y41576D01*
X21492Y40141D01*
X21247Y38989D01*
X20978Y38142D01*
X20731Y37629D01*
X20627Y37496D01*
X20478Y37466D01*
X20476Y37465D01*
X20070Y37384D01*
X19408Y36942D01*
X18966Y36280D01*
X18882Y35860D01*
X18882Y35858D01*
Y35856D01*
X18811Y35500D01*
Y18500D01*
X18966Y17720D01*
X19408Y17058D01*
X20070Y16616D01*
X20850Y16461D01*
X24731D01*
Y16200D01*
X25003Y14834D01*
X25777Y13677D01*
X28727Y10727D01*
X29884Y9953D01*
X31250Y9681D01*
X73250D01*
X74616Y9953D01*
X75773Y10727D01*
X79123Y14076D01*
X79308Y14058D01*
X79970Y13616D01*
X80750Y13461D01*
X88750D01*
X89530Y13616D01*
X90192Y14058D01*
X90634Y14720D01*
X90789Y15500D01*
Y15848D01*
X90793Y15849D01*
X91593Y15931D01*
X95246D01*
X95527Y15911D01*
X95923Y15856D01*
X95961Y15848D01*
Y15500D01*
X96116Y14720D01*
X96558Y14058D01*
X97220Y13616D01*
X98000Y13461D01*
X106000D01*
X106780Y13616D01*
X107442Y14058D01*
X107884Y14720D01*
X108039Y15500D01*
Y23500D01*
X107884Y24280D01*
X107442Y24942D01*
X106780Y25384D01*
X106000Y25539D01*
X98000D01*
X97220Y25384D01*
X96558Y24942D01*
X96116Y24280D01*
X95961Y23500D01*
Y23152D01*
X95957Y23151D01*
X95157Y23069D01*
X91504D01*
X91223Y23089D01*
X90827Y23144D01*
X90789Y23152D01*
Y23500D01*
X90634Y24280D01*
X90192Y24942D01*
X89530Y25384D01*
X88750Y25539D01*
X80750D01*
X79970Y25384D01*
X79308Y24942D01*
X78866Y24280D01*
X78711Y23500D01*
Y22912D01*
X78134Y22797D01*
X76977Y22023D01*
X71772Y16819D01*
X61193D01*
X60684Y18319D01*
X62239Y19511D01*
X63922Y21705D01*
X64980Y24259D01*
X65341Y27000D01*
X64980Y29741D01*
X63922Y32295D01*
X62239Y34489D01*
X61788Y34834D01*
X61787Y34836D01*
X61453Y35185D01*
X61223Y35520D01*
X60979Y36001D01*
X60742Y36633D01*
X60526Y37412D01*
X60339Y38336D01*
X60192Y39375D01*
X60012Y41940D01*
X60010Y42027D01*
Y48906D01*
X68170Y49431D01*
X79496D01*
X79777Y49411D01*
X80173Y49356D01*
X80211Y49348D01*
Y48500D01*
X80366Y47720D01*
X80808Y47058D01*
X81470Y46616D01*
X82250Y46461D01*
X90750D01*
X91530Y46616D01*
X92098Y46995D01*
X92168Y47035D01*
X93000Y47049D01*
X93833Y47035D01*
X93903Y46995D01*
X94470Y46616D01*
X95250Y46461D01*
X95844D01*
X95849Y46439D01*
X95932Y45649D01*
Y42500D01*
X96203Y41134D01*
X96454Y40759D01*
X96343Y40380D01*
X95674Y39274D01*
X95589Y39258D01*
X93511Y39088D01*
X93078D01*
X91853Y39163D01*
X91210Y39248D01*
X90710Y39348D01*
X90559Y39393D01*
X90192Y39942D01*
X89530Y40384D01*
X89084Y40473D01*
X89083Y40473D01*
X89083D01*
X88750Y40539D01*
X80750D01*
X79970Y40384D01*
X79308Y39942D01*
X78866Y39280D01*
X78711Y38500D01*
Y30500D01*
X78866Y29720D01*
X79308Y29058D01*
X79970Y28616D01*
X80750Y28461D01*
X88750D01*
X89083Y28527D01*
X89083D01*
X89084Y28527D01*
X89530Y28616D01*
X90192Y29058D01*
X90559Y29607D01*
X90710Y29652D01*
X91161Y29743D01*
X93239Y29912D01*
X93672D01*
X94897Y29837D01*
X95540Y29752D01*
X96040Y29652D01*
X96191Y29607D01*
X96558Y29058D01*
X97220Y28616D01*
X97666Y28527D01*
X97667Y28527D01*
X97667D01*
X98000Y28461D01*
X106000D01*
X106780Y28616D01*
X107442Y29058D01*
X107884Y29720D01*
X108039Y30500D01*
Y38500D01*
X107884Y39280D01*
X107442Y39942D01*
X106780Y40384D01*
X106000Y40539D01*
X105461D01*
X105297Y41366D01*
X104523Y42523D01*
X103069Y43978D01*
Y45738D01*
X103089Y46013D01*
X103143Y46405D01*
X103156Y46461D01*
X103750D01*
X104530Y46616D01*
X105192Y47058D01*
X105634Y47720D01*
X105789Y48500D01*
Y58000D01*
X105634Y58780D01*
X105192Y59442D01*
X104530Y59884D01*
X103750Y60039D01*
X95250D01*
X94470Y59884D01*
X93903Y59505D01*
X93833Y59465D01*
X93000Y59451D01*
X92168Y59465D01*
X92098Y59505D01*
X91530Y59884D01*
X90750Y60039D01*
X82250D01*
X81470Y59884D01*
X80808Y59442D01*
X80366Y58780D01*
X80211Y58000D01*
Y56652D01*
X80207Y56651D01*
X79407Y56569D01*
X69397D01*
X64288Y56680D01*
X61184Y56925D01*
X60032Y57083D01*
X60010Y57087D01*
Y102275D01*
X65875Y108140D01*
X92000D01*
X93827Y108380D01*
X95530Y109086D01*
X96993Y110208D01*
X98115Y111670D01*
X98820Y113373D01*
X99060Y115200D01*
X98820Y117027D01*
X98115Y118730D01*
X96993Y120192D01*
X96455Y120605D01*
Y122495D01*
X96993Y122908D01*
X98115Y124370D01*
X98820Y126073D01*
X98910Y126760D01*
X99538Y126719D01*
X99080Y141751D01*
X98910Y141740D01*
X98820Y142427D01*
X98115Y144130D01*
X97999Y144281D01*
X98167Y145230D01*
X98540Y146040D01*
X98942Y146308D01*
X98942Y146308D01*
X114942Y162308D01*
X115384Y162970D01*
X115539Y163750D01*
Y187750D01*
X115539Y187750D01*
X115384Y188530D01*
X114942Y189192D01*
X114942Y189192D01*
X114692Y189442D01*
X114030Y189884D01*
X113250Y190039D01*
D02*
G37*
G36*
X321730Y79090D02*
X319000D01*
X318009Y78893D01*
X317169Y78331D01*
X316607Y77491D01*
X316410Y76500D01*
Y73770D01*
X321730D01*
Y79090D01*
D02*
G37*
G36*
X154874Y113930D02*
X145520D01*
Y109076D01*
X150500D01*
X152174Y109409D01*
X153593Y110357D01*
X154541Y111776D01*
X154874Y113450D01*
Y113930D01*
D02*
G37*
G36*
X457480Y212730D02*
X446160D01*
Y208000D01*
X446357Y207009D01*
X446919Y206169D01*
X447759Y205607D01*
X448750Y205410D01*
X457480D01*
Y212730D01*
D02*
G37*
G36*
X471340D02*
X460020D01*
Y205410D01*
X468750D01*
X469741Y205607D01*
X470581Y206169D01*
X471143Y207009D01*
X471340Y208000D01*
Y212730D01*
D02*
G37*
G36*
X240083Y393377D02*
X237462Y393032D01*
X235020Y392020D01*
X234123Y391332D01*
X240083Y385371D01*
X246044Y391332D01*
X245147Y392020D01*
X242704Y393032D01*
X240083Y393377D01*
D02*
G37*
G36*
X508250D02*
X505629Y393032D01*
X503187Y392020D01*
X502290Y391332D01*
X508250Y385371D01*
X514210Y391332D01*
X513313Y392020D01*
X510871Y393032D01*
X508250Y393377D01*
D02*
G37*
G36*
X548250Y392832D02*
X545770Y392505D01*
X543459Y391548D01*
X541474Y390025D01*
X539952Y388041D01*
X538994Y385730D01*
X537505D01*
X536548Y388041D01*
X535025Y390025D01*
X533041Y391548D01*
X530730Y392505D01*
X528250Y392832D01*
X525770Y392505D01*
X523459Y391548D01*
X521474Y390025D01*
X519952Y388041D01*
X519354Y386598D01*
X517730D01*
X517020Y388313D01*
X516332Y389210D01*
X509311Y382189D01*
X508250Y383250D01*
X507189Y382189D01*
X500168Y389210D01*
X499480Y388313D01*
X498769Y386598D01*
X497146D01*
X496548Y388041D01*
X495025Y390025D01*
X493041Y391548D01*
X490730Y392505D01*
X488250Y392832D01*
X485770Y392505D01*
X483459Y391548D01*
X481474Y390025D01*
X479952Y388041D01*
X478994Y385730D01*
X478668Y383250D01*
Y373250D01*
X478994Y370770D01*
X479952Y368459D01*
X481474Y366474D01*
X483395Y365001D01*
X483530Y364497D01*
X483707Y363480D01*
X483902Y361016D01*
Y314000D01*
X484290Y312049D01*
X485395Y310395D01*
X492948Y302842D01*
X493159Y302610D01*
X493348Y301659D01*
X494674Y299674D01*
X496659Y298348D01*
X499000Y297882D01*
X501341Y298348D01*
X503326Y299674D01*
X504652Y301659D01*
X505118Y304000D01*
X504652Y306341D01*
X503326Y308326D01*
X501341Y309652D01*
X500519Y309815D01*
X498907Y311303D01*
X494098Y316112D01*
Y361329D01*
X494155Y363049D01*
X494291Y364441D01*
X494478Y365635D01*
X494599Y366147D01*
X495025Y366474D01*
X496548Y368459D01*
X497146Y369902D01*
X498769D01*
X499480Y368187D01*
X500168Y367290D01*
X507189Y374311D01*
X508250Y373250D01*
X509311Y374311D01*
X516332Y367290D01*
X517020Y368187D01*
X517730Y369902D01*
X519354D01*
X519952Y368459D01*
X521474Y366474D01*
X523459Y364952D01*
X525770Y363994D01*
X528250Y363668D01*
X530730Y363994D01*
X533041Y364952D01*
X535025Y366474D01*
X536548Y368459D01*
X537505Y370770D01*
X538994D01*
X539952Y368459D01*
X541474Y366474D01*
X543459Y364952D01*
X545770Y363994D01*
X548250Y363668D01*
X550730Y363994D01*
X553041Y364952D01*
X555025Y366474D01*
X556548Y368459D01*
X557505Y370770D01*
X557832Y373250D01*
Y383250D01*
X557505Y385730D01*
X556548Y388041D01*
X555025Y390025D01*
X553041Y391548D01*
X550730Y392505D01*
X548250Y392832D01*
D02*
G37*
G36*
X444167D02*
X441687Y392505D01*
X439376Y391548D01*
X437391Y390025D01*
X435868Y388041D01*
X434911Y385730D01*
X433422D01*
X432465Y388041D01*
X430942Y390025D01*
X428958Y391548D01*
X426647Y392505D01*
X424167Y392832D01*
X421687Y392505D01*
X419376Y391548D01*
X417391Y390025D01*
X415868Y388041D01*
X414911Y385730D01*
X413422D01*
X412465Y388041D01*
X410942Y390025D01*
X408958Y391548D01*
X406647Y392505D01*
X404167Y392832D01*
X401687Y392505D01*
X399376Y391548D01*
X397391Y390025D01*
X395868Y388041D01*
X394911Y385730D01*
X393422D01*
X392465Y388041D01*
X390942Y390025D01*
X388958Y391548D01*
X386647Y392505D01*
X384167Y392832D01*
X381687Y392505D01*
X379376Y391548D01*
X377391Y390025D01*
X375868Y388041D01*
X374911Y385730D01*
X373422D01*
X372465Y388041D01*
X370942Y390025D01*
X368958Y391548D01*
X366647Y392505D01*
X364167Y392832D01*
X361687Y392505D01*
X359376Y391548D01*
X357391Y390025D01*
X355868Y388041D01*
X354911Y385730D01*
X354585Y383250D01*
Y373300D01*
X354441Y373060D01*
X354244Y372781D01*
X353692Y372129D01*
X341157Y359593D01*
X340439Y358518D01*
X340186Y357250D01*
Y325460D01*
X338801Y324886D01*
X324314Y339372D01*
Y363865D01*
X324331Y364132D01*
X324377Y364517D01*
X324425Y364766D01*
X324874Y364952D01*
X326859Y366474D01*
X328382Y368459D01*
X329339Y370770D01*
X329665Y373250D01*
Y383250D01*
X329339Y385730D01*
X328382Y388041D01*
X326859Y390025D01*
X324874Y391548D01*
X322563Y392505D01*
X320083Y392832D01*
X317603Y392505D01*
X315292Y391548D01*
X313308Y390025D01*
X311785Y388041D01*
X310828Y385730D01*
X309339D01*
X308382Y388041D01*
X306859Y390025D01*
X304874Y391548D01*
X302563Y392505D01*
X300083Y392832D01*
X297603Y392505D01*
X295292Y391548D01*
X293308Y390025D01*
X291785Y388041D01*
X290828Y385730D01*
X289339D01*
X288382Y388041D01*
X286859Y390025D01*
X284874Y391548D01*
X282563Y392505D01*
X280083Y392832D01*
X277603Y392505D01*
X275292Y391548D01*
X273308Y390025D01*
X271785Y388041D01*
X270828Y385730D01*
X269339D01*
X268382Y388041D01*
X266859Y390025D01*
X264874Y391548D01*
X262563Y392505D01*
X260083Y392832D01*
X257603Y392505D01*
X255292Y391548D01*
X253308Y390025D01*
X251785Y388041D01*
X251187Y386598D01*
X249564D01*
X248853Y388313D01*
X248165Y389210D01*
X241144Y382189D01*
X240083Y383250D01*
X239023Y382189D01*
X232002Y389210D01*
X231313Y388313D01*
X230302Y385871D01*
X229957Y383250D01*
Y373250D01*
X230302Y370629D01*
X231313Y368187D01*
X232002Y367290D01*
X239023Y374311D01*
X240083Y373250D01*
X241144Y374311D01*
X248165Y367290D01*
X248853Y368187D01*
X249564Y369902D01*
X251187D01*
X251785Y368459D01*
X253308Y366474D01*
X255292Y364952D01*
X257603Y363994D01*
X260083Y363668D01*
X262563Y363994D01*
X264874Y364952D01*
X266859Y366474D01*
X268382Y368459D01*
X269339Y370770D01*
X270828D01*
X271785Y368459D01*
X273308Y366474D01*
X275292Y364952D01*
X277603Y363994D01*
X277635Y363990D01*
X277686Y363444D01*
Y343000D01*
X277939Y341732D01*
X278657Y340657D01*
X286657Y332657D01*
X287732Y331939D01*
X288360Y331814D01*
X288212Y330314D01*
X216373D01*
X199314Y347373D01*
Y363626D01*
X199331Y363888D01*
X199377Y364260D01*
X199400Y364375D01*
X200791Y364952D01*
X202775Y366474D01*
X204298Y368459D01*
X205256Y370770D01*
X205582Y373250D01*
Y383250D01*
X205256Y385730D01*
X204298Y388041D01*
X202775Y390025D01*
X200791Y391548D01*
X198480Y392505D01*
X196000Y392832D01*
X193520Y392505D01*
X191209Y391548D01*
X189225Y390025D01*
X187702Y388041D01*
X186745Y385730D01*
X185256D01*
X184298Y388041D01*
X182775Y390025D01*
X180791Y391548D01*
X178480Y392505D01*
X176000Y392832D01*
X173520Y392505D01*
X171209Y391548D01*
X169225Y390025D01*
X167702Y388041D01*
X166745Y385730D01*
X165256D01*
X164298Y388041D01*
X162775Y390025D01*
X160791Y391548D01*
X158480Y392505D01*
X156000Y392832D01*
X153520Y392505D01*
X151209Y391548D01*
X149225Y390025D01*
X147702Y388041D01*
X146745Y385730D01*
X145255D01*
X144298Y388041D01*
X142775Y390025D01*
X140791Y391548D01*
X138480Y392505D01*
X136000Y392832D01*
X133520Y392505D01*
X131209Y391548D01*
X129225Y390025D01*
X127702Y388041D01*
X126745Y385730D01*
X125255D01*
X124298Y388041D01*
X122775Y390025D01*
X120791Y391548D01*
X118480Y392505D01*
X116000Y392832D01*
X113520Y392505D01*
X111209Y391548D01*
X109225Y390025D01*
X107702Y388041D01*
X106744Y385730D01*
X106418Y383250D01*
Y373250D01*
X106744Y370770D01*
X107702Y368459D01*
X109225Y366474D01*
X111209Y364952D01*
X113520Y363994D01*
X116000Y363668D01*
X118480Y363994D01*
X120791Y364952D01*
X122775Y366474D01*
X124298Y368459D01*
X125255Y370770D01*
X126745D01*
X127702Y368459D01*
X129225Y366474D01*
X131209Y364952D01*
X133520Y363994D01*
X136000Y363668D01*
X138480Y363994D01*
X140791Y364952D01*
X142775Y366474D01*
X144298Y368459D01*
X145255Y370770D01*
X146745D01*
X147702Y368459D01*
X149225Y366474D01*
X151209Y364952D01*
X153520Y363994D01*
X156000Y363668D01*
X158480Y363994D01*
X160791Y364952D01*
X162775Y366474D01*
X164298Y368459D01*
X165256Y370770D01*
X166745D01*
X167702Y368459D01*
X169225Y366474D01*
X171209Y364952D01*
X172601Y364375D01*
X172617Y364290D01*
X172686Y363544D01*
Y353500D01*
X172939Y352232D01*
X173657Y351157D01*
X204657Y320157D01*
X205732Y319439D01*
X207000Y319186D01*
X305128D01*
X308214Y316099D01*
X307593Y314599D01*
X307590D01*
X306408Y314364D01*
X305514Y313767D01*
X305382Y313855D01*
X304410Y314049D01*
X302590D01*
X301618Y313855D01*
X300795Y313305D01*
X300245Y312481D01*
X300051Y311510D01*
Y294771D01*
X299452Y294011D01*
X298751Y293449D01*
X281990D01*
X281019Y293256D01*
X280195Y292705D01*
X279645Y291882D01*
X279451Y290910D01*
Y289090D01*
X279645Y288118D01*
X280058Y287500D01*
X279645Y286882D01*
X279451Y285910D01*
Y284090D01*
X279645Y283118D01*
X280058Y282500D01*
X279645Y281882D01*
X279451Y280910D01*
Y279090D01*
X279645Y278118D01*
X280058Y277500D01*
X279645Y276882D01*
X279451Y275910D01*
Y274090D01*
X279645Y273118D01*
X280058Y272500D01*
X279645Y271882D01*
X279451Y270910D01*
Y269090D01*
X278076Y268314D01*
X274373D01*
X261390Y281296D01*
X261420Y281469D01*
X261521Y281879D01*
X261651Y282286D01*
X261812Y282691D01*
X262004Y283096D01*
X262230Y283501D01*
X262490Y283908D01*
X262820Y284362D01*
X262896Y284528D01*
X263652Y285659D01*
X264118Y288000D01*
X263652Y290341D01*
X262326Y292326D01*
X260341Y293652D01*
X258000Y294118D01*
X255659Y293652D01*
X253674Y292326D01*
X252568Y290670D01*
X251361Y290467D01*
X250857Y290531D01*
X250326Y291326D01*
X248341Y292652D01*
X246000Y293118D01*
X243659Y292652D01*
X241674Y291326D01*
X240348Y289341D01*
X239883Y287000D01*
X240348Y284659D01*
X241104Y283528D01*
X241180Y283362D01*
X241510Y282908D01*
X241770Y282501D01*
X241996Y282095D01*
X242188Y281691D01*
X242349Y281286D01*
X242479Y280879D01*
X242580Y280469D01*
X242652Y280054D01*
X242686Y279717D01*
Y277000D01*
X242939Y275732D01*
X243657Y274657D01*
X258359Y259954D01*
X257785Y258569D01*
X240478D01*
X236523Y262523D01*
X235366Y263297D01*
X234000Y263569D01*
X126006D01*
X125658Y263591D01*
X125171Y263650D01*
X124804Y263721D01*
X124733Y263742D01*
X124724Y263764D01*
X124723Y263766D01*
X124722Y263768D01*
X124298Y264791D01*
X122775Y266775D01*
X120791Y268298D01*
X118480Y269256D01*
X116000Y269582D01*
X106000D01*
X103520Y269256D01*
X101209Y268298D01*
X99225Y266775D01*
X97702Y264791D01*
X96744Y262480D01*
X96418Y260000D01*
X96744Y257520D01*
X97702Y255209D01*
X99225Y253225D01*
X101209Y251702D01*
X103520Y250745D01*
Y249256D01*
X101209Y248298D01*
X99225Y246775D01*
X97702Y244791D01*
X96744Y242480D01*
X96418Y240000D01*
X96744Y237520D01*
X97702Y235209D01*
X99225Y233225D01*
X101209Y231702D01*
X102652Y231104D01*
Y229480D01*
X100937Y228770D01*
X100040Y228082D01*
X107061Y221061D01*
X106000Y220000D01*
X107061Y218939D01*
X100040Y211918D01*
X100937Y211230D01*
X103379Y210218D01*
X106000Y209873D01*
X116000D01*
X118621Y210218D01*
X121063Y211230D01*
X121960Y211918D01*
X114939Y218939D01*
X116000Y220000D01*
X114939Y221061D01*
X121960Y228082D01*
X121063Y228770D01*
X119348Y229480D01*
Y231104D01*
X120791Y231702D01*
X122775Y233225D01*
X124102Y234953D01*
X124685Y235111D01*
X125479Y235252D01*
X127412Y235412D01*
X128099D01*
X160412Y203099D01*
Y162164D01*
X160405Y161995D01*
X160310Y161067D01*
X160258Y160754D01*
X160202Y160510D01*
X160158Y160368D01*
X160148Y160345D01*
X160102Y160271D01*
X160055Y160149D01*
X159348Y159091D01*
X159109Y157888D01*
X155829D01*
X154468Y157971D01*
X153229Y158127D01*
X152810Y158211D01*
X152497Y158297D01*
X152328Y158362D01*
X152147Y158460D01*
X152145Y158461D01*
X151963Y158582D01*
X151391Y158696D01*
X151387Y158697D01*
X151386Y158697D01*
X150500Y158873D01*
X138000D01*
X136537Y158582D01*
X135296Y157754D01*
X134468Y156513D01*
X134177Y155050D01*
Y151550D01*
X134468Y150087D01*
X135296Y148846D01*
X136537Y148018D01*
X138000Y147727D01*
X150500D01*
X151386Y147903D01*
X151387Y147902D01*
X151391Y147904D01*
X151963Y148018D01*
X152145Y148139D01*
X152147Y148140D01*
X152328Y148238D01*
X152462Y148289D01*
X153282Y148482D01*
X153757Y148553D01*
X156388Y148712D01*
X161550D01*
X163306Y149061D01*
X164497Y149857D01*
X165453Y148692D01*
X161950Y145188D01*
X155829D01*
X154468Y145271D01*
X153229Y145427D01*
X152810Y145511D01*
X152497Y145597D01*
X152328Y145661D01*
X152147Y145760D01*
X152145Y145761D01*
X151963Y145882D01*
X151391Y145996D01*
X151387Y145997D01*
X151386Y145997D01*
X150500Y146173D01*
X138000D01*
X136537Y145882D01*
X135296Y145054D01*
X134468Y143813D01*
X134177Y142350D01*
Y138850D01*
X134468Y137387D01*
X135296Y136146D01*
X136537Y135318D01*
X138000Y135027D01*
X150500D01*
X151386Y135203D01*
X151387Y135203D01*
X151391Y135204D01*
X151963Y135318D01*
X152145Y135439D01*
X152147Y135440D01*
X152328Y135539D01*
X152462Y135589D01*
X153282Y135782D01*
X153757Y135852D01*
X156388Y136012D01*
X163850D01*
X165606Y136361D01*
X167094Y137356D01*
X185151Y155412D01*
X193768D01*
X194252Y155380D01*
X195019Y155286D01*
X195628Y155165D01*
X196065Y155032D01*
X196273Y154939D01*
X196366Y154470D01*
X196808Y153808D01*
X197470Y153366D01*
X198250Y153211D01*
Y151789D01*
X197470Y151634D01*
X196808Y151192D01*
X196366Y150530D01*
X196273Y150061D01*
X196065Y149968D01*
X195628Y149835D01*
X195050Y149720D01*
X193619Y149588D01*
X186000D01*
X184244Y149239D01*
X182756Y148244D01*
X166999Y132488D01*
X155829D01*
X154468Y132571D01*
X153229Y132727D01*
X152810Y132811D01*
X152497Y132897D01*
X152328Y132962D01*
X152147Y133060D01*
X152145Y133061D01*
X151963Y133182D01*
X151391Y133296D01*
X151387Y133297D01*
X151386Y133297D01*
X150500Y133473D01*
X138000D01*
X136537Y133182D01*
X135296Y132354D01*
X134468Y131113D01*
X134177Y129650D01*
Y126150D01*
X134468Y124687D01*
X135296Y123446D01*
X136537Y122618D01*
X136676Y122590D01*
Y121061D01*
X136326Y120991D01*
X134907Y120043D01*
X133959Y118624D01*
X133626Y116950D01*
Y116470D01*
X144250D01*
X154874D01*
Y116950D01*
X154541Y118624D01*
X153593Y120043D01*
X152174Y120991D01*
X151825Y121061D01*
Y122590D01*
X151963Y122618D01*
X152145Y122739D01*
X152147Y122740D01*
X152328Y122838D01*
X152462Y122889D01*
X153282Y123082D01*
X153757Y123153D01*
X156388Y123312D01*
X168900D01*
X170656Y123661D01*
X172144Y124656D01*
X187901Y140412D01*
X193768D01*
X194252Y140380D01*
X195019Y140286D01*
X195628Y140165D01*
X196065Y140032D01*
X196273Y139939D01*
X196366Y139470D01*
X196808Y138808D01*
X197470Y138366D01*
X198250Y138211D01*
X206750D01*
X207530Y138366D01*
X208098Y138745D01*
X208168Y138785D01*
X209000Y138799D01*
X209832Y138785D01*
X209902Y138745D01*
X210470Y138366D01*
X211250Y138211D01*
X219750D01*
X220530Y138366D01*
X221192Y138808D01*
X221634Y139470D01*
X221789Y140250D01*
Y143517D01*
X221813Y143596D01*
X221895Y143802D01*
X222015Y144041D01*
X222177Y144309D01*
X222368Y144583D01*
X222854Y145168D01*
X229873Y152186D01*
X289114D01*
X289732Y152309D01*
X289853Y152333D01*
X290438Y150920D01*
X290364Y150871D01*
X289174Y150076D01*
X287848Y148091D01*
X287383Y145750D01*
X287848Y143409D01*
X288599Y142286D01*
X288672Y142123D01*
X288948Y141738D01*
X289157Y141398D01*
X289341Y141046D01*
X289501Y140677D01*
X288413Y139687D01*
X288341Y139652D01*
X286000Y140118D01*
X283659Y139652D01*
X281674Y138326D01*
X280348Y136341D01*
X280090Y135042D01*
X278590Y135190D01*
Y146500D01*
X278393Y147491D01*
X277831Y148331D01*
X276991Y148893D01*
X276000Y149090D01*
X269270D01*
Y129000D01*
X268000D01*
Y127730D01*
X257410D01*
Y111500D01*
X257607Y110509D01*
X258169Y109669D01*
X258319Y109569D01*
X257864Y108069D01*
X194487D01*
X193865Y109569D01*
X202800Y118503D01*
X203026Y118694D01*
X203390Y118965D01*
X203755Y119203D01*
X204121Y119409D01*
X204491Y119585D01*
X204865Y119732D01*
X205244Y119852D01*
X205632Y119944D01*
X206099Y120022D01*
X206266Y120084D01*
X207591Y120348D01*
X209576Y121674D01*
X210902Y123659D01*
X211367Y126000D01*
X210902Y128341D01*
X209576Y130326D01*
X207591Y131652D01*
X205250Y132118D01*
X202909Y131652D01*
X200924Y130326D01*
X199598Y128341D01*
X199335Y127016D01*
X199272Y126849D01*
X199194Y126382D01*
X199102Y125994D01*
X198982Y125615D01*
X198835Y125241D01*
X198659Y124872D01*
X198453Y124505D01*
X198215Y124140D01*
X197944Y123776D01*
X197753Y123550D01*
X151727Y77523D01*
X150953Y76366D01*
X150681Y75000D01*
Y64669D01*
X150657Y63880D01*
X150595Y63168D01*
X150566Y62964D01*
X150558Y62924D01*
X150482Y62811D01*
X150172Y61250D01*
Y51750D01*
X150482Y50189D01*
X151366Y48866D01*
X152689Y47982D01*
X154250Y47672D01*
X155811Y47982D01*
X156393Y48371D01*
X157500Y48743D01*
X158607Y48371D01*
X159189Y47982D01*
X160750Y47672D01*
X162311Y47982D01*
X162893Y48371D01*
X164000Y48743D01*
X165107Y48371D01*
X165689Y47982D01*
X167250Y47672D01*
X168811Y47982D01*
X169393Y48371D01*
X170500Y48743D01*
X171607Y48371D01*
X172189Y47982D01*
X173750Y47672D01*
X175311Y47982D01*
X175444Y48071D01*
X176977Y48477D01*
X178479Y47473D01*
X178980Y47374D01*
Y56500D01*
Y65626D01*
X178479Y65527D01*
X176977Y64523D01*
X175444Y64929D01*
X175311Y65018D01*
X173750Y65328D01*
X172324Y65045D01*
X172236Y65047D01*
X172121Y65062D01*
X170819Y65906D01*
Y69772D01*
X195978Y94931D01*
X257545D01*
X258217Y93431D01*
X258116Y93280D01*
X257961Y92500D01*
Y57500D01*
X258116Y56720D01*
X258558Y56058D01*
X259220Y55616D01*
X260000Y55461D01*
X276000D01*
X276780Y55616D01*
X277442Y56058D01*
X277884Y56720D01*
X278039Y57500D01*
Y57940D01*
X297000D01*
X298827Y58180D01*
X300530Y58885D01*
X301992Y60008D01*
X303114Y61470D01*
X303820Y63173D01*
X303922Y63949D01*
X303981Y64109D01*
X304014Y64315D01*
X304046Y64441D01*
X304093Y64580D01*
X304158Y64734D01*
X304245Y64901D01*
X304355Y65084D01*
X304475Y65257D01*
X304517Y65307D01*
X305105Y65895D01*
X306210Y67549D01*
X306598Y69500D01*
Y85138D01*
X308019Y86559D01*
X309520Y86240D01*
X309690Y86109D01*
X310058Y85558D01*
X310720Y85116D01*
X311500Y84961D01*
X325000D01*
X325780Y85116D01*
X326442Y85558D01*
X326884Y86220D01*
X327039Y87000D01*
Y88071D01*
X327190Y88188D01*
X327541Y88366D01*
X328096Y88554D01*
X328812Y88714D01*
X330375Y88876D01*
X330718Y88851D01*
X331654Y88722D01*
X332405Y88554D01*
X332959Y88366D01*
X333310Y88188D01*
X333461Y88071D01*
Y87000D01*
X333616Y86220D01*
X334058Y85558D01*
X334720Y85116D01*
X335500Y84961D01*
X349000D01*
X349780Y85116D01*
X350442Y85558D01*
X350884Y86220D01*
X351039Y87000D01*
Y92319D01*
X351193Y92437D01*
X351544Y92616D01*
X352099Y92804D01*
X352815Y92964D01*
X354624Y93152D01*
X383700D01*
X384024Y92695D01*
X384364Y91652D01*
X384116Y91280D01*
X383961Y90500D01*
Y71582D01*
X364000D01*
X361520Y71255D01*
X359209Y70298D01*
X357225Y68776D01*
X355702Y66791D01*
X354745Y64480D01*
X354418Y62000D01*
X354745Y59520D01*
X355702Y57209D01*
X357225Y55225D01*
X359209Y53702D01*
X361520Y52744D01*
X364000Y52418D01*
X435433D01*
X436228Y51228D01*
X437683Y50255D01*
X438150Y50162D01*
X438220Y50116D01*
X439000Y49961D01*
X439164D01*
X439400Y49914D01*
X454600D01*
X454836Y49961D01*
X498164D01*
X498400Y49914D01*
X513600D01*
X513836Y49961D01*
X515000D01*
X515780Y50116D01*
X516442Y50558D01*
X516884Y51220D01*
X516934Y51469D01*
X517745Y52683D01*
X518086Y54400D01*
Y55211D01*
X521402D01*
Y52547D01*
X521369Y52002D01*
X521260Y51046D01*
X521117Y50270D01*
X520954Y49689D01*
X520798Y49317D01*
X520749Y49239D01*
X520220Y49134D01*
X519558Y48692D01*
X519116Y48030D01*
X518961Y47250D01*
Y40514D01*
X517461Y39822D01*
X517039Y40181D01*
Y44000D01*
X516884Y44780D01*
X516442Y45442D01*
X515780Y45884D01*
X515000Y46039D01*
X409000D01*
X408220Y45884D01*
X407704Y45539D01*
X405000D01*
X404220Y45384D01*
X403558Y44942D01*
X403116Y44280D01*
X402961Y43500D01*
Y20500D01*
X403116Y19720D01*
X403558Y19058D01*
X404220Y18616D01*
X405000Y18461D01*
X428000D01*
X428780Y18616D01*
X429296Y18961D01*
X515000D01*
X515780Y19116D01*
X516442Y19558D01*
X516884Y20220D01*
X517039Y21000D01*
Y23954D01*
X518539Y24102D01*
X518607Y23759D01*
X519169Y22919D01*
X520009Y22357D01*
X521000Y22160D01*
X524730D01*
Y29250D01*
X526000D01*
Y30520D01*
X533590D01*
Y33750D01*
X533393Y34741D01*
X532978Y35362D01*
X532442Y36808D01*
X532884Y37470D01*
X533039Y38250D01*
Y47250D01*
X532884Y48030D01*
X532442Y48692D01*
X531971Y49007D01*
X531865Y49432D01*
X531763Y50046D01*
X531598Y52469D01*
Y55211D01*
X547500D01*
X548280Y55366D01*
X548942Y55808D01*
X574442Y81308D01*
X574884Y81970D01*
X575039Y82750D01*
X575039Y97155D01*
X586442Y108558D01*
X586884Y109220D01*
X587039Y110000D01*
Y117250D01*
X587039Y117250D01*
X586884Y118030D01*
X586442Y118692D01*
X586442Y118692D01*
X584180Y120954D01*
X584754Y122340D01*
X592676D01*
X601240Y113776D01*
Y65668D01*
X601190Y64217D01*
X600986Y62444D01*
X600659Y60942D01*
X600228Y59713D01*
X599714Y58750D01*
X599138Y58027D01*
X598498Y57499D01*
X597762Y57123D01*
X597748Y57119D01*
X593080Y56819D01*
X582504D01*
X582223Y56839D01*
X581827Y56894D01*
X581789Y56902D01*
Y58000D01*
X581634Y58780D01*
X581192Y59442D01*
X580530Y59884D01*
X579750Y60039D01*
X571250D01*
X570470Y59884D01*
X569902Y59505D01*
X569832Y59465D01*
X569000Y59451D01*
X568167Y59465D01*
X568098Y59505D01*
X567530Y59884D01*
X566750Y60039D01*
X558250D01*
X557470Y59884D01*
X556808Y59442D01*
X556366Y58780D01*
X556211Y58000D01*
Y48500D01*
X556366Y47720D01*
X556808Y47058D01*
X557470Y46616D01*
X557660Y46578D01*
X558198Y45188D01*
X558189Y44986D01*
X557477Y44273D01*
X556703Y43116D01*
X556431Y41750D01*
Y40929D01*
X556420Y40750D01*
X556394Y40539D01*
X556000D01*
X555220Y40384D01*
X554558Y39942D01*
X554116Y39280D01*
X553961Y38500D01*
Y30500D01*
X554116Y29720D01*
X554558Y29058D01*
X555220Y28616D01*
X556000Y28461D01*
X564000D01*
X564780Y28616D01*
X565442Y29058D01*
X565884Y29720D01*
X566039Y30500D01*
Y30848D01*
X566043Y30849D01*
X566843Y30931D01*
X570246D01*
X570527Y30911D01*
X570923Y30856D01*
X570961Y30848D01*
Y30500D01*
X571116Y29720D01*
X571558Y29058D01*
X572220Y28616D01*
X573000Y28461D01*
X581000D01*
X581780Y28616D01*
X582442Y29058D01*
X582884Y29720D01*
X583039Y30500D01*
Y38500D01*
X582884Y39280D01*
X582442Y39942D01*
X581780Y40384D01*
X581000Y40539D01*
X573000D01*
X572220Y40384D01*
X571558Y39942D01*
X571116Y39280D01*
X570961Y38500D01*
Y38152D01*
X570957Y38151D01*
X570157Y38069D01*
X566754D01*
X566473Y38089D01*
X566077Y38144D01*
X566039Y38152D01*
Y38500D01*
X565884Y39280D01*
X565442Y39942D01*
X565393Y39975D01*
X565048Y41610D01*
X565098Y41838D01*
X565797Y42884D01*
X566069Y44250D01*
Y45738D01*
X566089Y46013D01*
X566143Y46405D01*
X566156Y46461D01*
X566750D01*
X567530Y46616D01*
X568098Y46995D01*
X568167Y47035D01*
X569000Y47049D01*
X569832Y47035D01*
X569902Y46995D01*
X570470Y46616D01*
X571250Y46461D01*
X579750D01*
X580530Y46616D01*
X581192Y47058D01*
X581634Y47720D01*
X581789Y48500D01*
Y49598D01*
X581793Y49599D01*
X582593Y49681D01*
X591853D01*
X596962Y49570D01*
X597086Y49560D01*
X597762Y49377D01*
X598499Y49001D01*
X599138Y48473D01*
X599714Y47750D01*
X600228Y46787D01*
X600659Y45559D01*
X600986Y44056D01*
X601097Y43086D01*
X601002Y41545D01*
X600813Y40124D01*
X600579Y38965D01*
X600320Y38111D01*
X600082Y37591D01*
X600000Y37481D01*
X599908Y37462D01*
X599908Y37461D01*
X599520Y37384D01*
X598858Y36942D01*
X598416Y36280D01*
X598328Y35839D01*
X598328Y35838D01*
X598328Y35837D01*
X598261Y35500D01*
Y18500D01*
X598396Y17819D01*
X598393Y17682D01*
X597548Y16319D01*
X594728D01*
X589023Y22023D01*
X587866Y22797D01*
X586500Y23069D01*
X583754D01*
X583473Y23089D01*
X583077Y23144D01*
X583039Y23152D01*
Y23500D01*
X582884Y24280D01*
X582442Y24942D01*
X581780Y25384D01*
X581000Y25539D01*
X573000D01*
X572667Y25473D01*
X572667D01*
X572666Y25473D01*
X572220Y25384D01*
X571558Y24942D01*
X571191Y24393D01*
X571040Y24348D01*
X570589Y24258D01*
X568511Y24088D01*
X568328D01*
X567103Y24163D01*
X566460Y24248D01*
X565960Y24348D01*
X565809Y24393D01*
X565442Y24942D01*
X564780Y25384D01*
X564334Y25473D01*
X564333Y25473D01*
X564333D01*
X564000Y25539D01*
X556000D01*
X555220Y25384D01*
X554558Y24942D01*
X554116Y24280D01*
X553961Y23500D01*
Y15500D01*
X554116Y14720D01*
X554558Y14058D01*
X555220Y13616D01*
X556000Y13461D01*
X564000D01*
X564333Y13527D01*
X564333D01*
X564334Y13527D01*
X564780Y13616D01*
X565442Y14058D01*
X565809Y14607D01*
X565960Y14652D01*
X566411Y14742D01*
X568489Y14912D01*
X568672D01*
X569897Y14837D01*
X570540Y14752D01*
X571040Y14652D01*
X571191Y14607D01*
X571558Y14058D01*
X572220Y13616D01*
X572666Y13527D01*
X572667Y13527D01*
X572667D01*
X573000Y13461D01*
X581000D01*
X581780Y13616D01*
X582442Y14058D01*
X582884Y14720D01*
X583039Y15500D01*
Y15848D01*
X583043Y15849D01*
X583843Y15931D01*
X585022D01*
X590727Y10227D01*
X591884Y9453D01*
X593250Y9181D01*
X624000D01*
X625366Y9453D01*
X626523Y10227D01*
X628310Y12013D01*
X630013Y13383D01*
X630873Y13971D01*
X632868Y15125D01*
X633875Y15615D01*
X636166Y16546D01*
X636769Y16748D01*
X636941Y16770D01*
X637382Y16953D01*
X637385Y16954D01*
X637386Y16955D01*
X639495Y17828D01*
X641689Y19511D01*
X643372Y21705D01*
X644430Y24259D01*
X644791Y27000D01*
X644430Y29741D01*
X643372Y32295D01*
X642396Y33567D01*
X642344Y33682D01*
X642046Y34095D01*
X641825Y34511D01*
X641601Y35072D01*
X641389Y35774D01*
X641199Y36613D01*
X641044Y37543D01*
X640760Y41253D01*
Y130271D01*
X640520Y132098D01*
X639814Y133801D01*
X638692Y135263D01*
X614163Y159792D01*
X612701Y160914D01*
X610998Y161620D01*
X609170Y161860D01*
X569000D01*
X567173Y161620D01*
X565470Y160914D01*
X564008Y159792D01*
X562886Y158330D01*
X562180Y156627D01*
X562000Y155259D01*
Y154341D01*
X562180Y152973D01*
X562886Y151270D01*
X564008Y149808D01*
X564545Y149395D01*
Y147505D01*
X564008Y147093D01*
X562991Y145768D01*
X562422Y145747D01*
X562000Y145854D01*
Y138116D01*
X562013Y138123D01*
X563090Y138304D01*
X564008Y137108D01*
X565388Y136048D01*
X565476Y135942D01*
X565524Y134340D01*
X564796Y133854D01*
X563968Y132613D01*
X563676Y131150D01*
Y129775D01*
X563627Y129400D01*
X563676Y129025D01*
Y127650D01*
X563968Y126187D01*
X564796Y124946D01*
X565804Y124273D01*
X565887Y123996D01*
X565922Y123464D01*
X565684Y122526D01*
X565558Y122442D01*
X549601Y106485D01*
X549095Y106384D01*
X548433Y105942D01*
X547991Y105280D01*
X547836Y104500D01*
Y88720D01*
X543851Y84734D01*
X542465Y85308D01*
Y92230D01*
X529875D01*
X517285D01*
Y91674D01*
X515785Y90881D01*
X515780Y90884D01*
X515000Y91039D01*
X513836D01*
X513600Y91086D01*
X498400D01*
X498164Y91039D01*
X454836D01*
X454600Y91086D01*
X439400D01*
X439164Y91039D01*
X439000D01*
X438220Y90884D01*
X438150Y90838D01*
X437683Y90745D01*
X436228Y89772D01*
X435255Y88317D01*
X434914Y86600D01*
Y79400D01*
X435255Y77683D01*
X436228Y76228D01*
X436961Y75738D01*
Y71582D01*
X418037D01*
X416640Y71613D01*
X413695Y71829D01*
X411139Y72183D01*
X408986Y72666D01*
X407244Y73259D01*
X405921Y73931D01*
X405002Y74641D01*
X404428Y75357D01*
X404106Y76114D01*
X404039Y76634D01*
Y90500D01*
X403884Y91280D01*
X403636Y91652D01*
X403976Y92695D01*
X404300Y93152D01*
X484250D01*
X484274Y93157D01*
X488122Y93536D01*
X491845Y94665D01*
X495276Y96499D01*
X498283Y98967D01*
X500751Y101974D01*
X502585Y105405D01*
X503714Y109128D01*
X503729Y109278D01*
X504652Y110659D01*
X504941Y112112D01*
X506171D01*
X507532Y112029D01*
X508771Y111873D01*
X509190Y111789D01*
X509503Y111703D01*
X509672Y111639D01*
X509853Y111540D01*
X509855Y111539D01*
X510037Y111418D01*
X510609Y111304D01*
X510613Y111303D01*
X510614Y111303D01*
X511500Y111127D01*
X524000D01*
X525463Y111418D01*
X526703Y112246D01*
X527532Y113487D01*
X527823Y114950D01*
Y118450D01*
X527532Y119913D01*
X526703Y121154D01*
X525463Y121982D01*
X524000Y122274D01*
X511500D01*
X510614Y122097D01*
X510613Y122098D01*
X510609Y122096D01*
X510037Y121982D01*
X509855Y121861D01*
X509853Y121860D01*
X509672Y121762D01*
X509538Y121711D01*
X508717Y121518D01*
X508243Y121448D01*
X505612Y121288D01*
X502700D01*
X500944Y120939D01*
X499456Y119944D01*
X498537Y119025D01*
X496659Y118652D01*
X494674Y117326D01*
X493348Y115341D01*
X492882Y113000D01*
X493348Y110659D01*
X493563Y110337D01*
X492656Y108147D01*
X491113Y106137D01*
X489103Y104594D01*
X486762Y103625D01*
X484413Y103315D01*
X484250Y103348D01*
X477680D01*
X477225Y104848D01*
X477331Y104919D01*
X477893Y105759D01*
X478090Y106750D01*
Y109980D01*
X470500D01*
Y112520D01*
X478090D01*
Y115750D01*
X477893Y116741D01*
X477478Y117362D01*
X476942Y118808D01*
X477384Y119470D01*
X477539Y120250D01*
Y126951D01*
X477667Y127124D01*
X478378Y127942D01*
X478862Y128426D01*
X479848Y129328D01*
X480399Y129775D01*
X480466Y129823D01*
X480591Y129848D01*
X482576Y131174D01*
X483902Y133159D01*
X483960Y133451D01*
X485395Y133887D01*
X493126Y126156D01*
X494615Y125161D01*
X496371Y124812D01*
X506171D01*
X507532Y124729D01*
X508771Y124573D01*
X509190Y124489D01*
X509503Y124403D01*
X509672Y124339D01*
X509853Y124240D01*
X509855Y124239D01*
X510037Y124118D01*
X510609Y124004D01*
X510613Y124003D01*
X510614Y124003D01*
X511500Y123827D01*
X524000D01*
X525463Y124118D01*
X526703Y124946D01*
X527532Y126187D01*
X527823Y127650D01*
Y131150D01*
X527532Y132613D01*
X526703Y133854D01*
X525463Y134682D01*
X524000Y134973D01*
X511500D01*
X510614Y134797D01*
X510613Y134797D01*
X510609Y134796D01*
X510037Y134682D01*
X509855Y134561D01*
X509853Y134560D01*
X509672Y134461D01*
X509538Y134411D01*
X508717Y134218D01*
X508243Y134148D01*
X505612Y133988D01*
X498271D01*
X485015Y147244D01*
X483527Y148239D01*
X481771Y148588D01*
X468410D01*
X467705Y148614D01*
X466945Y148697D01*
X466319Y148807D01*
X465863Y148930D01*
X465690Y148999D01*
X465634Y149280D01*
X465192Y149942D01*
X464585Y150347D01*
X464530Y150702D01*
Y151548D01*
X464585Y151903D01*
X465065Y152224D01*
X467993Y152412D01*
X482099D01*
X495656Y138856D01*
X497144Y137861D01*
X498900Y137512D01*
X506171D01*
X507532Y137429D01*
X508771Y137273D01*
X509190Y137189D01*
X509503Y137103D01*
X509672Y137039D01*
X509853Y136940D01*
X509855Y136939D01*
X510037Y136818D01*
X510609Y136704D01*
X510613Y136703D01*
X510614Y136703D01*
X511500Y136527D01*
X524000D01*
X525463Y136818D01*
X526703Y137646D01*
X527532Y138887D01*
X527823Y140350D01*
Y143850D01*
X527532Y145313D01*
X526703Y146554D01*
X525463Y147382D01*
X525324Y147410D01*
Y148939D01*
X525674Y149009D01*
X527093Y149957D01*
X528041Y151376D01*
X528374Y153050D01*
Y153530D01*
X517750D01*
X507126D01*
Y153050D01*
X507459Y151376D01*
X508407Y149957D01*
X509826Y149009D01*
X510176Y148939D01*
Y147410D01*
X510037Y147382D01*
X509855Y147261D01*
X509853Y147260D01*
X509672Y147162D01*
X509538Y147111D01*
X508717Y146918D01*
X508243Y146848D01*
X505612Y146688D01*
X500801D01*
X487244Y160244D01*
X485756Y161239D01*
X484000Y161588D01*
X468320D01*
X467764Y161629D01*
X467008Y161733D01*
X466413Y161866D01*
X465991Y162010D01*
X465789Y162112D01*
Y163250D01*
X465634Y164030D01*
X465192Y164692D01*
X464530Y165134D01*
X463750Y165289D01*
X455250D01*
X454470Y165134D01*
X453902Y164755D01*
X453833Y164715D01*
X453000Y164701D01*
X452168Y164715D01*
X452098Y164755D01*
X451530Y165134D01*
X450750Y165289D01*
X442250D01*
X441470Y165134D01*
X440808Y164692D01*
X440366Y164030D01*
X440231Y163351D01*
X439870Y163314D01*
X365623D01*
X336814Y192123D01*
Y209764D01*
X337230Y210105D01*
Y222000D01*
X339770D01*
Y210105D01*
X339931Y209973D01*
Y193831D01*
X340203Y192466D01*
X340977Y191308D01*
X363308Y168977D01*
X364466Y168203D01*
X365831Y167931D01*
X529750D01*
X531116Y168203D01*
X532273Y168977D01*
X532999Y170063D01*
X553343Y190407D01*
X554061Y191482D01*
X554314Y192750D01*
Y210161D01*
X554329Y210372D01*
X554335Y210418D01*
X556000D01*
X558480Y210744D01*
X560791Y211702D01*
X562775Y213225D01*
X564298Y215209D01*
X565256Y217520D01*
X565582Y220000D01*
X565256Y222480D01*
X564298Y224791D01*
X562775Y226775D01*
X560791Y228298D01*
X558480Y229255D01*
Y230744D01*
X560791Y231702D01*
X562775Y233225D01*
X564298Y235209D01*
X565256Y237520D01*
X565582Y240000D01*
X565256Y242480D01*
X564298Y244791D01*
X562775Y246775D01*
X560791Y248298D01*
X559348Y248896D01*
Y250520D01*
X561063Y251230D01*
X561960Y251918D01*
X554939Y258939D01*
X556000Y260000D01*
X554939Y261061D01*
X561960Y268082D01*
X561063Y268770D01*
X558621Y269782D01*
X556000Y270127D01*
X546000D01*
X543379Y269782D01*
X540937Y268770D01*
X540040Y268082D01*
X547061Y261061D01*
X546000Y260000D01*
X547061Y258939D01*
X540040Y251918D01*
X540937Y251230D01*
X542652Y250520D01*
Y248896D01*
X541209Y248298D01*
X539225Y246775D01*
X537702Y244791D01*
X536744Y242480D01*
X536418Y240000D01*
X536744Y237520D01*
X537702Y235209D01*
X539225Y233225D01*
X541209Y231702D01*
X543520Y230744D01*
Y229255D01*
X541209Y228298D01*
X539225Y226775D01*
X537702Y224791D01*
X536744Y222480D01*
X536418Y220000D01*
X536744Y217520D01*
X537702Y215209D01*
X539225Y213225D01*
X541209Y211702D01*
X543520Y210744D01*
X546000Y210418D01*
X547652D01*
X547686Y210081D01*
Y194123D01*
X528632Y175068D01*
X505444D01*
X505296Y176569D01*
X505491Y176607D01*
X506331Y177169D01*
X506893Y178009D01*
X507090Y179000D01*
Y181730D01*
X500500D01*
X496563D01*
Y180500D01*
X496533Y180737D01*
X496442Y180950D01*
X496291Y181138D01*
X496079Y181300D01*
X495806Y181437D01*
X495472Y181550D01*
X495079Y181637D01*
X494624Y181700D01*
X494211Y181730D01*
X493910D01*
Y179000D01*
X494107Y178009D01*
X494669Y177169D01*
X495509Y176607D01*
X495704Y176569D01*
X495556Y175068D01*
X489444D01*
X489296Y176569D01*
X489491Y176607D01*
X490331Y177169D01*
X490893Y178009D01*
X491090Y179000D01*
Y181730D01*
X490819D01*
X489921Y181637D01*
X489528Y181550D01*
X489194Y181437D01*
X488921Y181300D01*
X488709Y181138D01*
X488558Y180950D01*
X488467Y180737D01*
X488437Y180500D01*
Y181730D01*
X484500D01*
X477910D01*
Y179000D01*
X478107Y178009D01*
X478669Y177169D01*
X479509Y176607D01*
X479704Y176569D01*
X479557Y175068D01*
X367310D01*
X347069Y195310D01*
Y210523D01*
X347590Y210951D01*
X349410D01*
X350382Y211145D01*
X350514Y211233D01*
X351408Y210636D01*
X352230Y210472D01*
Y222000D01*
X354770D01*
Y210472D01*
X355592Y210636D01*
X356486Y211233D01*
X356618Y211145D01*
X357590Y210951D01*
X359410D01*
X360382Y211145D01*
X361205Y211695D01*
X361755Y212519D01*
X361949Y213490D01*
Y230261D01*
X362525Y230975D01*
X363239Y231551D01*
X370898D01*
X371500Y231431D01*
X389272D01*
X403561Y217143D01*
X403755Y216909D01*
X404017Y216551D01*
X404245Y216191D01*
X404441Y215828D01*
X404607Y215461D01*
X404744Y215088D01*
X404853Y214706D01*
X404889Y214533D01*
X404883Y214500D01*
X404965Y214085D01*
X404998Y213839D01*
X405036Y213728D01*
X405348Y212159D01*
X406674Y210174D01*
X408659Y208848D01*
X411000Y208382D01*
X413341Y208848D01*
X414038Y209314D01*
X415613Y209377D01*
X415969Y209351D01*
X416905Y209222D01*
X417655Y209054D01*
X418209Y208866D01*
X418560Y208688D01*
X418711Y208572D01*
Y208000D01*
X418866Y207220D01*
X419308Y206558D01*
X419970Y206116D01*
X420750Y205961D01*
X429454D01*
X429750Y205902D01*
X430046Y205961D01*
X440750D01*
X441530Y206116D01*
X442192Y206558D01*
X442634Y207220D01*
X442789Y208000D01*
Y220000D01*
X442752Y220186D01*
X443571Y221488D01*
X443750Y221624D01*
X445309Y221465D01*
X446197Y220186D01*
X446160Y220000D01*
Y215270D01*
X471340D01*
Y220000D01*
X471303Y220186D01*
X472345Y221686D01*
X477025D01*
X478285Y221443D01*
X478527Y221346D01*
X478535Y221332D01*
X478549Y220500D01*
X478535Y219667D01*
X478495Y219598D01*
X478116Y219030D01*
X477961Y218250D01*
Y209750D01*
X478116Y208970D01*
X478558Y208308D01*
X479220Y207866D01*
X480000Y207711D01*
X481150D01*
X481186Y207362D01*
Y204301D01*
X481171Y204089D01*
X481164Y204039D01*
X480500D01*
X479720Y203884D01*
X479058Y203442D01*
X478616Y202780D01*
X478461Y202000D01*
Y194000D01*
X478616Y193220D01*
X479058Y192558D01*
X479720Y192116D01*
X480500Y191961D01*
X488500D01*
X489280Y192116D01*
X489942Y192558D01*
X490384Y193220D01*
X490539Y194000D01*
Y202000D01*
X490384Y202780D01*
X489942Y203442D01*
X489280Y203884D01*
X488500Y204039D01*
X487849D01*
X487814Y204380D01*
Y207441D01*
X487829Y207648D01*
X487838Y207711D01*
X489500D01*
X490280Y207866D01*
X490942Y208308D01*
X491384Y208970D01*
X491539Y209750D01*
Y218250D01*
X491384Y219030D01*
X491005Y219598D01*
X490965Y219667D01*
X490951Y220500D01*
X490965Y221332D01*
X491005Y221402D01*
X491384Y221970D01*
X491539Y222750D01*
Y231250D01*
X491384Y232030D01*
X491280Y232186D01*
X491948Y233686D01*
X493473D01*
X493848Y233128D01*
X494137Y232186D01*
X493866Y231780D01*
X493711Y231000D01*
Y222500D01*
X493866Y221720D01*
X494245Y221152D01*
X494285Y221082D01*
X494299Y220250D01*
X494285Y219417D01*
X494245Y219348D01*
X493866Y218780D01*
X493711Y218000D01*
Y209500D01*
X493866Y208720D01*
X494308Y208058D01*
X494970Y207616D01*
X495750Y207461D01*
X497150D01*
X497186Y207112D01*
Y204301D01*
X497171Y204089D01*
X497164Y204039D01*
X496500D01*
X495720Y203884D01*
X495058Y203442D01*
X494616Y202780D01*
X494461Y202000D01*
Y194000D01*
X494616Y193220D01*
X495058Y192558D01*
X495720Y192116D01*
X496500Y191961D01*
X504500D01*
X505280Y192116D01*
X505942Y192558D01*
X506384Y193220D01*
X506539Y194000D01*
Y202000D01*
X506384Y202780D01*
X505942Y203442D01*
X505280Y203884D01*
X504500Y204039D01*
X503849D01*
X503814Y204380D01*
Y207191D01*
X503829Y207398D01*
X503838Y207461D01*
X505250D01*
X506030Y207616D01*
X506692Y208058D01*
X507134Y208720D01*
X507289Y209500D01*
Y218000D01*
X507134Y218780D01*
X506755Y219348D01*
X506715Y219417D01*
X506701Y220250D01*
X506715Y221082D01*
X506755Y221152D01*
X507134Y221720D01*
X507289Y222500D01*
Y231000D01*
X507134Y231780D01*
X506692Y232442D01*
X506030Y232884D01*
X505250Y233039D01*
X503849D01*
X503814Y233380D01*
Y234500D01*
X503561Y235768D01*
X502843Y236843D01*
X500343Y239343D01*
X499268Y240061D01*
X498000Y240314D01*
X475000D01*
X473732Y240061D01*
X472657Y239343D01*
X467378Y234064D01*
X458500D01*
X458500Y296000D01*
X425452D01*
X425000Y296000D01*
X423847Y296836D01*
X423442Y297442D01*
X418039Y302845D01*
Y305936D01*
X462378D01*
X479507Y288807D01*
X479721Y288544D01*
X479963Y288200D01*
X480182Y287839D01*
X480378Y287459D01*
X480551Y287059D01*
X480701Y286637D01*
X480828Y286190D01*
X480932Y285718D01*
X481020Y285164D01*
X481083Y284993D01*
X481348Y283659D01*
X482674Y281674D01*
X484659Y280348D01*
X487000Y279883D01*
X489341Y280348D01*
X491326Y281674D01*
X492652Y283659D01*
X493118Y286000D01*
X492652Y288341D01*
X491326Y290326D01*
X489341Y291652D01*
X488007Y291917D01*
X487836Y291980D01*
X487282Y292069D01*
X486810Y292172D01*
X486363Y292299D01*
X485941Y292449D01*
X485541Y292622D01*
X485161Y292818D01*
X484800Y293037D01*
X484456Y293279D01*
X484193Y293493D01*
X466093Y311593D01*
X465018Y312311D01*
X463750Y312564D01*
X436210D01*
X435636Y313950D01*
X446843Y325157D01*
X447561Y326232D01*
X447814Y327500D01*
Y363682D01*
X447831Y363945D01*
X447877Y364320D01*
X447916Y364520D01*
X448958Y364952D01*
X450942Y366474D01*
X452465Y368459D01*
X453422Y370770D01*
X453749Y373250D01*
Y383250D01*
X453422Y385730D01*
X452465Y388041D01*
X450942Y390025D01*
X448958Y391548D01*
X446647Y392505D01*
X444167Y392832D01*
D02*
G37*
G36*
X46266Y364125D02*
X46066Y364112D01*
X46000Y364121D01*
X45934Y364112D01*
X45734Y364125D01*
X42601Y363713D01*
X42411Y363648D01*
X42345Y363640D01*
X42284Y363614D01*
X42087Y363575D01*
X39168Y362366D01*
X39001Y362254D01*
X38940Y362229D01*
X38887Y362189D01*
X38707Y362100D01*
X36200Y360176D01*
X36068Y360025D01*
X36015Y359985D01*
X35975Y359932D01*
X35824Y359800D01*
X33900Y357293D01*
X33811Y357113D01*
X33771Y357060D01*
X33746Y356999D01*
X33634Y356832D01*
X32425Y353913D01*
X32386Y353716D01*
X32360Y353655D01*
X32352Y353589D01*
X32287Y353399D01*
X31875Y350266D01*
X31883Y350132D01*
X31857Y350000D01*
X31883Y349868D01*
X31875Y349734D01*
X32287Y346601D01*
X32352Y346411D01*
X32360Y346345D01*
X32386Y346284D01*
X32425Y346087D01*
X33634Y343168D01*
X33746Y343001D01*
X33771Y342940D01*
X33811Y342887D01*
X33900Y342707D01*
X35824Y340200D01*
X35975Y340068D01*
X36015Y340015D01*
X36068Y339975D01*
X36200Y339824D01*
X38707Y337900D01*
X38887Y337811D01*
X38940Y337771D01*
X39001Y337746D01*
X39168Y337634D01*
X42087Y336425D01*
X42284Y336386D01*
X42345Y336360D01*
X42411Y336352D01*
X42601Y336287D01*
X45734Y335875D01*
X45934Y335888D01*
X46000Y335879D01*
X46066Y335888D01*
X46266Y335875D01*
X49399Y336287D01*
X49589Y336352D01*
X49655Y336360D01*
X49716Y336386D01*
X49913Y336425D01*
X52832Y337634D01*
X52999Y337746D01*
X53060Y337771D01*
X53113Y337811D01*
X53293Y337900D01*
X55800Y339824D01*
X55932Y339975D01*
X55985Y340015D01*
X56025Y340068D01*
X56176Y340200D01*
X58100Y342707D01*
X58189Y342887D01*
X58229Y342940D01*
X58254Y343001D01*
X58366Y343168D01*
X59575Y346087D01*
X59614Y346284D01*
X59640Y346345D01*
X59648Y346411D01*
X59713Y346601D01*
X60125Y349734D01*
X60117Y349868D01*
X60143Y350000D01*
X60117Y350132D01*
X60125Y350266D01*
X59713Y353399D01*
X59648Y353589D01*
X59640Y353655D01*
X59614Y353716D01*
X59575Y353913D01*
X58366Y356832D01*
X58254Y356999D01*
X58229Y357060D01*
X58189Y357113D01*
X58100Y357293D01*
X56176Y359800D01*
X56025Y359932D01*
X55985Y359985D01*
X55932Y360025D01*
X55800Y360176D01*
X53293Y362100D01*
X53113Y362189D01*
X53060Y362229D01*
X52999Y362254D01*
X52832Y362366D01*
X49913Y363575D01*
X49716Y363614D01*
X49655Y363640D01*
X49589Y363648D01*
X49399Y363713D01*
X46266Y364125D01*
D02*
G37*
G36*
X244288Y366924D02*
X244119Y366467D01*
X243896Y365585D01*
X243723Y364557D01*
X243649Y363860D01*
X245147Y364480D01*
X246044Y365168D01*
X244288Y366924D01*
D02*
G37*
G36*
X317300Y22879D02*
X310627Y16205D01*
X311732Y15357D01*
X314418Y14244D01*
X317300Y13865D01*
X320182Y14244D01*
X322868Y15357D01*
X323974Y16205D01*
X317300Y22879D01*
D02*
G37*
G36*
X616266Y364125D02*
X616066Y364112D01*
X616000Y364121D01*
X615934Y364112D01*
X615734Y364125D01*
X612601Y363713D01*
X612411Y363648D01*
X612345Y363640D01*
X612284Y363614D01*
X612087Y363575D01*
X609168Y362366D01*
X609001Y362254D01*
X608940Y362229D01*
X608887Y362189D01*
X608707Y362100D01*
X606200Y360176D01*
X606068Y360025D01*
X606015Y359985D01*
X605975Y359932D01*
X605824Y359800D01*
X603900Y357293D01*
X603811Y357113D01*
X603771Y357060D01*
X603746Y356999D01*
X603634Y356832D01*
X602425Y353913D01*
X602386Y353716D01*
X602360Y353655D01*
X602352Y353589D01*
X602287Y353399D01*
X601875Y350266D01*
X601884Y350132D01*
X601857Y350000D01*
X601884Y349868D01*
X601875Y349734D01*
X602287Y346601D01*
X602352Y346411D01*
X602360Y346345D01*
X602386Y346284D01*
X602425Y346087D01*
X603634Y343168D01*
X603746Y343001D01*
X603771Y342940D01*
X603811Y342887D01*
X603900Y342707D01*
X605824Y340200D01*
X605975Y340068D01*
X606015Y340015D01*
X606068Y339975D01*
X606200Y339824D01*
X608707Y337900D01*
X608887Y337811D01*
X608940Y337771D01*
X609001Y337746D01*
X609168Y337634D01*
X612087Y336425D01*
X612284Y336386D01*
X612345Y336360D01*
X612411Y336352D01*
X612601Y336287D01*
X615734Y335875D01*
X615934Y335888D01*
X616000Y335879D01*
X616066Y335888D01*
X616266Y335875D01*
X619399Y336287D01*
X619589Y336352D01*
X619655Y336360D01*
X619716Y336386D01*
X619913Y336425D01*
X622832Y337634D01*
X622999Y337746D01*
X623060Y337771D01*
X623113Y337811D01*
X623293Y337900D01*
X625800Y339824D01*
X625932Y339975D01*
X625985Y340015D01*
X626025Y340068D01*
X626176Y340200D01*
X628100Y342707D01*
X628189Y342887D01*
X628229Y342940D01*
X628254Y343001D01*
X628366Y343168D01*
X629575Y346087D01*
X629614Y346284D01*
X629640Y346345D01*
X629648Y346411D01*
X629713Y346601D01*
X630125Y349734D01*
X630117Y349868D01*
X630143Y350000D01*
X630117Y350132D01*
X630125Y350266D01*
X629713Y353399D01*
X629648Y353589D01*
X629640Y353655D01*
X629614Y353716D01*
X629575Y353913D01*
X628366Y356832D01*
X628254Y356999D01*
X628229Y357060D01*
X628189Y357113D01*
X628100Y357293D01*
X626176Y359800D01*
X626025Y359932D01*
X625985Y359985D01*
X625932Y360025D01*
X625800Y360176D01*
X623293Y362100D01*
X623113Y362189D01*
X623060Y362229D01*
X622999Y362254D01*
X622832Y362366D01*
X619913Y363575D01*
X619716Y363614D01*
X619655Y363640D01*
X619589Y363648D01*
X619399Y363713D01*
X616266Y364125D01*
D02*
G37*
G36*
X181520Y65626D02*
Y57770D01*
X184879D01*
Y61250D01*
X184527Y63021D01*
X183523Y64523D01*
X182022Y65527D01*
X181520Y65626D01*
D02*
G37*
G36*
X488500Y189590D02*
X485770D01*
Y184270D01*
X488437D01*
Y185500D01*
X488467Y185263D01*
X488558Y185050D01*
X488709Y184862D01*
X488921Y184700D01*
X489194Y184562D01*
X489528Y184450D01*
X489921Y184363D01*
X490376Y184300D01*
X490788Y184270D01*
X491090D01*
Y187000D01*
X490893Y187991D01*
X490331Y188831D01*
X489491Y189393D01*
X488500Y189590D01*
D02*
G37*
G36*
X499230Y189590D02*
X496500D01*
X495509Y189393D01*
X494669Y188831D01*
X494107Y187991D01*
X493910Y187000D01*
Y184270D01*
X494182D01*
X495079Y184363D01*
X495472Y184450D01*
X495806Y184562D01*
X496079Y184700D01*
X496291Y184862D01*
X496442Y185050D01*
X496533Y185263D01*
X496563Y185500D01*
Y184270D01*
X499230D01*
Y189590D01*
D02*
G37*
G36*
X317300Y36135D02*
X314418Y35756D01*
X311732Y34643D01*
X310627Y33795D01*
X317300Y27121D01*
X323974Y33795D01*
X322868Y34643D01*
X320182Y35756D01*
X317300Y36135D01*
D02*
G37*
G36*
X483230Y189590D02*
X480500D01*
X479509Y189393D01*
X478669Y188831D01*
X478107Y187991D01*
X477910Y187000D01*
Y184270D01*
X483230D01*
Y189590D01*
D02*
G37*
G36*
X188750Y41340D02*
X180520D01*
Y29750D01*
Y18160D01*
X188750D01*
X189741Y18357D01*
X190581Y18919D01*
X191143Y19759D01*
X191340Y20750D01*
Y24172D01*
X192840Y24270D01*
X192904Y23782D01*
X193664Y21948D01*
X193951Y21573D01*
X199189Y26811D01*
X200250Y25750D01*
X201311Y26811D01*
X206549Y21573D01*
X206836Y21948D01*
X207596Y23782D01*
X207855Y25750D01*
Y27199D01*
X206678Y27118D01*
X206236Y27044D01*
X205875Y26954D01*
X205593Y26847D01*
X205393Y26723D01*
X205272Y26583D01*
X205232Y26427D01*
Y33073D01*
X205272Y32917D01*
X205393Y32777D01*
X205593Y32653D01*
X205875Y32546D01*
X206236Y32456D01*
X206678Y32382D01*
X207201Y32324D01*
X207855Y32291D01*
Y33750D01*
X207596Y35718D01*
X206836Y37552D01*
X206549Y37927D01*
X201311Y32689D01*
X200250Y33750D01*
X199189Y32689D01*
X193951Y37927D01*
X193664Y37552D01*
X192904Y35718D01*
X192840Y35230D01*
X191340Y35328D01*
Y38750D01*
X191143Y39741D01*
X190581Y40581D01*
X189741Y41143D01*
X188750Y41340D01*
D02*
G37*
G36*
X168000Y117118D02*
X165659Y116652D01*
X163674Y115326D01*
X162348Y113341D01*
X162085Y112016D01*
X162022Y111849D01*
X161944Y111382D01*
X161852Y110994D01*
X161732Y110615D01*
X161585Y110241D01*
X161409Y109872D01*
X161203Y109505D01*
X160965Y109140D01*
X160694Y108776D01*
X160503Y108550D01*
X153522Y101569D01*
X129879D01*
X129598Y101589D01*
X129202Y101644D01*
X129164Y101652D01*
Y104000D01*
X129009Y104780D01*
X128567Y105442D01*
X127905Y105884D01*
X127125Y106039D01*
X118125D01*
X117345Y105884D01*
X116683Y105442D01*
X115237Y105978D01*
X114616Y106393D01*
X113625Y106590D01*
X110395D01*
Y99000D01*
Y91410D01*
X113625D01*
X114616Y91607D01*
X115237Y92022D01*
X116683Y92558D01*
X117345Y92116D01*
X118125Y91961D01*
X127125D01*
X127905Y92116D01*
X128567Y92558D01*
X129009Y93220D01*
X129164Y94000D01*
Y94348D01*
X129168Y94349D01*
X129968Y94431D01*
X155000D01*
X156366Y94703D01*
X157523Y95477D01*
X165550Y103503D01*
X165776Y103694D01*
X166140Y103965D01*
X166505Y104203D01*
X166871Y104409D01*
X167241Y104585D01*
X167614Y104732D01*
X167994Y104852D01*
X168382Y104944D01*
X168849Y105022D01*
X169016Y105084D01*
X170341Y105348D01*
X172326Y106674D01*
X173652Y108659D01*
X174118Y111000D01*
X173652Y113341D01*
X172326Y115326D01*
X170341Y116652D01*
X168000Y117118D01*
D02*
G37*
G36*
X107855Y106590D02*
X104625D01*
X103634Y106393D01*
X102794Y105831D01*
X102232Y104991D01*
X102035Y104000D01*
Y100270D01*
X107855D01*
Y106590D01*
D02*
G37*
G36*
X326095Y31674D02*
X319421Y25000D01*
X326095Y18326D01*
X326943Y19432D01*
X328056Y22118D01*
X328435Y25000D01*
X328056Y27882D01*
X326943Y30568D01*
X326095Y31674D01*
D02*
G37*
G36*
X142980Y113930D02*
X133626D01*
Y113450D01*
X133959Y111776D01*
X134907Y110357D01*
X136326Y109409D01*
X138000Y109076D01*
X142980D01*
Y113930D01*
D02*
G37*
G36*
X134250Y23629D02*
X130073Y19451D01*
X130448Y19164D01*
X132282Y18404D01*
X134250Y18145D01*
X136218Y18404D01*
X138053Y19164D01*
X138427Y19451D01*
X134250Y23629D01*
D02*
G37*
G36*
X200250Y23629D02*
X196073Y19451D01*
X196448Y19164D01*
X198282Y18404D01*
X200250Y18145D01*
X202218Y18404D01*
X204053Y19164D01*
X204427Y19451D01*
X200250Y23629D01*
D02*
G37*
G36*
X504500Y189590D02*
X501770D01*
Y184270D01*
X507090D01*
Y187000D01*
X506893Y187991D01*
X506331Y188831D01*
X505491Y189393D01*
X504500Y189590D01*
D02*
G37*
G36*
X533590Y27980D02*
X527270D01*
Y22160D01*
X531000D01*
X531991Y22357D01*
X532831Y22919D01*
X533393Y23759D01*
X533590Y24750D01*
Y27980D01*
D02*
G37*
G36*
X308505Y31674D02*
X307657Y30568D01*
X306544Y27882D01*
X306165Y25000D01*
X306544Y22118D01*
X307657Y19432D01*
X308505Y18326D01*
X315179Y25000D01*
X308505Y31674D01*
D02*
G37*
G36*
X266730Y149090D02*
X260000D01*
X259009Y148893D01*
X258169Y148331D01*
X257607Y147491D01*
X257410Y146500D01*
Y130270D01*
X266730D01*
Y149090D01*
D02*
G37*
%LPD*%
G36*
X169813Y32270D02*
X170717Y32250D01*
Y27250D01*
X169813Y27230D01*
Y24750D01*
X169753Y25225D01*
X169572Y25650D01*
X169271Y26025D01*
X168849Y26350D01*
X168306Y26625D01*
X167642Y26850D01*
X167250Y26938D01*
X166857Y26850D01*
X166194Y26625D01*
X165651Y26350D01*
X165229Y26025D01*
X164928Y25650D01*
X164747Y25225D01*
X164687Y24750D01*
Y27230D01*
X163783Y27250D01*
Y32250D01*
X164687Y32270D01*
Y34750D01*
X164747Y34275D01*
X164928Y33850D01*
X165229Y33475D01*
X165651Y33150D01*
X166194Y32875D01*
X166857Y32650D01*
X167250Y32562D01*
X167642Y32650D01*
X168306Y32875D01*
X168849Y33150D01*
X169271Y33475D01*
X169572Y33850D01*
X169753Y34275D01*
X169813Y34750D01*
Y32270D01*
D02*
G37*
G36*
X145814Y33013D02*
X146462Y33000D01*
Y27000D01*
X145814Y26987D01*
Y24000D01*
X145741Y24570D01*
X145524Y25080D01*
X145163Y25530D01*
X144657Y25920D01*
X144006Y26250D01*
X143210Y26520D01*
X142415Y26698D01*
X141582Y26522D01*
X140747Y26253D01*
X140065Y25924D01*
X139537Y25536D01*
X139163Y25087D01*
X138942Y24580D01*
X138876Y24012D01*
X138824Y26995D01*
X138583Y27000D01*
Y33000D01*
X138720Y33003D01*
X138669Y35988D01*
X138756Y35421D01*
X138997Y34913D01*
X139392Y34464D01*
X139941Y34076D01*
X140643Y33747D01*
X141499Y33478D01*
X142383Y33295D01*
X143210Y33480D01*
X144006Y33750D01*
X144657Y34080D01*
X145163Y34470D01*
X145524Y34920D01*
X145741Y35430D01*
X145814Y36000D01*
Y33013D01*
D02*
G37*
G36*
X387000Y44000D02*
X387000Y21000D01*
X383000Y17000D01*
X334000D01*
Y34000D01*
X352000D01*
X362000Y44000D01*
X387000Y44000D01*
D02*
G37*
G36*
X57974Y41853D02*
X58163Y39161D01*
X58328Y37990D01*
X58541Y36937D01*
X58802Y36000D01*
X59109Y35181D01*
X59464Y34478D01*
X59866Y33893D01*
X60316Y33424D01*
X47497Y31433D01*
X47583Y31658D01*
X47660Y32036D01*
X47728Y32569D01*
X47837Y34095D01*
X47950Y40600D01*
X57950Y43375D01*
X57974Y41853D01*
D02*
G37*
G36*
X88777Y38188D02*
X88957Y37939D01*
X89257Y37719D01*
X89677Y37528D01*
X90217Y37367D01*
X90877Y37235D01*
X91657Y37132D01*
X93346Y37029D01*
X95873Y37235D01*
X96533Y37367D01*
X97073Y37528D01*
X97493Y37719D01*
X97793Y37939D01*
X97973Y38188D01*
X98033Y38467D01*
Y30533D01*
X97973Y30812D01*
X97793Y31061D01*
X97493Y31281D01*
X97073Y31472D01*
X96533Y31633D01*
X95873Y31765D01*
X95093Y31868D01*
X93404Y31971D01*
X90877Y31765D01*
X90217Y31633D01*
X89677Y31472D01*
X89257Y31281D01*
X88957Y31061D01*
X88777Y30812D01*
X88717Y30533D01*
Y38467D01*
X88777Y38188D01*
D02*
G37*
G36*
X88723Y22215D02*
X88832Y21960D01*
X89013Y21735D01*
X89267Y21540D01*
X89594Y21375D01*
X89993Y21240D01*
X90465Y21135D01*
X91010Y21060D01*
X91627Y21015D01*
X92317Y21000D01*
Y18000D01*
X91627Y17985D01*
X90465Y17865D01*
X89993Y17760D01*
X89594Y17625D01*
X89267Y17460D01*
X89013Y17265D01*
X88832Y17040D01*
X88723Y16785D01*
X88687Y16500D01*
Y22500D01*
X88723Y22215D01*
D02*
G37*
G36*
X31824Y21094D02*
X31025Y19851D01*
X30700Y19262D01*
X30425Y18697D01*
X30200Y18153D01*
X30025Y17631D01*
X29900Y17132D01*
X29825Y16655D01*
X29800Y16200D01*
X26800D01*
X26775Y16655D01*
X26700Y17132D01*
X26575Y17631D01*
X26400Y18153D01*
X26175Y18697D01*
X25900Y19262D01*
X25575Y19851D01*
X24776Y21094D01*
X24301Y21749D01*
X32299D01*
X31824Y21094D01*
D02*
G37*
G36*
X98063Y16500D02*
X98027Y16785D01*
X97918Y17040D01*
X97737Y17265D01*
X97483Y17460D01*
X97156Y17625D01*
X96756Y17760D01*
X96285Y17865D01*
X95740Y17940D01*
X95123Y17985D01*
X94433Y18000D01*
Y21000D01*
X95123Y21015D01*
X96285Y21135D01*
X96756Y21240D01*
X97156Y21375D01*
X97483Y21540D01*
X97737Y21735D01*
X97918Y21960D01*
X98027Y22215D01*
X98063Y22500D01*
Y16500D01*
D02*
G37*
G36*
X41093Y43535D02*
X41720Y43116D01*
X42500Y42961D01*
X45890D01*
Y39399D01*
X45799Y34185D01*
X45698Y32770D01*
X45649Y32388D01*
X45578Y32295D01*
X44520Y29741D01*
X44159Y27000D01*
X44520Y24259D01*
X45578Y21705D01*
X47261Y19511D01*
X48816Y18319D01*
X48307Y16819D01*
X40936D01*
X40676Y17014D01*
X39853Y18319D01*
X39889Y18500D01*
Y35500D01*
X39734Y36280D01*
X39292Y36942D01*
X38630Y37384D01*
X37850Y37539D01*
X37785D01*
X37773Y37541D01*
X37704Y37580D01*
X37507Y37785D01*
X37215Y38281D01*
X36898Y39095D01*
X36606Y40217D01*
X36393Y41461D01*
X36481Y42003D01*
X37366Y42961D01*
X38000D01*
X38780Y43116D01*
X39407Y43535D01*
X39448Y43558D01*
X41052D01*
X41093Y43535D01*
D02*
G37*
G36*
X34038Y45187D02*
X34344Y41347D01*
X34611Y39787D01*
X34954Y38467D01*
X35374Y37387D01*
X35870Y36547D01*
X36443Y35947D01*
X37092Y35587D01*
X37817Y35467D01*
X20883D01*
X21475Y35587D01*
X22005Y35947D01*
X22473Y36547D01*
X22878Y37387D01*
X23221Y38467D01*
X23501Y39787D01*
X23719Y41347D01*
X23875Y43147D01*
X24000Y47467D01*
X34000D01*
X34038Y45187D01*
D02*
G37*
G36*
X42290Y126153D02*
X42301Y126073D01*
X43006Y124370D01*
X44128Y122908D01*
X45590Y121785D01*
X47293Y121080D01*
X49121Y120840D01*
X56483D01*
X57105Y119340D01*
X47958Y110192D01*
X46835Y108730D01*
X46130Y107027D01*
X45890Y105200D01*
Y57039D01*
X42500D01*
X41720Y56884D01*
X41093Y56465D01*
X41052Y56442D01*
X39448D01*
X39407Y56465D01*
X38780Y56884D01*
X38000Y57039D01*
X36060D01*
Y121826D01*
X40870Y126635D01*
X42290Y126153D01*
D02*
G37*
G36*
X102215Y48497D02*
X101960Y48389D01*
X101735Y48209D01*
X101540Y47957D01*
X101375Y47633D01*
X101240Y47237D01*
X101135Y46769D01*
X101060Y46229D01*
X101015Y45617D01*
X101000Y44933D01*
X98000D01*
X97985Y45617D01*
X97865Y46769D01*
X97760Y47237D01*
X97625Y47633D01*
X97460Y47957D01*
X97265Y48209D01*
X97040Y48389D01*
X96785Y48497D01*
X96500Y48533D01*
X102500D01*
X102215Y48497D01*
D02*
G37*
G36*
X103504Y39354D02*
X103664Y36963D01*
X103723Y36653D01*
X103791Y36399D01*
X103869Y36200D01*
X103955Y36058D01*
X100045D01*
X100131Y36200D01*
X100209Y36399D01*
X100277Y36653D01*
X100336Y36963D01*
X100386Y37329D01*
X100459Y38229D01*
X100500Y40000D01*
X103500D01*
X103504Y39354D01*
D02*
G37*
G36*
X57247Y55784D02*
X57836Y55515D01*
X58652Y55277D01*
X59695Y55071D01*
X60965Y54896D01*
X64186Y54643D01*
X70720Y54500D01*
Y51500D01*
X68315Y51484D01*
X59695Y50929D01*
X58652Y50723D01*
X57836Y50485D01*
X57247Y50216D01*
X56884Y49914D01*
Y56086D01*
X57247Y55784D01*
D02*
G37*
G36*
X82313Y50000D02*
X82277Y50285D01*
X82168Y50540D01*
X81987Y50765D01*
X81733Y50960D01*
X81406Y51125D01*
X81006Y51260D01*
X80535Y51365D01*
X79990Y51440D01*
X79373Y51485D01*
X78683Y51500D01*
Y54500D01*
X79373Y54515D01*
X80535Y54635D01*
X81006Y54740D01*
X81406Y54875D01*
X81733Y55040D01*
X81987Y55235D01*
X82168Y55460D01*
X82277Y55715D01*
X82313Y56000D01*
Y50000D01*
D02*
G37*
G36*
X113500Y187750D02*
Y163750D01*
X97500Y147750D01*
X80750D01*
X77000Y151500D01*
Y173500D01*
X91500Y188000D01*
X113250D01*
X113500Y187750D01*
D02*
G37*
G36*
X499516Y307967D02*
X495033Y303484D01*
X494998Y303565D01*
X494908Y303696D01*
X494762Y303878D01*
X493989Y304730D01*
X492179Y306578D01*
X496422Y310821D01*
X499516Y307967D01*
D02*
G37*
G36*
X494408Y369847D02*
X493903Y369459D01*
X493457Y368883D01*
X493070Y368119D01*
X492743Y367167D01*
X492476Y366027D01*
X492268Y364698D01*
X492119Y363182D01*
X492000Y359585D01*
X486000Y358927D01*
X485970Y360731D01*
X485732Y363736D01*
X485523Y364937D01*
X485255Y365936D01*
X484927Y366735D01*
X484539Y367333D01*
X484092Y367729D01*
X483586Y367925D01*
X483019Y367919D01*
X494973Y370047D01*
X494408Y369847D01*
D02*
G37*
G36*
X303621Y67379D02*
X303337Y67082D01*
X302848Y66489D01*
X302643Y66194D01*
X302465Y65898D01*
X302313Y65604D01*
X302187Y65310D01*
X302087Y65016D01*
X302014Y64723D01*
X301968Y64430D01*
X296430Y69967D01*
X296723Y70014D01*
X297016Y70087D01*
X297310Y70187D01*
X297604Y70313D01*
X297899Y70465D01*
X298194Y70643D01*
X298489Y70848D01*
X298785Y71080D01*
X299379Y71621D01*
X303621Y67379D01*
D02*
G37*
G36*
X335533Y104533D02*
X335461Y105049D01*
X335245Y105511D01*
X334885Y105919D01*
X334381Y106272D01*
X333733Y106571D01*
X332941Y106815D01*
X332005Y107006D01*
X330925Y107141D01*
X330345Y107180D01*
X328495Y107006D01*
X327559Y106815D01*
X326767Y106571D01*
X326119Y106272D01*
X325615Y105919D01*
X325255Y105511D01*
X325039Y105049D01*
X324967Y104533D01*
Y115967D01*
X325039Y115451D01*
X325255Y114989D01*
X325615Y114581D01*
X326119Y114228D01*
X326767Y113929D01*
X327559Y113685D01*
X328495Y113495D01*
X329575Y113359D01*
X330155Y113320D01*
X332005Y113495D01*
X332941Y113685D01*
X333733Y113929D01*
X334381Y114228D01*
X334885Y114581D01*
X335245Y114989D01*
X335461Y115451D01*
X335533Y115967D01*
Y104533D01*
D02*
G37*
G36*
X427633Y113352D02*
X428095Y113069D01*
X428575Y112818D01*
X429074Y112601D01*
X429591Y112417D01*
X430128Y112267D01*
X430682Y112150D01*
X430993Y112105D01*
X431284Y112135D01*
X431757Y112240D01*
X432156Y112375D01*
X432483Y112540D01*
X432737Y112735D01*
X432918Y112960D01*
X433027Y113215D01*
X433064Y113500D01*
Y107500D01*
X433027Y107785D01*
X432918Y108040D01*
X432737Y108265D01*
X432483Y108460D01*
X432156Y108625D01*
X431757Y108760D01*
X431284Y108865D01*
X431029Y108900D01*
X430682Y108850D01*
X430128Y108733D01*
X429591Y108583D01*
X429074Y108399D01*
X428575Y108182D01*
X428095Y107931D01*
X427633Y107648D01*
X427190Y107330D01*
Y113670D01*
X427633Y113352D01*
D02*
G37*
G36*
X510829Y113330D02*
X510526Y113496D01*
X510137Y113643D01*
X509662Y113774D01*
X509101Y113887D01*
X507722Y114061D01*
X505999Y114165D01*
X503933Y114200D01*
Y119200D01*
X505009Y119209D01*
X508454Y119417D01*
X509101Y119513D01*
X510137Y119757D01*
X510526Y119904D01*
X510829Y120070D01*
Y113330D01*
D02*
G37*
G36*
X151474Y131104D02*
X151863Y130957D01*
X152338Y130826D01*
X152899Y130713D01*
X154278Y130539D01*
X156001Y130435D01*
X158067Y130400D01*
Y125400D01*
X156991Y125391D01*
X153546Y125183D01*
X152899Y125087D01*
X151863Y124843D01*
X151474Y124696D01*
X151171Y124530D01*
Y131270D01*
X151474Y131104D01*
D02*
G37*
G36*
X205766Y122033D02*
X205228Y121944D01*
X204701Y121819D01*
X204184Y121656D01*
X203678Y121457D01*
X203182Y121221D01*
X202697Y120948D01*
X202222Y120638D01*
X201758Y120292D01*
X201304Y119909D01*
X200860Y119489D01*
X198739Y121610D01*
X199159Y122054D01*
X199542Y122508D01*
X199888Y122972D01*
X200198Y123447D01*
X200471Y123932D01*
X200707Y124428D01*
X200906Y124934D01*
X201069Y125451D01*
X201194Y125978D01*
X201283Y126516D01*
X205766Y122033D01*
D02*
G37*
G36*
X501404Y109803D02*
X500674Y106267D01*
X494318Y106941D01*
X494655Y107523D01*
X495183Y108572D01*
X495374Y109040D01*
X495517Y109471D01*
X495612Y109863D01*
X495658Y110218D01*
X495655Y110535D01*
X495604Y110814D01*
X495504Y111056D01*
X501404Y109803D01*
D02*
G37*
G36*
X356167Y95250D02*
X354796Y95220D01*
X352486Y94980D01*
X351547Y94770D01*
X350751Y94500D01*
X350101Y94170D01*
X349594Y93780D01*
X349230Y93330D01*
X349011Y92820D01*
X348937Y92250D01*
X348967Y98467D01*
X356167Y101250D01*
Y95250D01*
D02*
G37*
G36*
X335564Y88000D02*
X335490Y88570D01*
X335271Y89080D01*
X334909Y89530D01*
X334402Y89920D01*
X333751Y90250D01*
X332956Y90520D01*
X332017Y90730D01*
X330933Y90880D01*
X330344Y90923D01*
X328483Y90730D01*
X327544Y90520D01*
X326749Y90250D01*
X326098Y89920D01*
X325591Y89530D01*
X325229Y89080D01*
X325010Y88570D01*
X324936Y88000D01*
X324967Y98467D01*
X325039Y98188D01*
X325255Y97939D01*
X325615Y97719D01*
X326119Y97528D01*
X326767Y97367D01*
X327559Y97235D01*
X328495Y97132D01*
X330172Y97047D01*
X332941Y97235D01*
X333733Y97367D01*
X334381Y97528D01*
X334885Y97719D01*
X335245Y97939D01*
X335461Y98188D01*
X335533Y98467D01*
X335564Y88000D01*
D02*
G37*
G36*
X349039Y115451D02*
X349255Y114989D01*
X349615Y114581D01*
X350119Y114228D01*
X350767Y113929D01*
X351559Y113685D01*
X352495Y113495D01*
X353575Y113359D01*
X354799Y113277D01*
X356167Y113250D01*
Y107250D01*
X354799Y107223D01*
X352495Y107006D01*
X351559Y106815D01*
X350767Y106571D01*
X350119Y106272D01*
X349615Y105919D01*
X349255Y105511D01*
X349039Y105049D01*
X348967Y104533D01*
Y115967D01*
X349039Y115451D01*
D02*
G37*
G36*
X563973Y37215D02*
X564082Y36960D01*
X564263Y36735D01*
X564517Y36540D01*
X564844Y36375D01*
X565243Y36240D01*
X565715Y36135D01*
X566260Y36060D01*
X566877Y36015D01*
X567567Y36000D01*
Y33000D01*
X566877Y32985D01*
X565715Y32865D01*
X565243Y32760D01*
X564844Y32625D01*
X564517Y32460D01*
X564263Y32265D01*
X564082Y32040D01*
X563973Y31785D01*
X563937Y31500D01*
Y37500D01*
X563973Y37215D01*
D02*
G37*
G36*
X573064Y31500D02*
X573027Y31785D01*
X572918Y32040D01*
X572737Y32265D01*
X572483Y32460D01*
X572156Y32625D01*
X571757Y32760D01*
X571285Y32865D01*
X570740Y32940D01*
X570123Y32985D01*
X569433Y33000D01*
Y36000D01*
X570123Y36015D01*
X571285Y36135D01*
X571757Y36240D01*
X572156Y36375D01*
X572483Y36540D01*
X572737Y36735D01*
X572918Y36960D01*
X573027Y37215D01*
X573064Y37500D01*
Y31500D01*
D02*
G37*
G36*
X638720Y41192D02*
X639018Y37298D01*
X639197Y36221D01*
X639416Y35254D01*
X639674Y34398D01*
X639972Y33652D01*
X640311Y33016D01*
X640688Y32491D01*
X627315Y31984D01*
X627578Y32429D01*
X627813Y32996D01*
X628021Y33688D01*
X628201Y34502D01*
X628354Y35440D01*
X628575Y37686D01*
X628686Y40426D01*
X628700Y41981D01*
X638700Y42711D01*
X638720Y41192D01*
D02*
G37*
G36*
X573033Y15533D02*
X572973Y15812D01*
X572793Y16061D01*
X572493Y16281D01*
X572073Y16472D01*
X571533Y16633D01*
X570873Y16765D01*
X570093Y16868D01*
X568547Y16962D01*
X566127Y16765D01*
X565467Y16633D01*
X564927Y16472D01*
X564507Y16281D01*
X564207Y16061D01*
X564027Y15812D01*
X563967Y15533D01*
Y23467D01*
X564027Y23188D01*
X564207Y22939D01*
X564507Y22719D01*
X564927Y22528D01*
X565467Y22367D01*
X566127Y22235D01*
X566907Y22132D01*
X568453Y22037D01*
X570873Y22235D01*
X571533Y22367D01*
X572073Y22528D01*
X572493Y22719D01*
X572793Y22939D01*
X572973Y23188D01*
X573033Y23467D01*
Y15533D01*
D02*
G37*
G36*
X621093Y43535D02*
X621720Y43116D01*
X622500Y42961D01*
X626640D01*
Y40285D01*
X626540Y37828D01*
X626331Y35704D01*
X626198Y34886D01*
X626046Y34202D01*
X625890Y33682D01*
X625750Y33343D01*
X625560Y33023D01*
X625537Y32959D01*
X625028Y32295D01*
X623970Y29741D01*
X623609Y27000D01*
X623865Y25061D01*
X623862Y24957D01*
X623937Y24510D01*
X623970Y24259D01*
X623986Y24221D01*
X624084Y23642D01*
X624193Y22471D01*
X624204Y21379D01*
X624121Y20362D01*
X623949Y19417D01*
X623691Y18539D01*
X623347Y17719D01*
X622917Y16950D01*
X622464Y16319D01*
X620052D01*
X619207Y17682D01*
X619204Y17819D01*
X619339Y18500D01*
Y35500D01*
X619184Y36280D01*
X618742Y36942D01*
X618080Y37384D01*
X617300Y37539D01*
X617221D01*
X617172Y37547D01*
X617070Y37601D01*
X616858Y37815D01*
X616555Y38309D01*
X616228Y39118D01*
X615927Y40233D01*
X615708Y41461D01*
X615815Y42025D01*
X616677Y42961D01*
X618000D01*
X618780Y43116D01*
X619407Y43535D01*
X619448Y43558D01*
X621052D01*
X621093Y43535D01*
D02*
G37*
G36*
X636737Y18887D02*
X635458Y18459D01*
X633045Y17479D01*
X631910Y16926D01*
X629786Y15698D01*
X628797Y15022D01*
X626962Y13546D01*
X626117Y12746D01*
X623221Y14093D01*
X623987Y14943D01*
X624641Y15854D01*
X625183Y16825D01*
X625615Y17855D01*
X625936Y18945D01*
X626145Y20096D01*
X626244Y21306D01*
X626231Y22576D01*
X626107Y23907D01*
X625872Y25297D01*
X636737Y18887D01*
D02*
G37*
G36*
X580973Y22215D02*
X581082Y21960D01*
X581263Y21735D01*
X581517Y21540D01*
X581844Y21375D01*
X582243Y21240D01*
X582715Y21135D01*
X583260Y21060D01*
X583877Y21015D01*
X584333Y21005D01*
X585500Y21000D01*
Y18000D01*
X584166Y17991D01*
X583877Y17985D01*
X582715Y17865D01*
X582243Y17760D01*
X581844Y17625D01*
X581517Y17460D01*
X581263Y17265D01*
X581082Y17040D01*
X580973Y16785D01*
X580937Y16500D01*
Y17970D01*
X578967Y17957D01*
Y21043D01*
X579039Y21035D01*
X579239Y21027D01*
X580937Y21020D01*
Y22500D01*
X580973Y22215D01*
D02*
G37*
G36*
X626640Y127346D02*
Y57039D01*
X622500D01*
X621720Y56884D01*
X621093Y56465D01*
X621052Y56442D01*
X619448D01*
X619407Y56465D01*
X618780Y56884D01*
X618000Y57039D01*
X615360D01*
Y116700D01*
X615120Y118527D01*
X614414Y120230D01*
X613292Y121692D01*
X601545Y133440D01*
X602167Y134940D01*
X605000D01*
X606827Y135180D01*
X608530Y135885D01*
X609992Y137008D01*
X611115Y138470D01*
X611820Y140173D01*
X611830Y140253D01*
X613251Y140735D01*
X626640Y127346D01*
D02*
G37*
G36*
X581250Y121000D02*
X585000Y117250D01*
Y110000D01*
X573000Y98000D01*
X573000Y82750D01*
X547500Y57250D01*
X511000Y57250D01*
X511000Y75000D01*
X537000D01*
X550000Y88000D01*
X550000Y104000D01*
X567000Y121000D01*
X581250Y121000D01*
D02*
G37*
G36*
X402119Y75575D02*
X402661Y74300D01*
X403564Y73175D01*
X404827Y72200D01*
X406450Y71375D01*
X408433Y70700D01*
X410776Y70175D01*
X413479Y69800D01*
X416543Y69575D01*
X419967Y69500D01*
Y54500D01*
X401967Y55533D01*
X401936Y77000D01*
X402119Y75575D01*
D02*
G37*
G36*
X162500Y65776D02*
X162605Y62018D01*
X158895D01*
X159010Y62225D01*
X159113Y62483D01*
X159203Y62792D01*
X159282Y63152D01*
X159349Y63563D01*
X159445Y64538D01*
X159494Y65717D01*
X159500Y66384D01*
X162500Y65776D01*
D02*
G37*
G36*
X168754Y65461D02*
X168924Y62614D01*
X168977Y62354D01*
X169038Y62155D01*
X169105Y62018D01*
X165395D01*
X165462Y62155D01*
X165523Y62354D01*
X165576Y62614D01*
X165622Y62935D01*
X165693Y63761D01*
X165746Y65461D01*
X165750Y66150D01*
X168750D01*
X168754Y65461D01*
D02*
G37*
G36*
X360334Y60400D02*
X360303Y60419D01*
X360227Y60436D01*
X360106Y60451D01*
X359729Y60475D01*
X358000Y60500D01*
Y63500D01*
X360334Y63600D01*
Y60400D01*
D02*
G37*
G36*
X155753Y65461D02*
X155924Y62614D01*
X155977Y62354D01*
X156038Y62155D01*
X156105Y62018D01*
X152395D01*
X152462Y62155D01*
X152523Y62354D01*
X152576Y62614D01*
X152622Y62935D01*
X152693Y63761D01*
X152746Y65461D01*
X152750Y66150D01*
X155750D01*
X155753Y65461D01*
D02*
G37*
G36*
X579723Y55965D02*
X579832Y55710D01*
X580013Y55485D01*
X580267Y55290D01*
X580594Y55125D01*
X580993Y54990D01*
X581465Y54885D01*
X582010Y54810D01*
X582627Y54765D01*
X583317Y54750D01*
Y51750D01*
X582627Y51735D01*
X581465Y51615D01*
X580993Y51510D01*
X580594Y51375D01*
X580267Y51210D01*
X580013Y51015D01*
X579832Y50790D01*
X579723Y50535D01*
X579687Y50250D01*
Y56250D01*
X579723Y55965D01*
D02*
G37*
G36*
X561512Y41120D02*
X561611Y40060D01*
X561698Y39629D01*
X561809Y39265D01*
X561945Y38967D01*
X562106Y38735D01*
X562291Y38569D01*
X562501Y38470D01*
X562736Y38437D01*
X557264D01*
X557499Y38470D01*
X557709Y38569D01*
X557895Y38735D01*
X558055Y38967D01*
X558191Y39265D01*
X558302Y39629D01*
X558389Y40060D01*
X558451Y40557D01*
X558488Y41120D01*
X558500Y41750D01*
X561500D01*
X561512Y41120D01*
D02*
G37*
G36*
X613300Y53250D02*
X608852Y47467D01*
X613300D01*
X613340Y45187D01*
X613657Y41347D01*
X613935Y39787D01*
X614292Y38467D01*
X614728Y37387D01*
X615244Y36547D01*
X615839Y35947D01*
X616513Y35587D01*
X617267Y35467D01*
X600333D01*
X600897Y35587D01*
X601401Y35947D01*
X601846Y36547D01*
X602232Y37387D01*
X602558Y38467D01*
X602825Y39787D01*
X603033Y41347D01*
X603144Y43140D01*
X603000Y44390D01*
X602625Y46115D01*
X602100Y47610D01*
X601425Y48875D01*
X600600Y49910D01*
X599625Y50715D01*
X598500Y51290D01*
X597435Y51578D01*
X597064Y51607D01*
X590530Y51750D01*
Y54750D01*
X592935Y54766D01*
X598083Y55097D01*
X598500Y55210D01*
X599625Y55785D01*
X600600Y56590D01*
X601425Y57625D01*
X602100Y58890D01*
X602625Y60385D01*
X603000Y62110D01*
X603225Y64065D01*
X603300Y66250D01*
X613300Y53250D01*
D02*
G37*
G36*
X565215Y48497D02*
X564960Y48389D01*
X564735Y48209D01*
X564540Y47957D01*
X564375Y47633D01*
X564240Y47237D01*
X564135Y46769D01*
X564060Y46229D01*
X564015Y45617D01*
X564000Y44933D01*
X561000D01*
X560985Y45617D01*
X560865Y46769D01*
X560760Y47237D01*
X560625Y47633D01*
X560460Y47957D01*
X560265Y48209D01*
X560040Y48389D01*
X559785Y48497D01*
X559500Y48533D01*
X565500D01*
X565215Y48497D01*
D02*
G37*
G36*
X529515Y53049D02*
X529735Y49809D01*
X529867Y49017D01*
X530028Y48369D01*
X530219Y47865D01*
X530439Y47505D01*
X530688Y47289D01*
X530967Y47217D01*
X521033D01*
X521502Y47289D01*
X521921Y47505D01*
X522291Y47865D01*
X522612Y48369D01*
X522883Y49017D01*
X523105Y49809D01*
X523278Y50745D01*
X523401Y51825D01*
X523475Y53049D01*
X523500Y54417D01*
X529500D01*
X529515Y53049D01*
D02*
G37*
G36*
X510829Y126030D02*
X510526Y126195D01*
X510137Y126343D01*
X509662Y126474D01*
X509101Y126587D01*
X507722Y126761D01*
X505999Y126865D01*
X503933Y126900D01*
Y131900D01*
X505009Y131909D01*
X508454Y132117D01*
X509101Y132213D01*
X510137Y132457D01*
X510526Y132605D01*
X510829Y132770D01*
Y126030D01*
D02*
G37*
G36*
X380389Y291259D02*
X380469Y291257D01*
X383000Y291250D01*
Y288750D01*
X380362Y288738D01*
Y291262D01*
X380389Y291259D01*
D02*
G37*
G36*
X359906Y291742D02*
X360291Y291357D01*
X360459Y290951D01*
X360451Y290910D01*
Y289090D01*
X360500Y288845D01*
Y286155D01*
X360451Y285910D01*
Y284090D01*
X360500Y283845D01*
Y281155D01*
X360451Y280910D01*
Y279090D01*
X360500Y278845D01*
Y276155D01*
X360451Y275910D01*
Y274090D01*
X359437Y273466D01*
X359008Y273314D01*
X348146D01*
X347427Y273328D01*
X346467Y273393D01*
X345734Y273485D01*
X345532Y273524D01*
X345341Y273652D01*
X343000Y274118D01*
X341806Y273880D01*
X325121Y290565D01*
X325695Y291951D01*
X359129D01*
Y291951D01*
X359265Y291951D01*
X359402D01*
X359906Y291742D01*
D02*
G37*
G36*
X416000Y302000D02*
X422000Y296000D01*
Y293000D01*
X412417D01*
Y288000D01*
X412283Y287999D01*
Y287033D01*
X412211Y287217D01*
X411995Y287381D01*
X411635Y287526D01*
X411131Y287652D01*
X410483Y287758D01*
X409691Y287845D01*
X409314Y287862D01*
X407017Y287696D01*
X406369Y287562D01*
X405865Y287404D01*
X405505Y287221D01*
X405289Y287014D01*
X405217Y286783D01*
Y287999D01*
X405083Y288000D01*
Y293000D01*
X396000D01*
Y295000D01*
X403000Y302000D01*
Y306000D01*
X416000D01*
Y302000D01*
D02*
G37*
G36*
X260805Y285058D02*
X260479Y284548D01*
X260191Y284030D01*
X259941Y283505D01*
X259730Y282973D01*
X259557Y282434D01*
X259423Y281887D01*
X259327Y281332D01*
X259269Y280770D01*
X259250Y280200D01*
X256750D01*
X256731Y280770D01*
X256673Y281332D01*
X256577Y281887D01*
X256443Y282434D01*
X256270Y282973D01*
X256059Y283505D01*
X255809Y284030D01*
X255522Y284548D01*
X255195Y285058D01*
X254830Y285560D01*
X261170D01*
X260805Y285058D01*
D02*
G37*
G36*
X482785Y292010D02*
X483223Y291653D01*
X483683Y291329D01*
X484165Y291037D01*
X484669Y290778D01*
X485195Y290551D01*
X485742Y290356D01*
X486311Y290194D01*
X486903Y290064D01*
X487516Y289967D01*
X483033Y285484D01*
X482936Y286097D01*
X482806Y286689D01*
X482644Y287258D01*
X482449Y287806D01*
X482222Y288331D01*
X481963Y288835D01*
X481671Y289317D01*
X481347Y289777D01*
X480990Y290215D01*
X480601Y290631D01*
X482369Y292399D01*
X482785Y292010D01*
D02*
G37*
G36*
X316618Y292145D02*
X317590Y291951D01*
X319410D01*
X320382Y292145D01*
X321000Y292558D01*
X321618Y292145D01*
X321919Y292085D01*
X322105Y291980D01*
X323018Y290745D01*
X323082Y290565D01*
X323237Y289785D01*
X323679Y289123D01*
X323679Y289123D01*
X340364Y272438D01*
X340531Y272327D01*
X340673Y272185D01*
X340859Y272108D01*
X341026Y271996D01*
X341223Y271957D01*
X341408Y271880D01*
X341609D01*
X341806Y271841D01*
X342003Y271880D01*
X342204D01*
X343000Y272038D01*
X344716Y271697D01*
X344771Y271675D01*
X345134Y271524D01*
X345141D01*
X345146Y271522D01*
X345348Y271483D01*
X345415Y271483D01*
X345479Y271462D01*
X346212Y271370D01*
X346272Y271374D01*
X346329Y271359D01*
X346658Y271336D01*
X347290Y271294D01*
X347338Y271300D01*
X347386Y271290D01*
X348061Y271276D01*
X348105Y271275D01*
X348125Y271279D01*
X348146Y271275D01*
X358444D01*
X358768Y271193D01*
X359556Y269814D01*
X359537Y269765D01*
X359021Y268870D01*
X358444Y268725D01*
X350411D01*
X350291Y268702D01*
X350169Y268711D01*
X349811Y268668D01*
X349719Y268639D01*
X349623Y268637D01*
X349283Y268564D01*
X349183Y268521D01*
X349075Y268507D01*
X348799Y268416D01*
X348693Y268356D01*
X348575Y268328D01*
X348356Y268225D01*
X348249Y268147D01*
X348126Y268099D01*
X347952Y267989D01*
X347851Y267892D01*
X347728Y267825D01*
X347586Y267704D01*
X347497Y267593D01*
X347383Y267507D01*
X347259Y267368D01*
X347187Y267248D01*
X347088Y267149D01*
X347068Y267119D01*
X347007Y267030D01*
X347006Y267025D01*
X347002Y267022D01*
X346880Y266728D01*
X346854Y266683D01*
X346850Y266654D01*
X346825Y266595D01*
X345856Y265144D01*
X344546Y264269D01*
X343000Y263962D01*
X341455Y264269D01*
X340144Y265144D01*
X339269Y266455D01*
X338962Y268000D01*
X339120Y268796D01*
Y268997D01*
X339159Y269194D01*
X339120Y269391D01*
Y269592D01*
X339043Y269777D01*
X339004Y269974D01*
X338892Y270141D01*
X338815Y270327D01*
X338673Y270469D01*
X338562Y270636D01*
X320319Y288878D01*
X319658Y289320D01*
X318878Y289475D01*
X316041D01*
X316000Y289467D01*
X315959Y289475D01*
X311366D01*
X311136Y289642D01*
X310296Y290968D01*
X310411Y291347D01*
X311618Y292145D01*
X312590Y291951D01*
X314410D01*
X315382Y292145D01*
X316000Y292558D01*
X316618Y292145D01*
D02*
G37*
G36*
X329907Y311510D02*
X327093D01*
X327122Y311612D01*
X327149Y311766D01*
X327173Y311972D01*
X327225Y312901D01*
X327250Y314867D01*
X329750D01*
X329907Y311510D01*
D02*
G37*
G36*
X334907D02*
X332093D01*
X332122Y311612D01*
X332149Y311766D01*
X332173Y311972D01*
X332225Y312901D01*
X332250Y314867D01*
X334750D01*
X334907Y311510D01*
D02*
G37*
G36*
X319907D02*
X317093D01*
X317122Y311612D01*
X317149Y311766D01*
X317173Y311972D01*
X317225Y312901D01*
X317250Y314867D01*
X319750D01*
X319907Y311510D01*
D02*
G37*
G36*
X314907D02*
X312093D01*
X312122Y311612D01*
X312149Y311766D01*
X312173Y311972D01*
X312225Y312901D01*
X312250Y314867D01*
X314750D01*
X314907Y311510D01*
D02*
G37*
G36*
X380112Y261378D02*
X380266Y261351D01*
X380472Y261327D01*
X381401Y261275D01*
X383367Y261250D01*
Y258750D01*
X380010Y258593D01*
Y261407D01*
X380112Y261378D01*
D02*
G37*
G36*
X281990Y263593D02*
X281888Y263622D01*
X281734Y263649D01*
X281528Y263673D01*
X280599Y263725D01*
X278633Y263750D01*
Y266250D01*
X281990Y266407D01*
Y263593D01*
D02*
G37*
G36*
Y258593D02*
X281888Y258622D01*
X281734Y258649D01*
X281528Y258673D01*
X280599Y258725D01*
X278633Y258750D01*
Y261250D01*
X281990Y261407D01*
Y258593D01*
D02*
G37*
G36*
X380112Y256378D02*
X380266Y256351D01*
X380472Y256327D01*
X381401Y256275D01*
X383367Y256250D01*
Y253750D01*
X380010Y253593D01*
Y256407D01*
X380112Y256378D01*
D02*
G37*
G36*
X122880Y262703D02*
X123004Y262451D01*
X123209Y262228D01*
X123497Y262035D01*
X123867Y261871D01*
X124319Y261738D01*
X124854Y261634D01*
X125471Y261559D01*
X126169Y261515D01*
X126951Y261500D01*
Y258500D01*
X126169Y258485D01*
X124854Y258366D01*
X124319Y258262D01*
X123867Y258129D01*
X123497Y257965D01*
X123209Y257772D01*
X123004Y257549D01*
X122880Y257297D01*
X122839Y257014D01*
Y262986D01*
X122880Y262703D01*
D02*
G37*
G36*
X362990Y268593D02*
X362888Y268622D01*
X362734Y268649D01*
X362528Y268673D01*
X361599Y268725D01*
X359633Y268750D01*
Y271250D01*
X362990Y271407D01*
Y268593D01*
D02*
G37*
G36*
X380112Y281378D02*
X380266Y281351D01*
X380472Y281327D01*
X381401Y281275D01*
X383367Y281250D01*
Y278750D01*
X380010Y278593D01*
Y281407D01*
X380112Y281378D01*
D02*
G37*
G36*
X248805Y284058D02*
X248479Y283548D01*
X248191Y283030D01*
X247941Y282505D01*
X247730Y281973D01*
X247557Y281434D01*
X247423Y280886D01*
X247327Y280332D01*
X247269Y279770D01*
X247250Y279200D01*
X244750D01*
X244731Y279770D01*
X244673Y280332D01*
X244577Y280886D01*
X244443Y281434D01*
X244270Y281973D01*
X244059Y282505D01*
X243809Y283030D01*
X243521Y283548D01*
X243195Y284058D01*
X242830Y284560D01*
X249170D01*
X248805Y284058D01*
D02*
G37*
G36*
X395783Y273783D02*
X392783Y273750D01*
Y276250D01*
X393357Y276262D01*
X394324Y276362D01*
X394718Y276450D01*
X395051Y276562D01*
X395324Y276700D01*
X395536Y276863D01*
X395689Y277050D01*
X395781Y277262D01*
X395813Y277500D01*
X395783Y273783D01*
D02*
G37*
G36*
X444432Y274007D02*
X444072Y273942D01*
X443704Y273835D01*
X443327Y273684D01*
X442943Y273491D01*
X442550Y273254D01*
X442148Y272974D01*
X441739Y272651D01*
X440894Y271877D01*
X437359D01*
X437750Y272285D01*
X438062Y272651D01*
X438294Y272974D01*
X438448Y273254D01*
X438523Y273491D01*
X438519Y273684D01*
X438436Y273835D01*
X438274Y273942D01*
X438033Y274007D01*
X437712Y274028D01*
X444784D01*
X444432Y274007D01*
D02*
G37*
G36*
X380112Y276378D02*
X380266Y276351D01*
X380472Y276327D01*
X381401Y276275D01*
X383367Y276250D01*
Y273750D01*
X380010Y273593D01*
Y276407D01*
X380112Y276378D01*
D02*
G37*
G36*
X446755Y366290D02*
X446544Y366180D01*
X446358Y366005D01*
X446197Y365764D01*
X446060Y365456D01*
X445949Y365082D01*
X445862Y364642D01*
X445800Y364136D01*
X445762Y363563D01*
X445750Y362925D01*
X443250Y362835D01*
X443238Y363470D01*
X443138Y364537D01*
X443051Y364968D01*
X442940Y365332D01*
X442803Y365628D01*
X442642Y365855D01*
X442456Y366015D01*
X442245Y366107D01*
X442009Y366131D01*
X446991Y366333D01*
X446755Y366290D01*
D02*
G37*
G36*
X178255Y366198D02*
X178044Y366097D01*
X177858Y365929D01*
X177697Y365694D01*
X177560Y365391D01*
X177449Y365021D01*
X177362Y364583D01*
X177300Y364079D01*
X177262Y363507D01*
X177250Y362867D01*
X174750D01*
X174738Y363507D01*
X174638Y364583D01*
X174551Y365021D01*
X174440Y365391D01*
X174303Y365694D01*
X174142Y365929D01*
X173956Y366097D01*
X173745Y366198D01*
X173509Y366232D01*
X178491D01*
X178255Y366198D01*
D02*
G37*
G36*
X406755Y366290D02*
X406544Y366180D01*
X406358Y366005D01*
X406197Y365764D01*
X406060Y365456D01*
X405949Y365082D01*
X405862Y364642D01*
X405800Y364136D01*
X405762Y363563D01*
X405750Y362925D01*
X403250Y362835D01*
X403238Y363470D01*
X403138Y364537D01*
X403051Y364968D01*
X402940Y365332D01*
X402803Y365628D01*
X402642Y365855D01*
X402456Y366015D01*
X402245Y366107D01*
X402009Y366131D01*
X406991Y366333D01*
X406755Y366290D01*
D02*
G37*
G36*
X303251Y366568D02*
X303041Y366438D01*
X302855Y366245D01*
X302695Y365987D01*
X302559Y365666D01*
X302448Y365281D01*
X302361Y364832D01*
X302299Y364319D01*
X302262Y363742D01*
X302250Y363102D01*
X299750Y362777D01*
X299738Y363411D01*
X299638Y364468D01*
X299551Y364892D01*
X299440Y365244D01*
X299303Y365527D01*
X299142Y365739D01*
X298956Y365881D01*
X298745Y365953D01*
X298509Y365954D01*
X303486Y366633D01*
X303251Y366568D01*
D02*
G37*
G36*
X323251D02*
X323041Y366438D01*
X322855Y366245D01*
X322695Y365987D01*
X322559Y365666D01*
X322448Y365281D01*
X322361Y364832D01*
X322299Y364319D01*
X322262Y363742D01*
X322250Y363102D01*
X319750Y362777D01*
X319738Y363411D01*
X319638Y364468D01*
X319552Y364892D01*
X319440Y365244D01*
X319303Y365527D01*
X319142Y365739D01*
X318956Y365881D01*
X318745Y365953D01*
X318509Y365954D01*
X323486Y366633D01*
X323251Y366568D01*
D02*
G37*
G36*
X198255Y366198D02*
X198044Y366097D01*
X197858Y365929D01*
X197697Y365694D01*
X197560Y365391D01*
X197449Y365021D01*
X197362Y364583D01*
X197300Y364079D01*
X197262Y363507D01*
X197250Y362867D01*
X194750D01*
X194738Y363507D01*
X194638Y364583D01*
X194552Y365021D01*
X194440Y365391D01*
X194303Y365694D01*
X194142Y365929D01*
X193956Y366097D01*
X193745Y366198D01*
X193509Y366232D01*
X198491D01*
X198255Y366198D01*
D02*
G37*
G36*
X386761Y366263D02*
X386433Y366264D01*
X386082Y366207D01*
X385707Y366091D01*
X385309Y365918D01*
X384887Y365687D01*
X384442Y365398D01*
X383974Y365051D01*
X382967Y364182D01*
X382429Y363661D01*
X379368Y364135D01*
X379842Y364627D01*
X380538Y365466D01*
X380759Y365812D01*
X380897Y366110D01*
X380950Y366359D01*
X380919Y366559D01*
X380804Y366712D01*
X380605Y366815D01*
X380322Y366870D01*
X386761Y366263D01*
D02*
G37*
G36*
X358373Y368583D02*
X358268Y368815D01*
X358123Y368972D01*
X357938Y369052D01*
X357713Y369057D01*
X357447Y368987D01*
X357141Y368840D01*
X356796Y368618D01*
X356409Y368321D01*
X355983Y367947D01*
X355516Y367498D01*
X354636Y370154D01*
X355101Y370636D01*
X355858Y371533D01*
X356150Y371946D01*
X356385Y372337D01*
X356562Y372705D01*
X356681Y373050D01*
X356742Y373372D01*
X356745Y373671D01*
X356692Y373946D01*
X358373Y368583D01*
D02*
G37*
G36*
X423362Y365854D02*
X423118Y365941D01*
X422849Y365967D01*
X422553Y365933D01*
X422233Y365839D01*
X421887Y365685D01*
X421516Y365470D01*
X421120Y365196D01*
X420698Y364861D01*
X420251Y364466D01*
X419779Y364011D01*
X417461Y365228D01*
X417903Y365689D01*
X418575Y366501D01*
X418804Y366853D01*
X418961Y367170D01*
X419047Y367450D01*
X419062Y367694D01*
X419006Y367902D01*
X418878Y368074D01*
X418679Y368210D01*
X423362Y365854D01*
D02*
G37*
G36*
X375868Y368459D02*
X377391Y366475D01*
X377477Y365163D01*
X348200Y335886D01*
X346814Y336460D01*
Y355877D01*
X357402Y366466D01*
X359376Y364952D01*
X361687Y363994D01*
X364167Y363668D01*
X366647Y363994D01*
X368958Y364952D01*
X370942Y366474D01*
X372465Y368459D01*
X373422Y370770D01*
X374911D01*
X375868Y368459D01*
D02*
G37*
G36*
X435868D02*
X437391Y366474D01*
X439376Y364952D01*
X441119Y364230D01*
X441186Y363505D01*
Y328873D01*
X429627Y317314D01*
X400040D01*
X398772Y317061D01*
X397697Y316343D01*
X382657Y301303D01*
X381939Y300228D01*
X381686Y298960D01*
Y294314D01*
X380186Y293414D01*
X380010Y293449D01*
X363271D01*
X362531Y294031D01*
X361949Y294771D01*
Y311510D01*
X361938Y311564D01*
X361944Y311605D01*
X361814Y314393D01*
Y323127D01*
X381873Y343186D01*
X400500D01*
X401768Y343439D01*
X402843Y344157D01*
X421796Y363109D01*
X422008Y363297D01*
X422336Y363557D01*
X422609Y363746D01*
X422788Y363850D01*
X424167Y363668D01*
X426647Y363994D01*
X428958Y364952D01*
X430942Y366474D01*
X432465Y368459D01*
X433422Y370770D01*
X434911D01*
X435868Y368459D01*
D02*
G37*
G36*
X354907Y311510D02*
X352093D01*
X352122Y311612D01*
X352149Y311766D01*
X352173Y311972D01*
X352225Y312901D01*
X352250Y314867D01*
X354750D01*
X354907Y311510D01*
D02*
G37*
G36*
X359907D02*
X357093D01*
X357122Y311612D01*
X357149Y311766D01*
X357173Y311972D01*
X357225Y312901D01*
X357250Y314867D01*
X359750D01*
X359907Y311510D01*
D02*
G37*
G36*
X349907D02*
X347093D01*
X347122Y311612D01*
X347149Y311766D01*
X347173Y311972D01*
X347225Y312901D01*
X347250Y314867D01*
X349750D01*
X349907Y311510D01*
D02*
G37*
G36*
X339907D02*
X337093D01*
X337122Y311612D01*
X337149Y311766D01*
X337173Y311972D01*
X337225Y312901D01*
X337250Y314867D01*
X339750D01*
X339907Y311510D01*
D02*
G37*
G36*
X344907D02*
X342093D01*
X342122Y311612D01*
X342149Y311766D01*
X342173Y311972D01*
X342225Y312901D01*
X342250Y314867D01*
X344750D01*
X344907Y311510D01*
D02*
G37*
G36*
X187702Y368459D02*
X189225Y366474D01*
X191209Y364952D01*
X192601Y364375D01*
X192617Y364290D01*
X192686Y363544D01*
Y346000D01*
X192939Y344732D01*
X193657Y343657D01*
X209640Y327673D01*
X209056Y326138D01*
X208155Y326032D01*
X179314Y354873D01*
Y363626D01*
X179331Y363888D01*
X179377Y364260D01*
X179400Y364375D01*
X180791Y364952D01*
X182775Y366474D01*
X184298Y368459D01*
X185256Y370770D01*
X186745D01*
X187702Y368459D01*
D02*
G37*
G36*
X283251Y366568D02*
X283041Y366438D01*
X282855Y366245D01*
X282695Y365987D01*
X282559Y365666D01*
X282448Y365281D01*
X282361Y364832D01*
X282299Y364319D01*
X282262Y363742D01*
X282250Y363102D01*
X279750Y362777D01*
X279738Y363411D01*
X279638Y364468D01*
X279551Y364892D01*
X279440Y365244D01*
X279303Y365527D01*
X279142Y365739D01*
X278956Y365881D01*
X278745Y365953D01*
X278509Y365954D01*
X283486Y366633D01*
X283251Y366568D01*
D02*
G37*
G36*
X395868Y368459D02*
X397391Y366474D01*
X399376Y364952D01*
X400980Y364287D01*
X401158Y362844D01*
X392627Y354314D01*
X378121D01*
X377500Y355814D01*
X384482Y362796D01*
X385249Y363457D01*
X385606Y363722D01*
X385867Y363892D01*
X386647Y363994D01*
X388958Y364952D01*
X390942Y366474D01*
X392465Y368459D01*
X393422Y370770D01*
X394911D01*
X395868Y368459D01*
D02*
G37*
G36*
X291785D02*
X293308Y366474D01*
X295292Y364952D01*
X297603Y363994D01*
X297635Y363990D01*
X297686Y363444D01*
Y350000D01*
X297939Y348732D01*
X298657Y347657D01*
X306614Y339699D01*
X306040Y338314D01*
X290373D01*
X284314Y344372D01*
Y363865D01*
X284331Y364132D01*
X284377Y364517D01*
X284425Y364766D01*
X284874Y364952D01*
X286859Y366474D01*
X288382Y368459D01*
X289339Y370770D01*
X290828D01*
X291785Y368459D01*
D02*
G37*
G36*
X311785D02*
X313308Y366474D01*
X315292Y364952D01*
X317603Y363994D01*
X317635Y363990D01*
X317686Y363444D01*
Y340121D01*
X316186Y339500D01*
X304314Y351372D01*
Y363865D01*
X304331Y364132D01*
X304377Y364517D01*
X304425Y364766D01*
X304874Y364952D01*
X306859Y366474D01*
X308382Y368459D01*
X309339Y370770D01*
X310828D01*
X311785Y368459D01*
D02*
G37*
G36*
X151474Y156504D02*
X151863Y156357D01*
X152338Y156226D01*
X152899Y156113D01*
X154278Y155939D01*
X156001Y155835D01*
X158067Y155800D01*
Y150800D01*
X156991Y150791D01*
X153546Y150583D01*
X152899Y150487D01*
X151863Y150243D01*
X151474Y150096D01*
X151171Y149930D01*
Y156670D01*
X151474Y156504D01*
D02*
G37*
G36*
X221838Y147071D02*
X221431Y146646D01*
X220744Y145820D01*
X220465Y145419D01*
X220229Y145027D01*
X220035Y144642D01*
X219884Y144265D01*
X219775Y143896D01*
X219709Y143535D01*
X219687Y143181D01*
X219717Y149717D01*
X219960Y149726D01*
X220196Y149753D01*
X220425Y149797D01*
X220648Y149859D01*
X220863Y149939D01*
X221072Y150037D01*
X221274Y150153D01*
X221469Y150286D01*
X221657Y150437D01*
X221838Y150606D01*
Y147071D01*
D02*
G37*
G36*
X198283Y140283D02*
X198223Y140704D01*
X198043Y141081D01*
X197743Y141414D01*
X197323Y141702D01*
X196783Y141946D01*
X196123Y142145D01*
X195343Y142301D01*
X194443Y142411D01*
X193423Y142478D01*
X192283Y142500D01*
Y147500D01*
X193423Y147522D01*
X195343Y147700D01*
X196123Y147855D01*
X196783Y148054D01*
X197323Y148298D01*
X197743Y148586D01*
X198043Y148919D01*
X198223Y149296D01*
X198283Y149717D01*
Y140283D01*
D02*
G37*
G36*
X442313Y143097D02*
X442290Y143222D01*
X442221Y143332D01*
X442105Y143430D01*
X441943Y143515D01*
X441735Y143587D01*
X441481Y143646D01*
X441180Y143691D01*
X440833Y143724D01*
X440000Y143750D01*
Y146250D01*
X440440Y146257D01*
X441180Y146309D01*
X441481Y146354D01*
X441735Y146413D01*
X441943Y146485D01*
X442105Y146570D01*
X442221Y146668D01*
X442290Y146778D01*
X442313Y146903D01*
Y143097D01*
D02*
G37*
G36*
X219717Y162512D02*
X219808Y162300D01*
X219959Y162113D01*
X220171Y161950D01*
X220444Y161812D01*
X220777Y161700D01*
X221171Y161612D01*
X221626Y161550D01*
X222141Y161513D01*
X222717Y161500D01*
Y159000D01*
X222141Y158988D01*
X221171Y158888D01*
X220777Y158800D01*
X220444Y158687D01*
X220171Y158550D01*
X219959Y158387D01*
X219808Y158200D01*
X219717Y157987D01*
X219687Y157750D01*
Y162750D01*
X219717Y162512D01*
D02*
G37*
G36*
X167507Y163139D02*
X167667Y160796D01*
X167741Y160357D01*
X167828Y159977D01*
X167929Y159656D01*
X168042Y159393D01*
X168170Y159190D01*
X161830D01*
X161958Y159393D01*
X162071Y159656D01*
X162172Y159977D01*
X162259Y160357D01*
X162333Y160796D01*
X162440Y161850D01*
X162493Y163139D01*
X162500Y163873D01*
X167500D01*
X167507Y163139D01*
D02*
G37*
G36*
X442313Y157500D02*
X442283Y157738D01*
X442192Y157950D01*
X442041Y158138D01*
X441829Y158300D01*
X441556Y158438D01*
X441222Y158550D01*
X440829Y158638D01*
X440374Y158700D01*
X439859Y158737D01*
X439283Y158750D01*
Y161250D01*
X439859Y161262D01*
X440829Y161362D01*
X441222Y161450D01*
X441556Y161562D01*
X441829Y161700D01*
X442041Y161863D01*
X442192Y162050D01*
X442283Y162262D01*
X442313Y162500D01*
Y157500D01*
D02*
G37*
G36*
X463749Y161525D02*
X463931Y161100D01*
X464233Y160725D01*
X464656Y160400D01*
X465199Y160125D01*
X465862Y159900D01*
X466645Y159725D01*
X467549Y159600D01*
X468573Y159525D01*
X469717Y159500D01*
Y154500D01*
X468577Y154493D01*
X464677Y154242D01*
X464257Y154149D01*
X463957Y154041D01*
X463777Y153919D01*
X463717Y153783D01*
X463686Y162000D01*
X463749Y161525D01*
D02*
G37*
G36*
X198283Y155283D02*
X198223Y155704D01*
X198043Y156081D01*
X197743Y156414D01*
X197323Y156702D01*
X196783Y156946D01*
X196123Y157145D01*
X195343Y157301D01*
X194443Y157411D01*
X193423Y157478D01*
X192283Y157500D01*
Y162500D01*
X193423Y162522D01*
X195343Y162700D01*
X196123Y162855D01*
X196783Y163054D01*
X197323Y163298D01*
X197743Y163586D01*
X198043Y163919D01*
X198223Y164296D01*
X198283Y164717D01*
Y155283D01*
D02*
G37*
G36*
X326732Y186455D02*
X326780Y186420D01*
X360043Y153157D01*
X361118Y152439D01*
X362386Y152186D01*
X428128D01*
X437657Y142657D01*
X438732Y141939D01*
X440000Y141686D01*
X440211D01*
Y139000D01*
X440366Y138220D01*
X440808Y137558D01*
X441470Y137116D01*
X442250Y136961D01*
X450750D01*
X451530Y137116D01*
X452098Y137495D01*
X452168Y137535D01*
X453000Y137549D01*
X453833Y137535D01*
X453902Y137495D01*
X454470Y137116D01*
X455250Y136961D01*
X463750D01*
X464530Y137116D01*
X465192Y137558D01*
X465634Y138220D01*
X465765Y138876D01*
X466004Y138996D01*
X466424Y139138D01*
X466983Y139262D01*
X468445Y139412D01*
X472057D01*
X472764Y138089D01*
X472598Y137841D01*
X472132Y135500D01*
X472598Y133159D01*
X472793Y132867D01*
X472800Y132849D01*
X472839Y132671D01*
X472851Y132509D01*
X472840Y132345D01*
X472801Y132162D01*
X472724Y131947D01*
X472597Y131696D01*
X472491Y131531D01*
X472171Y131299D01*
X472156Y131289D01*
X465500D01*
X464720Y131134D01*
X464058Y130692D01*
X463616Y130030D01*
X463485Y129374D01*
X463246Y129254D01*
X462826Y129112D01*
X462267Y128988D01*
X461915Y128952D01*
X461319Y129057D01*
X460863Y129180D01*
X460690Y129249D01*
X460634Y129530D01*
X460192Y130192D01*
X459530Y130634D01*
X458750Y130789D01*
X449250D01*
X448470Y130634D01*
X447808Y130192D01*
X447366Y129530D01*
X447310Y129249D01*
X447137Y129180D01*
X446681Y129057D01*
X446082Y128952D01*
X445726Y128923D01*
X445660Y128929D01*
X445015Y129028D01*
X444538Y129140D01*
X444403Y129187D01*
X444384Y129280D01*
X443942Y129942D01*
X443280Y130384D01*
X442895Y130461D01*
X442894Y130461D01*
X442893Y130461D01*
X442500Y130539D01*
X433000D01*
X432220Y130384D01*
X431558Y129942D01*
X431116Y129280D01*
X430961Y128500D01*
Y120000D01*
X431116Y119220D01*
X431495Y118652D01*
X431535Y118582D01*
X431549Y117750D01*
X431535Y116917D01*
X431495Y116848D01*
X431116Y116280D01*
X431017Y115783D01*
X430912Y115550D01*
X430798Y115357D01*
X430541Y115131D01*
X429461Y114657D01*
X429454Y114660D01*
X429101Y114843D01*
X428762Y115052D01*
X428377Y115328D01*
X428214Y115401D01*
X427091Y116152D01*
X424750Y116617D01*
X422409Y116152D01*
X420424Y114826D01*
X419098Y112841D01*
X418633Y110500D01*
X419098Y108159D01*
X420424Y106174D01*
X422409Y104848D01*
X422410Y104848D01*
X422262Y103348D01*
X353997D01*
X353351Y104848D01*
X353549Y105057D01*
X354560Y105152D01*
X360250D01*
X362201Y105540D01*
X363855Y106645D01*
X380105Y122895D01*
X381210Y124549D01*
X381598Y126500D01*
Y135327D01*
X381910Y135615D01*
X383410Y134957D01*
Y128270D01*
X392730D01*
Y147090D01*
X386000D01*
X385009Y146893D01*
X384169Y146331D01*
X383607Y145491D01*
X383410Y144500D01*
Y142618D01*
X381910Y142203D01*
X380826Y143826D01*
X378841Y145152D01*
X376500Y145618D01*
X374159Y145152D01*
X372174Y143826D01*
X370848Y141841D01*
X370382Y139500D01*
X370848Y137159D01*
X371314Y136462D01*
X371402Y134270D01*
Y128612D01*
X358138Y115348D01*
X354393D01*
X353770Y115389D01*
X352826Y115508D01*
X352064Y115663D01*
X351498Y115838D01*
X351139Y116003D01*
X351022Y116085D01*
X350884Y116780D01*
X350442Y117442D01*
X349780Y117884D01*
X349000Y118039D01*
X335500D01*
X334720Y117884D01*
X334058Y117442D01*
X333616Y116780D01*
X333478Y116085D01*
X333361Y116003D01*
X333002Y115838D01*
X332436Y115663D01*
X331705Y115514D01*
X330127Y115366D01*
X329770Y115389D01*
X328826Y115508D01*
X328064Y115663D01*
X327498Y115838D01*
X327139Y116003D01*
X327022Y116085D01*
X326884Y116780D01*
X326442Y117442D01*
X325780Y117884D01*
X325000Y118039D01*
X311500D01*
X310720Y117884D01*
X310058Y117442D01*
X309616Y116780D01*
X309461Y116000D01*
Y104500D01*
X309616Y103720D01*
X310058Y103058D01*
X310720Y102616D01*
X311500Y102461D01*
X325000D01*
X325780Y102616D01*
X326442Y103058D01*
X326884Y103720D01*
X327022Y104415D01*
X327139Y104497D01*
X327498Y104662D01*
X328064Y104837D01*
X328795Y104986D01*
X330373Y105134D01*
X330730Y105111D01*
X331674Y104992D01*
X332436Y104837D01*
X333002Y104662D01*
X333361Y104497D01*
X333478Y104415D01*
X333616Y103720D01*
X334058Y103058D01*
X334720Y102616D01*
X335500Y102461D01*
X340224D01*
X340997Y101102D01*
X340638Y100539D01*
X335500D01*
X334720Y100384D01*
X334058Y99942D01*
X333743Y99471D01*
X333318Y99365D01*
X332704Y99263D01*
X330281Y99098D01*
X329985D01*
X328658Y99166D01*
X327838Y99256D01*
X327182Y99365D01*
X326757Y99471D01*
X326442Y99942D01*
X325780Y100384D01*
X325000Y100539D01*
X311500D01*
X310720Y100384D01*
X310058Y99942D01*
X309616Y99280D01*
X309580Y99098D01*
X308250D01*
X306299Y98710D01*
X304645Y97605D01*
X297895Y90855D01*
X296790Y89201D01*
X296402Y87250D01*
Y72060D01*
X280924D01*
X278039Y74946D01*
Y92500D01*
X277884Y93280D01*
X277783Y93431D01*
X278456Y94931D01*
X279000D01*
X280366Y95203D01*
X281523Y95977D01*
X296023Y110477D01*
X296797Y111634D01*
X297069Y113000D01*
Y138716D01*
X297094Y139011D01*
X297159Y139460D01*
X297249Y139887D01*
X297362Y140292D01*
X297499Y140677D01*
X297659Y141046D01*
X297843Y141398D01*
X298052Y141738D01*
X298328Y142123D01*
X298401Y142286D01*
X299152Y143409D01*
X299618Y145750D01*
X299152Y148091D01*
X297826Y150076D01*
X295841Y151402D01*
X293500Y151868D01*
X291809Y151531D01*
X291688Y151507D01*
X291103Y152920D01*
X291177Y152970D01*
X291457Y153157D01*
X324738Y186438D01*
X324928Y186530D01*
X326732Y186455D01*
D02*
G37*
G36*
X479858Y131838D02*
X479661Y131736D01*
X479428Y131589D01*
X479160Y131396D01*
X478516Y130873D01*
X477283Y129745D01*
X477060Y129527D01*
X477001Y129466D01*
X476074Y128400D01*
X475735Y127939D01*
X475478Y127526D01*
X475304Y127161D01*
X475213Y126844D01*
X475205Y126575D01*
X475279Y126354D01*
X475437Y126181D01*
X471432Y129186D01*
X471649Y129074D01*
X471905Y129034D01*
X472198Y129067D01*
X472530Y129173D01*
X472900Y129352D01*
X473308Y129604D01*
X473754Y129928D01*
X474002Y130132D01*
X474072Y130221D01*
X474370Y130682D01*
X474601Y131142D01*
X474766Y131601D01*
X474864Y132059D01*
X474896Y132516D01*
X474861Y132971D01*
X474760Y133426D01*
X474593Y133880D01*
X479858Y131838D01*
D02*
G37*
G36*
X465533Y120283D02*
X465473Y120562D01*
X465293Y120811D01*
X464993Y121031D01*
X464573Y121222D01*
X464033Y121383D01*
X463373Y121515D01*
X462593Y121618D01*
X462332Y121634D01*
X460877Y121515D01*
X460217Y121383D01*
X459677Y121222D01*
X459257Y121031D01*
X458957Y120811D01*
X458777Y120562D01*
X458717Y120283D01*
Y128717D01*
X458777Y128343D01*
X458957Y128009D01*
X459257Y127714D01*
X459677Y127458D01*
X460217Y127242D01*
X460877Y127065D01*
X461657Y126927D01*
X461899Y126901D01*
X462593Y126972D01*
X463373Y127145D01*
X464033Y127367D01*
X464573Y127638D01*
X464993Y127959D01*
X465293Y128329D01*
X465473Y128748D01*
X465533Y129217D01*
Y120283D01*
D02*
G37*
G36*
X288852Y131117D02*
X288569Y130655D01*
X288318Y130175D01*
X288101Y129676D01*
X287917Y129158D01*
X287767Y128623D01*
X287650Y128068D01*
X287567Y127494D01*
X287517Y126902D01*
X287500Y126292D01*
X284500D01*
X284483Y126902D01*
X284433Y127494D01*
X284350Y128068D01*
X284233Y128623D01*
X284083Y129158D01*
X283899Y129676D01*
X283682Y130175D01*
X283431Y130655D01*
X283148Y131117D01*
X282830Y131560D01*
X289170D01*
X288852Y131117D01*
D02*
G37*
G36*
X449283Y120283D02*
X449223Y120562D01*
X449043Y120811D01*
X448743Y121031D01*
X448323Y121222D01*
X447783Y121383D01*
X447123Y121515D01*
X446343Y121618D01*
X446008Y121638D01*
X445407Y121595D01*
X444627Y121475D01*
X443967Y121321D01*
X443427Y121132D01*
X443007Y120909D01*
X442707Y120651D01*
X442527Y120359D01*
X442467Y120033D01*
Y128467D01*
X442527Y128141D01*
X442707Y127849D01*
X443007Y127591D01*
X443427Y127368D01*
X443967Y127179D01*
X444627Y127025D01*
X445407Y126904D01*
X445713Y126875D01*
X446343Y126927D01*
X447123Y127065D01*
X447783Y127242D01*
X448323Y127458D01*
X448743Y127714D01*
X449043Y128009D01*
X449223Y128343D01*
X449283Y128717D01*
Y120283D01*
D02*
G37*
G36*
X510829Y138730D02*
X510526Y138896D01*
X510137Y139043D01*
X509662Y139174D01*
X509101Y139287D01*
X507722Y139461D01*
X505999Y139565D01*
X503933Y139600D01*
Y144600D01*
X505009Y144609D01*
X508454Y144817D01*
X509101Y144913D01*
X510137Y145157D01*
X510526Y145304D01*
X510829Y145470D01*
Y138730D01*
D02*
G37*
G36*
X463777Y148093D02*
X463957Y147759D01*
X464257Y147464D01*
X464677Y147208D01*
X465217Y146992D01*
X465877Y146815D01*
X466657Y146677D01*
X467557Y146579D01*
X469717Y146500D01*
Y141500D01*
X468577Y141475D01*
X466657Y141278D01*
X465877Y141105D01*
X465217Y140883D01*
X464677Y140612D01*
X464257Y140291D01*
X463957Y139921D01*
X463777Y139502D01*
X463717Y139033D01*
Y148467D01*
X463777Y148093D01*
D02*
G37*
G36*
X296352Y142867D02*
X296069Y142405D01*
X295818Y141925D01*
X295601Y141426D01*
X295417Y140908D01*
X295267Y140372D01*
X295150Y139818D01*
X295067Y139244D01*
X295017Y138652D01*
X295000Y138042D01*
X292000D01*
X291983Y138652D01*
X291933Y139244D01*
X291850Y139818D01*
X291733Y140372D01*
X291583Y140908D01*
X291399Y141426D01*
X291182Y141925D01*
X290931Y142405D01*
X290648Y142867D01*
X290330Y143310D01*
X296670D01*
X296352Y142867D01*
D02*
G37*
G36*
X379637Y136978D02*
X379609Y136821D01*
X379583Y136589D01*
X379527Y135440D01*
X379500Y132854D01*
X373500D01*
X373330Y137060D01*
X379670D01*
X379637Y136978D01*
D02*
G37*
G36*
X151474Y143805D02*
X151863Y143657D01*
X152338Y143526D01*
X152899Y143413D01*
X154278Y143239D01*
X156001Y143135D01*
X158067Y143100D01*
Y138100D01*
X156991Y138091D01*
X153546Y137883D01*
X152899Y137787D01*
X151863Y137543D01*
X151474Y137395D01*
X151171Y137230D01*
Y143970D01*
X151474Y143805D01*
D02*
G37*
G36*
X300011Y205640D02*
X299591Y205196D01*
X299208Y204742D01*
X298862Y204278D01*
X298552Y203803D01*
X298279Y203318D01*
X298043Y202822D01*
X297844Y202316D01*
X297681Y201799D01*
X297556Y201272D01*
X297467Y200734D01*
X292984Y205217D01*
X293522Y205306D01*
X294049Y205431D01*
X294566Y205594D01*
X295072Y205793D01*
X295568Y206029D01*
X296053Y206302D01*
X296528Y206612D01*
X296992Y206958D01*
X297446Y207341D01*
X297890Y207761D01*
X300011Y205640D01*
D02*
G37*
G36*
X501763Y233391D02*
X501862Y232421D01*
X501950Y232027D01*
X502062Y231694D01*
X502200Y231421D01*
X502363Y231209D01*
X502550Y231058D01*
X502762Y230967D01*
X503000Y230937D01*
X498000D01*
X498237Y230967D01*
X498450Y231058D01*
X498638Y231209D01*
X498800Y231421D01*
X498937Y231694D01*
X499050Y232027D01*
X499137Y232421D01*
X499200Y232876D01*
X499238Y233391D01*
X499250Y233967D01*
X501750D01*
X501763Y233391D01*
D02*
G37*
G36*
X304770Y291472D02*
X305789Y291673D01*
X306507Y290598D01*
X308698Y288407D01*
X309773Y287689D01*
X311041Y287436D01*
X315959D01*
X316000Y287444D01*
X316041Y287436D01*
X318878D01*
X337120Y269194D01*
X336883Y268000D01*
X337348Y265659D01*
X338674Y263674D01*
X340659Y262348D01*
X343000Y261882D01*
X345341Y262348D01*
X347326Y263674D01*
X348652Y265659D01*
X348698Y265889D01*
X348778Y266008D01*
X348902Y266147D01*
X349045Y266267D01*
X349218Y266377D01*
X349437Y266480D01*
X349713Y266570D01*
X350052Y266644D01*
X350411Y266686D01*
X359188D01*
X360451Y265910D01*
Y264090D01*
X358989Y263750D01*
X356500D01*
Y251000D01*
X360377D01*
X360451Y250910D01*
Y249090D01*
X360500Y248845D01*
Y246155D01*
X360451Y245910D01*
Y244090D01*
X360500Y243845D01*
Y241155D01*
X360451Y240910D01*
Y239090D01*
X360500Y238845D01*
Y238314D01*
X360516Y238155D01*
X360637Y237862D01*
X360645Y237854D01*
X360136Y237092D01*
X359901Y235910D01*
Y235031D01*
X359535Y233965D01*
X358469Y233599D01*
X357590D01*
X356408Y233364D01*
X355514Y232767D01*
X355382Y232855D01*
X354410Y233049D01*
X352590D01*
X351618Y232855D01*
X351000Y232442D01*
X350382Y232855D01*
X349410Y233049D01*
X347590D01*
X346618Y232855D01*
X346000Y232442D01*
X345382Y232855D01*
X344410Y233049D01*
X342590D01*
X341618Y232855D01*
X341000Y232442D01*
X340382Y232855D01*
X339410Y233049D01*
X337590D01*
X336618Y232855D01*
X336000Y232442D01*
X335382Y232855D01*
X334410Y233049D01*
X332590D01*
X331618Y232855D01*
X331000Y232442D01*
X330382Y232855D01*
X329410Y233049D01*
X327590D01*
X326618Y232855D01*
X326000Y232442D01*
X325382Y232855D01*
X324410Y233049D01*
X322590D01*
X321618Y232855D01*
X321000Y232442D01*
X320382Y232855D01*
X319410Y233049D01*
X317590D01*
X316618Y232855D01*
X316000Y232442D01*
X315382Y232855D01*
X314410Y233049D01*
X312590D01*
X311618Y232855D01*
X311000Y232442D01*
X310382Y232855D01*
X309410Y233049D01*
X307590D01*
X306618Y232855D01*
X306000Y232442D01*
X305382Y232855D01*
X304410Y233049D01*
X303422D01*
X302557Y233730D01*
X290500D01*
Y236270D01*
X302028D01*
X301864Y237092D01*
X301267Y237986D01*
X301355Y238118D01*
X301549Y239090D01*
Y240910D01*
X301355Y241882D01*
X301250Y242040D01*
Y242960D01*
X301355Y243118D01*
X301549Y244090D01*
Y245910D01*
X301355Y246882D01*
X301250Y247040D01*
Y247960D01*
X301355Y248118D01*
X301549Y249090D01*
Y250910D01*
X301355Y251882D01*
X301250Y252040D01*
Y252960D01*
X301355Y253118D01*
X301549Y254090D01*
Y255910D01*
X301355Y256882D01*
X301250Y257040D01*
Y257960D01*
X301355Y258118D01*
X301549Y259090D01*
Y260910D01*
X301355Y261882D01*
X301250Y262040D01*
Y262960D01*
X301355Y263118D01*
X301549Y264090D01*
Y265910D01*
X301355Y266882D01*
X301250Y267040D01*
Y267960D01*
X301355Y268118D01*
X301549Y269090D01*
Y270910D01*
X301355Y271882D01*
X301250Y272040D01*
Y272960D01*
X301355Y273118D01*
X301549Y274090D01*
Y275910D01*
X301355Y276882D01*
X301250Y277040D01*
Y277961D01*
X301355Y278118D01*
X301549Y279090D01*
Y280910D01*
X301355Y281882D01*
X301250Y282040D01*
Y282960D01*
X301355Y283118D01*
X301549Y284090D01*
Y285910D01*
X301355Y286882D01*
X301250Y287040D01*
Y287960D01*
X301355Y288118D01*
X301549Y289090D01*
Y290078D01*
X302230Y290944D01*
Y303000D01*
X304770D01*
Y291472D01*
D02*
G37*
G36*
X359762Y230862D02*
X357238D01*
X357240Y230884D01*
X357243Y230949D01*
X357250Y233000D01*
X359750D01*
X359762Y230862D01*
D02*
G37*
G36*
X420813Y208500D02*
X420740Y209070D01*
X420522Y209580D01*
X420159Y210030D01*
X419653Y210420D01*
X419002Y210750D01*
X418207Y211020D01*
X417267Y211230D01*
X416183Y211380D01*
X415646Y211419D01*
X413440Y211330D01*
Y217670D01*
X413522Y217637D01*
X413679Y217609D01*
X413911Y217583D01*
X415009Y217530D01*
X417255Y217722D01*
X418191Y217895D01*
X418983Y218117D01*
X419631Y218388D01*
X420135Y218709D01*
X420495Y219079D01*
X420711Y219498D01*
X420783Y219967D01*
X420813Y208500D01*
D02*
G37*
G36*
X480033Y222783D02*
X480003Y222967D01*
X479913Y223131D01*
X479763Y223276D01*
X479553Y223402D01*
X479283Y223508D01*
X478953Y223595D01*
X478563Y223663D01*
X478113Y223711D01*
X477033Y223750D01*
Y226250D01*
X477607Y226262D01*
X478575Y226362D01*
X478969Y226450D01*
X479302Y226562D01*
X479575Y226700D01*
X479787Y226863D01*
X479940Y227050D01*
X480032Y227262D01*
X480064Y227500D01*
X480033Y222783D01*
D02*
G37*
G36*
X430591Y253945D02*
X431365Y253313D01*
X431683Y253121D01*
X431954Y253010D01*
X432179Y252981D01*
X432358Y253034D01*
X432491Y253169D01*
X432577Y253386D01*
X432618Y253684D01*
X432278Y246966D01*
X432272Y247303D01*
X432219Y247651D01*
X432120Y248011D01*
X431974Y248383D01*
X431782Y248766D01*
X431544Y249160D01*
X431259Y249567D01*
X430928Y249985D01*
X430127Y250856D01*
X430135Y254383D01*
X430591Y253945D01*
D02*
G37*
G36*
X236477Y252477D02*
X237634Y251703D01*
X239000Y251432D01*
X279023D01*
X279451Y250910D01*
Y249090D01*
X279023Y248569D01*
X261250D01*
X259884Y248297D01*
X258957Y247677D01*
X258000Y247868D01*
X255659Y247402D01*
X253674Y246076D01*
X252348Y244091D01*
X251882Y241750D01*
X252348Y239409D01*
X253674Y237424D01*
X255659Y236098D01*
X258000Y235632D01*
X260341Y236098D01*
X262326Y237424D01*
X263652Y239409D01*
X264054Y241431D01*
X278473D01*
X278605Y241270D01*
X290500D01*
Y238730D01*
X278972D01*
X279136Y237908D01*
X279733Y237014D01*
X279645Y236882D01*
X279451Y235910D01*
Y234090D01*
X279645Y233118D01*
X280195Y232295D01*
X281019Y231744D01*
X281990Y231551D01*
X298729D01*
X299490Y230952D01*
X300051Y230251D01*
Y222602D01*
X299931Y222000D01*
Y212728D01*
X295950Y208747D01*
X295724Y208556D01*
X295360Y208285D01*
X294995Y208047D01*
X294629Y207841D01*
X294259Y207665D01*
X293885Y207518D01*
X293506Y207398D01*
X293118Y207306D01*
X292651Y207228D01*
X292484Y207166D01*
X291159Y206902D01*
X289174Y205576D01*
X287848Y203591D01*
X287383Y201250D01*
X287848Y198909D01*
X289174Y196924D01*
X291159Y195598D01*
X293500Y195133D01*
X295841Y195598D01*
X297826Y196924D01*
X299152Y198909D01*
X299415Y200234D01*
X299478Y200401D01*
X299556Y200868D01*
X299648Y201256D01*
X299768Y201635D01*
X299915Y202009D01*
X300091Y202378D01*
X300297Y202745D01*
X300535Y203110D01*
X300806Y203474D01*
X300997Y203700D01*
X306023Y208727D01*
X306797Y209884D01*
X307031Y211062D01*
X307590Y210951D01*
X309410D01*
X310382Y211145D01*
X311000Y211558D01*
X311618Y211145D01*
X312590Y210951D01*
X314410D01*
X315186Y209576D01*
Y192623D01*
X286127Y163564D01*
X222051D01*
X221839Y163579D01*
X221789Y163586D01*
Y164750D01*
X221634Y165530D01*
X221192Y166192D01*
X220530Y166634D01*
X219750Y166789D01*
X211250D01*
X210470Y166634D01*
X209902Y166255D01*
X209832Y166215D01*
X209000Y166201D01*
X208168Y166215D01*
X208098Y166255D01*
X207530Y166634D01*
X206750Y166789D01*
X198250D01*
X197470Y166634D01*
X196808Y166192D01*
X196366Y165530D01*
X196273Y165061D01*
X196065Y164968D01*
X195628Y164835D01*
X195050Y164720D01*
X193619Y164588D01*
X183250D01*
X181494Y164239D01*
X180006Y163244D01*
X172432Y155671D01*
X171050Y156410D01*
X171117Y156750D01*
X170652Y159091D01*
X169945Y160149D01*
X169898Y160271D01*
X169852Y160345D01*
X169842Y160368D01*
X169798Y160510D01*
X169742Y160754D01*
X169695Y161035D01*
X169588Y162593D01*
Y205000D01*
X169239Y206756D01*
X168244Y208244D01*
X133244Y243244D01*
X131756Y244239D01*
X130000Y244588D01*
X127750D01*
X126492Y244634D01*
X125507Y244743D01*
X124685Y244889D01*
X124102Y245047D01*
X122775Y246775D01*
X120791Y248298D01*
X118480Y249256D01*
Y250745D01*
X120791Y251702D01*
X122775Y253225D01*
X124298Y255209D01*
X124722Y256233D01*
X124723Y256234D01*
X124724Y256236D01*
X124733Y256258D01*
X124804Y256279D01*
X125141Y256345D01*
X126100Y256431D01*
X232522D01*
X236477Y252477D01*
D02*
G37*
G36*
X121611Y244509D02*
X121836Y244088D01*
X122212Y243715D01*
X122738Y243393D01*
X123414Y243120D01*
X124240Y242897D01*
X125217Y242723D01*
X126343Y242599D01*
X129047Y242500D01*
Y237500D01*
X127620Y237475D01*
X125217Y237277D01*
X124240Y237103D01*
X123414Y236880D01*
X122738Y236607D01*
X122212Y236285D01*
X121836Y235912D01*
X121611Y235491D01*
X121536Y235019D01*
Y244981D01*
X121611Y244509D01*
D02*
G37*
G36*
X362638Y233738D02*
X362616Y233741D01*
X362551Y233743D01*
X360500Y233750D01*
Y236250D01*
X362638Y236262D01*
Y233738D01*
D02*
G37*
G36*
X425250Y234064D02*
X417733D01*
X404273Y247523D01*
X403116Y248297D01*
X401750Y248569D01*
X382977D01*
X382549Y249090D01*
Y250910D01*
X382623Y251000D01*
X425250D01*
Y234064D01*
D02*
G37*
G36*
X486763Y209753D02*
X486550Y209663D01*
X486362Y209513D01*
X486200Y209303D01*
X486063Y209033D01*
X485950Y208703D01*
X485863Y208313D01*
X485800Y207863D01*
X485762Y207353D01*
X485750Y206783D01*
X483250D01*
X483237Y207353D01*
X483138Y208313D01*
X483050Y208703D01*
X482938Y209033D01*
X482800Y209303D01*
X482637Y209513D01*
X482450Y209663D01*
X482238Y209753D01*
X482000Y209783D01*
X487000D01*
X486763Y209753D01*
D02*
G37*
G36*
X553262Y212495D02*
X553050Y212404D01*
X552863Y212252D01*
X552700Y212040D01*
X552562Y211767D01*
X552450Y211434D01*
X552363Y211040D01*
X552300Y210585D01*
X552262Y210070D01*
X552250Y209494D01*
X549750D01*
X549738Y210070D01*
X549637Y211040D01*
X549550Y211434D01*
X549437Y211767D01*
X549300Y212040D01*
X549137Y212252D01*
X548950Y212404D01*
X548737Y212495D01*
X548500Y212525D01*
X553500D01*
X553262Y212495D01*
D02*
G37*
G36*
X324762Y213138D02*
X324712Y213088D01*
X324668Y212979D01*
X324628Y212813D01*
X324594Y212589D01*
X324542Y211967D01*
X324503Y210601D01*
X324500Y210030D01*
X322000Y209993D01*
X322093Y213490D01*
X324762Y213138D01*
D02*
G37*
G36*
X501763Y204391D02*
X501862Y203421D01*
X501950Y203027D01*
X502062Y202694D01*
X502200Y202421D01*
X502363Y202209D01*
X502550Y202058D01*
X502762Y201967D01*
X503000Y201936D01*
X498000D01*
X498237Y201967D01*
X498450Y202058D01*
X498638Y202209D01*
X498800Y202421D01*
X498937Y202694D01*
X499050Y203027D01*
X499137Y203421D01*
X499200Y203876D01*
X499238Y204391D01*
X499250Y204967D01*
X501750D01*
X501763Y204391D01*
D02*
G37*
G36*
X485762Y204391D02*
X485863Y203421D01*
X485950Y203027D01*
X486063Y202694D01*
X486200Y202421D01*
X486362Y202209D01*
X486550Y202058D01*
X486763Y201967D01*
X487000Y201936D01*
X482000D01*
X482238Y201967D01*
X482450Y202058D01*
X482637Y202209D01*
X482800Y202421D01*
X482938Y202694D01*
X483050Y203027D01*
X483138Y203421D01*
X483200Y203876D01*
X483237Y204391D01*
X483250Y204967D01*
X485750D01*
X485762Y204391D01*
D02*
G37*
G36*
X502762Y209503D02*
X502550Y209413D01*
X502363Y209263D01*
X502200Y209053D01*
X502062Y208783D01*
X501950Y208453D01*
X501862Y208063D01*
X501800Y207613D01*
X501763Y207103D01*
X501750Y206533D01*
X499250D01*
X499238Y207103D01*
X499137Y208063D01*
X499050Y208453D01*
X498937Y208783D01*
X498800Y209053D01*
X498638Y209263D01*
X498450Y209413D01*
X498237Y209503D01*
X498000Y209533D01*
X503000D01*
X502762Y209503D01*
D02*
G37*
G36*
X329878Y213388D02*
X329851Y213234D01*
X329827Y213028D01*
X329775Y212099D01*
X329750Y210133D01*
X327250D01*
X327093Y213490D01*
X329907D01*
X329878Y213388D01*
D02*
G37*
G36*
X334878D02*
X334851Y213234D01*
X334827Y213028D01*
X334775Y212099D01*
X334750Y210133D01*
X332250D01*
X332093Y213490D01*
X334907D01*
X334878Y213388D01*
D02*
G37*
G36*
X407240Y220654D02*
X408161Y219907D01*
X408632Y219589D01*
X409110Y219308D01*
X409595Y219064D01*
X410087Y218856D01*
X410585Y218685D01*
X411091Y218551D01*
X411604Y218454D01*
X407019Y214110D01*
X406946Y214658D01*
X406834Y215195D01*
X406684Y215720D01*
X406496Y216232D01*
X406270Y216734D01*
X406006Y217223D01*
X405703Y217700D01*
X405363Y218166D01*
X404984Y218620D01*
X404567Y219062D01*
X406789Y221082D01*
X407240Y220654D01*
D02*
G37*
G36*
X319877Y213388D02*
X319851Y213234D01*
X319827Y213028D01*
X319775Y212099D01*
X319750Y210133D01*
X317250D01*
X317093Y213490D01*
X319907D01*
X319877Y213388D01*
D02*
G37*
%LPC*%
G36*
X404590Y125730D02*
X395270D01*
Y106910D01*
X402000D01*
X402991Y107107D01*
X403831Y107669D01*
X404393Y108509D01*
X404590Y109500D01*
Y125730D01*
D02*
G37*
G36*
X392730D02*
X383410D01*
Y109500D01*
X383607Y108509D01*
X384169Y107669D01*
X385009Y107107D01*
X386000Y106910D01*
X392730D01*
Y125730D01*
D02*
G37*
G36*
X402000Y147090D02*
X395270D01*
Y128270D01*
X404590D01*
Y144500D01*
X404393Y145491D01*
X403831Y146331D01*
X402991Y146893D01*
X402000Y147090D01*
D02*
G37*
%LPD*%
G36*
X188747Y34275D02*
X188928Y33850D01*
X189229Y33475D01*
X189651Y33150D01*
X190194Y32875D01*
X190858Y32650D01*
X191642Y32475D01*
X191955Y32432D01*
X192380Y32475D01*
X193181Y32649D01*
X193859Y32874D01*
X194414Y33149D01*
X194845Y33473D01*
X195153Y33847D01*
X195338Y34272D01*
X195399Y34746D01*
Y24754D01*
X195338Y25228D01*
X195153Y25653D01*
X194845Y26027D01*
X194414Y26351D01*
X193859Y26626D01*
X193181Y26851D01*
X192380Y27025D01*
X192061Y27069D01*
X191642Y27025D01*
X190858Y26850D01*
X190194Y26625D01*
X189651Y26350D01*
X189229Y26025D01*
X188928Y25650D01*
X188747Y25225D01*
X188687Y24750D01*
Y34750D01*
X188747Y34275D01*
D02*
G37*
G36*
X127098Y100715D02*
X127207Y100460D01*
X127388Y100235D01*
X127642Y100040D01*
X127969Y99875D01*
X128369Y99740D01*
X128841Y99635D01*
X129385Y99560D01*
X130002Y99515D01*
X130692Y99500D01*
Y96500D01*
X130002Y96485D01*
X128841Y96365D01*
X128369Y96260D01*
X127969Y96125D01*
X127642Y95960D01*
X127388Y95765D01*
X127207Y95540D01*
X127098Y95285D01*
X127062Y95000D01*
Y101000D01*
X127098Y100715D01*
D02*
G37*
G36*
X168516Y107033D02*
X167978Y106944D01*
X167451Y106819D01*
X166934Y106656D01*
X166428Y106457D01*
X165932Y106221D01*
X165447Y105948D01*
X164972Y105638D01*
X164508Y105292D01*
X164054Y104909D01*
X163610Y104489D01*
X161489Y106610D01*
X161909Y107054D01*
X162292Y107508D01*
X162638Y107972D01*
X162948Y108447D01*
X163221Y108932D01*
X163457Y109428D01*
X163656Y109934D01*
X163819Y110451D01*
X163944Y110978D01*
X164033Y111516D01*
X168516Y107033D01*
D02*
G37*
D10*
X429750Y211000D02*
G03*
X426250Y214500I-3500J0D01*
G01*
X484250Y98250D02*
G03*
X499000Y113000I0J14750D01*
G01*
X347750Y98250D02*
G03*
X346750Y97250I0J-1000D01*
G01*
Y97250D02*
G03*
X342250Y92750I0J-4500D01*
G01*
X134250Y30000D02*
X146750D01*
X123000D02*
X134250D01*
X400500Y291000D02*
X416750D01*
X411000Y214500D02*
X426250D01*
X526500Y42750D02*
Y61500D01*
X347750Y98250D02*
X484250D01*
X308250Y94000D02*
X342250D01*
X297000Y65000D02*
X301500Y69500D01*
Y87250D01*
X308250Y94000D01*
X360250Y110250D02*
X376500Y126500D01*
Y139500D01*
X416750Y291000D02*
X417000Y291250D01*
X342250Y110250D02*
X360250D01*
X318250D02*
X342250D01*
X505800Y154800D02*
X517750D01*
X144250Y110346D02*
Y115200D01*
X153604D01*
X146750Y30000D02*
X147000Y29750D01*
X199250Y54250D02*
Y70750D01*
Y44000D02*
Y54250D01*
X121750D02*
X135250D01*
X489000Y314000D02*
X499000Y304000D01*
X489000Y314000D02*
Y376500D01*
X488250Y377250D02*
X489000Y376500D01*
D11*
X86500Y53250D02*
D03*
X99500D02*
D03*
X459500Y158500D02*
D03*
X446500D02*
D03*
X202500Y145000D02*
D03*
X215500D02*
D03*
X459500Y143750D02*
D03*
X446500D02*
D03*
X202500Y160000D02*
D03*
X215500D02*
D03*
X575500Y53250D02*
D03*
X562500D02*
D03*
D12*
X102000Y34500D02*
D03*
Y19500D02*
D03*
X560000Y34500D02*
D03*
Y19500D02*
D03*
X577000Y19500D02*
D03*
Y34500D02*
D03*
X84750Y19500D02*
D03*
Y34500D02*
D03*
X484500Y183000D02*
D03*
Y198000D02*
D03*
X500500Y183000D02*
D03*
Y198000D02*
D03*
X323000Y72500D02*
D03*
Y57500D02*
D03*
X339000Y72500D02*
D03*
Y57500D02*
D03*
D13*
X545750Y135750D02*
D03*
X116250Y134250D02*
D03*
D14*
X517750Y116700D02*
D03*
X573750D02*
D03*
X517750Y154800D02*
D03*
X573750D02*
D03*
X517750Y129400D02*
D03*
X573750D02*
D03*
X517750Y142100D02*
D03*
X573750D02*
D03*
X144250Y153300D02*
D03*
X88250D02*
D03*
X144250Y115200D02*
D03*
X88250D02*
D03*
X144250Y140600D02*
D03*
X88250D02*
D03*
X144250Y127900D02*
D03*
X88250D02*
D03*
D15*
X627000Y50000D02*
D03*
X613500D02*
D03*
X33500D02*
D03*
X47000D02*
D03*
X109125Y99000D02*
D03*
X122625D02*
D03*
D16*
X526000Y29250D02*
D03*
Y42750D02*
D03*
X470500Y111250D02*
D03*
Y124750D02*
D03*
D17*
X358500Y222000D02*
D03*
X353500D02*
D03*
X348500D02*
D03*
X343500D02*
D03*
X338500D02*
D03*
X333500D02*
D03*
X328500D02*
D03*
X323500D02*
D03*
X318500D02*
D03*
X313500D02*
D03*
X308500D02*
D03*
X303500D02*
D03*
Y303000D02*
D03*
X308500D02*
D03*
X313500D02*
D03*
X318500D02*
D03*
X323500D02*
D03*
X328500D02*
D03*
X333500D02*
D03*
X338500D02*
D03*
X343500D02*
D03*
X348500D02*
D03*
X353500D02*
D03*
X358500D02*
D03*
D18*
X290500Y235000D02*
D03*
Y240000D02*
D03*
Y245000D02*
D03*
Y250000D02*
D03*
Y255000D02*
D03*
Y260000D02*
D03*
Y265000D02*
D03*
Y270000D02*
D03*
Y275000D02*
D03*
Y280000D02*
D03*
Y285000D02*
D03*
Y290000D02*
D03*
X371500D02*
D03*
Y285000D02*
D03*
Y280000D02*
D03*
Y275000D02*
D03*
Y270000D02*
D03*
Y265000D02*
D03*
Y260000D02*
D03*
Y255000D02*
D03*
Y250000D02*
D03*
Y245000D02*
D03*
Y240000D02*
D03*
Y235000D02*
D03*
D19*
X268000Y75000D02*
D03*
Y129000D02*
D03*
X394000Y73000D02*
D03*
Y127000D02*
D03*
D20*
X417000Y278250D02*
D03*
Y291250D02*
D03*
X484750Y227000D02*
D03*
Y214000D02*
D03*
X500500Y226750D02*
D03*
Y213750D02*
D03*
X400500Y278000D02*
D03*
Y291000D02*
D03*
X437750Y124250D02*
D03*
Y111250D02*
D03*
X454000Y124500D02*
D03*
Y111500D02*
D03*
D21*
X447000Y33000D02*
D03*
Y58000D02*
D03*
Y83000D02*
D03*
X506000D02*
D03*
Y58000D02*
D03*
Y33000D02*
D03*
D22*
X444250Y246500D02*
D03*
Y283500D02*
D03*
D23*
X371500Y32000D02*
D03*
D24*
X416500D02*
D03*
D25*
X342250Y92750D02*
D03*
Y110250D02*
D03*
X318250Y92750D02*
D03*
Y110250D02*
D03*
D26*
X458750Y214000D02*
D03*
X430750D02*
D03*
D27*
X179250Y29750D02*
D03*
X155250D02*
D03*
D28*
X199250Y54250D02*
D03*
X135250D02*
D03*
D29*
X167250Y56500D02*
D03*
X160750D02*
D03*
X154250D02*
D03*
X180250D02*
D03*
X173750D02*
D03*
D30*
X102125Y177000D02*
D03*
X132125D02*
D03*
X559875Y93500D02*
D03*
X529875D02*
D03*
D31*
X484500Y183000D02*
X505000D01*
X316000Y290791D02*
X316041Y290750D01*
X320250D02*
X343000Y268000D01*
X316041Y290750D02*
X320250D01*
X316000Y290791D02*
Y290791D01*
X315959Y290750D02*
X316000Y290791D01*
X311041Y290750D02*
X315959D01*
X308850Y292941D02*
X311041Y290750D01*
X301000Y350000D02*
Y378250D01*
X427750Y255000D02*
X443500Y239250D01*
X281000Y343000D02*
Y378250D01*
X397750Y275000D02*
X402500Y279750D01*
X444500Y327500D02*
Y378250D01*
X101000Y19500D02*
X101500Y19000D01*
X424500Y370500D02*
Y378250D01*
X404500Y361500D02*
Y378250D01*
X364250Y160000D02*
X446500D01*
X384500Y367500D02*
Y378250D01*
X440000Y145000D02*
X446500D01*
X343500Y357250D02*
X364500Y378250D01*
X321000Y338000D02*
Y378250D01*
X28300Y24750D02*
Y25750D01*
X215500Y160000D02*
X215750Y160250D01*
X323250Y221750D02*
X323500Y222000D01*
X367250Y255000D02*
X371500D01*
X427750D01*
X367250Y260000D02*
X371500D01*
Y275000D02*
X397750D01*
X218000Y145000D02*
X228500Y155500D01*
X323250Y189636D02*
Y221750D01*
X228500Y155500D02*
X289114D01*
X323250Y189636D01*
X318500Y191250D02*
Y222000D01*
X215750Y160250D02*
X287500D01*
X318500Y191250D01*
X358500Y222000D02*
Y233000D01*
X360500Y235000D01*
X371500D01*
X338500Y222000D02*
X338750Y221750D01*
X333500Y190750D02*
Y222000D01*
X328500Y189500D02*
Y222000D01*
X328443Y189443D02*
X328500Y189500D01*
X429500Y155500D02*
X440000Y145000D01*
X328443Y189443D02*
X362386Y155500D01*
X429500D01*
X333500Y190750D02*
X364250Y160000D01*
X371500Y280000D02*
X385000D01*
X389750Y284750D01*
X478250Y132500D02*
Y135500D01*
X470500Y124750D02*
X478250Y132500D01*
X416000Y230750D02*
X468750D01*
X500500Y226750D02*
Y234500D01*
X411500Y225000D02*
X482750D01*
X484750Y227000D01*
X468750Y230750D02*
X475000Y237000D01*
X498000D01*
X500500Y234500D01*
X484500Y198000D02*
Y213750D01*
X484750Y214000D01*
X500500Y198000D02*
Y213750D01*
X551000Y192750D02*
Y220000D01*
X529750Y171500D02*
X551000Y192750D01*
X176000Y353500D02*
Y377750D01*
X196000Y346000D02*
Y377750D01*
X371500Y260000D02*
X427250D01*
X443500Y276250D01*
X389750Y284750D02*
Y297346D01*
X401654Y309250D01*
X246000Y277000D02*
X263000Y260000D01*
X290500D01*
X246000Y277000D02*
Y287000D01*
X401654Y309250D02*
X463750D01*
X487000Y286000D01*
X196000Y346000D02*
X215000Y327000D01*
X176000Y353500D02*
X207000Y322500D01*
X345000Y270000D02*
X371500D01*
X343000Y268000D02*
X345000Y270000D01*
X258000Y280000D02*
Y288000D01*
Y280000D02*
X273000Y265000D01*
X290500D01*
X215000Y327000D02*
X310000D01*
X318500Y318500D01*
Y303000D02*
Y318500D01*
X207000Y322500D02*
X306500D01*
X313500Y315500D01*
Y303000D02*
Y315500D01*
X328500Y303000D02*
Y315500D01*
X309000Y335000D02*
X328500Y315500D01*
X289000Y335000D02*
X309000D01*
X281000Y343000D02*
X289000Y335000D01*
X333500Y303000D02*
Y317500D01*
X301000Y350000D02*
X333500Y317500D01*
X338500Y303000D02*
Y320500D01*
X321000Y338000D02*
X338500Y320500D01*
X343500Y303000D02*
Y357250D01*
X348500Y303000D02*
Y331500D01*
X384500Y367500D01*
X353500Y303000D02*
Y327500D01*
X377000Y351000D01*
X394000D01*
X404500Y361500D01*
X358500Y303000D02*
Y324500D01*
X380500Y346500D01*
X400500D01*
X424500Y370500D01*
X371500Y290000D02*
X383000D01*
X385000Y292000D01*
Y298960D01*
X400040Y314000D01*
X308850Y292941D02*
Y302650D01*
X308500Y303000D02*
X308850Y302650D01*
X400040Y314000D02*
X431000D01*
X444500Y327500D01*
D32*
X241000Y355500D02*
Y378250D01*
X459250Y143500D02*
X459750Y144000D01*
X440750Y124250D02*
X469500D01*
X458750Y159500D02*
X461250Y157000D01*
X102000Y34500D02*
X102000Y34500D01*
X84750Y34500D02*
X102000D01*
X498900Y142100D02*
X517750D01*
X144250Y140600D02*
X163850D01*
X183250Y160000D01*
X202500D01*
X144250Y153300D02*
X161550D01*
X165000Y156750D01*
X502700Y116700D02*
X517750D01*
X499000Y113000D02*
X502700Y116700D01*
X560000Y19500D02*
X577000D01*
X577000Y19500D01*
X186000Y145000D02*
X202500D01*
X144250Y127900D02*
X168900D01*
X186000Y145000D01*
X233000Y338000D02*
Y347500D01*
X155250Y29750D02*
X179250D01*
X200250D02*
X209250D01*
X134250Y53250D02*
X135250Y54250D01*
X484000Y157000D02*
X498900Y142100D01*
X461250Y157000D02*
X484000D01*
X496371Y129400D02*
X517750D01*
X481771Y144000D02*
X496371Y129400D01*
X459750Y144000D02*
X481771D01*
X165000Y156750D02*
Y205000D01*
X130000Y240000D02*
X165000Y205000D01*
X111000Y240000D02*
X130000D01*
X134250Y29750D02*
Y30000D01*
Y53250D01*
X147000Y29750D02*
X155250D01*
X179250D02*
X200250D01*
X233000Y347500D02*
X241000Y355500D01*
D33*
X608300Y25750D02*
Y53250D01*
X573750Y129400D02*
X595600D01*
X570687D02*
X573750D01*
X29000Y25450D02*
Y124750D01*
X52950Y24000D02*
Y105200D01*
X633700Y25750D02*
Y130271D01*
X102000Y162000D02*
Y167000D01*
X93300Y153300D02*
X102000Y162000D01*
X52950Y105200D02*
X62950Y115200D01*
X29000Y124750D02*
X44850Y140600D01*
X62950Y115200D02*
X88250D01*
X92000D01*
X88250Y127900D02*
X92000D01*
X44850Y140600D02*
X88250D01*
X92000D01*
X49121Y127900D02*
X57250D01*
X595600Y129400D02*
X608300Y116700D01*
X569000Y154800D02*
X573750D01*
X569000Y142100D02*
X573750D01*
X603112D02*
X603213Y142000D01*
X605000D01*
X573750Y142100D02*
X573850Y142000D01*
X573750Y154800D02*
X609170D01*
X633700Y130271D01*
X573850Y142000D02*
X588000D01*
X596500D01*
X603213D01*
X441000Y62000D02*
X445000Y58000D01*
X82000Y153300D02*
X88250D01*
X93300D01*
X102000Y167000D02*
X102000Y167000D01*
Y174000D01*
X268000Y75000D02*
X278000Y65000D01*
X288000D01*
X297000D01*
X608300Y53250D02*
Y116700D01*
X28300Y24750D02*
X29000Y25450D01*
X57250Y127900D02*
X88250D01*
D34*
X161000Y56500D02*
Y72750D01*
X52950Y53000D02*
X86750D01*
X438750Y109250D02*
X440750Y111250D01*
X121750Y96000D02*
X123750Y98000D01*
X84750Y19500D02*
X101000D01*
X28300Y16200D02*
Y24750D01*
X79500Y19500D02*
X84750D01*
X73250Y13250D02*
X79500Y19500D01*
X31250Y13250D02*
X73250D01*
X28300Y16200D02*
X31250Y13250D01*
X101500Y19000D02*
X102000Y19500D01*
X358000Y62000D02*
X364000D01*
X437500Y110500D02*
X438750Y109250D01*
X424750Y110500D02*
X437500D01*
X102000Y34500D02*
Y40000D01*
X99500Y42500D02*
X102000Y40000D01*
X99500Y42500D02*
Y53250D01*
X610250D02*
X613500Y50000D01*
X575500Y53250D02*
X608300D01*
X610250D01*
X560000Y34500D02*
X577000D01*
X577000Y34500D01*
Y19500D02*
X586500D01*
X593250Y12750D01*
X624000D01*
X633700Y22450D01*
Y25750D01*
X560000Y34500D02*
Y41750D01*
X562500Y44250D01*
Y53250D01*
X293500Y113000D02*
Y145750D01*
X279000Y98500D02*
X293500Y113000D01*
X277000Y104500D02*
X286000Y113500D01*
Y134000D01*
X261250Y245000D02*
X290500D01*
X258000Y241750D02*
X261250Y245000D01*
X371500Y235000D02*
X390750D01*
X411000Y214750D01*
X367250Y265000D02*
X371500D01*
X410000D01*
X417750Y272750D01*
Y279750D01*
X161000Y72750D02*
X192750Y104500D01*
X277000D01*
X167250Y56500D02*
Y71250D01*
X194500Y98500D01*
X279000D01*
X154250Y56500D02*
Y75000D01*
X205250Y126000D01*
X215500Y145000D02*
X218000D01*
X303500Y211250D02*
Y222000D01*
X293500Y201250D02*
X303500Y211250D01*
X371500Y245000D02*
X401750D01*
X416000Y230750D01*
X371500Y240000D02*
X396500D01*
X411500Y225000D01*
X343500Y193831D02*
Y222000D01*
Y193831D02*
X365831Y171500D01*
X529750D01*
X123750Y98000D02*
X155000D01*
X168000Y111000D01*
X239000Y255000D02*
X290500D01*
X234000Y260000D02*
X239000Y255000D01*
X111000Y260000D02*
X234000D01*
D35*
X382000Y62000D02*
X441000D01*
X364000D02*
X373000D01*
X382000D01*
D36*
X454000Y108000D02*
Y111500D01*
D37*
X462000Y32500D02*
D03*
D38*
X477000Y70500D02*
D03*
D39*
X311000Y23500D02*
D03*
D40*
X200250Y29750D02*
D03*
X134250D02*
D03*
D41*
X317300Y25000D02*
D03*
X54750Y27000D02*
D03*
X634200D02*
D03*
D42*
X342700Y25000D02*
D03*
X29350Y27000D02*
D03*
X608800D02*
D03*
D43*
X551000Y220000D02*
D03*
Y240000D02*
D03*
Y260000D02*
D03*
X111000D02*
D03*
Y240000D02*
D03*
Y220000D02*
D03*
D44*
X364167Y378250D02*
D03*
X444167D02*
D03*
X384167D02*
D03*
X404167D02*
D03*
X424167D02*
D03*
X176000D02*
D03*
X156000D02*
D03*
X136000D02*
D03*
X196000D02*
D03*
X116000D02*
D03*
X548250D02*
D03*
X488250D02*
D03*
X508250D02*
D03*
X528250D02*
D03*
X240083D02*
D03*
X320083D02*
D03*
X260083D02*
D03*
X280083D02*
D03*
X300083D02*
D03*
D45*
X209750Y174500D02*
D03*
X280250Y170250D02*
D03*
X53250Y43750D02*
D03*
X28500D02*
D03*
X339250Y60500D02*
D03*
X323250D02*
D03*
X424750Y110500D02*
D03*
X60121Y128000D02*
D03*
X68560D02*
D03*
X77000D02*
D03*
X588000Y142000D02*
D03*
X605000D02*
D03*
X596500D02*
D03*
X364000Y62000D02*
D03*
X373000D02*
D03*
X382000D02*
D03*
X297000Y65000D02*
D03*
X288000D02*
D03*
X81750Y164000D02*
D03*
X90250D02*
D03*
X98750D02*
D03*
X569000Y110250D02*
D03*
X165000Y156750D02*
D03*
X499000Y113000D02*
D03*
X293500Y145750D02*
D03*
X286000Y134000D02*
D03*
X258000Y241750D02*
D03*
X376500Y139500D02*
D03*
X411000Y214500D02*
D03*
X331000Y243750D02*
D03*
X316000Y280750D02*
D03*
X346000Y281000D02*
D03*
X205250Y126000D02*
D03*
X293500Y201250D02*
D03*
X444250Y246500D02*
D03*
X478250Y135500D02*
D03*
X168000Y111000D02*
D03*
X163000Y332000D02*
D03*
X444250Y283500D02*
D03*
X246000Y287000D02*
D03*
X409000Y298000D02*
D03*
X487000Y286000D02*
D03*
X499000Y304000D02*
D03*
X454000Y108000D02*
D03*
X413000Y144000D02*
D03*
X423000D02*
D03*
X343000Y268000D02*
D03*
X187000Y73000D02*
D03*
X139000Y75000D02*
D03*
X116000Y67000D02*
D03*
X211000Y55000D02*
D03*
X365000Y198000D02*
D03*
X428000Y189000D02*
D03*
X237000Y308000D02*
D03*
X229000Y275000D02*
D03*
X165000Y276000D02*
D03*
X542000Y31000D02*
D03*
X585000Y79000D02*
D03*
X509000Y102000D02*
D03*
X307000Y161000D02*
D03*
X320000D02*
D03*
X333000D02*
D03*
X346000D02*
D03*
X342250Y150000D02*
D03*
X330500D02*
D03*
X318750D02*
D03*
X307000D02*
D03*
X343000Y139000D02*
D03*
X331000D02*
D03*
X319000D02*
D03*
X307000D02*
D03*
X343000Y127000D02*
D03*
X331000D02*
D03*
X319000D02*
D03*
X307000D02*
D03*
X354000Y150000D02*
D03*
X355000Y139000D02*
D03*
Y127000D02*
D03*
X395000Y31000D02*
D03*
Y46000D02*
D03*
Y16000D02*
D03*
X524000Y160924D02*
D03*
X258000Y288000D02*
D03*
D46*
X625000Y378500D02*
D03*
X637500Y353500D02*
D03*
X625000Y328500D02*
D03*
X637500Y303500D02*
D03*
X625000Y278500D02*
D03*
X637500Y253500D02*
D03*
X625000Y228500D02*
D03*
X637500Y203500D02*
D03*
X625000Y178500D02*
D03*
X637500Y153500D02*
D03*
X600000Y378500D02*
D03*
Y328500D02*
D03*
X612500Y303500D02*
D03*
X600000Y278500D02*
D03*
X612500Y253500D02*
D03*
X600000Y228500D02*
D03*
Y178500D02*
D03*
X575000Y378500D02*
D03*
X587500Y353500D02*
D03*
X575000Y328500D02*
D03*
X587500Y303500D02*
D03*
X575000Y278500D02*
D03*
X587500Y253500D02*
D03*
X575000Y228500D02*
D03*
X587500Y203500D02*
D03*
X575000Y178500D02*
D03*
X587500Y103500D02*
D03*
X562500Y353500D02*
D03*
X550000Y328500D02*
D03*
X562500Y303500D02*
D03*
X550000Y278500D02*
D03*
X562500Y203500D02*
D03*
X550000Y178500D02*
D03*
X537500Y303500D02*
D03*
X525000Y278500D02*
D03*
X537500Y203500D02*
D03*
X525000Y178500D02*
D03*
X512500Y353500D02*
D03*
Y303500D02*
D03*
X500000Y278500D02*
D03*
X512500Y253500D02*
D03*
X475000Y378500D02*
D03*
X462500Y353500D02*
D03*
X450000Y178500D02*
D03*
X425000D02*
D03*
Y128500D02*
D03*
Y78500D02*
D03*
X412500Y203500D02*
D03*
X400000Y178500D02*
D03*
X387500Y203500D02*
D03*
X350000Y378500D02*
D03*
X300000Y28500D02*
D03*
X287500Y303500D02*
D03*
X275000Y278500D02*
D03*
Y228500D02*
D03*
Y28500D02*
D03*
X250000Y228500D02*
D03*
Y128500D02*
D03*
Y28500D02*
D03*
X225000Y378500D02*
D03*
Y228500D02*
D03*
Y178500D02*
D03*
Y128500D02*
D03*
Y28500D02*
D03*
X212500Y353500D02*
D03*
Y303500D02*
D03*
X200000Y278500D02*
D03*
Y228500D02*
D03*
X212500Y203500D02*
D03*
X187500Y303500D02*
D03*
X175000Y278500D02*
D03*
Y228500D02*
D03*
Y178500D02*
D03*
X162500Y303500D02*
D03*
X150000Y178500D02*
D03*
X125000Y278500D02*
D03*
X137500Y203500D02*
D03*
X125000Y78500D02*
D03*
X100000Y378500D02*
D03*
Y328500D02*
D03*
X112500Y303500D02*
D03*
X100000Y278500D02*
D03*
X112500Y203500D02*
D03*
X100000Y78500D02*
D03*
X112500Y53500D02*
D03*
X75000Y378500D02*
D03*
X87500Y353500D02*
D03*
X75000Y328500D02*
D03*
X87500Y303500D02*
D03*
X75000Y278500D02*
D03*
X87500Y253500D02*
D03*
X75000Y228500D02*
D03*
X87500Y203500D02*
D03*
Y103500D02*
D03*
X75000Y78500D02*
D03*
Y28500D02*
D03*
X50000Y378500D02*
D03*
Y328500D02*
D03*
X62500Y303500D02*
D03*
X50000Y278500D02*
D03*
X62500Y253500D02*
D03*
X50000Y228500D02*
D03*
Y178500D02*
D03*
X62500Y153500D02*
D03*
X25000Y378500D02*
D03*
Y328500D02*
D03*
X37500Y303500D02*
D03*
X25000Y278500D02*
D03*
X37500Y253500D02*
D03*
X25000Y228500D02*
D03*
Y178500D02*
D03*
X37500Y153500D02*
D03*
M02*
