G04 Layer_Color=16711935*
%FSLAX44Y44*%
%MOMM*%
G71*
G01*
G75*
%ADD75R,1.1032X1.2032*%
%ADD76R,1.2032X1.1032*%
%ADD80R,1.1532X1.0532*%
%ADD86R,2.2032X1.4032*%
%ADD91O,1.2032X2.0032*%
%ADD92C,1.9032*%
%ADD93R,1.9032X1.9032*%
%ADD94O,2.7032X1.7032*%
%ADD95O,1.7032X2.7032*%
%ADD96C,0.2032*%
%ADD97R,1.7400X3.0500*%
%ADD98R,3.3032X1.8032*%
%ADD99R,1.4032X2.2032*%
%ADD100R,5.8032X5.8032*%
%ADD101R,2.0032X1.7032*%
%ADD102R,1.7032X0.5032*%
%ADD103R,1.7032X1.0032*%
D75*
X465500Y283500D02*
D03*
X452000D02*
D03*
X465500Y246500D02*
D03*
X452000D02*
D03*
X180000Y153500D02*
D03*
X166500D02*
D03*
X482250Y117000D02*
D03*
X495750D02*
D03*
D76*
X634000Y62750D02*
D03*
Y49250D02*
D03*
X608000Y62750D02*
D03*
Y49250D02*
D03*
X53000Y62750D02*
D03*
Y49250D02*
D03*
X28000Y62750D02*
D03*
Y49250D02*
D03*
X346000Y257750D02*
D03*
Y244250D02*
D03*
X316000Y257750D02*
D03*
Y244250D02*
D03*
X331000Y267750D02*
D03*
Y281250D02*
D03*
X281000Y338250D02*
D03*
Y351750D02*
D03*
X304357Y338250D02*
D03*
Y351750D02*
D03*
X327714Y338250D02*
D03*
Y351750D02*
D03*
X351071Y338250D02*
D03*
Y351750D02*
D03*
X374428Y338250D02*
D03*
Y351750D02*
D03*
X397786Y338250D02*
D03*
Y351750D02*
D03*
X421143Y338250D02*
D03*
Y351750D02*
D03*
X444500Y338250D02*
D03*
Y351750D02*
D03*
D80*
X323250Y73500D02*
D03*
Y60500D02*
D03*
X339250Y73500D02*
D03*
Y60500D02*
D03*
X196000Y338500D02*
D03*
Y351500D02*
D03*
X176000Y338500D02*
D03*
Y351500D02*
D03*
D86*
X230000Y343000D02*
D03*
X258000D02*
D03*
D91*
X200250Y29750D02*
D03*
X134250D02*
D03*
D92*
X317300Y25000D02*
D03*
X54750Y27000D02*
D03*
X634200D02*
D03*
D93*
X342700Y25000D02*
D03*
X29350Y27000D02*
D03*
X608800D02*
D03*
D94*
X551000Y220000D02*
D03*
Y240000D02*
D03*
Y260000D02*
D03*
X111000D02*
D03*
Y240000D02*
D03*
Y220000D02*
D03*
D95*
X364167Y378250D02*
D03*
X444167D02*
D03*
X384167D02*
D03*
X404167D02*
D03*
X424167D02*
D03*
X176000D02*
D03*
X156000D02*
D03*
X136000D02*
D03*
X196000D02*
D03*
X116000D02*
D03*
X548250D02*
D03*
X488250D02*
D03*
X508250D02*
D03*
X528250D02*
D03*
X240083D02*
D03*
X320083D02*
D03*
X260083D02*
D03*
X280083D02*
D03*
X300083D02*
D03*
D96*
X46000Y350000D02*
D03*
X616000D02*
D03*
D97*
X136000Y344750D02*
D03*
X116000D02*
D03*
X156000Y345750D02*
D03*
D98*
X53000Y192500D02*
D03*
Y127500D02*
D03*
X609000Y192500D02*
D03*
Y127500D02*
D03*
D99*
X308500Y65000D02*
D03*
X353500D02*
D03*
D100*
X331000Y137000D02*
D03*
D101*
X381000Y112000D02*
D03*
Y84000D02*
D03*
X281000Y112000D02*
D03*
Y84000D02*
D03*
X546125Y149375D02*
D03*
Y121375D02*
D03*
X115875Y120625D02*
D03*
Y148625D02*
D03*
X252500Y111750D02*
D03*
Y83750D02*
D03*
D102*
X136000Y353500D02*
D03*
X116000D02*
D03*
X156000Y354500D02*
D03*
D103*
X136000Y334500D02*
D03*
X116000D02*
D03*
X156000Y335500D02*
D03*
M02*
