G04 Layer_Color=32896*
%FSLAX44Y44*%
%MOMM*%
G71*
G01*
G75*
%ADD31C,0.2500*%
%ADD34C,0.3000*%
%ADD63C,0.1500*%
%ADD65C,0.2000*%
%ADD68C,0.2540*%
%ADD104C,0.0105*%
%ADD105C,0.1800*%
%ADD106C,0.1900*%
D31*
X364950Y57000D02*
G03*
X364950Y57000I-1250J0D01*
G01*
X271500Y353000D02*
G03*
X271500Y353000I-1250J0D01*
G01*
D34*
X306000Y299000D02*
G03*
X295000Y288000I0J-11000D01*
G01*
Y234000D02*
G03*
X303000Y226000I8000J0D01*
G01*
X357000D02*
G03*
X367000Y236000I0J10000D01*
G01*
Y290000D02*
G03*
X358000Y299000I-9000J0D01*
G01*
X306000D02*
X345000D01*
X295000Y235000D02*
Y288000D01*
Y234000D02*
Y235000D01*
X303000Y226000D02*
X357000D01*
X367000Y236000D02*
Y288000D01*
Y290000D01*
X345000Y299000D02*
X358000D01*
X261000Y203000D02*
X301000D01*
X355000D02*
X395000D01*
D63*
X316250Y54300D02*
X328750D01*
X316250D02*
Y79700D01*
X329000D01*
X328330D02*
X330250D01*
Y54300D02*
Y79700D01*
X328330Y54300D02*
X330250D01*
X316250Y67000D02*
X330250D01*
X332250Y54300D02*
X344750D01*
X332250D02*
Y79700D01*
X345000D01*
X344330D02*
X346250D01*
Y54300D02*
Y79700D01*
X344330Y54300D02*
X346250D01*
X332250Y67000D02*
X346250D01*
X641000Y42750D02*
Y69250D01*
X627000Y42750D02*
Y69250D01*
X641000D01*
X627000Y42750D02*
X641000D01*
X615000D02*
Y69250D01*
X601000Y42750D02*
Y69250D01*
X615000D01*
X601000Y42750D02*
X615000D01*
X60000D02*
Y69250D01*
X46000Y42750D02*
Y69250D01*
X60000D01*
X46000Y42750D02*
X60000D01*
X35000D02*
Y69250D01*
X21000Y42750D02*
Y69250D01*
X35000D01*
X21000Y42750D02*
X35000D01*
X445500Y276500D02*
X472000D01*
X445500Y290500D02*
X472000D01*
Y276500D02*
Y290500D01*
X445500Y276500D02*
Y290500D01*
Y239500D02*
X472000D01*
X445500Y253500D02*
X472000D01*
Y239500D02*
Y253500D01*
X445500Y239500D02*
Y253500D01*
X353000Y237750D02*
Y264250D01*
X339000Y237750D02*
Y264250D01*
X353000D01*
X339000Y237750D02*
X353000D01*
X323000D02*
Y264250D01*
X309000Y237750D02*
Y264250D01*
X323000D01*
X309000Y237750D02*
X323000D01*
X324000Y261250D02*
Y287750D01*
X338000Y261250D02*
Y287750D01*
X324000Y261250D02*
X338000D01*
X324000Y287750D02*
X338000D01*
X160000Y146500D02*
X186500D01*
X160000Y160500D02*
X186500D01*
Y146500D02*
Y160500D01*
X160000Y146500D02*
Y160500D01*
X475750Y124000D02*
X502250D01*
X475750Y110000D02*
X502250D01*
X475750D02*
Y124000D01*
X502250Y110000D02*
Y124000D01*
X274000Y331750D02*
Y358250D01*
X288000Y331750D02*
Y358250D01*
X274000Y331750D02*
X288000D01*
X274000Y358250D02*
X288000D01*
X297357Y331750D02*
Y358250D01*
X311357Y331750D02*
Y358250D01*
X297357Y331750D02*
X311357D01*
X297357Y358250D02*
X311357D01*
X320714Y331750D02*
Y358250D01*
X334714Y331750D02*
Y358250D01*
X320714Y331750D02*
X334714D01*
X320714Y358250D02*
X334714D01*
X344071Y331750D02*
Y358250D01*
X358071Y331750D02*
Y358250D01*
X344071Y331750D02*
X358071D01*
X344071Y358250D02*
X358071D01*
X367429Y331750D02*
Y358250D01*
X381428Y331750D02*
Y358250D01*
X367429Y331750D02*
X381428D01*
X367429Y358250D02*
X381428D01*
X390786Y331750D02*
Y358250D01*
X404786Y331750D02*
Y358250D01*
X390786Y331750D02*
X404786D01*
X390786Y358250D02*
X404786D01*
X414143Y331750D02*
Y358250D01*
X428143Y331750D02*
Y358250D01*
X414143Y331750D02*
X428143D01*
X414143Y358250D02*
X428143D01*
X437500Y331750D02*
Y358250D01*
X451500Y331750D02*
Y358250D01*
X437500Y331750D02*
X451500D01*
X437500Y358250D02*
X451500D01*
X190500Y357700D02*
X203000D01*
Y332300D02*
Y357700D01*
X190250Y332300D02*
X203000D01*
X189000D02*
X190920D01*
X189000D02*
Y357700D01*
X190920D01*
X189000Y345000D02*
X203000D01*
X170500Y357700D02*
X183000D01*
Y332300D02*
Y357700D01*
X170250Y332300D02*
X183000D01*
X169000D02*
X170920D01*
X169000D02*
Y357700D01*
X170920D01*
X169000Y345000D02*
X183000D01*
D65*
X35000Y117000D02*
X43000D01*
X35000D02*
Y203000D01*
X43000D01*
X35000Y160000D02*
X71000D01*
X63000Y203000D02*
X71000D01*
Y117000D02*
Y203000D01*
X63000Y117000D02*
X71000D01*
X591000D02*
X599000D01*
X591000D02*
Y203000D01*
X599000D01*
X591000Y160000D02*
X627000D01*
X619000Y203000D02*
X627000D01*
Y117000D02*
Y203000D01*
X619000Y117000D02*
X627000D01*
X364500Y88961D02*
Y98961D01*
X297500Y88961D02*
Y98961D01*
X305200Y79000D02*
Y88961D01*
X311200Y79000D02*
Y88961D01*
X350800Y79000D02*
Y88961D01*
X356800Y79000D02*
Y88961D01*
X334000Y81564D02*
X334000Y88961D01*
X328000D02*
X328000Y81564D01*
X334000D01*
X297500Y88961D02*
X364500D01*
X394000Y112000D02*
Y124000D01*
X388000D02*
X394000D01*
X368000Y112000D02*
Y124000D01*
X374000D01*
X368000Y72000D02*
Y112000D01*
Y72000D02*
X394000D01*
Y112000D01*
X374000Y124000D02*
X388000D01*
X294000Y112000D02*
Y124000D01*
X288000D02*
X294000D01*
X268000Y112000D02*
Y124000D01*
X274000D01*
X268000Y72000D02*
Y112000D01*
Y72000D02*
X294000D01*
Y112000D01*
X274000Y124000D02*
X288000D01*
X559125Y149375D02*
Y161375D01*
X553125D02*
X559125D01*
X533125Y149375D02*
Y161375D01*
X539125D01*
X533125Y109375D02*
Y149375D01*
Y109375D02*
X559125D01*
Y149375D01*
X539125Y161375D02*
X553125D01*
X102875Y108625D02*
Y120625D01*
Y108625D02*
X108875D01*
X128875D02*
Y120625D01*
X122875Y108625D02*
X128875D01*
Y120625D02*
Y160625D01*
X102875D02*
X128875D01*
X102875Y120625D02*
Y160625D01*
X108875Y108625D02*
X122875D01*
X265500Y111750D02*
Y123750D01*
X259500D02*
X265500D01*
X239500Y111750D02*
Y123750D01*
X245500D01*
X239500Y71750D02*
Y111750D01*
Y71750D02*
X265500D01*
Y111750D01*
X245500Y123750D02*
X259500D01*
X248000Y333250D02*
X261000D01*
X227000Y332750D02*
Y333250D01*
Y332750D02*
X261000D01*
X248000Y352750D02*
X261000D01*
X227000D02*
Y353250D01*
X261000D01*
X354336Y38000D02*
X361000D01*
X354336Y44665D01*
Y46331D01*
X356002Y47997D01*
X359334D01*
X361000Y46331D01*
X351003Y42998D02*
X344339D01*
X341006Y46331D02*
X339340Y47997D01*
X336008D01*
X334342Y46331D01*
Y44665D01*
X336008Y42998D01*
X337674D01*
X336008D01*
X334342Y41332D01*
Y39666D01*
X336008Y38000D01*
X339340D01*
X341006Y39666D01*
X324345Y46331D02*
X326011Y47997D01*
X329343D01*
X331010Y46331D01*
Y39666D01*
X329343Y38000D01*
X326011D01*
X324345Y39666D01*
X314348Y47997D02*
X321013D01*
Y38000D01*
X314348D01*
X321013Y42998D02*
X317681D01*
X311016Y47997D02*
Y38000D01*
X304352D01*
X301019Y47997D02*
Y38000D01*
X294355D01*
X60000Y142000D02*
X56668D01*
X58334D01*
Y151997D01*
X60000Y150331D01*
X51669Y151997D02*
Y142000D01*
X48337Y145332D01*
X45005Y142000D01*
Y151997D01*
X617000Y142000D02*
X613668D01*
X615334D01*
Y151997D01*
X617000Y150331D01*
X608669Y151997D02*
Y142000D01*
X605337Y145332D01*
X602005Y142000D01*
Y151997D01*
X328335Y208997D02*
X335000D01*
Y203998D01*
X331668Y205665D01*
X330002D01*
X328335Y203998D01*
Y200666D01*
X330002Y199000D01*
X333334D01*
X335000Y200666D01*
X325003Y208997D02*
X318339D01*
Y207331D01*
X325003Y200666D01*
Y199000D01*
X139000Y325997D02*
Y319332D01*
X135668Y316000D01*
X132336Y319332D01*
Y325997D01*
X122339Y324331D02*
X124005Y325997D01*
X127337D01*
X129003Y324331D01*
Y317666D01*
X127337Y316000D01*
X124005D01*
X122339Y317666D01*
X112342Y324331D02*
X114008Y325997D01*
X117340D01*
X119006Y324331D01*
Y317666D01*
X117340Y316000D01*
X114008D01*
X112342Y317666D01*
D68*
X563414Y271000D02*
G03*
X563414Y271000I-1414J0D01*
G01*
X101414Y209000D02*
G03*
X101414Y209000I-1414J0D01*
G01*
X456581Y367250D02*
G03*
X456581Y367250I-1414J0D01*
G01*
X208414D02*
G03*
X208414Y367250I-1414J0D01*
G01*
X560664D02*
G03*
X560664Y367250I-1414J0D01*
G01*
X269000Y203000D02*
G03*
X269000Y203000I-8000J0D01*
G01*
X403000D02*
G03*
X403000Y203000I-8000J0D01*
G01*
X332498Y367250D02*
G03*
X332498Y367250I-1414J0D01*
G01*
X484000Y352617D02*
X494157D01*
X489078Y357696D02*
Y347539D01*
D104*
X185324Y48299D02*
X185746D01*
X147488D02*
X147909D01*
X185219Y48404D02*
X185957D01*
X147277D02*
X148015D01*
X185008Y48509D02*
X186062D01*
X147172D02*
X148225D01*
X184903Y48615D02*
X186168D01*
X147066D02*
X148331D01*
X184692Y48720D02*
X186273D01*
X146961D02*
X148542D01*
X184587Y48826D02*
X186378D01*
X146855D02*
X148647D01*
X184376Y48931D02*
X186484D01*
X146750D02*
X148858D01*
X184270Y49036D02*
X186589D01*
X146645D02*
X148963D01*
X184060Y49142D02*
X186695D01*
X146539D02*
X149174D01*
X183954Y49247D02*
X186800D01*
X146434D02*
X149279D01*
X183743Y49353D02*
X186905D01*
X146328D02*
X149490D01*
X183638Y49458D02*
X187011D01*
X146223D02*
X149596D01*
X183533Y49563D02*
X187116D01*
X146118D02*
X149701D01*
X183322Y49669D02*
X187222D01*
X146012D02*
X149912D01*
X183216Y49774D02*
X187327D01*
X145907D02*
X150017D01*
X183006Y49880D02*
X187432D01*
X145801D02*
X150228D01*
X182900Y49985D02*
X187538D01*
X145696D02*
X150333D01*
X182690Y50090D02*
X187643D01*
X145591D02*
X150544D01*
X182584Y50196D02*
X187749D01*
X145485D02*
X150650D01*
X182373Y50301D02*
X187854D01*
X145380D02*
X150860D01*
X182268Y50407D02*
X187959D01*
X145274D02*
X150966D01*
X182057Y50512D02*
X188065D01*
X145169D02*
X151177D01*
X181952Y50617D02*
X188170D01*
X145064D02*
X151282D01*
X181846Y50723D02*
X188276D01*
X144958D02*
X151387D01*
X181636Y50828D02*
X188381D01*
X144853D02*
X151598D01*
X181530Y50934D02*
X188486D01*
X144747D02*
X151704D01*
X181319Y51039D02*
X188592D01*
X175734D02*
X175944D01*
X157289D02*
X157500D01*
X144642D02*
X151914D01*
X181214Y51144D02*
X188697D01*
X175628D02*
X176155D01*
X157079D02*
X157606D01*
X144537D02*
X152020D01*
X181003Y51250D02*
X188802D01*
X175628D02*
X176366D01*
X156868D02*
X157606D01*
X144431D02*
X152231D01*
X180898Y51355D02*
X188908D01*
X175523D02*
X176577D01*
X156657D02*
X157711D01*
X144326D02*
X152336D01*
X180687Y51460D02*
X189013D01*
X175523D02*
X176787D01*
X156446D02*
X157711D01*
X144221D02*
X152547D01*
X180582Y51566D02*
X189119D01*
X175417D02*
X176998D01*
X156236D02*
X157816D01*
X144115D02*
X152652D01*
X180371Y51671D02*
X189224D01*
X175417D02*
X177209D01*
X156025D02*
X157816D01*
X144010D02*
X152863D01*
X180266Y51777D02*
X189329D01*
X175312D02*
X177420D01*
X155814D02*
X157922D01*
X143904D02*
X152968D01*
X180160Y51882D02*
X189435D01*
X175312D02*
X177631D01*
X155603D02*
X157922D01*
X143799D02*
X153074D01*
X179949Y51988D02*
X189540D01*
X175312D02*
X177736D01*
X155498D02*
X157922D01*
X143694D02*
X153284D01*
X179844Y52093D02*
X189646D01*
X175207D02*
X177947D01*
X155287D02*
X158027D01*
X143588D02*
X153390D01*
X179633Y52198D02*
X189751D01*
X175207D02*
X178158D01*
X155076D02*
X158027D01*
X143483D02*
X153601D01*
X179528Y52304D02*
X189856D01*
X175101D02*
X178368D01*
X154865D02*
X158133D01*
X143377D02*
X153706D01*
X179317Y52409D02*
X189962D01*
X175101D02*
X178579D01*
X154655D02*
X158133D01*
X143272D02*
X153917D01*
X179106Y52514D02*
X190067D01*
X175101D02*
X178895D01*
X154338D02*
X158133D01*
X143167D02*
X154128D01*
X174996Y52620D02*
X190173D01*
X143061D02*
X158238D01*
X174996Y52725D02*
X190278D01*
X142956D02*
X158238D01*
X174890Y52831D02*
X190383D01*
X142850D02*
X158343D01*
X174890Y52936D02*
X190489D01*
X142745D02*
X158343D01*
X174890Y53041D02*
X190594D01*
X142640D02*
X158343D01*
X174785Y53147D02*
X190700D01*
X142534D02*
X158449D01*
X174785Y53252D02*
X190805D01*
X142429D02*
X158449D01*
X174680Y53358D02*
X190910D01*
X142323D02*
X158554D01*
X174680Y53463D02*
X191016D01*
X142218D02*
X158554D01*
X174574Y53568D02*
X191121D01*
X142113D02*
X158660D01*
X174574Y53674D02*
X191227D01*
X142007D02*
X158660D01*
X174574Y53779D02*
X191332D01*
X141902D02*
X158660D01*
X174469Y53885D02*
X191437D01*
X141796D02*
X158765D01*
X174469Y53990D02*
X191437D01*
X141796D02*
X158765D01*
X174363Y54095D02*
X191543D01*
X141691D02*
X158870D01*
X174363Y54201D02*
X191543D01*
X141691D02*
X158870D01*
X174363Y54306D02*
X191437D01*
X141796D02*
X158870D01*
X174258Y54412D02*
X191437D01*
X141796D02*
X158976D01*
X174258Y54517D02*
X191332D01*
X141902D02*
X158976D01*
X174153Y54622D02*
X191332D01*
X141902D02*
X159081D01*
X174153Y54728D02*
X191227D01*
X142007D02*
X159081D01*
X174047Y54833D02*
X191121D01*
X142113D02*
X159186D01*
X174047Y54939D02*
X191121D01*
X142113D02*
X159186D01*
X174047Y55044D02*
X191016D01*
X142218D02*
X159186D01*
X173942Y55149D02*
X190910D01*
X142323D02*
X159292D01*
X173942Y55255D02*
X190910D01*
X142323D02*
X159292D01*
X173836Y55360D02*
X190805D01*
X142429D02*
X159397D01*
X173836Y55465D02*
X190700D01*
X142534D02*
X159397D01*
X173836Y55571D02*
X190594D01*
X142640D02*
X159397D01*
X173731Y55676D02*
X190594D01*
X142640D02*
X159503D01*
X173731Y55782D02*
X190489D01*
X142745D02*
X159503D01*
X173626Y55887D02*
X190383D01*
X142850D02*
X159608D01*
X173626Y55992D02*
X190383D01*
X142850D02*
X159608D01*
X173626Y56098D02*
X190278D01*
X142956D02*
X159608D01*
X173520Y56203D02*
X190173D01*
X143061D02*
X159713D01*
X173520Y56309D02*
X190173D01*
X143061D02*
X159713D01*
X173415Y56414D02*
X190067D01*
X143167D02*
X159819D01*
X173415Y56519D02*
X189962D01*
X143272D02*
X159819D01*
X173309Y56625D02*
X189962D01*
X143272D02*
X159924D01*
X173309Y56730D02*
X189856D01*
X143377D02*
X159924D01*
X173309Y56836D02*
X189751D01*
X143483D02*
X159924D01*
X173204Y56941D02*
X189751D01*
X143483D02*
X160030D01*
X173204Y57046D02*
X189646D01*
X143588D02*
X160030D01*
X173099Y57152D02*
X189540D01*
X143694D02*
X160135D01*
X173099Y57257D02*
X189435D01*
X143799D02*
X160135D01*
X173099Y57363D02*
X189435D01*
X143799D02*
X160135D01*
X172993Y57468D02*
X189329D01*
X143904D02*
X160240D01*
X172993Y57573D02*
X189224D01*
X144010D02*
X160240D01*
X172888Y57679D02*
X189224D01*
X144010D02*
X160346D01*
X172888Y57784D02*
X189119D01*
X144115D02*
X160346D01*
X172782Y57890D02*
X189013D01*
X144221D02*
X160451D01*
X172782Y57995D02*
X189013D01*
X144221D02*
X160451D01*
X172782Y58100D02*
X188908D01*
X144326D02*
X160451D01*
X172677Y58206D02*
X188802D01*
X144431D02*
X160557D01*
X172677Y58311D02*
X188802D01*
X144431D02*
X160557D01*
X172572Y58417D02*
X188697D01*
X144537D02*
X160662D01*
X172572Y58522D02*
X188592D01*
X144642D02*
X160662D01*
X172572Y58627D02*
X188592D01*
X144642D02*
X160662D01*
X172466Y58733D02*
X188486D01*
X144747D02*
X160767D01*
X172466Y58838D02*
X188381D01*
X144853D02*
X160767D01*
X172361Y58944D02*
X188381D01*
X144853D02*
X160873D01*
X172361Y59049D02*
X188276D01*
X144958D02*
X160873D01*
X172361Y59154D02*
X188170D01*
X145064D02*
X160873D01*
X172255Y59260D02*
X188065D01*
X145169D02*
X160978D01*
X172255Y59365D02*
X188065D01*
X145169D02*
X160978D01*
X172150Y59471D02*
X187959D01*
X145274D02*
X161084D01*
X172150Y59576D02*
X187854D01*
X145380D02*
X161084D01*
X172045Y59681D02*
X187854D01*
X145380D02*
X161189D01*
X172045Y59787D02*
X187749D01*
X145485D02*
X161189D01*
X172045Y59892D02*
X187643D01*
X145591D02*
X161189D01*
X171939Y59998D02*
X187643D01*
X145591D02*
X161294D01*
X171939Y60103D02*
X187538D01*
X145696D02*
X161294D01*
X171834Y60208D02*
X187432D01*
X145801D02*
X161400D01*
X171834Y60314D02*
X187432D01*
X145801D02*
X161400D01*
X171834Y60419D02*
X187327D01*
X145907D02*
X161400D01*
X171728Y60525D02*
X187222D01*
X146012D02*
X161505D01*
X171728Y60630D02*
X187222D01*
X146012D02*
X161505D01*
X171623Y60735D02*
X187116D01*
X146118D02*
X161611D01*
X171623Y60841D02*
X187116D01*
X146118D02*
X161611D01*
X171518Y60946D02*
X187116D01*
X146118D02*
X161716D01*
X171518Y61051D02*
X187116D01*
X146118D02*
X161716D01*
X171518Y61157D02*
X187116D01*
X146118D02*
X161716D01*
X171412Y61262D02*
X187222D01*
X146012D02*
X161821D01*
X171412Y61368D02*
X187222D01*
X146012D02*
X161821D01*
X171307Y61473D02*
X187327D01*
X145907D02*
X161927D01*
X171307Y61578D02*
X187327D01*
X145907D02*
X161927D01*
X171307Y61684D02*
X187327D01*
X145907D02*
X161927D01*
X171201Y61789D02*
X187432D01*
X145801D02*
X162032D01*
X171201Y61895D02*
X187432D01*
X145801D02*
X162032D01*
X171096Y62000D02*
X187538D01*
X145696D02*
X162138D01*
X171096Y62105D02*
X187538D01*
X145696D02*
X162138D01*
X171096Y62211D02*
X187538D01*
X145696D02*
X162138D01*
X170991Y62316D02*
X187643D01*
X145591D02*
X162243D01*
X170991Y62422D02*
X187643D01*
X145591D02*
X162243D01*
X170885Y62527D02*
X187749D01*
X145485D02*
X162348D01*
X170885Y62632D02*
X187749D01*
X145485D02*
X162348D01*
X170780Y62738D02*
X187749D01*
X145485D02*
X162454D01*
X170780Y62843D02*
X187854D01*
X145380D02*
X162454D01*
X170780Y62948D02*
X187854D01*
X145380D02*
X162454D01*
X170674Y63054D02*
X187959D01*
X145274D02*
X162559D01*
X170674Y63159D02*
X187959D01*
X145274D02*
X162559D01*
X170569Y63265D02*
X187959D01*
X145274D02*
X162665D01*
X170569Y63370D02*
X188065D01*
X145169D02*
X162665D01*
X170569Y63475D02*
X188065D01*
X145169D02*
X162665D01*
X170464Y63581D02*
X188170D01*
X145064D02*
X162770D01*
X170464Y63686D02*
X188170D01*
X145064D02*
X162770D01*
X170358Y63792D02*
X188170D01*
X145064D02*
X162875D01*
X170358Y63897D02*
X188276D01*
X144958D02*
X162875D01*
X170253Y64002D02*
X188276D01*
X144958D02*
X162981D01*
X170253Y64108D02*
X188381D01*
X144853D02*
X162981D01*
X170253Y64213D02*
X188381D01*
X144853D02*
X162981D01*
X170148Y64319D02*
X188381D01*
X144853D02*
X163086D01*
X170148Y64424D02*
X188486D01*
X144747D02*
X163086D01*
X170042Y64529D02*
X188486D01*
X144747D02*
X163192D01*
X170042Y64635D02*
X188592D01*
X144642D02*
X163192D01*
X170042Y64740D02*
X188592D01*
X144642D02*
X163192D01*
X170148Y64846D02*
X188592D01*
X144642D02*
X163086D01*
X170253Y64951D02*
X188697D01*
X144537D02*
X162981D01*
X170358Y65056D02*
X188697D01*
X144537D02*
X162875D01*
X170569Y65162D02*
X188802D01*
X144431D02*
X162665D01*
X170674Y65267D02*
X188802D01*
X144431D02*
X162559D01*
X170885Y65373D02*
X188802D01*
X144431D02*
X162348D01*
X170991Y65478D02*
X188908D01*
X144326D02*
X162243D01*
X171201Y65583D02*
X188908D01*
X144326D02*
X162032D01*
X171307Y65689D02*
X189013D01*
X144221D02*
X161927D01*
X171412Y65794D02*
X189013D01*
X144221D02*
X161821D01*
X171623Y65900D02*
X189013D01*
X144221D02*
X161611D01*
X171728Y66005D02*
X189119D01*
X144115D02*
X161505D01*
X171834Y66110D02*
X189119D01*
X144115D02*
X161400D01*
X172045Y66216D02*
X189224D01*
X144010D02*
X161189D01*
X172150Y66321D02*
X189224D01*
X144010D02*
X161084D01*
X172255Y66427D02*
X189224D01*
X144010D02*
X160978D01*
X172361Y66532D02*
X189329D01*
X143904D02*
X160873D01*
X172466Y66637D02*
X189329D01*
X143904D02*
X160767D01*
X172572Y66743D02*
X189435D01*
X143799D02*
X160662D01*
X172782Y66848D02*
X189435D01*
X143799D02*
X160451D01*
X172888Y66954D02*
X189435D01*
X143799D02*
X160346D01*
X172993Y67059D02*
X189540D01*
X143694D02*
X160240D01*
X173099Y67164D02*
X189646D01*
X143588D02*
X160135D01*
X173099Y67270D02*
X189646D01*
X143588D02*
X160135D01*
X173204Y67375D02*
X189856D01*
X143377D02*
X160030D01*
X173309Y67481D02*
X190278D01*
X142956D02*
X159924D01*
X173415Y67586D02*
X190805D01*
X142429D02*
X159819D01*
X173520Y67691D02*
X191332D01*
X141902D02*
X159713D01*
X173626Y67797D02*
X191964D01*
X141269D02*
X159608D01*
X173626Y67902D02*
X192491D01*
X140742D02*
X159608D01*
X173731Y68007D02*
X193124D01*
X140110D02*
X159503D01*
X173836Y68113D02*
X193651D01*
X139583D02*
X159397D01*
X173836Y68218D02*
X194178D01*
X139056D02*
X159397D01*
X173942Y68324D02*
X194810D01*
X138424D02*
X159292D01*
X174047Y68429D02*
X195337D01*
X137897D02*
X159186D01*
X174047Y68534D02*
X195864D01*
X137370D02*
X159186D01*
X174153Y68640D02*
X196496D01*
X136737D02*
X159081D01*
X174258Y68745D02*
X197023D01*
X136210D02*
X158976D01*
X174258Y68851D02*
X197445D01*
X135789D02*
X158976D01*
X174363Y68956D02*
X197656D01*
X135578D02*
X158870D01*
X174363Y69061D02*
X197656D01*
X135578D02*
X158870D01*
X174469Y69167D02*
X197761D01*
X135473D02*
X158765D01*
X174469Y69272D02*
X197761D01*
X135473D02*
X158765D01*
X174574Y69378D02*
X197761D01*
X135473D02*
X158660D01*
X174574Y69483D02*
X197761D01*
X135473D02*
X158660D01*
X174680Y69588D02*
X197761D01*
X135473D02*
X158554D01*
X174680Y69694D02*
X197761D01*
X135473D02*
X158554D01*
X174680Y69799D02*
X197761D01*
X135473D02*
X158554D01*
X174785Y69905D02*
X197761D01*
X135473D02*
X158449D01*
X174785Y70010D02*
X197761D01*
X135473D02*
X158449D01*
X174785Y70115D02*
X197761D01*
X135473D02*
X158449D01*
X174890Y70221D02*
X197761D01*
X135473D02*
X158343D01*
X174890Y70326D02*
X197761D01*
X135473D02*
X158343D01*
X174890Y70432D02*
X197761D01*
X135473D02*
X158343D01*
X174996Y70537D02*
X197761D01*
X135473D02*
X158238D01*
X174996Y70642D02*
X197761D01*
X135473D02*
X158238D01*
X174996Y70748D02*
X197761D01*
X135473D02*
X158238D01*
X175101Y70853D02*
X197761D01*
X135473D02*
X158133D01*
X175101Y70958D02*
X197761D01*
X135473D02*
X158133D01*
X175101Y71064D02*
X197761D01*
X135473D02*
X158133D01*
X175101Y71169D02*
X197761D01*
X135473D02*
X158133D01*
X175207Y71275D02*
X197761D01*
X135473D02*
X158027D01*
X175207Y71380D02*
X197761D01*
X135473D02*
X158027D01*
X175207Y71486D02*
X197761D01*
X135473D02*
X158027D01*
X175207Y71591D02*
X197761D01*
X135473D02*
X158027D01*
X175207Y71696D02*
X197761D01*
X135473D02*
X158027D01*
X175312Y71802D02*
X197761D01*
X135473D02*
X157922D01*
X175312Y71907D02*
X197761D01*
X135473D02*
X157922D01*
X175312Y72013D02*
X197761D01*
X135473D02*
X157922D01*
X175312Y72118D02*
X197761D01*
X135473D02*
X157922D01*
X175312Y72223D02*
X197761D01*
X135473D02*
X157922D01*
X175312Y72329D02*
X197761D01*
X135473D02*
X157922D01*
X175312Y72434D02*
X197761D01*
X135473D02*
X157922D01*
X175312Y72539D02*
X197761D01*
X135473D02*
X157922D01*
X175312Y72645D02*
X197761D01*
X135473D02*
X157922D01*
X175312Y72750D02*
X197761D01*
X135473D02*
X157922D01*
X175312Y72856D02*
X197761D01*
X135473D02*
X157922D01*
X175312Y72961D02*
X197761D01*
X135473D02*
X157922D01*
X175417Y73066D02*
X197761D01*
X135473D02*
X157816D01*
X175312Y73172D02*
X197761D01*
X135473D02*
X157922D01*
X175312Y73277D02*
X197761D01*
X135473D02*
X157922D01*
X175312Y73383D02*
X197761D01*
X135473D02*
X157922D01*
X175312Y73488D02*
X197761D01*
X135473D02*
X157922D01*
X175312Y73593D02*
X197761D01*
X135473D02*
X157922D01*
X175312Y73699D02*
X197761D01*
X135473D02*
X157922D01*
X175312Y73804D02*
X197761D01*
X135473D02*
X157922D01*
X175312Y73910D02*
X197761D01*
X135473D02*
X157922D01*
X175312Y74015D02*
X197761D01*
X135473D02*
X157922D01*
X175312Y74120D02*
X197761D01*
X135473D02*
X157922D01*
X175312Y74226D02*
X197761D01*
X135473D02*
X157922D01*
X175312Y74331D02*
X197761D01*
X135473D02*
X157922D01*
X175207Y74437D02*
X197761D01*
X135473D02*
X158027D01*
X175207Y74542D02*
X197761D01*
X135473D02*
X158027D01*
X175207Y74647D02*
X197761D01*
X135473D02*
X158027D01*
X175207Y74753D02*
X197761D01*
X135473D02*
X158027D01*
X175207Y74858D02*
X197761D01*
X135473D02*
X158027D01*
X175207Y74963D02*
X197761D01*
X135473D02*
X158027D01*
X175101Y75069D02*
X197761D01*
X135473D02*
X158133D01*
X175101Y75174D02*
X197761D01*
X135473D02*
X158133D01*
X175101Y75280D02*
X197761D01*
X135473D02*
X158133D01*
X175101Y75385D02*
X197761D01*
X135473D02*
X158133D01*
X174996Y75490D02*
X197761D01*
X135473D02*
X158238D01*
X174996Y75596D02*
X197761D01*
X135473D02*
X158238D01*
X174996Y75701D02*
X197761D01*
X135473D02*
X158238D01*
X174890Y75807D02*
X197761D01*
X135473D02*
X158343D01*
X174890Y75912D02*
X197761D01*
X135473D02*
X158343D01*
X174890Y76017D02*
X197761D01*
X135473D02*
X158343D01*
X174785Y76123D02*
X197761D01*
X135473D02*
X158449D01*
X174785Y76228D02*
X197761D01*
X135473D02*
X158449D01*
X174785Y76334D02*
X197761D01*
X135473D02*
X158449D01*
X174680Y76439D02*
X197761D01*
X135473D02*
X158554D01*
X174680Y76544D02*
X197761D01*
X135473D02*
X158554D01*
X174574Y76650D02*
X197761D01*
X135473D02*
X158660D01*
X174574Y76755D02*
X197761D01*
X135473D02*
X158660D01*
X174469Y76861D02*
X197761D01*
X135473D02*
X158765D01*
X174469Y76966D02*
X197761D01*
X135473D02*
X158765D01*
X174363Y77071D02*
X197761D01*
X135473D02*
X158870D01*
X174363Y77177D02*
X197761D01*
X135473D02*
X158870D01*
X174258Y77282D02*
X197656D01*
X135578D02*
X158976D01*
X174258Y77388D02*
X197550D01*
X135683D02*
X158976D01*
X174153Y77493D02*
X197129D01*
X136105D02*
X159081D01*
X174153Y77598D02*
X196602D01*
X136632D02*
X159081D01*
X174047Y77704D02*
X196075D01*
X137159D02*
X159186D01*
X173942Y77809D02*
X195442D01*
X137791D02*
X159292D01*
X173942Y77915D02*
X194915D01*
X138318D02*
X159292D01*
X173836Y78020D02*
X194388D01*
X138845D02*
X159397D01*
X173731Y78125D02*
X193756D01*
X139478D02*
X159503D01*
X173731Y78231D02*
X193229D01*
X140005D02*
X159503D01*
X173626Y78336D02*
X192597D01*
X140637D02*
X159608D01*
X173520Y78442D02*
X192070D01*
X141164D02*
X159713D01*
X173415Y78547D02*
X191543D01*
X141691D02*
X159819D01*
X173415Y78652D02*
X190910D01*
X142323D02*
X159819D01*
X173309Y78758D02*
X190383D01*
X142850D02*
X159924D01*
X173204Y78863D02*
X189856D01*
X143377D02*
X160030D01*
X173099Y78969D02*
X189646D01*
X143588D02*
X160135D01*
X172993Y79074D02*
X189435D01*
X143799D02*
X160240D01*
X172888Y79179D02*
X189329D01*
X143904D02*
X160346D01*
X172782Y79285D02*
X189329D01*
X143904D02*
X160451D01*
X172677Y79390D02*
X189224D01*
X144010D02*
X160557D01*
X172572Y79496D02*
X189224D01*
X144010D02*
X160662D01*
X172466Y79601D02*
X189119D01*
X144115D02*
X160767D01*
X172361Y79706D02*
X189119D01*
X144115D02*
X160873D01*
X172255Y79812D02*
X189119D01*
X144115D02*
X160978D01*
X172045Y79917D02*
X189013D01*
X144221D02*
X161189D01*
X171939Y80022D02*
X189013D01*
X144221D02*
X161294D01*
X171834Y80128D02*
X188908D01*
X144326D02*
X161400D01*
X171623Y80233D02*
X188908D01*
X144326D02*
X161611D01*
X171518Y80339D02*
X188802D01*
X144431D02*
X161716D01*
X171307Y80444D02*
X188802D01*
X144431D02*
X161927D01*
X171201Y80549D02*
X188802D01*
X144431D02*
X162032D01*
X170991Y80655D02*
X188697D01*
X144537D02*
X162243D01*
X170780Y80760D02*
X188697D01*
X144537D02*
X162454D01*
X170569Y80866D02*
X188592D01*
X144642D02*
X162665D01*
X170358Y80971D02*
X188592D01*
X144642D02*
X162875D01*
X170148Y81076D02*
X188486D01*
X144747D02*
X163086D01*
X169937Y81182D02*
X188486D01*
X144747D02*
X163297D01*
X169621Y81287D02*
X188486D01*
X144747D02*
X163613D01*
X169410Y81393D02*
X188381D01*
X144853D02*
X163824D01*
X168988Y81498D02*
X188381D01*
X144853D02*
X164245D01*
X168567Y81603D02*
X188276D01*
X144958D02*
X164667D01*
X168040Y81709D02*
X188276D01*
X144958D02*
X165194D01*
X167197Y81814D02*
X188276D01*
X144958D02*
X166037D01*
X145064Y81920D02*
X188170D01*
X145064Y82025D02*
X188170D01*
X145169Y82130D02*
X188065D01*
X145169Y82236D02*
X188065D01*
X145274Y82341D02*
X187959D01*
X145274Y82447D02*
X187959D01*
X145274Y82552D02*
X187959D01*
X145380Y82657D02*
X187854D01*
X145380Y82763D02*
X187854D01*
X145485Y82868D02*
X187749D01*
X145485Y82973D02*
X187749D01*
X145591Y83079D02*
X187643D01*
X145591Y83184D02*
X187643D01*
X145591Y83290D02*
X187643D01*
X145696Y83395D02*
X187538D01*
X145696Y83500D02*
X187538D01*
X145801Y83606D02*
X187432D01*
X145801Y83711D02*
X187432D01*
X145907Y83817D02*
X187327D01*
X145907Y83922D02*
X187327D01*
X145907Y84028D02*
X187327D01*
X146012Y84133D02*
X187222D01*
X146012Y84238D02*
X187222D01*
X146118Y84344D02*
X187116D01*
X146118Y84449D02*
X187116D01*
X146223Y84555D02*
X187011D01*
X146223Y84660D02*
X187011D01*
X146223Y84765D02*
X187011D01*
X146328Y84871D02*
X186905D01*
X146328Y84976D02*
X186905D01*
X146328Y85081D02*
X186905D01*
X146328Y85187D02*
X186905D01*
X146223Y85292D02*
X187011D01*
X146223Y85398D02*
X187011D01*
X146118Y85503D02*
X187116D01*
X146118Y85608D02*
X187116D01*
X146012Y85714D02*
X187222D01*
X145907Y85819D02*
X187327D01*
X145907Y85925D02*
X187327D01*
X145801Y86030D02*
X187432D01*
X145696Y86135D02*
X187538D01*
X145696Y86241D02*
X187538D01*
X145591Y86346D02*
X187643D01*
X145485Y86452D02*
X187749D01*
X145380Y86557D02*
X187854D01*
X145380Y86662D02*
X187854D01*
X145274Y86768D02*
X187959D01*
X145169Y86873D02*
X188065D01*
X145169Y86979D02*
X188065D01*
X145064Y87084D02*
X188170D01*
X144958Y87189D02*
X188276D01*
X144958Y87295D02*
X188276D01*
X144853Y87400D02*
X188381D01*
X144747Y87506D02*
X188486D01*
X144747Y87611D02*
X188486D01*
X144642Y87716D02*
X188592D01*
X144537Y87822D02*
X188697D01*
X144537Y87927D02*
X188697D01*
X144431Y88033D02*
X188802D01*
X144326Y88138D02*
X188908D01*
X144221Y88243D02*
X189013D01*
X144221Y88349D02*
X189013D01*
X144115Y88454D02*
X189119D01*
X144010Y88559D02*
X189224D01*
X144010Y88665D02*
X189224D01*
X143904Y88770D02*
X189329D01*
X143799Y88876D02*
X189435D01*
X143799Y88981D02*
X189435D01*
X143694Y89086D02*
X189540D01*
X143588Y89192D02*
X189646D01*
X143588Y89297D02*
X189646D01*
X143483Y89403D02*
X189751D01*
X143377Y89508D02*
X189856D01*
X143377Y89613D02*
X189856D01*
X143272Y89719D02*
X189962D01*
X143167Y89824D02*
X190067D01*
X143167Y89930D02*
X190067D01*
X143061Y90035D02*
X190173D01*
X142956Y90140D02*
X190278D01*
X142850Y90246D02*
X190383D01*
X142850Y90351D02*
X190383D01*
X142745Y90456D02*
X190489D01*
X142640Y90562D02*
X190594D01*
X142640Y90667D02*
X190594D01*
X142534Y90773D02*
X190700D01*
X142429Y90878D02*
X190805D01*
X142429Y90983D02*
X190805D01*
X142323Y91089D02*
X190910D01*
X142218Y91194D02*
X191016D01*
X142218Y91300D02*
X191016D01*
X142113Y91405D02*
X191121D01*
X142007Y91510D02*
X191227D01*
X142007Y91616D02*
X191227D01*
X141902Y91721D02*
X191332D01*
X141796Y91827D02*
X191437D01*
X141796Y91932D02*
X191437D01*
X141691Y92037D02*
X191543D01*
X141691Y92143D02*
X191543D01*
X141796Y92248D02*
X191437D01*
X141796Y92354D02*
X191437D01*
X141902Y92459D02*
X191332D01*
X142007Y92564D02*
X191227D01*
X142113Y92670D02*
X191121D01*
X142218Y92775D02*
X191016D01*
X142323Y92881D02*
X190910D01*
X142429Y92986D02*
X190805D01*
X142534Y93091D02*
X190700D01*
X142640Y93197D02*
X190594D01*
X142745Y93302D02*
X190489D01*
X178685Y93408D02*
X190383D01*
X155182D02*
X178052D01*
X142850D02*
X154549D01*
X178895Y93513D02*
X190278D01*
X155392D02*
X177841D01*
X142956D02*
X154338D01*
X179001Y93618D02*
X190173D01*
X155603D02*
X177631D01*
X143061D02*
X154233D01*
X179106Y93724D02*
X190067D01*
X155919D02*
X177314D01*
X143167D02*
X154128D01*
X179317Y93829D02*
X189962D01*
X156130D02*
X177104D01*
X143272D02*
X153917D01*
X179422Y93935D02*
X189856D01*
X156446D02*
X176787D01*
X143377D02*
X153811D01*
X179633Y94040D02*
X189751D01*
X156657D02*
X176577D01*
X143483D02*
X153601D01*
X179739Y94145D02*
X189646D01*
X156973D02*
X176261D01*
X143588D02*
X153495D01*
X179949Y94251D02*
X189540D01*
X157184D02*
X176050D01*
X143694D02*
X153284D01*
X180055Y94356D02*
X189435D01*
X157500D02*
X175839D01*
X143799D02*
X153179D01*
X180266Y94462D02*
X189329D01*
X157711D02*
X175523D01*
X143904D02*
X152968D01*
X180371Y94567D02*
X189224D01*
X157922D02*
X175312D01*
X144010D02*
X152863D01*
X180582Y94672D02*
X189119D01*
X158238D02*
X174996D01*
X144115D02*
X152652D01*
X180687Y94778D02*
X189013D01*
X158449D02*
X174785D01*
X144221D02*
X152547D01*
X180898Y94883D02*
X188908D01*
X158765D02*
X174469D01*
X144326D02*
X152441D01*
X181003Y94988D02*
X188802D01*
X158976D02*
X174258D01*
X144431D02*
X152231D01*
X181109Y95094D02*
X188697D01*
X159292D02*
X173942D01*
X144537D02*
X152125D01*
X181319Y95199D02*
X188592D01*
X159503D02*
X173731D01*
X144642D02*
X151914D01*
X181425Y95305D02*
X188486D01*
X159713D02*
X173520D01*
X144747D02*
X151809D01*
X181636Y95410D02*
X188381D01*
X160030D02*
X173204D01*
X144853D02*
X151598D01*
X181741Y95515D02*
X188276D01*
X160240D02*
X172993D01*
X144958D02*
X151493D01*
X181952Y95621D02*
X188170D01*
X160451D02*
X172782D01*
X145064D02*
X151282D01*
X182057Y95726D02*
X188065D01*
X160662D02*
X172572D01*
X145169D02*
X151177D01*
X182268Y95832D02*
X187959D01*
X160767D02*
X172466D01*
X145274D02*
X150966D01*
X182373Y95937D02*
X187854D01*
X160767D02*
X172466D01*
X145380D02*
X150860D01*
X182584Y96042D02*
X187749D01*
X160873D02*
X172361D01*
X145485D02*
X150650D01*
X182690Y96148D02*
X187643D01*
X160873D02*
X172361D01*
X145591D02*
X150544D01*
X182795Y96253D02*
X187538D01*
X160873D02*
X172361D01*
X145696D02*
X150439D01*
X183006Y96359D02*
X187432D01*
X160873D02*
X172361D01*
X145801D02*
X150228D01*
X183111Y96464D02*
X187327D01*
X160873D02*
X172361D01*
X145907D02*
X150123D01*
X183322Y96569D02*
X187222D01*
X160978D02*
X172255D01*
X146012D02*
X149912D01*
X183427Y96675D02*
X187116D01*
X160978D02*
X172255D01*
X146118D02*
X149806D01*
X183638Y96780D02*
X187011D01*
X160978D02*
X172255D01*
X146223D02*
X149596D01*
X183743Y96886D02*
X186905D01*
X160978D02*
X172255D01*
X146328D02*
X149490D01*
X183954Y96991D02*
X186800D01*
X160978D02*
X172255D01*
X146434D02*
X149279D01*
X184060Y97096D02*
X186695D01*
X160978D02*
X172255D01*
X146539D02*
X149174D01*
X184270Y97202D02*
X186589D01*
X161084D02*
X172150D01*
X146645D02*
X148963D01*
X184376Y97307D02*
X186484D01*
X161084D02*
X172150D01*
X146750D02*
X148858D01*
X184481Y97413D02*
X186378D01*
X161084D02*
X172150D01*
X146855D02*
X148752D01*
X184692Y97518D02*
X186273D01*
X161084D02*
X172150D01*
X146961D02*
X148542D01*
X184797Y97623D02*
X186168D01*
X161084D02*
X172150D01*
X147066D02*
X148436D01*
X185008Y97729D02*
X186062D01*
X161189D02*
X172045D01*
X147172D02*
X148225D01*
X185114Y97834D02*
X185957D01*
X161189D02*
X172045D01*
X147277D02*
X148120D01*
X185324Y97940D02*
X185851D01*
X161189D02*
X172045D01*
X147382D02*
X147909D01*
X161189Y98045D02*
X172045D01*
X161189Y98150D02*
X172045D01*
X161294Y98256D02*
X171939D01*
X161294Y98361D02*
X171939D01*
X161294Y98467D02*
X171939D01*
X161294Y98572D02*
X171939D01*
X161294Y98677D02*
X171939D01*
X161294Y98783D02*
X171939D01*
X161400Y98888D02*
X171834D01*
X161400Y98994D02*
X171834D01*
X161400Y99099D02*
X171834D01*
X161400Y99204D02*
X171834D01*
X161400Y99310D02*
X171834D01*
X161505Y99415D02*
X171728D01*
X161505Y99521D02*
X171728D01*
X161505Y99626D02*
X171728D01*
X161505Y99731D02*
X171728D01*
X161505Y99837D02*
X171728D01*
X161611Y99942D02*
X171728D01*
X161611Y100048D02*
X171623D01*
X161611Y100153D02*
X171623D01*
X161611Y100258D02*
X171623D01*
X161611Y100364D02*
X171623D01*
X161611Y100469D02*
X171623D01*
X161716Y100574D02*
X171518D01*
X161716Y100680D02*
X171518D01*
X161716Y100785D02*
X171518D01*
X161716Y100891D02*
X171518D01*
X161716Y100996D02*
X171518D01*
X161821Y101101D02*
X171412D01*
X161821Y101207D02*
X171412D01*
X161821Y101312D02*
X171412D01*
X161821Y101418D02*
X171412D01*
X161821Y101523D02*
X171412D01*
X161821Y101628D02*
X171412D01*
X161927Y101734D02*
X171307D01*
X161927Y101839D02*
X171307D01*
X161927Y101945D02*
X171307D01*
X161927Y102050D02*
X171307D01*
X161927Y102155D02*
X171307D01*
X162032Y102261D02*
X171201D01*
X162032Y102366D02*
X171201D01*
X162032Y102472D02*
X171201D01*
X162032Y102577D02*
X171201D01*
X162032Y102682D02*
X171201D01*
X162138Y102788D02*
X171096D01*
X162138Y102893D02*
X171096D01*
X162138Y102999D02*
X171096D01*
X162138Y103104D02*
X171096D01*
X162138Y103209D02*
X171096D01*
X162138Y103315D02*
X171096D01*
X162243Y103420D02*
X170991D01*
X162243Y103525D02*
X170991D01*
X162243Y103631D02*
X170991D01*
X162243Y103736D02*
X170991D01*
X162243Y103842D02*
X170991D01*
X162348Y103947D02*
X170885D01*
X162348Y104052D02*
X170885D01*
X162454Y104158D02*
X170780D01*
X162665Y104263D02*
X170569D01*
D105*
X58000Y317000D02*
Y326997D01*
X54668Y323665D01*
X51336Y326997D01*
Y317000D01*
X41339D02*
X48003D01*
X41339Y323665D01*
Y325331D01*
X43005Y326997D01*
X46337D01*
X48003Y325331D01*
X616000Y317000D02*
Y326997D01*
X612668Y323665D01*
X609336Y326997D01*
Y317000D01*
X599339D02*
X606003D01*
X599339Y323665D01*
Y325331D01*
X601005Y326997D01*
X604337D01*
X606003Y325331D01*
X534000Y355997D02*
X528668D01*
X531334D01*
Y348000D01*
X526003Y355997D02*
X520671Y348000D01*
Y355997D02*
X526003Y348000D01*
X179664Y313332D02*
X180997Y311999D01*
Y309333D01*
X179664Y308000D01*
X178332D01*
X176999Y309333D01*
Y311999D01*
X175666Y313332D01*
X174333D01*
X173000Y311999D01*
Y309333D01*
X174333Y308000D01*
X180997Y315997D02*
X173000D01*
Y319996D01*
X174333Y321329D01*
X179664D01*
X180997Y319996D01*
Y315997D01*
X173000Y323995D02*
X178332D01*
X180997Y326661D01*
X178332Y329326D01*
X173000D01*
X176999D01*
Y323995D01*
X199664Y313332D02*
X200997Y311999D01*
Y309333D01*
X199664Y308000D01*
X198332D01*
X196999Y309333D01*
Y311999D01*
X195666Y313332D01*
X194333D01*
X193000Y311999D01*
Y309333D01*
X194333Y308000D01*
X200997Y315997D02*
X193000D01*
Y319996D01*
X194333Y321329D01*
X199664D01*
X200997Y319996D01*
Y315997D01*
X199664Y329326D02*
X200997Y327994D01*
Y325328D01*
X199664Y323995D01*
X194333D01*
X193000Y325328D01*
Y327994D01*
X194333Y329326D01*
D106*
X553000Y348000D02*
Y355997D01*
X549001D01*
X547668Y354664D01*
Y351999D01*
X549001Y350666D01*
X553000D01*
X550334D02*
X547668Y348000D01*
X545003Y355997D02*
X539671Y348000D01*
Y355997D02*
X545003Y348000D01*
M02*
