G04 Layer_Color=128*
%FSLAX44Y44*%
%MOMM*%
G71*
G01*
G75*
%ADD15R,0.9000X1.0000*%
%ADD16R,1.0000X0.9000*%
%ADD20R,0.9500X0.8500*%
%ADD26R,2.0000X1.2000*%
%ADD47R,3.1000X1.6000*%
%ADD48R,1.2000X2.0000*%
%ADD49R,5.6000X5.6000*%
%ADD50R,1.8000X1.5000*%
%ADD51R,1.5000X0.3000*%
%ADD52R,1.5000X0.8000*%
D15*
X465500Y283500D02*
D03*
X452000D02*
D03*
X465500Y246500D02*
D03*
X452000D02*
D03*
X180000Y153500D02*
D03*
X166500D02*
D03*
X482250Y117000D02*
D03*
X495750D02*
D03*
D16*
X634000Y62750D02*
D03*
Y49250D02*
D03*
X608000Y62750D02*
D03*
Y49250D02*
D03*
X53000Y62750D02*
D03*
Y49250D02*
D03*
X28000Y62750D02*
D03*
Y49250D02*
D03*
X346000Y257750D02*
D03*
Y244250D02*
D03*
X316000Y257750D02*
D03*
Y244250D02*
D03*
X331000Y267750D02*
D03*
Y281250D02*
D03*
X281000Y338250D02*
D03*
Y351750D02*
D03*
X304357Y338250D02*
D03*
Y351750D02*
D03*
X327714Y338250D02*
D03*
Y351750D02*
D03*
X351071Y338250D02*
D03*
Y351750D02*
D03*
X374428Y338250D02*
D03*
Y351750D02*
D03*
X397786Y338250D02*
D03*
Y351750D02*
D03*
X421143Y338250D02*
D03*
Y351750D02*
D03*
X444500Y338250D02*
D03*
Y351750D02*
D03*
D20*
X323250Y73500D02*
D03*
Y60500D02*
D03*
X339250Y73500D02*
D03*
Y60500D02*
D03*
X196000Y338500D02*
D03*
Y351500D02*
D03*
X176000Y338500D02*
D03*
Y351500D02*
D03*
D26*
X230000Y343000D02*
D03*
X258000D02*
D03*
D47*
X53000Y192500D02*
D03*
Y127500D02*
D03*
X609000Y192500D02*
D03*
Y127500D02*
D03*
D48*
X308500Y65000D02*
D03*
X353500D02*
D03*
D49*
X331000Y137000D02*
D03*
D50*
X381000Y112000D02*
D03*
Y84000D02*
D03*
X281000Y112000D02*
D03*
Y84000D02*
D03*
X546125Y149375D02*
D03*
Y121375D02*
D03*
X115875Y120625D02*
D03*
Y148625D02*
D03*
X252500Y111750D02*
D03*
Y83750D02*
D03*
D51*
X136000Y353500D02*
D03*
X116000D02*
D03*
X156000Y354500D02*
D03*
D52*
X136000Y334500D02*
D03*
X116000D02*
D03*
X156000Y335500D02*
D03*
M02*
