G04 Layer_Color=65535*
%FSLAX44Y44*%
%MOMM*%
G71*
G01*
G75*
%ADD10C,0.6000*%
%ADD31C,0.2500*%
%ADD34C,0.3000*%
%ADD63C,0.1500*%
%ADD64C,0.1000*%
%ADD65C,0.2000*%
%ADD66C,0.0254*%
%ADD67C,0.0078*%
%ADD68C,0.2540*%
%ADD69R,1.0000X4.0000*%
%ADD70R,3.2000X6.1000*%
G36*
X331747Y154455D02*
X331812D01*
X331941Y154390D01*
X332136Y154325D01*
X332427Y154228D01*
X332751Y154131D01*
X333107Y154001D01*
X333884Y153710D01*
X333949Y153677D01*
X334111Y153645D01*
X334338Y153548D01*
X334629Y153418D01*
X334953Y153289D01*
X335277Y153127D01*
X335633Y152965D01*
X335957Y152771D01*
X335989Y152706D01*
X336087Y152609D01*
X336216Y152382D01*
X336313Y152220D01*
X336443Y152058D01*
X336605Y151831D01*
X336767Y151572D01*
X336993Y151249D01*
X337220Y150925D01*
X337479Y150504D01*
X337803Y150050D01*
X338645Y147524D01*
Y147492D01*
Y147395D01*
X338613Y147265D01*
Y147038D01*
Y146974D01*
Y146779D01*
Y146650D01*
Y146488D01*
X338645Y146261D01*
Y146034D01*
Y146002D01*
Y145937D01*
X338677Y145808D01*
Y145646D01*
X338710Y145322D01*
Y145160D01*
Y145031D01*
Y144966D01*
Y144804D01*
X338677Y144577D01*
X338645Y144286D01*
X338613Y143930D01*
X338548Y143606D01*
X338418Y143249D01*
X338289Y142958D01*
Y142926D01*
X338224Y142796D01*
X338159Y142569D01*
X338030Y142246D01*
X337868Y141792D01*
X337609Y141242D01*
X337317Y140594D01*
X337123Y140205D01*
X336929Y139784D01*
X335147Y138068D01*
X332492Y137161D01*
X329804D01*
X327278Y138035D01*
X325432Y139849D01*
X324590Y142505D01*
Y145160D01*
X325432Y147686D01*
X326501Y148755D01*
X328217Y149597D01*
X330128Y149565D01*
X331909Y148690D01*
X332103Y148431D01*
X332945Y146779D01*
Y146747D01*
Y146650D01*
Y146455D01*
Y146196D01*
Y146132D01*
Y146002D01*
Y145808D01*
Y145646D01*
Y145613D01*
Y145549D01*
Y145452D01*
Y145322D01*
X332913Y144998D01*
X332881Y144707D01*
X332038Y143023D01*
X332006D01*
X331909Y142958D01*
X331779Y142893D01*
X331553Y142764D01*
X331294Y142634D01*
X330937Y142472D01*
X330549Y142246D01*
X330095Y142019D01*
X328185D01*
X326436Y142926D01*
X326404Y142958D01*
X326371Y143023D01*
X326306Y143152D01*
X326209Y143347D01*
X326080Y143606D01*
X325885Y143930D01*
X325659Y144383D01*
Y142602D01*
X326404Y140400D01*
X327861Y138942D01*
X330095Y138197D01*
X332459D01*
X334597Y138910D01*
X336119Y140432D01*
X336151Y140497D01*
X336249Y140659D01*
X336378Y140918D01*
X336540Y141339D01*
X336670Y141565D01*
X336767Y141857D01*
X336896Y142181D01*
X337026Y142537D01*
X337188Y142893D01*
X337317Y143347D01*
X337479Y143800D01*
X337641Y144286D01*
Y147427D01*
X336896Y149629D01*
X335374Y151896D01*
X335309Y151929D01*
X335147Y152026D01*
X334888Y152155D01*
X334694Y152252D01*
X334467Y152350D01*
X334241Y152447D01*
X333949Y152576D01*
X333625Y152673D01*
X333269Y152835D01*
X332881Y152965D01*
X332459Y153127D01*
X332006Y153289D01*
X331488Y153451D01*
X329156D01*
X329027Y153386D01*
X328832Y153321D01*
X328573Y153224D01*
X328282Y153127D01*
X327958Y153030D01*
X327245Y152771D01*
X327213Y152738D01*
X327051Y152706D01*
X326857Y152609D01*
X326598Y152512D01*
X326306Y152382D01*
X326015Y152220D01*
X325691Y152058D01*
X325400Y151896D01*
X323877Y150407D01*
X323100Y148820D01*
X322355Y145613D01*
Y140885D01*
X323133Y137776D01*
X324687Y134700D01*
X326274Y133145D01*
X328573Y131623D01*
X331812Y130846D01*
X334986D01*
X335115Y130911D01*
X335342Y130976D01*
X335666Y131040D01*
X336022Y131137D01*
X336410Y131267D01*
X337285Y131494D01*
X337317D01*
X337350Y131526D01*
X337511Y131558D01*
X337771Y131656D01*
X338094Y131753D01*
X338451Y131882D01*
X338839Y132044D01*
X339196Y132239D01*
X339552Y132433D01*
X342045Y134084D01*
X342110Y134117D01*
X342337D01*
X342434Y134052D01*
X342531Y133987D01*
X342564Y133955D01*
X342661Y133890D01*
X342725Y133761D01*
X342758Y133599D01*
Y133566D01*
X342725Y133437D01*
X342693Y133404D01*
X342628Y133340D01*
X342499Y133210D01*
X342304Y133016D01*
X342045Y132757D01*
X341722Y132400D01*
X341301Y132012D01*
X340815Y131526D01*
X338289Y129842D01*
X334824Y129000D01*
X330614D01*
X327245Y129874D01*
X324622Y131688D01*
X323003Y133340D01*
X321319Y136708D01*
X320509Y140885D01*
Y145160D01*
X321351Y148528D01*
X323165Y151151D01*
X324817Y152803D01*
X326598Y153645D01*
X326630D01*
X326760Y153710D01*
X326954Y153774D01*
X327245Y153872D01*
X327602Y153969D01*
X328023Y154131D01*
X328541Y154293D01*
X329124Y154487D01*
X331747Y154455D01*
D02*
G37*
G36*
X315555Y150342D02*
X317271Y149467D01*
X318242Y148496D01*
X319084Y146812D01*
Y146779D01*
Y146747D01*
X319117Y146650D01*
Y146520D01*
X319149Y146229D01*
Y145873D01*
Y145808D01*
Y145711D01*
Y145613D01*
Y145290D01*
X319117Y144836D01*
X318210Y143055D01*
X317206Y142051D01*
X315457Y141209D01*
X315425Y141242D01*
X315166D01*
X315004Y141209D01*
X314551D01*
X314389Y141274D01*
X314162Y141371D01*
X314065Y141468D01*
X314000Y141598D01*
Y141663D01*
X314032Y141792D01*
X314065Y141954D01*
X314162Y142084D01*
X314194Y142116D01*
X314259Y142181D01*
X314389Y142213D01*
X314583Y142246D01*
X315231D01*
X315295Y142278D01*
X315425Y142343D01*
X315555Y142407D01*
X315911Y142602D01*
X316332Y142796D01*
X316364Y142828D01*
X316429Y142861D01*
X316558Y142926D01*
X316720Y143055D01*
X317044Y143314D01*
X317206Y143476D01*
X317336Y143670D01*
X318081Y145128D01*
Y146488D01*
Y146520D01*
X318016Y146585D01*
X317983Y146715D01*
X317886Y146844D01*
X317724Y147233D01*
X317498Y147654D01*
Y147686D01*
X317433Y147751D01*
X317368Y147880D01*
X317239Y148042D01*
X316979Y148366D01*
X316785Y148528D01*
X316591Y148658D01*
X315198Y149338D01*
X314551D01*
X314389Y149370D01*
X314194Y149467D01*
X314032Y149662D01*
Y149726D01*
Y149856D01*
Y149888D01*
X314065Y150018D01*
X314097Y150115D01*
X314194Y150245D01*
X314227Y150277D01*
X314324Y150342D01*
X314453Y150374D01*
X314648Y150407D01*
X315263D01*
X315555Y150342D01*
D02*
G37*
G36*
X343244Y143055D02*
X343341Y142990D01*
X343470Y142893D01*
X343568Y142764D01*
Y140723D01*
Y140691D01*
X343503Y140626D01*
X343406Y140529D01*
X343276Y140432D01*
X342985D01*
X342693Y140400D01*
X341203D01*
X341171Y140432D01*
X341106Y140464D01*
X341009Y140561D01*
X340912Y140691D01*
Y140756D01*
Y140918D01*
X340880Y141209D01*
Y141404D01*
Y141630D01*
Y141663D01*
Y141695D01*
Y141792D01*
Y141889D01*
Y142213D01*
Y142667D01*
X340912Y142699D01*
X340944Y142796D01*
X341041Y142926D01*
X341171Y143023D01*
X341236D01*
X341398Y143055D01*
X341689Y143088D01*
X343211D01*
X343244Y143055D01*
D02*
G37*
G36*
X343211Y151216D02*
X343244Y151184D01*
X343341Y151119D01*
X343438Y151054D01*
X343503Y150925D01*
Y150892D01*
Y150860D01*
X343535Y150763D01*
Y150633D01*
X343568Y150277D01*
Y149856D01*
Y149791D01*
Y149597D01*
Y149305D01*
X343535Y148884D01*
Y148852D01*
X343503Y148787D01*
X343406Y148690D01*
X343244Y148593D01*
X342985D01*
X342693Y148560D01*
X341236D01*
X341203Y148593D01*
X341106Y148625D01*
X340977Y148722D01*
X340912Y148820D01*
Y148852D01*
Y148884D01*
Y149079D01*
X340880Y149403D01*
Y149791D01*
Y149824D01*
Y149856D01*
Y149953D01*
Y150050D01*
Y150374D01*
Y150828D01*
Y150860D01*
X340944Y150957D01*
X341041Y151087D01*
X341171Y151184D01*
X341268D01*
X341365Y151216D01*
X341495D01*
X341851Y151249D01*
X342920D01*
X343211Y151216D01*
D02*
G37*
G36*
X132149Y111250D02*
X122352Y111250D01*
X132148Y119368D01*
X132149Y111250D01*
D02*
G37*
G36*
X539649Y158750D02*
X529852Y150632D01*
X529851Y158750D01*
X539649Y158750D01*
D02*
G37*
G36*
X354676Y156041D02*
X354805Y155977D01*
X354967Y155750D01*
Y151022D01*
X355129D01*
X355291Y151054D01*
X355550Y151119D01*
X355582D01*
X355615Y151151D01*
X355777Y151184D01*
X355939Y151216D01*
X356133D01*
X356295Y151151D01*
X356457Y151054D01*
X356521Y150925D01*
X356586Y150795D01*
X356619Y150730D01*
Y150666D01*
Y150601D01*
X356554Y150536D01*
X356489Y150439D01*
Y150407D01*
X356457Y150374D01*
X356424Y150309D01*
X356392Y150245D01*
X356424Y150180D01*
X356457Y150147D01*
X356554Y150083D01*
X356586Y150018D01*
Y149888D01*
Y149856D01*
X356554Y149759D01*
X356521Y149629D01*
X356424Y149500D01*
X356262Y149403D01*
X356230D01*
X356165Y149370D01*
X356068D01*
X355939Y149338D01*
X355744Y149305D01*
X355518Y149241D01*
X355258Y149208D01*
X354967Y149143D01*
Y143670D01*
X355129D01*
X355291Y143703D01*
X355550Y143768D01*
X355582D01*
X355615Y143800D01*
X355777Y143832D01*
X355939Y143865D01*
X356101Y143897D01*
X356165D01*
X356295Y143832D01*
X356457Y143703D01*
X356554Y143606D01*
X356586Y143444D01*
Y143411D01*
Y143314D01*
Y143282D01*
X356554Y143185D01*
X356521Y143055D01*
X356392Y142958D01*
X356424Y142926D01*
X356489Y142828D01*
X356554Y142699D01*
X356586Y142537D01*
Y142505D01*
X356554Y142375D01*
X356521Y142246D01*
X356424Y142148D01*
X356392D01*
X356327Y142116D01*
X356230D01*
X356068Y142084D01*
X355841Y142019D01*
X355615Y141954D01*
X355323Y141889D01*
X354967Y141792D01*
Y136675D01*
Y136643D01*
X354902Y136578D01*
X354805Y136481D01*
X354676Y136384D01*
X354611D01*
X354417Y136351D01*
X354384D01*
X354287Y136384D01*
X354157Y136416D01*
X354028Y136513D01*
X353996Y136546D01*
X353963Y136643D01*
X353931Y136805D01*
X353898Y137064D01*
Y141565D01*
X350109Y140821D01*
X350045Y135898D01*
Y135833D01*
X349947Y135704D01*
X349818Y135574D01*
X349688Y135542D01*
X349559Y135509D01*
X349494D01*
X349300Y135574D01*
X349267D01*
X349202Y135639D01*
X349105Y135704D01*
X349041Y135833D01*
Y140594D01*
X348879D01*
X348684Y140561D01*
X348425Y140497D01*
X348360D01*
X348231Y140464D01*
X348037Y140432D01*
X347907Y140400D01*
X347842D01*
X347713Y140464D01*
X347519Y140594D01*
X347454Y140691D01*
X347389Y140821D01*
Y140853D01*
Y140950D01*
Y140982D01*
Y141015D01*
X347454Y141177D01*
X347486Y141209D01*
X347519Y141242D01*
X347551Y141306D01*
Y141371D01*
Y141404D01*
X347486Y141468D01*
X347421Y141533D01*
Y141565D01*
X347389Y141630D01*
Y141663D01*
Y141695D01*
Y141760D01*
Y141792D01*
X347421Y141889D01*
X347454Y141986D01*
X347519Y142051D01*
X347680Y142213D01*
X347713D01*
X347778Y142246D01*
X347875D01*
X348037Y142278D01*
X348199Y142310D01*
X348458Y142375D01*
X348717Y142407D01*
X349041Y142472D01*
Y147945D01*
X348911D01*
X348717Y147880D01*
X348458Y147816D01*
X348393D01*
X348231Y147783D01*
X348069Y147751D01*
X347907Y147718D01*
X347842D01*
X347713Y147783D01*
X347519Y147913D01*
X347454Y148010D01*
X347389Y148139D01*
Y148172D01*
Y148204D01*
Y148237D01*
Y148269D01*
Y148301D01*
X347421Y148399D01*
X347454Y148528D01*
X347551Y148625D01*
X347519Y148658D01*
X347486Y148755D01*
X347421Y148917D01*
X347389Y149079D01*
Y149111D01*
X347421Y149241D01*
Y149273D01*
X347486Y149338D01*
X347551Y149435D01*
X347680Y149532D01*
X349041Y149824D01*
X349073Y154973D01*
X349105Y155037D01*
X349170Y155135D01*
X349332Y155232D01*
X349591Y155297D01*
X349656D01*
X349753Y155264D01*
X349915Y155167D01*
X350045Y154973D01*
Y154908D01*
Y154714D01*
X350077Y154422D01*
Y154195D01*
Y153969D01*
Y153677D01*
Y153386D01*
X350109Y153062D01*
Y152673D01*
Y152285D01*
Y151831D01*
Y151378D01*
Y150860D01*
Y150050D01*
X350142D01*
X350206Y150083D01*
X350271D01*
X350368Y150115D01*
X350498D01*
X350692Y150147D01*
X350886Y150212D01*
X351146Y150245D01*
X351469Y150309D01*
X351826Y150374D01*
X352247Y150471D01*
X352733Y150568D01*
X353283Y150666D01*
X353898Y150795D01*
X353931Y155750D01*
Y155782D01*
X353963Y155815D01*
X354028Y155944D01*
X354157Y156041D01*
X354287Y156106D01*
X354546D01*
X354676Y156041D01*
D02*
G37*
%LPC*%
G36*
X353898Y148884D02*
X350109Y148139D01*
Y142731D01*
X353898Y143476D01*
Y148884D01*
D02*
G37*
%LPD*%
D10*
X351500Y245000D02*
G03*
X351500Y245000I-3000J0D01*
G01*
D31*
X528000Y164250D02*
G03*
X528000Y164250I-1250J0D01*
G01*
X136500Y105750D02*
G03*
X136500Y105750I-1250J0D01*
G01*
X372750Y228000D02*
G03*
X372750Y228000I-1250J0D01*
G01*
X256250Y63750D02*
G03*
X256250Y63750I-1250J0D01*
G01*
X382250Y61750D02*
G03*
X382250Y61750I-1250J0D01*
G01*
X419750Y224000D02*
G03*
X419750Y224000I-1250J0D01*
G01*
X91375Y192000D02*
G03*
X91375Y192000I-1250J0D01*
G01*
X573125Y78500D02*
G03*
X573125Y78500I-1250J0D01*
G01*
D34*
X306250Y169000D02*
Y183995D01*
X311248Y178997D01*
X316247Y183995D01*
Y169000D01*
X331242Y181496D02*
X328743Y183995D01*
X323744D01*
X321245Y181496D01*
Y178997D01*
X323744Y176498D01*
X328743D01*
X331242Y173998D01*
Y171499D01*
X328743Y169000D01*
X323744D01*
X321245Y171499D01*
X336240Y183995D02*
X346237D01*
X341239D01*
Y169000D01*
D63*
X105700Y47750D02*
Y60250D01*
X80300D02*
X105700D01*
X80300Y47500D02*
Y60250D01*
Y46250D02*
Y48170D01*
Y46250D02*
X105700D01*
Y48170D01*
X93000Y46250D02*
Y60250D01*
X105500Y27000D02*
X109000D01*
X95000D02*
X98500D01*
X99250Y11760D02*
Y13030D01*
Y11760D02*
X109000D01*
Y13030D01*
X99460Y11760D02*
Y13030D01*
X95000Y11760D02*
X99460D01*
X95000D02*
Y13030D01*
X96750Y42240D02*
X109000D01*
Y12000D02*
Y42240D01*
X99250Y13030D02*
X109000D01*
X95000D02*
X99460D01*
X95000Y12000D02*
Y42240D01*
X96920D01*
X440300Y151500D02*
Y164000D01*
Y151500D02*
X465700D01*
Y164250D01*
Y163580D02*
Y165500D01*
X440300D02*
X465700D01*
X440300Y163580D02*
Y165500D01*
X453000Y151500D02*
Y165500D01*
X221700Y139500D02*
Y152000D01*
X196300D02*
X221700D01*
X196300Y139250D02*
Y152000D01*
Y138000D02*
Y139920D01*
Y138000D02*
X221700D01*
Y139920D01*
X209000Y138000D02*
Y152000D01*
X440300Y136750D02*
Y149250D01*
Y136750D02*
X465700D01*
Y149500D01*
Y148830D02*
Y150750D01*
X440300D02*
X465700D01*
X440300Y148830D02*
Y150750D01*
X453000Y136750D02*
Y150750D01*
X221700Y154500D02*
Y167000D01*
X196300D02*
X221700D01*
X196300Y154250D02*
Y167000D01*
Y153000D02*
Y154920D01*
Y153000D02*
X221700D01*
Y154920D01*
X209000Y153000D02*
Y167000D01*
X556300Y46250D02*
Y58750D01*
Y46250D02*
X581700D01*
Y59000D01*
Y58330D02*
Y60250D01*
X556300D02*
X581700D01*
X556300Y58330D02*
Y60250D01*
X569000Y46250D02*
Y60250D01*
X607000Y57000D02*
X633500D01*
X607000Y43000D02*
X633500D01*
Y57000D01*
X607000Y43000D02*
Y57000D01*
X563500Y27000D02*
X567000D01*
X553000D02*
X556500D01*
X557250Y11760D02*
Y13030D01*
Y11760D02*
X567000D01*
Y13030D01*
X557460Y11760D02*
Y13030D01*
X553000Y11760D02*
X557460D01*
X553000D02*
Y13030D01*
X554750Y42240D02*
X567000D01*
Y12000D02*
Y42240D01*
X557250Y13030D02*
X567000D01*
X553000D02*
X557460D01*
X553000Y12000D02*
Y42240D01*
X554920D01*
X27000Y43000D02*
X53500D01*
X27000Y57000D02*
X53500D01*
X27000Y43000D02*
Y57000D01*
X53500Y43000D02*
Y57000D01*
X579750Y40970D02*
Y42240D01*
X570000D02*
X579750D01*
X570000Y40970D02*
Y42240D01*
X579540Y40970D02*
Y42240D01*
X584000D01*
Y40970D02*
Y42240D01*
X570000Y11760D02*
X583000D01*
X570000D02*
Y42000D01*
Y40970D02*
X579750D01*
X579540D02*
X584000D01*
Y11760D02*
Y42000D01*
X582080Y11760D02*
X584000D01*
X580500Y27000D02*
X584000D01*
X570000D02*
X573500D01*
X87500Y40970D02*
Y42240D01*
X77750D02*
X87500D01*
X77750Y40970D02*
Y42240D01*
X87290Y40970D02*
Y42240D01*
X91750D01*
Y40970D02*
Y42240D01*
X77750Y11760D02*
X90750D01*
X77750D02*
Y42000D01*
Y40970D02*
X87500D01*
X87290D02*
X91750D01*
Y11760D02*
Y42000D01*
X89830Y11760D02*
X91750D01*
X88250Y27000D02*
X91750D01*
X77750D02*
X81250D01*
X102625Y92000D02*
X129125D01*
X102625Y106000D02*
X129125D01*
X102625Y92000D02*
Y106000D01*
X129125Y92000D02*
Y106000D01*
X533000Y22750D02*
Y49250D01*
X519000Y22750D02*
Y49250D01*
Y22750D02*
X533000D01*
X519000Y49250D02*
X533000D01*
X410000Y297450D02*
X422500D01*
X410000Y272050D02*
Y297450D01*
Y272050D02*
X422750D01*
X422080D02*
X424000D01*
Y297450D01*
X422080D02*
X424000D01*
X410000Y284750D02*
X424000D01*
X479250Y207800D02*
X491750D01*
Y233200D01*
X479000D02*
X491750D01*
X477750D02*
X479670D01*
X477750Y207800D02*
Y233200D01*
Y207800D02*
X479670D01*
X477750Y220500D02*
X491750D01*
X495000Y207550D02*
X507500D01*
Y232950D01*
X494750D02*
X507500D01*
X493500D02*
X495420D01*
X493500Y207550D02*
Y232950D01*
Y207550D02*
X495420D01*
X493500Y220250D02*
X507500D01*
X393500Y297200D02*
X406000D01*
X393500Y271800D02*
Y297200D01*
Y271800D02*
X406250D01*
X405580D02*
X407500D01*
Y297200D01*
X405580D02*
X407500D01*
X393500Y284500D02*
X407500D01*
X477500Y190500D02*
X481000D01*
X488000D02*
X491500D01*
X487250Y204470D02*
Y205740D01*
X477500D02*
X487250D01*
X477500Y204470D02*
Y205740D01*
X487040Y204470D02*
Y205740D01*
X491500D01*
Y204470D02*
Y205740D01*
X477500Y175260D02*
X489750D01*
X477500D02*
Y205500D01*
Y204470D02*
X487250D01*
X487040D02*
X491500D01*
Y175260D02*
Y205500D01*
X489580Y175260D02*
X491500D01*
X493500Y190500D02*
X497000D01*
X504000D02*
X507500D01*
X503250Y204470D02*
Y205740D01*
X493500D02*
X503250D01*
X493500Y204470D02*
Y205740D01*
X503040Y204470D02*
Y205740D01*
X507500D01*
Y204470D02*
Y205740D01*
X493500Y175260D02*
X505750D01*
X493500D02*
Y205500D01*
Y204470D02*
X503250D01*
X503040D02*
X507500D01*
Y175260D02*
Y205500D01*
X505580Y175260D02*
X507500D01*
X326500Y65000D02*
X330000D01*
X316000D02*
X319500D01*
X320250Y49760D02*
Y51030D01*
Y49760D02*
X330000D01*
Y51030D01*
X320460Y49760D02*
Y51030D01*
X316000Y49760D02*
X320460D01*
X316000D02*
Y51030D01*
X317750Y80240D02*
X330000D01*
Y50000D02*
Y80240D01*
X320250Y51030D02*
X330000D01*
X316000D02*
X320460D01*
X316000Y50000D02*
Y80240D01*
X317920D01*
X336250Y49760D02*
Y51030D01*
Y49760D02*
X346000D01*
Y51030D01*
X336460Y49760D02*
Y51030D01*
X332000Y49760D02*
X336460D01*
X332000D02*
Y51030D01*
X334000Y80240D02*
X346000D01*
Y50000D02*
Y80240D01*
X336250Y51030D02*
X346000D01*
X332000D02*
X336460D01*
X332000Y50000D02*
Y80240D01*
X333920D01*
X332000Y65000D02*
X335500D01*
X342500D02*
X346000D01*
X432250Y105050D02*
X444750D01*
Y130450D01*
X432000D02*
X444750D01*
X430750D02*
X432670D01*
X430750Y105050D02*
Y130450D01*
Y105050D02*
X432670D01*
X430750Y117750D02*
X444750D01*
X448500Y105300D02*
X461000D01*
Y130700D01*
X448250D02*
X461000D01*
X447000D02*
X448920D01*
X447000Y105300D02*
Y130700D01*
Y105300D02*
X448920D01*
X447000Y118000D02*
X461000D01*
X477500Y104750D02*
Y131250D01*
X463500Y104750D02*
Y131250D01*
Y104750D02*
X477500D01*
X463500Y131250D02*
X477500D01*
X333250Y84500D02*
X335250D01*
X333250D02*
Y118500D01*
X335250D01*
X349250Y84500D02*
X351250D01*
Y118500D01*
X349250D02*
X351250D01*
X333250Y84500D02*
X351250D01*
X333250Y118500D02*
X351250D01*
X309250Y84500D02*
X311250D01*
X309250D02*
Y118500D01*
X311250D01*
X325250Y84500D02*
X327250D01*
Y118500D01*
X325250D02*
X327250D01*
X309250Y84500D02*
X327250D01*
X309250Y118500D02*
X327250D01*
D64*
X99500Y28750D02*
X102000Y25250D01*
X99500Y28750D02*
X102000D01*
X99750Y25250D02*
X102000D01*
X104250D01*
X102000Y28750D02*
X104500D01*
X102000Y25250D02*
X104500Y28750D01*
X557500D02*
X560000Y25250D01*
X557500Y28750D02*
X560000D01*
X557750Y25250D02*
X560000D01*
X562250D01*
X560000Y28750D02*
X562500D01*
X560000Y25250D02*
X562500Y28750D01*
X574500Y25250D02*
X577000Y28750D01*
X574500Y25250D02*
X577000D01*
X574750Y28750D02*
X577000D01*
X579250D01*
X577000Y25250D02*
X579500D01*
X577000Y28750D02*
X579500Y25250D01*
X82250D02*
X84750Y28750D01*
X82250Y25250D02*
X84750D01*
X82500Y28750D02*
X84750D01*
X87000D01*
X84750Y25250D02*
X87250D01*
X84750Y28750D02*
X87250Y25250D01*
X484500Y192250D02*
X487000Y188750D01*
X484500D02*
X487000D01*
X484500Y192250D02*
X486750D01*
X482250D02*
X484500D01*
X482000Y188750D02*
X484500D01*
X482000D02*
X484500Y192250D01*
X500500Y192250D02*
X503000Y188750D01*
X500500D02*
X503000D01*
X500500Y192250D02*
X502750D01*
X498250D02*
X500500D01*
X498000Y188750D02*
X500500D01*
X498000D02*
X500500Y192250D01*
X320500Y66750D02*
X323000Y63250D01*
X320500Y66750D02*
X323000D01*
X320750Y63250D02*
X323000D01*
X325250D01*
X323000Y66750D02*
X325500D01*
X323000Y63250D02*
X325500Y66750D01*
X339000Y63250D02*
X341500Y66750D01*
X339000D02*
X341500D01*
X339000Y63250D02*
X341250D01*
X336750D02*
X339000D01*
X336500Y66750D02*
X339000D01*
X336500D02*
X339000Y63250D01*
D65*
X529750Y112750D02*
Y158750D01*
X561750Y112750D02*
Y158750D01*
X529750Y112750D02*
X561750D01*
X529750Y158750D02*
X561750D01*
X132250Y111250D02*
Y157250D01*
X100250Y111250D02*
Y157250D01*
X132250D01*
X100250Y111250D02*
X132250D01*
X303500Y290000D02*
X358500D01*
X303500Y235000D02*
X358500D01*
X303500D02*
Y290000D01*
X358500Y235000D02*
Y290000D01*
X286000Y69000D02*
X301000Y84000D01*
X235000D02*
X250000Y69000D01*
X235000Y135000D02*
X255500D01*
X279500D02*
X301000D01*
X235000Y84000D02*
Y135000D01*
X301000Y84000D02*
Y135000D01*
X250000Y69000D02*
X256500D01*
X279500D02*
X286000D01*
X412000Y67000D02*
X427000Y82000D01*
X361000D02*
X376000Y67000D01*
X361000Y133000D02*
X381500D01*
X405500D02*
X427000D01*
X361000Y82000D02*
Y133000D01*
X427000Y82000D02*
Y133000D01*
X376000Y67000D02*
X382500D01*
X405500D02*
X412000D01*
X432750Y296750D02*
X461000D01*
X427750Y291750D02*
X432750Y296750D01*
X427750Y234000D02*
Y291750D01*
X461000Y234000D02*
Y296750D01*
X427750Y234000D02*
X461000D01*
X356000Y16500D02*
Y47500D01*
X430500Y16500D02*
X435000Y21000D01*
X430500Y47500D02*
X435000Y43000D01*
Y21000D02*
Y43000D01*
X356000Y16500D02*
X382000D01*
X356000Y47500D02*
X382000D01*
X406000D02*
X430500D01*
X406000Y16500D02*
X430500D01*
X427750Y204250D02*
X440750D01*
X461750Y203750D02*
Y204250D01*
X427750Y203750D02*
X461750D01*
X427750Y223750D02*
X440750D01*
X461750D02*
Y224250D01*
X427750D02*
X461750D01*
X204250Y13250D02*
Y20250D01*
Y39250D02*
Y44250D01*
X185250Y58250D02*
X188250D01*
X146250D02*
X149250D01*
X130250Y39250D02*
Y44250D01*
Y13250D02*
Y20250D01*
Y13250D02*
X204250D01*
X130250Y2250D02*
Y13250D01*
Y2250D02*
X204250D01*
Y13250D01*
X304600Y12300D02*
X355400D01*
Y37700D01*
X304600D02*
X355400D01*
X304600Y12300D02*
Y37700D01*
X98625Y191500D02*
X112125D01*
X135625D02*
Y192000D01*
X98625Y162500D02*
X112125D01*
X135625Y162000D02*
Y162500D01*
X98625Y192000D02*
X135625D01*
X98625Y162000D02*
X135625D01*
X549875Y79000D02*
X563375D01*
X526375Y78500D02*
Y79000D01*
X549875Y108000D02*
X563375D01*
X526375D02*
Y108500D01*
Y78500D02*
X563375D01*
X526375Y108500D02*
X563375D01*
X568000Y200500D02*
Y279500D01*
X523000Y200500D02*
X568000D01*
X523000D02*
Y279500D01*
X568000D01*
X94000Y200500D02*
Y279500D01*
X139000D01*
Y200500D02*
Y279500D01*
X94000Y200500D02*
X139000D01*
X344167Y361250D02*
X464167D01*
X344167D02*
Y406250D01*
X464167D01*
Y361250D02*
Y406250D01*
X216000Y361250D02*
Y406250D01*
X96000D02*
X216000D01*
X96000Y361250D02*
Y406250D01*
Y361250D02*
X216000D01*
X468250D02*
X568250D01*
X468250D02*
Y406250D01*
X568250D01*
Y361250D02*
Y406250D01*
X16650Y39700D02*
X67450D01*
X16650Y14300D02*
Y39700D01*
Y14300D02*
X67450D01*
Y39700D01*
X596100D02*
X646900D01*
X596100Y14300D02*
Y39700D01*
Y14300D02*
X646900D01*
Y39700D01*
X220083Y361250D02*
X340083D01*
X220083D02*
Y406250D01*
X340083D01*
Y361250D02*
Y406250D01*
X149664Y265331D02*
X147998Y266997D01*
X144666D01*
X143000Y265331D01*
Y263664D01*
X144666Y261998D01*
X147998D01*
X149664Y260332D01*
Y258666D01*
X147998Y257000D01*
X144666D01*
X143000Y258666D01*
Y245997D02*
Y239332D01*
X146332Y236000D01*
X149664Y239332D01*
Y245997D01*
X159661Y244331D02*
X157995Y245997D01*
X154663D01*
X152997Y244331D01*
Y237666D01*
X154663Y236000D01*
X157995D01*
X159661Y237666D01*
X169658Y244331D02*
X167992Y245997D01*
X164660D01*
X162994Y244331D01*
Y237666D01*
X164660Y236000D01*
X167992D01*
X169658Y237666D01*
X149664Y223331D02*
X147998Y224997D01*
X144666D01*
X143000Y223331D01*
Y216666D01*
X144666Y215000D01*
X147998D01*
X149664Y216666D01*
Y219998D01*
X146332D01*
X152997Y215000D02*
Y224997D01*
X159661Y215000D01*
Y224997D01*
X162994D02*
Y215000D01*
X167992D01*
X169658Y216666D01*
Y223331D01*
X167992Y224997D01*
X162994D01*
X578665Y224331D02*
X576998Y225997D01*
X573666D01*
X572000Y224331D01*
Y217666D01*
X573666Y216000D01*
X576998D01*
X578665Y217666D01*
Y220998D01*
X575332D01*
X581997Y216000D02*
Y225997D01*
X588661Y216000D01*
Y225997D01*
X591994D02*
Y216000D01*
X596992D01*
X598658Y217666D01*
Y224331D01*
X596992Y225997D01*
X591994D01*
X572000Y246997D02*
Y240332D01*
X575332Y237000D01*
X578665Y240332D01*
Y246997D01*
X588661Y245331D02*
X586995Y246997D01*
X583663D01*
X581997Y245331D01*
Y238666D01*
X583663Y237000D01*
X586995D01*
X588661Y238666D01*
X598658Y245331D02*
X596992Y246997D01*
X593660D01*
X591994Y245331D01*
Y238666D01*
X593660Y237000D01*
X596992D01*
X598658Y238666D01*
X578665Y266331D02*
X576998Y267997D01*
X573666D01*
X572000Y266331D01*
Y264664D01*
X573666Y262998D01*
X576998D01*
X578665Y261332D01*
Y259666D01*
X576998Y258000D01*
X573666D01*
X572000Y259666D01*
X25000Y3000D02*
Y9664D01*
X28332Y12997D01*
X31665Y9664D01*
Y3000D01*
Y7998D01*
X25000D01*
X632000Y3000D02*
Y9664D01*
X635332Y12997D01*
X638665Y9664D01*
Y3000D01*
Y7998D01*
X632000D01*
X606000Y12997D02*
Y3000D01*
X610998D01*
X612664Y4666D01*
Y6332D01*
X610998Y7998D01*
X606000D01*
X610998D01*
X612664Y9664D01*
Y11331D01*
X610998Y12997D01*
X606000D01*
X53000D02*
Y3000D01*
X57998D01*
X59665Y4666D01*
Y6332D01*
X57998Y7998D01*
X53000D01*
X57998D01*
X59665Y9664D01*
Y11331D01*
X57998Y12997D01*
X53000D01*
X160415Y78581D02*
X158748Y80247D01*
X155416D01*
X153750Y78581D01*
Y76915D01*
X155416Y75248D01*
X158748D01*
X160415Y73582D01*
Y71916D01*
X158748Y70250D01*
X155416D01*
X153750Y71916D01*
X163747Y80247D02*
Y70250D01*
X167079Y73582D01*
X170411Y70250D01*
Y80247D01*
X173744D02*
Y70250D01*
X178742D01*
X180408Y71916D01*
Y78581D01*
X178742Y80247D01*
X173744D01*
D66*
X60050Y177040D02*
Y178818D01*
X59796Y176278D02*
Y179580D01*
X59542Y175770D02*
Y180088D01*
X59288Y175516D02*
Y180342D01*
X59034Y175262D02*
Y180850D01*
X58780Y175008D02*
Y181104D01*
X58526Y174754D02*
Y181612D01*
X58272Y174500D02*
Y181866D01*
X58018Y174500D02*
Y182120D01*
X57764Y174246D02*
Y182628D01*
X57510Y174246D02*
Y182882D01*
X57256Y174246D02*
Y183136D01*
X57002Y173992D02*
Y183644D01*
X56748Y173992D02*
Y183898D01*
X56494Y173992D02*
Y184406D01*
X56240Y173992D02*
Y184660D01*
X55986Y173992D02*
Y184914D01*
X55732Y173992D02*
Y185422D01*
X55478Y173992D02*
Y185676D01*
X55224Y173992D02*
Y186184D01*
X54970Y174246D02*
Y186438D01*
X54716Y174246D02*
Y186692D01*
X54462Y174500D02*
Y187200D01*
X54208Y174500D02*
Y187454D01*
X53954Y174754D02*
Y187962D01*
X53700Y175008D02*
Y188216D01*
X53446Y175008D02*
Y188470D01*
X53192Y175516D02*
Y188978D01*
X52938Y175770D02*
Y189232D01*
X52684Y176024D02*
Y189740D01*
X52430Y176532D02*
Y189994D01*
X52176Y176786D02*
Y190248D01*
X51922Y177040D02*
Y190756D01*
X51668Y177548D02*
Y191010D01*
X51414Y177802D02*
Y191264D01*
X51160Y178310D02*
Y191772D01*
X50906Y178564D02*
Y192026D01*
X50652Y178818D02*
Y192534D01*
X50398Y179326D02*
Y192788D01*
X50144Y179580D02*
Y193042D01*
X49890Y180088D02*
Y193550D01*
X49636Y180342D02*
Y193804D01*
X49382Y180596D02*
Y194312D01*
X49128Y181104D02*
Y194566D01*
X48874Y181358D02*
Y194820D01*
X48620Y181612D02*
Y195328D01*
X48366Y182120D02*
Y195582D01*
X48112Y182374D02*
Y196090D01*
X47858Y182882D02*
Y196344D01*
X47604Y183136D02*
Y196598D01*
X47350Y183390D02*
Y197106D01*
X47096Y183898D02*
Y197360D01*
X46842Y184152D02*
Y197868D01*
X46588Y184660D02*
Y198122D01*
X46334Y184914D02*
Y198376D01*
X46080Y185168D02*
Y198884D01*
X45826Y185676D02*
Y199138D01*
X45572Y185930D02*
Y199392D01*
X45318Y186438D02*
Y199900D01*
X45064Y186692D02*
Y200154D01*
X44810Y114302D02*
Y200662D01*
X44556Y113540D02*
Y200916D01*
X44302Y113032D02*
Y201170D01*
X44048Y112524D02*
Y201424D01*
X43794Y112270D02*
Y201678D01*
X43540Y112016D02*
Y201932D01*
X43286Y111762D02*
Y201932D01*
X43032Y111508D02*
Y202186D01*
X42778Y111508D02*
Y202186D01*
X42524Y111254D02*
Y202186D01*
X42270Y111254D02*
Y202440D01*
X42016Y111254D02*
Y202440D01*
X41762Y111000D02*
Y202440D01*
X41508Y111000D02*
Y202440D01*
X41254Y111000D02*
Y202440D01*
X41000Y111000D02*
Y202440D01*
X40746Y111000D02*
Y202440D01*
X40492Y111000D02*
Y202186D01*
X40238Y111000D02*
Y202186D01*
X39984Y111254D02*
Y202186D01*
X39730Y111254D02*
Y201932D01*
X39476Y111254D02*
Y201932D01*
X39222Y111508D02*
Y201678D01*
X38968Y111508D02*
Y201424D01*
X38714Y111762D02*
Y201170D01*
X38460Y112016D02*
Y200916D01*
X38206Y112016D02*
Y200662D01*
X37952Y112270D02*
Y200408D01*
X37698Y112778D02*
Y200154D01*
X37444Y113032D02*
Y199900D01*
X37190Y113794D02*
Y199392D01*
X36936Y186438D02*
Y199138D01*
X36682Y186438D02*
Y198884D01*
X36428Y186184D02*
Y198630D01*
X36174Y185676D02*
Y198122D01*
X35920Y185422D02*
Y197868D01*
X35666Y185168D02*
Y197614D01*
X35412Y184914D02*
Y197360D01*
X35158Y184406D02*
Y197106D01*
X34904Y184152D02*
Y196598D01*
X34650Y183898D02*
Y196344D01*
X34396Y183644D02*
Y196090D01*
X34142Y183390D02*
Y195836D01*
X33888Y182882D02*
Y195328D01*
X33634Y182628D02*
Y195074D01*
X33380Y182374D02*
Y194820D01*
X33126Y182120D02*
Y194566D01*
X32872Y181612D02*
Y194312D01*
X32618Y181358D02*
Y193804D01*
X32364Y181104D02*
Y193550D01*
X32110Y180850D02*
Y193296D01*
X31856Y180596D02*
Y193042D01*
X31602Y180088D02*
Y192534D01*
X31348Y179834D02*
Y192280D01*
X31094Y179580D02*
Y192026D01*
X30840Y179326D02*
Y191772D01*
X30586Y178818D02*
Y191518D01*
X30332Y178564D02*
Y191010D01*
X30078Y178310D02*
Y190756D01*
X29824Y178056D02*
Y190502D01*
X29570Y177802D02*
Y190248D01*
X29316Y177294D02*
Y189740D01*
X29062Y177040D02*
Y189486D01*
X28808Y176786D02*
Y189232D01*
X28554Y176532D02*
Y188978D01*
X28300Y176024D02*
Y188724D01*
X28046Y175770D02*
Y188216D01*
X27792Y175516D02*
Y187962D01*
X27538Y175262D02*
Y187708D01*
X27284Y175262D02*
Y187454D01*
X27030Y175008D02*
Y186946D01*
X26776Y174754D02*
Y186692D01*
X26522Y174754D02*
Y186438D01*
X26268Y174754D02*
Y186184D01*
X26014Y174500D02*
Y185930D01*
X25760Y174500D02*
Y185422D01*
X25506Y174500D02*
Y185168D01*
X25252Y174500D02*
Y184914D01*
X24998Y174500D02*
Y184660D01*
X24744Y174500D02*
Y184152D01*
X24490Y174500D02*
Y183898D01*
X24236Y174500D02*
Y183644D01*
X23982Y174754D02*
Y183390D01*
X23728Y174754D02*
Y183136D01*
X23474Y174754D02*
Y182628D01*
X23220Y175008D02*
Y182374D01*
X22966Y175008D02*
Y182120D01*
X22712Y175262D02*
Y181866D01*
X22458Y175516D02*
Y181358D01*
X22204Y175770D02*
Y181104D01*
X21950Y176024D02*
Y180850D01*
X21696Y176278D02*
Y180342D01*
X21442Y176786D02*
Y180088D01*
X21188Y177802D02*
Y179072D01*
X640050Y177040D02*
Y178818D01*
X639796Y176278D02*
Y179580D01*
X639542Y175770D02*
Y180088D01*
X639288Y175516D02*
Y180342D01*
X639034Y175262D02*
Y180850D01*
X638780Y175008D02*
Y181104D01*
X638526Y174754D02*
Y181612D01*
X638272Y174500D02*
Y181866D01*
X638018Y174500D02*
Y182120D01*
X637764Y174246D02*
Y182628D01*
X637510Y174246D02*
Y182882D01*
X637256Y174246D02*
Y183136D01*
X637002Y173992D02*
Y183644D01*
X636748Y173992D02*
Y183898D01*
X636494Y173992D02*
Y184406D01*
X636240Y173992D02*
Y184660D01*
X635986Y173992D02*
Y184914D01*
X635732Y173992D02*
Y185422D01*
X635478Y173992D02*
Y185676D01*
X635224Y173992D02*
Y186184D01*
X634970Y174246D02*
Y186438D01*
X634716Y174246D02*
Y186692D01*
X634462Y174500D02*
Y187200D01*
X634208Y174500D02*
Y187454D01*
X633954Y174754D02*
Y187962D01*
X633700Y175008D02*
Y188216D01*
X633446Y175008D02*
Y188470D01*
X633192Y175516D02*
Y188978D01*
X632938Y175770D02*
Y189232D01*
X632684Y176024D02*
Y189740D01*
X632430Y176532D02*
Y189994D01*
X632176Y176786D02*
Y190248D01*
X631922Y177040D02*
Y190756D01*
X631668Y177548D02*
Y191010D01*
X631414Y177802D02*
Y191264D01*
X631160Y178310D02*
Y191772D01*
X630906Y178564D02*
Y192026D01*
X630652Y178818D02*
Y192534D01*
X630398Y179326D02*
Y192788D01*
X630144Y179580D02*
Y193042D01*
X629890Y180088D02*
Y193550D01*
X629636Y180342D02*
Y193804D01*
X629382Y180596D02*
Y194312D01*
X629128Y181104D02*
Y194566D01*
X628874Y181358D02*
Y194820D01*
X628620Y181612D02*
Y195328D01*
X628366Y182120D02*
Y195582D01*
X628112Y182374D02*
Y196090D01*
X627858Y182882D02*
Y196344D01*
X627604Y183136D02*
Y196598D01*
X627350Y183390D02*
Y197106D01*
X627096Y183898D02*
Y197360D01*
X626842Y184152D02*
Y197868D01*
X626588Y184660D02*
Y198122D01*
X626334Y184914D02*
Y198376D01*
X626080Y185168D02*
Y198884D01*
X625826Y185676D02*
Y199138D01*
X625572Y185930D02*
Y199392D01*
X625318Y186438D02*
Y199900D01*
X625064Y186692D02*
Y200154D01*
X624810Y114302D02*
Y200662D01*
X624556Y113540D02*
Y200916D01*
X624302Y113032D02*
Y201170D01*
X624048Y112524D02*
Y201424D01*
X623794Y112270D02*
Y201678D01*
X623540Y112016D02*
Y201932D01*
X623286Y111762D02*
Y201932D01*
X623032Y111508D02*
Y202186D01*
X622778Y111508D02*
Y202186D01*
X622524Y111254D02*
Y202186D01*
X622270Y111254D02*
Y202440D01*
X622016Y111254D02*
Y202440D01*
X621762Y111000D02*
Y202440D01*
X621508Y111000D02*
Y202440D01*
X621254Y111000D02*
Y202440D01*
X621000Y111000D02*
Y202440D01*
X620746Y111000D02*
Y202440D01*
X620492Y111000D02*
Y202186D01*
X620238Y111000D02*
Y202186D01*
X619984Y111254D02*
Y202186D01*
X619730Y111254D02*
Y201932D01*
X619476Y111254D02*
Y201932D01*
X619222Y111508D02*
Y201678D01*
X618968Y111508D02*
Y201424D01*
X618714Y111762D02*
Y201170D01*
X618460Y112016D02*
Y200916D01*
X618206Y112016D02*
Y200662D01*
X617952Y112270D02*
Y200408D01*
X617698Y112778D02*
Y200154D01*
X617444Y113032D02*
Y199900D01*
X617190Y113794D02*
Y199392D01*
X616936Y186438D02*
Y199138D01*
X616682Y186438D02*
Y198884D01*
X616428Y186184D02*
Y198630D01*
X616174Y185676D02*
Y198122D01*
X615920Y185422D02*
Y197868D01*
X615666Y185168D02*
Y197614D01*
X615412Y184914D02*
Y197360D01*
X615158Y184406D02*
Y197106D01*
X614904Y184152D02*
Y196598D01*
X614650Y183898D02*
Y196344D01*
X614396Y183644D02*
Y196090D01*
X614142Y183390D02*
Y195836D01*
X613888Y182882D02*
Y195328D01*
X613634Y182628D02*
Y195074D01*
X613380Y182374D02*
Y194820D01*
X613126Y182120D02*
Y194566D01*
X612872Y181612D02*
Y194312D01*
X612618Y181358D02*
Y193804D01*
X612364Y181104D02*
Y193550D01*
X612110Y180850D02*
Y193296D01*
X611856Y180596D02*
Y193042D01*
X611602Y180088D02*
Y192534D01*
X611348Y179834D02*
Y192280D01*
X611094Y179580D02*
Y192026D01*
X610840Y179326D02*
Y191772D01*
X610586Y178818D02*
Y191518D01*
X610332Y178564D02*
Y191010D01*
X610078Y178310D02*
Y190756D01*
X609824Y178056D02*
Y190502D01*
X609570Y177802D02*
Y190248D01*
X609316Y177294D02*
Y189740D01*
X609062Y177040D02*
Y189486D01*
X608808Y176786D02*
Y189232D01*
X608554Y176532D02*
Y188978D01*
X608300Y176024D02*
Y188724D01*
X608046Y175770D02*
Y188216D01*
X607792Y175516D02*
Y187962D01*
X607538Y175262D02*
Y187708D01*
X607284Y175262D02*
Y187454D01*
X607030Y175008D02*
Y186946D01*
X606776Y174754D02*
Y186692D01*
X606522Y174754D02*
Y186438D01*
X606268Y174754D02*
Y186184D01*
X606014Y174500D02*
Y185930D01*
X605760Y174500D02*
Y185422D01*
X605506Y174500D02*
Y185168D01*
X605252Y174500D02*
Y184914D01*
X604998Y174500D02*
Y184660D01*
X604744Y174500D02*
Y184152D01*
X604490Y174500D02*
Y183898D01*
X604236Y174500D02*
Y183644D01*
X603982Y174754D02*
Y183390D01*
X603728Y174754D02*
Y183136D01*
X603474Y174754D02*
Y182628D01*
X603220Y175008D02*
Y182374D01*
X602966Y175008D02*
Y182120D01*
X602712Y175262D02*
Y181866D01*
X602458Y175516D02*
Y181358D01*
X602204Y175770D02*
Y181104D01*
X601950Y176024D02*
Y180850D01*
X601696Y176278D02*
Y180342D01*
X601442Y176786D02*
Y180088D01*
X601188Y177802D02*
Y179072D01*
D67*
X189397Y172712D02*
X191188D01*
X189397Y172790D02*
X191188D01*
X188696Y172868D02*
X192045D01*
X188696Y172946D02*
X192045D01*
X188229Y173024D02*
X192512D01*
X188073Y173102D02*
X192590D01*
X187917Y173179D02*
X192901D01*
X187762Y173257D02*
X193057D01*
X187606Y173335D02*
X193290D01*
X187528Y173413D02*
X193524D01*
X187450Y173491D02*
X193680D01*
X187217Y173569D02*
X193836D01*
X187139Y173647D02*
X193991D01*
X242582Y173724D02*
X246553D01*
X187061D02*
X194147D01*
X242348Y173802D02*
X246942D01*
X186983D02*
X194225D01*
X241258Y173880D02*
X248500D01*
X186827D02*
X194536D01*
X162065D02*
X163077D01*
X241258Y173958D02*
X248656D01*
X186827D02*
X194536D01*
X162065D02*
X163077D01*
X240713Y174036D02*
X249746D01*
X186594D02*
X194848D01*
X161753D02*
X163233D01*
X240713Y174114D02*
X249746D01*
X186594D02*
X194848D01*
X161753D02*
X163233D01*
X240246Y174192D02*
X250836D01*
X186438D02*
X195159D01*
X161753D02*
X163389D01*
X240246Y174270D02*
X250836D01*
X186438D02*
X195159D01*
X161753D02*
X163389D01*
X239934Y174347D02*
X251770D01*
X186282D02*
X195315D01*
X161909D02*
X163544D01*
X239856Y174425D02*
X251926D01*
X186282D02*
X195315D01*
X161909D02*
X163544D01*
X239623Y174503D02*
X252783D01*
X186204D02*
X195627D01*
X161909D02*
X163622D01*
X239545Y174581D02*
X252938D01*
X186126D02*
X195627D01*
X161909D02*
X163700D01*
X239311Y174659D02*
X253484D01*
X191032D02*
X195782D01*
X186126D02*
X190487D01*
X161909D02*
X163700D01*
X239233Y174737D02*
X253795D01*
X191422D02*
X195860D01*
X186126D02*
X189553D01*
X161909D02*
X163778D01*
X239156Y174815D02*
X254184D01*
X192045D02*
X196016D01*
X185971D02*
X189241D01*
X161909D02*
X163856D01*
X239078Y174893D02*
X254574D01*
X192356D02*
X196172D01*
X185971D02*
X188930D01*
X162065D02*
X163934D01*
X239000Y174970D02*
X255041D01*
X192512D02*
X196172D01*
X185971D02*
X188618D01*
X162065D02*
X164011D01*
X238922Y175048D02*
X255430D01*
X192901D02*
X196327D01*
X185815D02*
X188307D01*
X162065D02*
X164089D01*
X238922Y175126D02*
X255586D01*
X193057D02*
X196483D01*
X185815D02*
X188229D01*
X162065D02*
X164089D01*
X238766Y175204D02*
X256209D01*
X193368D02*
X196639D01*
X185815D02*
X187917D01*
X162220D02*
X164245D01*
X238766Y175282D02*
X256209D01*
X193368D02*
X196639D01*
X185815D02*
X187917D01*
X162220D02*
X164245D01*
X238610Y175360D02*
X256910D01*
X193680D02*
X196795D01*
X185737D02*
X187684D01*
X162298D02*
X164401D01*
X238610Y175438D02*
X256988D01*
X193680D02*
X196795D01*
X185737D02*
X187606D01*
X162298D02*
X164401D01*
X244840Y175515D02*
X257688D01*
X238455D02*
X242660D01*
X194069D02*
X196950D01*
X185659D02*
X187450D01*
X162376D02*
X164557D01*
X244840Y175593D02*
X257688D01*
X238455D02*
X242582D01*
X194069D02*
X196950D01*
X185659D02*
X187450D01*
X162376D02*
X164557D01*
X246787Y175671D02*
X258467D01*
X238455D02*
X241258D01*
X194381D02*
X197184D01*
X185581D02*
X187372D01*
X162532D02*
X164712D01*
X246865Y175749D02*
X258545D01*
X238455D02*
X241258D01*
X194381D02*
X197184D01*
X185581D02*
X187372D01*
X162532D02*
X164712D01*
X248422Y175827D02*
X259168D01*
X238455D02*
X240713D01*
X194614D02*
X197340D01*
X185581D02*
X187295D01*
X162610D02*
X164868D01*
X248578Y175905D02*
X259324D01*
X238455D02*
X240635D01*
X194692D02*
X197418D01*
X185581D02*
X187295D01*
X162610D02*
X164868D01*
X249746Y175983D02*
X260025D01*
X238299D02*
X240246D01*
X194848D02*
X197573D01*
X185581D02*
X187217D01*
X162766D02*
X164946D01*
X249979Y176061D02*
X260180D01*
X238299D02*
X240246D01*
X194926D02*
X197651D01*
X185581D02*
X187217D01*
X162766D02*
X165024D01*
X250602Y176138D02*
X260648D01*
X238299D02*
X240090D01*
X195004D02*
X197729D01*
X185581D02*
X187139D01*
X162921D02*
X165024D01*
X250992Y176216D02*
X260959D01*
X238299D02*
X240090D01*
X195159D02*
X197807D01*
X185581D02*
X187139D01*
X162921D02*
X165180D01*
X251459Y176294D02*
X261270D01*
X238299D02*
X239934D01*
X195315D02*
X197963D01*
X185581D02*
X187139D01*
X163077D02*
X165180D01*
X252004Y176372D02*
X261660D01*
X238299D02*
X239934D01*
X195393D02*
X197963D01*
X185581D02*
X187139D01*
X163077D02*
X165257D01*
X252471Y176450D02*
X261971D01*
X238299D02*
X239856D01*
X195471D02*
X198118D01*
X185581D02*
X187139D01*
X163077D02*
X165335D01*
X253094Y176528D02*
X262438D01*
X238299D02*
X239778D01*
X195627D02*
X198118D01*
X185581D02*
X187139D01*
X163233D02*
X165413D01*
X253406Y176606D02*
X262594D01*
X253250D02*
X253328D01*
X238299D02*
X239778D01*
X195627D02*
X198196D01*
X185581D02*
X187139D01*
X163233D02*
X165491D01*
X254029Y176683D02*
X263295D01*
X238299D02*
X239778D01*
X195782D02*
X198274D01*
X185581D02*
X187139D01*
X163389D02*
X165569D01*
X254184Y176761D02*
X263295D01*
X238299D02*
X239778D01*
X195782D02*
X198352D01*
X185581D02*
X187139D01*
X163389D02*
X165569D01*
X255041Y176839D02*
X264074D01*
X238299D02*
X239934D01*
X196016D02*
X198508D01*
X185504D02*
X187139D01*
X163544D02*
X165725D01*
X255041Y176917D02*
X264074D01*
X238299D02*
X239934D01*
X196016D02*
X198508D01*
X185504D02*
X187139D01*
X163544D02*
X165725D01*
X255898Y176995D02*
X264930D01*
X238299D02*
X239934D01*
X196172D02*
X198663D01*
X185581D02*
X187139D01*
X163622D02*
X165880D01*
X255898Y177073D02*
X264930D01*
X238299D02*
X239934D01*
X196172D02*
X198663D01*
X185581D02*
X187139D01*
X163622D02*
X165880D01*
X256832Y177151D02*
X265553D01*
X238299D02*
X240090D01*
X196327D02*
X198819D01*
X185581D02*
X187217D01*
X163778D02*
X166036D01*
X256832Y177229D02*
X265631D01*
X238299D02*
X240090D01*
X196327D02*
X198819D01*
X185581D02*
X187217D01*
X163778D02*
X166036D01*
X257533Y177306D02*
X266254D01*
X238299D02*
X240246D01*
X196483D02*
X198975D01*
X185581D02*
X187295D01*
X163856D02*
X166192D01*
X257688Y177384D02*
X266410D01*
X238299D02*
X240246D01*
X196483D02*
X198975D01*
X185581D02*
X187295D01*
X163934D02*
X166192D01*
X258389Y177462D02*
X266955D01*
X238299D02*
X240246D01*
X196639D02*
X199131D01*
X185581D02*
X187295D01*
X164011D02*
X166348D01*
X258545Y177540D02*
X267111D01*
X238377D02*
X240401D01*
X196639D02*
X199131D01*
X185581D02*
X187295D01*
X164089D02*
X166348D01*
X259012Y177618D02*
X267578D01*
X238455D02*
X240479D01*
X196795D02*
X199286D01*
X185659D02*
X187372D01*
X164167D02*
X166348D01*
X259401Y177696D02*
X267889D01*
X238455D02*
X240557D01*
X196795D02*
X199286D01*
X185659D02*
X187450D01*
X164245D02*
X166503D01*
X259791Y177774D02*
X268045D01*
X238455D02*
X240713D01*
X196950D02*
X199442D01*
X185659D02*
X187450D01*
X164245D02*
X166503D01*
X260180Y177852D02*
X268512D01*
X238455D02*
X240791D01*
X197028D02*
X199442D01*
X185737D02*
X187450D01*
X164401D02*
X166659D01*
X260492Y177929D02*
X268746D01*
X238455D02*
X240947D01*
X197106D02*
X199598D01*
X185737D02*
X187450D01*
X164401D02*
X166659D01*
X260959Y178007D02*
X269213D01*
X238610D02*
X241180D01*
X197184D02*
X199598D01*
X185737D02*
X187450D01*
X164557D02*
X166737D01*
X261192Y178085D02*
X269369D01*
X238610D02*
X241258D01*
X197184D02*
X199598D01*
X185815D02*
X187528D01*
X164557D02*
X166815D01*
X261815Y178163D02*
X269836D01*
X238610D02*
X241881D01*
X197340D02*
X199754D01*
X185815D02*
X187606D01*
X164712D02*
X166893D01*
X261815Y178241D02*
X269914D01*
X238610D02*
X241881D01*
X197340D02*
X199754D01*
X185815D02*
X187606D01*
X164712D02*
X166893D01*
X262594Y178319D02*
X270537D01*
X238766D02*
X242582D01*
X197495D02*
X199909D01*
X185893D02*
X187606D01*
X164712D02*
X167048D01*
X262594Y178397D02*
X270537D01*
X238766D02*
X242582D01*
X197495D02*
X199909D01*
X185893D02*
X187606D01*
X164712D02*
X167048D01*
X263451Y178474D02*
X271316D01*
X238922D02*
X243750D01*
X197573D02*
X200065D01*
X185971D02*
X187762D01*
X164868D02*
X167204D01*
X263451Y178552D02*
X271316D01*
X238922D02*
X243750D01*
X197573D02*
X200065D01*
X185971D02*
X187762D01*
X164868D02*
X167204D01*
X264074Y178630D02*
X271938D01*
X239078D02*
X250291D01*
X197651D02*
X200143D01*
X186126D02*
X187762D01*
X165024D02*
X167360D01*
X264151Y178708D02*
X272016D01*
X239078D02*
X250446D01*
X197651D02*
X200143D01*
X186126D02*
X187762D01*
X165024D02*
X167360D01*
X264775Y178786D02*
X272561D01*
X239233D02*
X250602D01*
X197807D02*
X200299D01*
X186126D02*
X187762D01*
X165180D02*
X167516D01*
X264930Y178864D02*
X272639D01*
X239233D02*
X250758D01*
X197807D02*
X200299D01*
X186126D02*
X187762D01*
X165180D02*
X167516D01*
X265475Y178942D02*
X273184D01*
X239467D02*
X250914D01*
X197963D02*
X200376D01*
X186282D02*
X187762D01*
X165335D02*
X167671D01*
X265631Y179020D02*
X273340D01*
X239467D02*
X250914D01*
X197963D02*
X200454D01*
X186282D02*
X187762D01*
X165335D02*
X167671D01*
X266098Y179097D02*
X273807D01*
X239623D02*
X250992D01*
X197963D02*
X200454D01*
X186438D02*
X187762D01*
X165413D02*
X167671D01*
X266410Y179175D02*
X274041D01*
X239701D02*
X250992D01*
X198118D02*
X200610D01*
X186438D02*
X187606D01*
X165491D02*
X167827D01*
X266721Y179253D02*
X274352D01*
X239778D02*
X251070D01*
X198118D02*
X200610D01*
X186594D02*
X187606D01*
X165569D02*
X167827D01*
X267188Y179331D02*
X274820D01*
X239934D02*
X251070D01*
X198118D02*
X200610D01*
X186749D02*
X187450D01*
X165647D02*
X167983D01*
X267422Y179409D02*
X274975D01*
X240090D02*
X251070D01*
X198118D02*
X200766D01*
X186983D02*
X187217D01*
X165725D02*
X167983D01*
X267889Y179487D02*
X275443D01*
X240246D02*
X250992D01*
X198274D02*
X200766D01*
X165725D02*
X168139D01*
X268045Y179565D02*
X275520D01*
X240246D02*
X250992D01*
X198274D02*
X200766D01*
X165802D02*
X168139D01*
X268668Y179643D02*
X275988D01*
X240557D02*
X250914D01*
X198274D02*
X200922D01*
X165880D02*
X168216D01*
X268746Y179720D02*
X276143D01*
X240635D02*
X250914D01*
X198352D02*
X200922D01*
X165880D02*
X168294D01*
X269369Y179798D02*
X276766D01*
X241024D02*
X250758D01*
X198430D02*
X200922D01*
X166036D02*
X168372D01*
X269369Y179876D02*
X276766D01*
X241024D02*
X250758D01*
X198430D02*
X200922D01*
X166036D02*
X168372D01*
X270070Y179954D02*
X277311D01*
X241569D02*
X250602D01*
X198586D02*
X201077D01*
X166192D02*
X168528D01*
X270070Y180032D02*
X277311D01*
X241569D02*
X250602D01*
X198586D02*
X201077D01*
X166192D02*
X168528D01*
X270693Y180110D02*
X277934D01*
X242037D02*
X250446D01*
X198586D02*
X201233D01*
X166348D02*
X168684D01*
X270693Y180188D02*
X277934D01*
X242037D02*
X250291D01*
X198586D02*
X201233D01*
X166348D02*
X168684D01*
X271316Y180266D02*
X278557D01*
X242660D02*
X250135D01*
X198741D02*
X201233D01*
X166503D02*
X168839D01*
X271393Y180343D02*
X278635D01*
X242738D02*
X250057D01*
X198741D02*
X201233D01*
X166503D02*
X168839D01*
X272016Y180421D02*
X279102D01*
X243516D02*
X249746D01*
X198741D02*
X201389D01*
X166581D02*
X168995D01*
X272172Y180499D02*
X279258D01*
X243672D02*
X249668D01*
X198819D02*
X201389D01*
X166659D02*
X168995D01*
X272561Y180577D02*
X279648D01*
X244373D02*
X249434D01*
X198819D02*
X201389D01*
X166659D02*
X168995D01*
X272873Y180655D02*
X279881D01*
X244996D02*
X249123D01*
X198897D02*
X201467D01*
X166737D02*
X169151D01*
X273106Y180733D02*
X280193D01*
X245619D02*
X248811D01*
X198975D02*
X201545D01*
X166815D02*
X169151D01*
X273496Y180811D02*
X280582D01*
X198975D02*
X201545D01*
X166893D02*
X169307D01*
X273652Y180888D02*
X280738D01*
X198975D02*
X201622D01*
X166893D02*
X169307D01*
X274197Y180966D02*
X281205D01*
X199053D02*
X201700D01*
X167048D02*
X169462D01*
X274352Y181044D02*
X281283D01*
X199053D02*
X201700D01*
X167048D02*
X169462D01*
X274897Y181122D02*
X281828D01*
X199131D02*
X201778D01*
X167204D02*
X169618D01*
X274975Y181200D02*
X281906D01*
X199131D02*
X201778D01*
X167204D02*
X169618D01*
X275598Y181278D02*
X282529D01*
X199209D02*
X201778D01*
X167360D02*
X169696D01*
X275598Y181356D02*
X282529D01*
X199209D02*
X201778D01*
X167360D02*
X169696D01*
X276299Y181434D02*
X283152D01*
X199286D02*
X201934D01*
X167516D02*
X169852D01*
X276299Y181511D02*
X283152D01*
X199286D02*
X201934D01*
X167516D02*
X169852D01*
X276844Y181589D02*
X283697D01*
X199286D02*
X201934D01*
X167516D02*
X170007D01*
X276922Y181667D02*
X283697D01*
X199286D02*
X201934D01*
X167671D02*
X170007D01*
X277467Y181745D02*
X284242D01*
X199442D02*
X202090D01*
X167671D02*
X170163D01*
X277623Y181823D02*
X284320D01*
X199442D02*
X202090D01*
X167671D02*
X170163D01*
X278090Y181901D02*
X284865D01*
X199442D02*
X202090D01*
X167827D02*
X170319D01*
X278246Y181979D02*
X285021D01*
X199442D02*
X202090D01*
X167827D02*
X170319D01*
X278635Y182057D02*
X285332D01*
X199442D02*
X202090D01*
X167983D02*
X170475D01*
X278947Y182134D02*
X285644D01*
X199442D02*
X202245D01*
X167983D02*
X170475D01*
X279180Y182212D02*
X285877D01*
X199442D02*
X202245D01*
X168061D02*
X170475D01*
X279570Y182290D02*
X286344D01*
X199598D02*
X202245D01*
X168139D02*
X170630D01*
X279725Y182368D02*
X286500D01*
X199598D02*
X202245D01*
X168216D02*
X170630D01*
X280271Y182446D02*
X286889D01*
X199598D02*
X202245D01*
X168294D02*
X170786D01*
X280348Y182524D02*
X286967D01*
X199598D02*
X202245D01*
X168372D02*
X170786D01*
X280893Y182602D02*
X287512D01*
X199598D02*
X202401D01*
X168450D02*
X170942D01*
X280893Y182679D02*
X287512D01*
X199598D02*
X202401D01*
X168450D02*
X170942D01*
X281594Y182757D02*
X288135D01*
X199754D02*
X202401D01*
X168606D02*
X171098D01*
X281594Y182835D02*
X288135D01*
X199754D02*
X202401D01*
X168606D02*
X171098D01*
X282217Y182913D02*
X288836D01*
X199754D02*
X202401D01*
X168684D02*
X171176D01*
X282217Y182991D02*
X288836D01*
X199754D02*
X202401D01*
X168684D02*
X171176D01*
X282762Y183069D02*
X289303D01*
X199754D02*
X202557D01*
X168839D02*
X171331D01*
X282840Y183147D02*
X289459D01*
X199754D02*
X202557D01*
X168839D02*
X171331D01*
X283385Y183225D02*
X289926D01*
X216028D02*
X216729D01*
X199754D02*
X202557D01*
X168995D02*
X171487D01*
X283463Y183302D02*
X290004D01*
X215717D02*
X217196D01*
X199754D02*
X202557D01*
X168995D02*
X171487D01*
X284008Y183380D02*
X290471D01*
X215250D02*
X218053D01*
X199831D02*
X202557D01*
X169151D02*
X171643D01*
X284164Y183458D02*
X290627D01*
X215094D02*
X218209D01*
X199831D02*
X202557D01*
X169151D02*
X171643D01*
X284475Y183536D02*
X290939D01*
X214860D02*
X218520D01*
X199909D02*
X202557D01*
X169151D02*
X171798D01*
X284709Y183614D02*
X291328D01*
X214704D02*
X218832D01*
X199909D02*
X202557D01*
X169307D02*
X171798D01*
X284943Y183692D02*
X291484D01*
X214549D02*
X218987D01*
X199909D02*
X202557D01*
X169307D02*
X171798D01*
X285332Y183770D02*
X291951D01*
X214393D02*
X219377D01*
X199909D02*
X202557D01*
X169462D02*
X171954D01*
X285488Y183847D02*
X292107D01*
X214393D02*
X219377D01*
X199909D02*
X202557D01*
X169462D02*
X171954D01*
X286033Y183925D02*
X292574D01*
X214237D02*
X219688D01*
X199909D02*
X202635D01*
X169618D02*
X172110D01*
X286111Y184003D02*
X292574D01*
X214237D02*
X219844D01*
X199909D02*
X202713D01*
X169618D02*
X172110D01*
X286656Y184081D02*
X293119D01*
X214081D02*
X220077D01*
X199909D02*
X202713D01*
X169696D02*
X172266D01*
X286656Y184159D02*
X293119D01*
X214081D02*
X220155D01*
X199909D02*
X202713D01*
X169696D02*
X172266D01*
X287201Y184237D02*
X293742D01*
X213926D02*
X220467D01*
X199987D02*
X202713D01*
X169852D02*
X172421D01*
X287201Y184315D02*
X293742D01*
X213926D02*
X220467D01*
X199987D02*
X202713D01*
X169852D02*
X172421D01*
X287824Y184393D02*
X294287D01*
X213770D02*
X220778D01*
X199987D02*
X202713D01*
X170007D02*
X172499D01*
X287824Y184470D02*
X294287D01*
X213770D02*
X220778D01*
X199987D02*
X202713D01*
X170007D02*
X172577D01*
X288525Y184548D02*
X294754D01*
X213614D02*
X221012D01*
X209487D02*
X209643D01*
X200065D02*
X202713D01*
X170163D02*
X172655D01*
X288603Y184626D02*
X294832D01*
X213614D02*
X221168D01*
X209487D02*
X209799D01*
X200065D02*
X202713D01*
X170163D02*
X172655D01*
X289148Y184704D02*
X295221D01*
X213614D02*
X221323D01*
X209331D02*
X209954D01*
X200065D02*
X202713D01*
X170319D02*
X172811D01*
X289303Y184782D02*
X295377D01*
X213614D02*
X221479D01*
X209331D02*
X209954D01*
X200065D02*
X202713D01*
X170319D02*
X172811D01*
X289926Y184860D02*
X295689D01*
X213536D02*
X221635D01*
X209331D02*
X210110D01*
X200065D02*
X202713D01*
X170319D02*
X172966D01*
X290082Y184938D02*
X295844D01*
X213459D02*
X221635D01*
X209331D02*
X210188D01*
X200065D02*
X202713D01*
X170475D02*
X172966D01*
X290394Y185016D02*
X296078D01*
X216495D02*
X221791D01*
X213459D02*
X216418D01*
X209254D02*
X210266D01*
X200065D02*
X202713D01*
X170475D02*
X173122D01*
X290783Y185093D02*
X296312D01*
X217041D02*
X221946D01*
X213459D02*
X215872D01*
X209176D02*
X210344D01*
X200065D02*
X202713D01*
X170630D02*
X173122D01*
X290939Y185171D02*
X296467D01*
X217196D02*
X222024D01*
X213381D02*
X215717D01*
X209176D02*
X210344D01*
X200065D02*
X202713D01*
X170630D02*
X173122D01*
X291562Y185249D02*
X296857D01*
X217508D02*
X222180D01*
X213381D02*
X215561D01*
X209176D02*
X210500D01*
X200065D02*
X202713D01*
X170708D02*
X173278D01*
X291639Y185327D02*
X296857D01*
X217586D02*
X222180D01*
X213381D02*
X215561D01*
X209176D02*
X210500D01*
X200065D02*
X202713D01*
X170786D02*
X173278D01*
X292107Y185405D02*
X297246D01*
X217897D02*
X222414D01*
X213303D02*
X215405D01*
X209176D02*
X210578D01*
X200065D02*
X202713D01*
X170786D02*
X173434D01*
X292262Y185483D02*
X297324D01*
X217897D02*
X222491D01*
X213303D02*
X215405D01*
X209176D02*
X210655D01*
X200065D02*
X202713D01*
X170864D02*
X173434D01*
X292730Y185560D02*
X297713D01*
X218209D02*
X222647D01*
X213303D02*
X215250D01*
X209176D02*
X210655D01*
X200065D02*
X202713D01*
X170942D02*
X173589D01*
X292730Y185638D02*
X297713D01*
X218209D02*
X222647D01*
X213303D02*
X215250D01*
X209176D02*
X210655D01*
X200065D02*
X202713D01*
X170942D02*
X173589D01*
X293353Y185716D02*
X298181D01*
X218520D02*
X222803D01*
X213225D02*
X215094D01*
X209176D02*
X210811D01*
X200065D02*
X202713D01*
X171098D02*
X173745D01*
X293353Y185794D02*
X298181D01*
X218520D02*
X222803D01*
X213225D02*
X215094D01*
X209176D02*
X210811D01*
X200065D02*
X202713D01*
X171098D02*
X173745D01*
X294053Y185872D02*
X298648D01*
X218832D02*
X223114D01*
X213225D02*
X215094D01*
X209254D02*
X210967D01*
X200065D02*
X202713D01*
X171253D02*
X173901D01*
X294053Y185950D02*
X298648D01*
X218832D02*
X223114D01*
X213225D02*
X215094D01*
X209254D02*
X210967D01*
X200065D02*
X202713D01*
X171253D02*
X173901D01*
X294521Y186028D02*
X299037D01*
X219143D02*
X223270D01*
X213147D02*
X215016D01*
X209331D02*
X210967D01*
X200065D02*
X202713D01*
X171409D02*
X173979D01*
X294599Y186106D02*
X299115D01*
X219221D02*
X223270D01*
X213147D02*
X215016D01*
X209331D02*
X210967D01*
X200065D02*
X202713D01*
X171409D02*
X174057D01*
X295066Y186183D02*
X299504D01*
X219377D02*
X223426D01*
X213147D02*
X214938D01*
X209331D02*
X211122D01*
X199987D02*
X202713D01*
X171487D02*
X174135D01*
X295221Y186261D02*
X299504D01*
X219532D02*
X223504D01*
X213147D02*
X214938D01*
X209331D02*
X211122D01*
X199987D02*
X202713D01*
X171565D02*
X174135D01*
X295533Y186339D02*
X299816D01*
X219688D02*
X223659D01*
X213147D02*
X214938D01*
X209409D02*
X211122D01*
X199987D02*
X202713D01*
X171643D02*
X174290D01*
X295689Y186417D02*
X299972D01*
X219844D02*
X223659D01*
X213147D02*
X214938D01*
X209487D02*
X211122D01*
X199909D02*
X202635D01*
X171643D02*
X174290D01*
X296000Y186495D02*
X300127D01*
X220000D02*
X223815D01*
X213147D02*
X214860D01*
X209487D02*
X211278D01*
X199909D02*
X202557D01*
X171798D02*
X174446D01*
X296234Y186573D02*
X300361D01*
X220077D02*
X223893D01*
X213069D02*
X214860D01*
X209487D02*
X211278D01*
X199909D02*
X202557D01*
X171798D02*
X174446D01*
X296390Y186651D02*
X300439D01*
X220155D02*
X223971D01*
X213069D02*
X214860D01*
X209487D02*
X211278D01*
X199909D02*
X202557D01*
X171954D02*
X174446D01*
X296701Y186729D02*
X300750D01*
X220311D02*
X224127D01*
X213069D02*
X214860D01*
X209643D02*
X211278D01*
X199909D02*
X202557D01*
X171954D02*
X174602D01*
X296857Y186807D02*
X300828D01*
X220389D02*
X224127D01*
X213069D02*
X214782D01*
X209643D02*
X211434D01*
X199909D02*
X202557D01*
X171954D02*
X174602D01*
X297246Y186884D02*
X301140D01*
X220623D02*
X224282D01*
X213069D02*
X214782D01*
X209643D02*
X211434D01*
X199909D02*
X202557D01*
X172110D02*
X174757D01*
X297324Y186962D02*
X301140D01*
X220623D02*
X224282D01*
X213069D02*
X214782D01*
X209643D02*
X211434D01*
X199909D02*
X202557D01*
X172110D02*
X174757D01*
X297713Y187040D02*
X301529D01*
X220856D02*
X224438D01*
X213069D02*
X214782D01*
X209799D02*
X211512D01*
X205204D02*
X205983D01*
X199831D02*
X202557D01*
X172266D02*
X174913D01*
X297713Y187118D02*
X301607D01*
X220856D02*
X224438D01*
X213069D02*
X214782D01*
X209799D02*
X211512D01*
X205204D02*
X205983D01*
X199831D02*
X202557D01*
X172266D02*
X174913D01*
X298181Y187196D02*
X301918D01*
X221168D02*
X224594D01*
X213069D02*
X214782D01*
X209799D02*
X211590D01*
X204893D02*
X206217D01*
X199754D02*
X202401D01*
X172421D02*
X175069D01*
X298181Y187274D02*
X301918D01*
X221168D02*
X224594D01*
X213069D02*
X214782D01*
X209799D02*
X211590D01*
X204893D02*
X206217D01*
X199754D02*
X202401D01*
X172421D02*
X175069D01*
X298648Y187352D02*
X302308D01*
X221323D02*
X224827D01*
X213069D02*
X214782D01*
X209954D02*
X211745D01*
X204737D02*
X206217D01*
X199754D02*
X202401D01*
X172577D02*
X175225D01*
X298648Y187429D02*
X302308D01*
X221479D02*
X224827D01*
X213069D02*
X214782D01*
X209954D02*
X211745D01*
X204737D02*
X206217D01*
X199754D02*
X202401D01*
X172577D02*
X175225D01*
X299115Y187507D02*
X302619D01*
X221635D02*
X224983D01*
X213147D02*
X214782D01*
X209954D02*
X211745D01*
X204659D02*
X206217D01*
X199754D02*
X202245D01*
X172577D02*
X175458D01*
X299115Y187585D02*
X302619D01*
X221635D02*
X224983D01*
X213147D02*
X214782D01*
X209954D02*
X211823D01*
X204659D02*
X206295D01*
X199754D02*
X202245D01*
X172577D02*
X175536D01*
X299504Y187663D02*
X302931D01*
X221868D02*
X225139D01*
X213147D02*
X214782D01*
X210110D02*
X211901D01*
X204582D02*
X206295D01*
X199676D02*
X202245D01*
X171954D02*
X176237D01*
X299504Y187741D02*
X303008D01*
X221946D02*
X225139D01*
X213147D02*
X214782D01*
X210110D02*
X211901D01*
X204504D02*
X206373D01*
X199598D02*
X202245D01*
X171798D02*
X176549D01*
X299816Y187819D02*
X303242D01*
X222024D02*
X225295D01*
X213147D02*
X214860D01*
X210188D02*
X211979D01*
X204504D02*
X206373D01*
X199598D02*
X202245D01*
X171565D02*
X177249D01*
X299972Y187897D02*
X303398D01*
X222102D02*
X225295D01*
X213147D02*
X214860D01*
X210266D02*
X211979D01*
X204426D02*
X206373D01*
X199598D02*
X202245D01*
X171409D02*
X177483D01*
X300127Y187974D02*
X303554D01*
X222180D02*
X225450D01*
X213147D02*
X214860D01*
X210266D02*
X212057D01*
X204348D02*
X206373D01*
X199598D02*
X202090D01*
X171331D02*
X177872D01*
X300439Y188052D02*
X303787D01*
X222336D02*
X225606D01*
X213147D02*
X214860D01*
X210344D02*
X212135D01*
X204348D02*
X206295D01*
X199598D02*
X202090D01*
X171176D02*
X178184D01*
X300517Y188130D02*
X303787D01*
X222414D02*
X225606D01*
X213147D02*
X214860D01*
X210344D02*
X212135D01*
X204348D02*
X206295D01*
X199442D02*
X202090D01*
X171098D02*
X178340D01*
X300828Y188208D02*
X304099D01*
X222647D02*
X225762D01*
X213225D02*
X214938D01*
X210422D02*
X212213D01*
X204348D02*
X206295D01*
X199442D02*
X202090D01*
X170942D02*
X178885D01*
X300828Y188286D02*
X304099D01*
X222647D02*
X225762D01*
X213225D02*
X214938D01*
X210422D02*
X212291D01*
X204348D02*
X206217D01*
X199442D02*
X202090D01*
X170864D02*
X179040D01*
X301140Y188364D02*
X304410D01*
X222803D02*
X225918D01*
X213225D02*
X214938D01*
X210500D02*
X212291D01*
X204348D02*
X206217D01*
X199442D02*
X201934D01*
X170708D02*
X179508D01*
X301140Y188442D02*
X304410D01*
X222803D02*
X225918D01*
X213225D02*
X214938D01*
X210500D02*
X212291D01*
X204348D02*
X206217D01*
X199442D02*
X201934D01*
X170630D02*
X179508D01*
X301607Y188520D02*
X304722D01*
X222959D02*
X226073D01*
X213303D02*
X214938D01*
X210655D02*
X212446D01*
X204348D02*
X206217D01*
X199286D02*
X201856D01*
X170475D02*
X179975D01*
X301607Y188598D02*
X304722D01*
X222959D02*
X226073D01*
X213303D02*
X214938D01*
X210655D02*
X212446D01*
X204348D02*
X206217D01*
X199286D02*
X201856D01*
X170475D02*
X179975D01*
X301918Y188675D02*
X305033D01*
X223192D02*
X226229D01*
X213303D02*
X214938D01*
X210811D02*
X212446D01*
X204426D02*
X206217D01*
X199286D02*
X201778D01*
X170475D02*
X180520D01*
X301918Y188753D02*
X305033D01*
X223192D02*
X226229D01*
X213303D02*
X214938D01*
X210811D02*
X212446D01*
X204426D02*
X206217D01*
X199286D02*
X201778D01*
X170475D02*
X180520D01*
X302308Y188831D02*
X305345D01*
X229578D02*
X230201D01*
X223426D02*
X226385D01*
X213303D02*
X215094D01*
X210811D02*
X212602D01*
X204504D02*
X206139D01*
X199131D02*
X201700D01*
X173901D02*
X180987D01*
X170319D02*
X173434D01*
X302308Y188909D02*
X305422D01*
X229500D02*
X230201D01*
X223426D02*
X226385D01*
X213381D02*
X215094D01*
X210811D02*
X212602D01*
X204504D02*
X206139D01*
X199131D02*
X201700D01*
X173901D02*
X180987D01*
X170319D02*
X173278D01*
X302619Y188987D02*
X305578D01*
X229188D02*
X230668D01*
X223582D02*
X226463D01*
X213381D02*
X215094D01*
X210967D02*
X212758D01*
X204659D02*
X206061D01*
X199131D02*
X201545D01*
X174135D02*
X181299D01*
X170319D02*
X172811D01*
X302619Y189065D02*
X305578D01*
X229110D02*
X230746D01*
X223659D02*
X226541D01*
X213381D02*
X215094D01*
X210967D02*
X212758D01*
X204659D02*
X206061D01*
X199131D02*
X201545D01*
X174135D02*
X181376D01*
X170163D02*
X172733D01*
X302775Y189143D02*
X305812D01*
X228877D02*
X230979D01*
X223815D02*
X226618D01*
X213381D02*
X215094D01*
X210967D02*
X212758D01*
X204815D02*
X205983D01*
X198975D02*
X201467D01*
X174290D02*
X181610D01*
X170163D02*
X172421D01*
X302931Y189220D02*
X305890D01*
X228877D02*
X231057D01*
X223815D02*
X226696D01*
X213459D02*
X215094D01*
X211122D02*
X212836D01*
X204893D02*
X205983D01*
X198975D02*
X201389D01*
X174290D02*
X181688D01*
X170163D02*
X172344D01*
X303164Y189298D02*
X306045D01*
X228721D02*
X231213D01*
X223971D02*
X226774D01*
X213459D02*
X215094D01*
X211122D02*
X212913D01*
X205049D02*
X205827D01*
X198897D02*
X201389D01*
X174368D02*
X181999D01*
X170163D02*
X172266D01*
X303242Y189376D02*
X306123D01*
X228721D02*
X231369D01*
X223971D02*
X226774D01*
X213459D02*
X215094D01*
X211122D02*
X212913D01*
X205049D02*
X205827D01*
X198897D02*
X201389D01*
X174446D02*
X182155D01*
X170163D02*
X172110D01*
X303398Y189454D02*
X306279D01*
X228565D02*
X231524D01*
X224127D02*
X226930D01*
X213459D02*
X215172D01*
X211278D02*
X212991D01*
X205360D02*
X205594D01*
X198819D02*
X201233D01*
X174446D02*
X182311D01*
X170163D02*
X172110D01*
X303631Y189532D02*
X306435D01*
X228565D02*
X231524D01*
X224282D02*
X227086D01*
X213459D02*
X215250D01*
X211278D02*
X213069D01*
X198741D02*
X201233D01*
X174602D02*
X182467D01*
X170163D02*
X171954D01*
X303631Y189610D02*
X306435D01*
X228565D02*
X231680D01*
X224282D02*
X227086D01*
X213536D02*
X215250D01*
X211278D02*
X213069D01*
X198741D02*
X201233D01*
X174602D02*
X182544D01*
X170163D02*
X171954D01*
X303865Y189688D02*
X306668D01*
X228410D02*
X231758D01*
X224438D02*
X227086D01*
X213614D02*
X215250D01*
X211434D02*
X213225D01*
X198586D02*
X201077D01*
X178417D02*
X182856D01*
X174757D02*
X177405D01*
X170085D02*
X171954D01*
X303943Y189765D02*
X306746D01*
X228410D02*
X231836D01*
X224438D02*
X227241D01*
X213614D02*
X215250D01*
X211434D02*
X213225D01*
X198586D02*
X201077D01*
X178573D02*
X182856D01*
X174757D02*
X177405D01*
X170085D02*
X171954D01*
X304099Y189843D02*
X306902D01*
X228410D02*
X231992D01*
X224594D02*
X227241D01*
X213614D02*
X215250D01*
X211512D02*
X213303D01*
X198430D02*
X200922D01*
X179352D02*
X183167D01*
X174757D02*
X177405D01*
X170085D02*
X171798D01*
X304099Y189921D02*
X306902D01*
X228410D02*
X231992D01*
X224594D02*
X227319D01*
X213614D02*
X215250D01*
X211590D02*
X213303D01*
X198430D02*
X200922D01*
X179352D02*
X183167D01*
X174913D02*
X177405D01*
X170085D02*
X171798D01*
X304410Y189999D02*
X307136D01*
X228410D02*
X232147D01*
X224750D02*
X227475D01*
X213692D02*
X215405D01*
X211590D02*
X213459D01*
X198352D02*
X200766D01*
X179819D02*
X183479D01*
X174913D02*
X177561D01*
X170163D02*
X171798D01*
X304410Y190077D02*
X307136D01*
X228410D02*
X232147D01*
X224750D02*
X227475D01*
X213692D02*
X215405D01*
X211590D02*
X213459D01*
X198352D02*
X200766D01*
X179819D02*
X183479D01*
X174913D02*
X177561D01*
X170163D02*
X171798D01*
X304644Y190155D02*
X307369D01*
X228332D02*
X232303D01*
X224983D02*
X227631D01*
X213770D02*
X215405D01*
X211745D02*
X213614D01*
X198274D02*
X200610D01*
X180208D02*
X183713D01*
X175069D02*
X177717D01*
X170163D02*
X171798D01*
X304644Y190233D02*
X307369D01*
X228332D02*
X232303D01*
X224983D02*
X227631D01*
X213770D02*
X215405D01*
X211745D02*
X213614D01*
X198274D02*
X200610D01*
X180208D02*
X183713D01*
X175069D02*
X177717D01*
X170163D02*
X171798D01*
X304877Y190311D02*
X307603D01*
X228254D02*
X232459D01*
X225139D02*
X227787D01*
X211823D02*
X215405D01*
X198118D02*
X200610D01*
X180676D02*
X184024D01*
X175225D02*
X177872D01*
X170241D02*
X171798D01*
X304955Y190388D02*
X307603D01*
X228254D02*
X232537D01*
X225139D02*
X227787D01*
X211901D02*
X215405D01*
X198118D02*
X200532D01*
X180676D02*
X184024D01*
X175225D02*
X177872D01*
X170319D02*
X171798D01*
X305111Y190466D02*
X307758D01*
X228254D02*
X232614D01*
X225295D02*
X227942D01*
X211979D02*
X215561D01*
X197963D02*
X200376D01*
X180987D02*
X184258D01*
X175380D02*
X178028D01*
X170319D02*
X171798D01*
X305111Y190544D02*
X307758D01*
X239233D02*
X239778D01*
X228254D02*
X232692D01*
X225295D02*
X227942D01*
X211979D02*
X215561D01*
X197963D02*
X200376D01*
X181143D02*
X184335D01*
X175380D02*
X178028D01*
X170319D02*
X171798D01*
X305267Y190622D02*
X307914D01*
X238922D02*
X240090D01*
X230512D02*
X232770D01*
X228332D02*
X229889D01*
X225450D02*
X228020D01*
X212057D02*
X215561D01*
X197807D02*
X200221D01*
X181299D02*
X184491D01*
X175458D02*
X178184D01*
X170319D02*
X171954D01*
X305422Y190700D02*
X307992D01*
X238766D02*
X240246D01*
X230512D02*
X232848D01*
X228410D02*
X229889D01*
X225450D02*
X228098D01*
X212135D02*
X215561D01*
X197729D02*
X200221D01*
X181454D02*
X184647D01*
X175536D02*
X178184D01*
X170475D02*
X171954D01*
X305578Y190778D02*
X308070D01*
X238610D02*
X240557D01*
X230668D02*
X232848D01*
X228332D02*
X229733D01*
X225606D02*
X228098D01*
X212135D02*
X215561D01*
X197651D02*
X200065D01*
X181688D02*
X184803D01*
X175614D02*
X178262D01*
X170475D02*
X171954D01*
X305578Y190856D02*
X308226D01*
X238610D02*
X240635D01*
X230746D02*
X233004D01*
X225606D02*
X229733D01*
X212213D02*
X215561D01*
X197495D02*
X199987D01*
X181844D02*
X184958D01*
X175692D02*
X178340D01*
X170475D02*
X172110D01*
X305734Y190934D02*
X308226D01*
X238455D02*
X240791D01*
X230823D02*
X233004D01*
X225762D02*
X229733D01*
X212291D02*
X215639D01*
X197418D02*
X199909D01*
X181999D02*
X184958D01*
X175770D02*
X178417D01*
X170630D02*
X172110D01*
X305812Y191012D02*
X308381D01*
X238455D02*
X241024D01*
X230901D02*
X233160D01*
X225762D02*
X229733D01*
X212291D02*
X215717D01*
X197340D02*
X199831D01*
X182155D02*
X185192D01*
X175770D02*
X178495D01*
X170630D02*
X172188D01*
X305890Y191089D02*
X308381D01*
X238377D02*
X241102D01*
X230901D02*
X233160D01*
X225918D02*
X229733D01*
X212291D02*
X215717D01*
X197262D02*
X199754D01*
X182311D02*
X185270D01*
X175848D02*
X178495D01*
X170630D02*
X172266D01*
X306045Y191167D02*
X308537D01*
X238299D02*
X241336D01*
X231057D02*
X233315D01*
X225918D02*
X229733D01*
X212446D02*
X215717D01*
X197106D02*
X199598D01*
X182544D02*
X185426D01*
X175926D02*
X178573D01*
X170786D02*
X172344D01*
X306045Y191245D02*
X308537D01*
X238299D02*
X241414D01*
X231057D02*
X233315D01*
X225918D02*
X229733D01*
X212446D02*
X215717D01*
X197106D02*
X199598D01*
X182622D02*
X185504D01*
X175926D02*
X178651D01*
X170786D02*
X172421D01*
X306201Y191323D02*
X308693D01*
X238221D02*
X241569D01*
X231213D02*
X233471D01*
X226073D02*
X229733D01*
X212446D02*
X215795D01*
X196872D02*
X199442D01*
X182856D02*
X185737D01*
X176081D02*
X178729D01*
X170942D02*
X172577D01*
X306201Y191401D02*
X308693D01*
X238143D02*
X241569D01*
X231213D02*
X233471D01*
X226151D02*
X229733D01*
X212446D02*
X215795D01*
X196795D02*
X199442D01*
X182856D02*
X185737D01*
X176081D02*
X178729D01*
X170942D02*
X172577D01*
X306357Y191479D02*
X308849D01*
X238143D02*
X241881D01*
X231369D02*
X233705D01*
X226307D02*
X229733D01*
X212602D02*
X215872D01*
X196639D02*
X199286D01*
X183167D02*
X185971D01*
X176237D02*
X178885D01*
X171098D02*
X172733D01*
X306357Y191556D02*
X308849D01*
X238143D02*
X241881D01*
X231369D02*
X233705D01*
X226307D02*
X229733D01*
X212602D02*
X215872D01*
X196639D02*
X199286D01*
X183167D02*
X185971D01*
X176237D02*
X178885D01*
X171098D02*
X172733D01*
X306513Y191634D02*
X309004D01*
X238065D02*
X242115D01*
X231524D02*
X233860D01*
X226463D02*
X229889D01*
X212758D02*
X215872D01*
X196327D02*
X199053D01*
X183479D02*
X186282D01*
X176393D02*
X179040D01*
X171176D02*
X172966D01*
X306513Y191712D02*
X309004D01*
X238065D02*
X242115D01*
X231524D02*
X233860D01*
X226463D02*
X229889D01*
X212758D02*
X215872D01*
X196327D02*
X199053D01*
X183479D02*
X186282D01*
X176393D02*
X179040D01*
X171176D02*
X172966D01*
X306668Y191790D02*
X309082D01*
X237987D02*
X242348D01*
X231680D02*
X234016D01*
X226618D02*
X229889D01*
X212758D02*
X215950D01*
X196094D02*
X198819D01*
X183790D02*
X186594D01*
X176393D02*
X179196D01*
X171331D02*
X173200D01*
X306746Y191868D02*
X309082D01*
X237987D02*
X242348D01*
X231680D02*
X234016D01*
X226618D02*
X229889D01*
X212758D02*
X216028D01*
X196094D02*
X198819D01*
X183790D02*
X186594D01*
X176549D02*
X179196D01*
X171331D02*
X173278D01*
X306746Y191946D02*
X309238D01*
X240246D02*
X242582D01*
X237987D02*
X240090D01*
X231836D02*
X234172D01*
X226774D02*
X230045D01*
X212913D02*
X216028D01*
X195860D02*
X198663D01*
X183946D02*
X186749D01*
X176549D02*
X179352D01*
X171487D02*
X173434D01*
X306902Y192024D02*
X309238D01*
X240401D02*
X242582D01*
X237987D02*
X239934D01*
X231836D02*
X234172D01*
X226774D02*
X230045D01*
X212913D02*
X216028D01*
X195782D02*
X198586D01*
X184102D02*
X186827D01*
X176549D02*
X179352D01*
X171565D02*
X173434D01*
X306902Y192102D02*
X309316D01*
X240713D02*
X242738D01*
X237987D02*
X239778D01*
X231992D02*
X234328D01*
X226852D02*
X230045D01*
X213069D02*
X216106D01*
X195549D02*
X198430D01*
X184258D02*
X186983D01*
X176704D02*
X179352D01*
X171643D02*
X173589D01*
X306902Y192180D02*
X309394D01*
X240869D02*
X242893D01*
X237987D02*
X239701D01*
X231992D02*
X234328D01*
X226930D02*
X230201D01*
X213069D02*
X216106D01*
X195471D02*
X198430D01*
X184335D02*
X187061D01*
X176704D02*
X179508D01*
X171798D02*
X173745D01*
X307058Y192257D02*
X309394D01*
X240947D02*
X242893D01*
X237987D02*
X239623D01*
X232069D02*
X234483D01*
X226930D02*
X230201D01*
X213069D02*
X216184D01*
X195159D02*
X198274D01*
X184491D02*
X187217D01*
X176860D02*
X179508D01*
X171798D02*
X173901D01*
X307058Y192335D02*
X309394D01*
X241102D02*
X243049D01*
X237910D02*
X239623D01*
X232147D02*
X234483D01*
X227086D02*
X230201D01*
X213147D02*
X216184D01*
X195004D02*
X198118D01*
X184647D02*
X187295D01*
X176860D02*
X179663D01*
X171954D02*
X174135D01*
X307213Y192413D02*
X309471D01*
X241180D02*
X243205D01*
X237910D02*
X239623D01*
X232225D02*
X234639D01*
X227086D02*
X230356D01*
X213225D02*
X216262D01*
X194926D02*
X197963D01*
X184647D02*
X187450D01*
X176938D02*
X179663D01*
X171954D02*
X174290D01*
X307213Y192491D02*
X309549D01*
X241336D02*
X243205D01*
X237910D02*
X239623D01*
X232381D02*
X234639D01*
X227241D02*
X230356D01*
X213303D02*
X216262D01*
X194692D02*
X197807D01*
X184881D02*
X187606D01*
X177016D02*
X179741D01*
X172110D02*
X174602D01*
X307213Y192569D02*
X309549D01*
X241414D02*
X243360D01*
X237910D02*
X239623D01*
X232381D02*
X234717D01*
X227241D02*
X230356D01*
X213303D02*
X216262D01*
X194614D02*
X197807D01*
X184958D02*
X187606D01*
X177094D02*
X179819D01*
X172188D02*
X174757D01*
X307291Y192647D02*
X309549D01*
X241569D02*
X243438D01*
X237910D02*
X239623D01*
X232537D02*
X234795D01*
X227241D02*
X230434D01*
X213381D02*
X216418D01*
X194303D02*
X197651D01*
X185114D02*
X187917D01*
X177249D02*
X179897D01*
X172421D02*
X175225D01*
X307369Y192725D02*
X309549D01*
X241569D02*
X243516D01*
X237910D02*
X239623D01*
X232537D02*
X234873D01*
X227241D02*
X230512D01*
X213459D02*
X216418D01*
X194225D02*
X197573D01*
X185114D02*
X187917D01*
X177249D02*
X179897D01*
X172421D02*
X175303D01*
X307369Y192802D02*
X309549D01*
X241725D02*
X243672D01*
X237910D02*
X239623D01*
X232692D02*
X235028D01*
X227397D02*
X230512D01*
X213536D02*
X216418D01*
X193836D02*
X197340D01*
X185426D02*
X188073D01*
X177327D02*
X180053D01*
X172655D02*
X175926D01*
X307369Y192880D02*
X309549D01*
X241725D02*
X243672D01*
X237910D02*
X239623D01*
X232692D02*
X235028D01*
X227397D02*
X230512D01*
X213536D02*
X216418D01*
X193836D02*
X197340D01*
X185426D02*
X188073D01*
X177327D02*
X180053D01*
X172655D02*
X175926D01*
X307525Y192958D02*
X309705D01*
X241881D02*
X243828D01*
X237910D02*
X239623D01*
X232848D02*
X235184D01*
X227553D02*
X230668D01*
X213614D02*
X216573D01*
X193290D02*
X197028D01*
X185659D02*
X188385D01*
X172966D02*
X180208D01*
X307525Y193036D02*
X309705D01*
X241881D02*
X243828D01*
X237910D02*
X239623D01*
X232848D02*
X235184D01*
X227553D02*
X230668D01*
X213614D02*
X216573D01*
X193290D02*
X197028D01*
X185659D02*
X188385D01*
X172966D02*
X180208D01*
X307525Y193114D02*
X309705D01*
X242115D02*
X244061D01*
X237987D02*
X239778D01*
X233004D02*
X235340D01*
X227709D02*
X230746D01*
X213770D02*
X216573D01*
X192745D02*
X196795D01*
X185893D02*
X188618D01*
X173278D02*
X180364D01*
X307525Y193192D02*
X309705D01*
X242115D02*
X244061D01*
X237987D02*
X239778D01*
X233004D02*
X235340D01*
X227709D02*
X230746D01*
X213770D02*
X216573D01*
X192668D02*
X196795D01*
X185893D02*
X188696D01*
X173278D02*
X180364D01*
X307603Y193270D02*
X309705D01*
X242270D02*
X244217D01*
X237987D02*
X239778D01*
X233160D02*
X235496D01*
X227787D02*
X230823D01*
X213926D02*
X216729D01*
X192200D02*
X196483D01*
X186126D02*
X188930D01*
X173434D02*
X180520D01*
X307680Y193347D02*
X309705D01*
X242348D02*
X244217D01*
X237987D02*
X239778D01*
X233160D02*
X235496D01*
X227864D02*
X230901D01*
X213926D02*
X216729D01*
X192045D02*
X196483D01*
X186126D02*
X188930D01*
X173589D02*
X180520D01*
X307680Y193425D02*
X309705D01*
X242426D02*
X244373D01*
X238065D02*
X239778D01*
X233237D02*
X235651D01*
X227942D02*
X230901D01*
X213926D02*
X216729D01*
X191577D02*
X196172D01*
X186282D02*
X189241D01*
X173823D02*
X180520D01*
X307680Y193503D02*
X309705D01*
X242504D02*
X244373D01*
X238065D02*
X239934D01*
X233315D02*
X235651D01*
X227942D02*
X230901D01*
X213926D02*
X216729D01*
X191499D02*
X196094D01*
X186438D02*
X189241D01*
X173901D02*
X180676D01*
X307758Y193581D02*
X309705D01*
X242582D02*
X244529D01*
X238065D02*
X239934D01*
X233315D02*
X235807D01*
X228020D02*
X231057D01*
X214081D02*
X216885D01*
X191032D02*
X195860D01*
X186438D02*
X189397D01*
X174135D02*
X180676D01*
X307758Y193659D02*
X309705D01*
X242738D02*
X244529D01*
X238143D02*
X239934D01*
X233471D02*
X235807D01*
X228098D02*
X231057D01*
X214081D02*
X216885D01*
X190721D02*
X195704D01*
X186594D02*
X189553D01*
X174290D02*
X180831D01*
X307758Y193737D02*
X309705D01*
X242738D02*
X244684D01*
X238143D02*
X239934D01*
X233471D02*
X235963D01*
X228098D02*
X231057D01*
X214081D02*
X216885D01*
X190254D02*
X195471D01*
X186749D02*
X189708D01*
X174446D02*
X180831D01*
X307758Y193815D02*
X309861D01*
X242893D02*
X244684D01*
X238143D02*
X240090D01*
X233627D02*
X236041D01*
X228254D02*
X231213D01*
X214237D02*
X217041D01*
X186827D02*
X195315D01*
X174602D02*
X180831D01*
X307836Y193893D02*
X309861D01*
X242893D02*
X244840D01*
X238143D02*
X240090D01*
X233627D02*
X236119D01*
X228254D02*
X231213D01*
X214237D02*
X217041D01*
X186905D02*
X195159D01*
X174757D02*
X180987D01*
X307836Y193971D02*
X309861D01*
X243049D02*
X244840D01*
X238143D02*
X240090D01*
X233705D02*
X236196D01*
X228410D02*
X231213D01*
X214393D02*
X217041D01*
X187061D02*
X195004D01*
X175069D02*
X181065D01*
X307836Y194048D02*
X309861D01*
X243049D02*
X244918D01*
X238143D02*
X240090D01*
X233783D02*
X236274D01*
X228410D02*
X231213D01*
X214393D02*
X217041D01*
X187139D02*
X194848D01*
X175225D02*
X181221D01*
X307836Y194126D02*
X309861D01*
X243205D02*
X245074D01*
X238221D02*
X240246D01*
X233938D02*
X236430D01*
X228410D02*
X231369D01*
X214471D02*
X217196D01*
X187295D02*
X194536D01*
X175614D02*
X182622D01*
X307836Y194204D02*
X309861D01*
X243205D02*
X245074D01*
X238221D02*
X240246D01*
X233938D02*
X236430D01*
X228410D02*
X231369D01*
X214471D02*
X217196D01*
X187295D02*
X194459D01*
X175692D02*
X182778D01*
X307836Y194282D02*
X309861D01*
X243360D02*
X245229D01*
X238299D02*
X240246D01*
X234016D02*
X236586D01*
X228565D02*
X231369D01*
X214549D02*
X217196D01*
X186438D02*
X193991D01*
X176237D02*
X184102D01*
X307836Y194360D02*
X309861D01*
X243360D02*
X245229D01*
X238299D02*
X240246D01*
X234016D02*
X236586D01*
X228565D02*
X231369D01*
X214549D02*
X217196D01*
X186282D02*
X193991D01*
X176237D02*
X184180D01*
X307836Y194438D02*
X309861D01*
X247643D02*
X248811D01*
X243516D02*
X245385D01*
X238299D02*
X240401D01*
X234172D02*
X236742D01*
X228721D02*
X231524D01*
X214704D02*
X217352D01*
X176938D02*
X193524D01*
X307836Y194515D02*
X309861D01*
X247643D02*
X248811D01*
X243516D02*
X245385D01*
X238299D02*
X240401D01*
X234172D02*
X236742D01*
X228721D02*
X231524D01*
X214704D02*
X217352D01*
X176938D02*
X193524D01*
X307836Y194593D02*
X309861D01*
X247332D02*
X249279D01*
X243594D02*
X245541D01*
X238455D02*
X240401D01*
X234328D02*
X236897D01*
X228721D02*
X231524D01*
X214860D02*
X217430D01*
X177717D02*
X193057D01*
X307836Y194671D02*
X309861D01*
X247332D02*
X249279D01*
X243594D02*
X245619D01*
X238455D02*
X240401D01*
X234328D02*
X236897D01*
X228721D02*
X231602D01*
X214860D02*
X217430D01*
X177717D02*
X192979D01*
X307836Y194749D02*
X309861D01*
X247332D02*
X249590D01*
X243750D02*
X245697D01*
X238455D02*
X240557D01*
X234483D02*
X237053D01*
X228877D02*
X231680D01*
X214938D02*
X217508D01*
X178573D02*
X192512D01*
X307836Y194827D02*
X309861D01*
X247332D02*
X249590D01*
X243750D02*
X245697D01*
X238455D02*
X240557D01*
X234483D02*
X237131D01*
X228877D02*
X231680D01*
X214938D02*
X217508D01*
X178729D02*
X192356D01*
X307836Y194905D02*
X309861D01*
X247176D02*
X249824D01*
X243906D02*
X245852D01*
X238455D02*
X240557D01*
X234639D02*
X237131D01*
X228955D02*
X231836D01*
X215094D02*
X217663D01*
X179196D02*
X191889D01*
X307836Y194983D02*
X309861D01*
X247176D02*
X249902D01*
X243906D02*
X245852D01*
X238455D02*
X240557D01*
X234639D02*
X237287D01*
X229032D02*
X231836D01*
X215094D02*
X217663D01*
X179196D02*
X191889D01*
X307836Y195061D02*
X309861D01*
X247176D02*
X250135D01*
X244061D02*
X246008D01*
X238610D02*
X240713D01*
X234795D02*
X237287D01*
X229032D02*
X231836D01*
X215250D02*
X217741D01*
X179352D02*
X191889D01*
X307836Y195138D02*
X309861D01*
X247020D02*
X250135D01*
X244061D02*
X246008D01*
X238610D02*
X240713D01*
X234795D02*
X237442D01*
X229110D02*
X231836D01*
X215250D02*
X217741D01*
X179352D02*
X191967D01*
X307836Y195216D02*
X309861D01*
X247020D02*
X250291D01*
X244139D02*
X246164D01*
X238610D02*
X240713D01*
X234951D02*
X237442D01*
X229188D02*
X231992D01*
X215250D02*
X217897D01*
X179352D02*
X192045D01*
X307836Y195294D02*
X309861D01*
X247020D02*
X250446D01*
X244217D02*
X246242D01*
X238610D02*
X240791D01*
X235028D02*
X237598D01*
X229188D02*
X231992D01*
X215405D02*
X217897D01*
X179508D02*
X192200D01*
X307758Y195372D02*
X309705D01*
X247020D02*
X250446D01*
X244217D02*
X246319D01*
X238610D02*
X240869D01*
X235106D02*
X237598D01*
X229266D02*
X231992D01*
X215405D02*
X217897D01*
X182700D02*
X192356D01*
X179508D02*
X182467D01*
X307758Y195450D02*
X309705D01*
X246942D02*
X250602D01*
X244373D02*
X246397D01*
X238766D02*
X240869D01*
X235184D02*
X237754D01*
X229344D02*
X232069D01*
X215405D02*
X218053D01*
X189397D02*
X192512D01*
X183323D02*
X188774D01*
X179663D02*
X182467D01*
X307758Y195528D02*
X309705D01*
X252627D02*
X253094D01*
X246942D02*
X250602D01*
X244373D02*
X246475D01*
X238766D02*
X240947D01*
X235184D02*
X237754D01*
X229344D02*
X232147D01*
X215561D02*
X218053D01*
X189553D02*
X192512D01*
X183479D02*
X188696D01*
X179663D02*
X182467D01*
X307758Y195606D02*
X309705D01*
X252237D02*
X253561D01*
X246942D02*
X250836D01*
X244529D02*
X246553D01*
X238766D02*
X240947D01*
X235340D02*
X237910D01*
X229422D02*
X232147D01*
X215561D02*
X218209D01*
X189708D02*
X192745D01*
X184958D02*
X187528D01*
X179741D02*
X182622D01*
X307758Y195684D02*
X309705D01*
X252237D02*
X253561D01*
X246942D02*
X250836D01*
X244529D02*
X246631D01*
X238766D02*
X240947D01*
X235340D02*
X237910D01*
X229422D02*
X232225D01*
X215561D02*
X218209D01*
X189708D02*
X192745D01*
X185114D02*
X187450D01*
X179819D02*
X182622D01*
X307758Y195762D02*
X309705D01*
X252082D02*
X253873D01*
X248967D02*
X250992D01*
X246942D02*
X248344D01*
X244684D02*
X246709D01*
X238922D02*
X241102D01*
X235496D02*
X238065D01*
X229578D02*
X232303D01*
X215717D02*
X218364D01*
X189942D02*
X192979D01*
X179897D02*
X182778D01*
X307758Y195839D02*
X309705D01*
X252082D02*
X253873D01*
X248967D02*
X250992D01*
X246942D02*
X248344D01*
X244684D02*
X246709D01*
X238922D02*
X241102D01*
X235496D02*
X238065D01*
X229578D02*
X232303D01*
X215717D02*
X218364D01*
X189942D02*
X192979D01*
X179897D02*
X182778D01*
X307680Y195917D02*
X309705D01*
X251926D02*
X254106D01*
X249356D02*
X251225D01*
X244762D02*
X248111D01*
X238922D02*
X241102D01*
X235651D02*
X238299D01*
X229655D02*
X232381D01*
X215872D02*
X218364D01*
X190176D02*
X193213D01*
X180053D02*
X182934D01*
X307680Y195995D02*
X309705D01*
X251926D02*
X254106D01*
X249356D02*
X251225D01*
X244762D02*
X248111D01*
X238922D02*
X241102D01*
X235651D02*
X238299D01*
X229655D02*
X232381D01*
X215872D02*
X218364D01*
X190176D02*
X193213D01*
X180053D02*
X182934D01*
X307680Y196073D02*
X309705D01*
X251770D02*
X254262D01*
X249668D02*
X251459D01*
X244840D02*
X248033D01*
X239078D02*
X241258D01*
X235807D02*
X238455D01*
X229733D02*
X232537D01*
X216028D02*
X218520D01*
X190409D02*
X193524D01*
X180208D02*
X183012D01*
X307680Y196151D02*
X309705D01*
X251770D02*
X254340D01*
X249668D02*
X251459D01*
X244840D02*
X247955D01*
X239078D02*
X241258D01*
X235807D02*
X238455D01*
X229733D02*
X232537D01*
X216028D02*
X218520D01*
X190409D02*
X193524D01*
X180208D02*
X183090D01*
X307680Y196229D02*
X309549D01*
X251770D02*
X254574D01*
X249979D02*
X251615D01*
X244996D02*
X247955D01*
X239078D02*
X241258D01*
X235963D02*
X238610D01*
X229811D02*
X232537D01*
X216106D02*
X218676D01*
X190565D02*
X193680D01*
X180364D02*
X183167D01*
X307680Y196307D02*
X309549D01*
X251770D02*
X254574D01*
X249979D02*
X251615D01*
X245074D02*
X247955D01*
X239078D02*
X241258D01*
X235963D02*
X238610D01*
X229889D02*
X232537D01*
X216184D02*
X218676D01*
X190565D02*
X193836D01*
X180364D02*
X183167D01*
X307603Y196384D02*
X309549D01*
X250135D02*
X254729D01*
X245151D02*
X247955D01*
X239233D02*
X241414D01*
X236119D02*
X238766D01*
X229889D02*
X232692D01*
X216262D02*
X218832D01*
X190721D02*
X193991D01*
X180520D02*
X183323D01*
X307603Y196462D02*
X309549D01*
X250291D02*
X254729D01*
X245229D02*
X247955D01*
X239233D02*
X241414D01*
X236119D02*
X238766D01*
X229889D02*
X232692D01*
X216262D02*
X218832D01*
X190877D02*
X193991D01*
X180520D02*
X183323D01*
X307603Y196540D02*
X309549D01*
X250291D02*
X254885D01*
X245307D02*
X247955D01*
X239233D02*
X241414D01*
X236274D02*
X238922D01*
X230045D02*
X232692D01*
X216340D02*
X218909D01*
X191032D02*
X194147D01*
X180520D02*
X183479D01*
X307525Y196618D02*
X309549D01*
X250446D02*
X254963D01*
X245385D02*
X247955D01*
X239233D02*
X241569D01*
X236274D02*
X238922D01*
X230045D02*
X232848D01*
X216418D02*
X218987D01*
X191032D02*
X194303D01*
X180676D02*
X183479D01*
X307525Y196696D02*
X309471D01*
X250602D02*
X255041D01*
X245385D02*
X247955D01*
X239311D02*
X241569D01*
X236352D02*
X239000D01*
X230045D02*
X232848D01*
X216418D02*
X219065D01*
X191188D02*
X194381D01*
X180676D02*
X183635D01*
X307525Y196774D02*
X309394D01*
X250680D02*
X255119D01*
X245541D02*
X247955D01*
X239389D02*
X241569D01*
X236430D02*
X239078D01*
X230045D02*
X232848D01*
X216573D02*
X219143D01*
X191344D02*
X194536D01*
X180831D02*
X183635D01*
X307525Y196852D02*
X309394D01*
X250758D02*
X255197D01*
X245541D02*
X247955D01*
X239467D02*
X241569D01*
X236508D02*
X239078D01*
X230045D02*
X232848D01*
X216573D02*
X219221D01*
X191344D02*
X194614D01*
X180831D02*
X183635D01*
X307525Y196929D02*
X309394D01*
X250914D02*
X255274D01*
X245697D02*
X247955D01*
X239467D02*
X241725D01*
X236586D02*
X239233D01*
X230201D02*
X233004D01*
X216729D02*
X219221D01*
X191499D02*
X194770D01*
X180831D02*
X183790D01*
X307525Y197007D02*
X309394D01*
X250914D02*
X255352D01*
X245697D02*
X247955D01*
X239545D02*
X241725D01*
X236664D02*
X239233D01*
X230201D02*
X233004D01*
X216729D02*
X219299D01*
X191577D02*
X194848D01*
X180987D02*
X183790D01*
X307369Y197085D02*
X309394D01*
X251070D02*
X255430D01*
X245852D02*
X248033D01*
X239545D02*
X241725D01*
X236819D02*
X239467D01*
X230201D02*
X233004D01*
X216885D02*
X219377D01*
X191733D02*
X195004D01*
X180987D02*
X183946D01*
X307369Y197163D02*
X309394D01*
X251070D02*
X255430D01*
X245852D02*
X248033D01*
X239545D02*
X241725D01*
X236819D02*
X239467D01*
X230201D02*
X233004D01*
X216885D02*
X219377D01*
X191733D02*
X195004D01*
X181065D02*
X183946D01*
X307369Y197241D02*
X309316D01*
X251303D02*
X255586D01*
X246008D02*
X248111D01*
X236975D02*
X241881D01*
X230356D02*
X233160D01*
X216885D02*
X219532D01*
X192045D02*
X195315D01*
X181143D02*
X184102D01*
X307369Y197319D02*
X309316D01*
X251303D02*
X255586D01*
X246008D02*
X248111D01*
X236975D02*
X241881D01*
X230356D02*
X233160D01*
X216885D02*
X219532D01*
X192045D02*
X195315D01*
X181143D02*
X184102D01*
X307369Y197397D02*
X309238D01*
X251459D02*
X255742D01*
X246008D02*
X248188D01*
X237131D02*
X241881D01*
X230434D02*
X233160D01*
X217041D02*
X219688D01*
X192200D02*
X195471D01*
X181299D02*
X184258D01*
X307369Y197475D02*
X309238D01*
X251459D02*
X255742D01*
X246008D02*
X248188D01*
X237131D02*
X241881D01*
X230434D02*
X233160D01*
X217041D02*
X219688D01*
X192200D02*
X195471D01*
X181299D02*
X184258D01*
X307213Y197553D02*
X309160D01*
X251537D02*
X255898D01*
X246164D02*
X248266D01*
X237287D02*
X242037D01*
X230512D02*
X233315D01*
X217196D02*
X219844D01*
X192512D02*
X195782D01*
X181454D02*
X184413D01*
X307213Y197630D02*
X309160D01*
X251615D02*
X255898D01*
X246164D02*
X248266D01*
X237287D02*
X242037D01*
X230512D02*
X233315D01*
X217196D02*
X219844D01*
X192512D02*
X195782D01*
X181454D02*
X184413D01*
X307213Y197708D02*
X309082D01*
X254106D02*
X256053D01*
X251615D02*
X253795D01*
X246319D02*
X248344D01*
X237442D02*
X242037D01*
X230590D02*
X233393D01*
X217352D02*
X220000D01*
X192668D02*
X195938D01*
X181610D02*
X184491D01*
X307213Y197786D02*
X309082D01*
X254106D02*
X256053D01*
X251615D02*
X253717D01*
X246319D02*
X248344D01*
X237442D02*
X242037D01*
X230668D02*
X233471D01*
X217352D02*
X220000D01*
X192668D02*
X196016D01*
X181688D02*
X184569D01*
X307213Y197864D02*
X309004D01*
X254262D02*
X256209D01*
X251615D02*
X253717D01*
X246475D02*
X248422D01*
X237442D02*
X242192D01*
X230668D02*
X233471D01*
X217430D02*
X220155D01*
X192823D02*
X196172D01*
X181688D02*
X184647D01*
X307058Y197942D02*
X309004D01*
X254418D02*
X256209D01*
X251770D02*
X253717D01*
X246475D02*
X248500D01*
X237598D02*
X242192D01*
X230746D02*
X233549D01*
X217508D02*
X220155D01*
X192901D02*
X196249D01*
X181766D02*
X184647D01*
X307058Y198020D02*
X309004D01*
X254574D02*
X256365D01*
X251770D02*
X253717D01*
X246553D02*
X248500D01*
X237598D02*
X242192D01*
X230746D02*
X233627D01*
X217586D02*
X220311D01*
X193057D02*
X196327D01*
X181844D02*
X184803D01*
X307058Y198098D02*
X308927D01*
X262750D02*
X263451D01*
X254574D02*
X256365D01*
X251770D02*
X253717D01*
X246631D02*
X248500D01*
X237754D02*
X242270D01*
X230823D02*
X233627D01*
X217663D02*
X220389D01*
X193135D02*
X196483D01*
X181844D02*
X184803D01*
X307058Y198175D02*
X308849D01*
X262594D02*
X263762D01*
X254729D02*
X256520D01*
X251770D02*
X253717D01*
X246631D02*
X248500D01*
X237754D02*
X242348D01*
X230823D02*
X233705D01*
X217741D02*
X220467D01*
X193213D02*
X196639D01*
X181999D02*
X184958D01*
X307058Y198253D02*
X308849D01*
X262438D02*
X263918D01*
X254729D02*
X256520D01*
X251926D02*
X253717D01*
X246709D02*
X248656D01*
X237910D02*
X242348D01*
X230901D02*
X233705D01*
X217741D02*
X220545D01*
X193368D02*
X196639D01*
X181999D02*
X184958D01*
X306902Y198331D02*
X308849D01*
X262438D02*
X263996D01*
X254807D02*
X256598D01*
X251926D02*
X253717D01*
X246787D02*
X248656D01*
X237910D02*
X242426D01*
X230901D02*
X233783D01*
X217819D02*
X220623D01*
X193368D02*
X196795D01*
X181999D02*
X184958D01*
X306902Y198409D02*
X308771D01*
X262283D02*
X264151D01*
X254885D02*
X256676D01*
X251926D02*
X253717D01*
X246865D02*
X248811D01*
X238065D02*
X242426D01*
X230901D02*
X233860D01*
X217897D02*
X220700D01*
X193680D02*
X196950D01*
X182155D02*
X185114D01*
X306902Y198487D02*
X308693D01*
X262205D02*
X264229D01*
X254885D02*
X256754D01*
X251926D02*
X253717D01*
X246865D02*
X248811D01*
X238065D02*
X242426D01*
X230979D02*
X233860D01*
X217897D02*
X220700D01*
X193680D02*
X196950D01*
X182155D02*
X185114D01*
X306902Y198565D02*
X308693D01*
X262127D02*
X264463D01*
X255041D02*
X256832D01*
X252082D02*
X253717D01*
X247020D02*
X248811D01*
X238143D02*
X242582D01*
X231057D02*
X233938D01*
X218053D02*
X220856D01*
X193836D02*
X197184D01*
X182311D02*
X185270D01*
X306902Y198643D02*
X308693D01*
X262127D02*
X264463D01*
X255041D02*
X256832D01*
X252082D02*
X253717D01*
X247020D02*
X248811D01*
X238221D02*
X242582D01*
X231057D02*
X233938D01*
X218053D02*
X220856D01*
X193836D02*
X197184D01*
X182311D02*
X185270D01*
X306746Y198720D02*
X308537D01*
X261971D02*
X264619D01*
X255197D02*
X257065D01*
X252082D02*
X253795D01*
X247098D02*
X248967D01*
X238299D02*
X242582D01*
X231057D02*
X234016D01*
X218209D02*
X221012D01*
X194069D02*
X197418D01*
X182467D02*
X185426D01*
X306746Y198798D02*
X308537D01*
X261971D02*
X264619D01*
X255197D02*
X257065D01*
X252082D02*
X253795D01*
X247098D02*
X248967D01*
X238299D02*
X242582D01*
X231057D02*
X234016D01*
X218209D02*
X221012D01*
X194069D02*
X197418D01*
X182467D02*
X185426D01*
X306746Y198876D02*
X308537D01*
X261971D02*
X264930D01*
X255352D02*
X257221D01*
X252237D02*
X253873D01*
X247176D02*
X249123D01*
X238455D02*
X242738D01*
X231213D02*
X234172D01*
X218364D02*
X221168D01*
X194303D02*
X197651D01*
X182622D02*
X185581D01*
X306746Y198954D02*
X308537D01*
X261971D02*
X264930D01*
X255352D02*
X257221D01*
X252237D02*
X253873D01*
X247176D02*
X249123D01*
X238455D02*
X242738D01*
X231213D02*
X234172D01*
X218364D02*
X221168D01*
X194303D02*
X197651D01*
X182622D02*
X185581D01*
X306590Y199032D02*
X308381D01*
X261971D02*
X265086D01*
X255508D02*
X257377D01*
X252315D02*
X254029D01*
X247332D02*
X249279D01*
X238610D02*
X242738D01*
X231213D02*
X234172D01*
X218520D02*
X221479D01*
X194536D02*
X197807D01*
X182778D02*
X185737D01*
X306590Y199110D02*
X308381D01*
X261815D02*
X265086D01*
X255508D02*
X257377D01*
X252315D02*
X254029D01*
X247332D02*
X249279D01*
X238610D02*
X242738D01*
X231213D02*
X234172D01*
X218520D02*
X221479D01*
X194536D02*
X197807D01*
X182778D02*
X185737D01*
X306590Y199188D02*
X308381D01*
X261815D02*
X265242D01*
X255664D02*
X257455D01*
X252393D02*
X254106D01*
X247488D02*
X249356D01*
X238766D02*
X242893D01*
X231213D02*
X234328D01*
X218676D02*
X221635D01*
X194692D02*
X198118D01*
X182856D02*
X185815D01*
X306513Y199266D02*
X308381D01*
X261815D02*
X265242D01*
X255742D02*
X257533D01*
X252393D02*
X254106D01*
X247488D02*
X249434D01*
X238766D02*
X242893D01*
X231213D02*
X234328D01*
X218676D02*
X221635D01*
X194770D02*
X198118D01*
X182856D02*
X185893D01*
X306435Y199343D02*
X308226D01*
X261815D02*
X265397D01*
X255742D02*
X257533D01*
X252471D02*
X254262D01*
X247488D02*
X249434D01*
X238922D02*
X242893D01*
X235340D02*
X235651D01*
X231213D02*
X234328D01*
X218676D02*
X221713D01*
X194848D02*
X198274D01*
X183012D02*
X185971D01*
X306435Y199421D02*
X308226D01*
X261815D02*
X265397D01*
X255820D02*
X257688D01*
X252549D02*
X254262D01*
X247488D02*
X249512D01*
X238922D02*
X242893D01*
X235340D02*
X235807D01*
X231291D02*
X234328D01*
X218832D02*
X221791D01*
X195004D02*
X198274D01*
X183012D02*
X186049D01*
X306357Y199499D02*
X308148D01*
X261815D02*
X265475D01*
X255898D02*
X257688D01*
X252549D02*
X254340D01*
X247643D02*
X249590D01*
X239078D02*
X243049D01*
X235340D02*
X235963D01*
X231369D02*
X234483D01*
X218832D02*
X221868D01*
X195159D02*
X198430D01*
X183167D02*
X186126D01*
X306279Y199577D02*
X308070D01*
X261815D02*
X265553D01*
X255975D02*
X257844D01*
X252627D02*
X254418D01*
X247643D02*
X249668D01*
X239078D02*
X243049D01*
X235262D02*
X235963D01*
X231369D02*
X234483D01*
X218909D02*
X221946D01*
X195159D02*
X198508D01*
X183167D02*
X186126D01*
X306279Y199655D02*
X308070D01*
X261815D02*
X265631D01*
X256053D02*
X257844D01*
X252627D02*
X254418D01*
X247643D02*
X249746D01*
X239233D02*
X243049D01*
X235262D02*
X236119D01*
X231369D02*
X234483D01*
X218987D02*
X222024D01*
X195315D02*
X198586D01*
X183167D02*
X186282D01*
X306201Y199733D02*
X307992D01*
X261815D02*
X265709D01*
X256053D02*
X258000D01*
X252705D02*
X254574D01*
X247799D02*
X249824D01*
X239311D02*
X243205D01*
X235340D02*
X236274D01*
X231369D02*
X234639D01*
X219065D02*
X222180D01*
X195471D02*
X198741D01*
X183323D02*
X186282D01*
X306201Y199811D02*
X307914D01*
X261815D02*
X265787D01*
X256209D02*
X258000D01*
X252783D02*
X254574D01*
X247799D02*
X249902D01*
X239311D02*
X243205D01*
X235340D02*
X236274D01*
X231369D02*
X234639D01*
X219143D02*
X222180D01*
X195471D02*
X198819D01*
X183323D02*
X186438D01*
X306123Y199888D02*
X307914D01*
X261815D02*
X265787D01*
X256209D02*
X258078D01*
X252783D02*
X254729D01*
X247799D02*
X249979D01*
X239467D02*
X243205D01*
X235340D02*
X236430D01*
X231524D02*
X234639D01*
X219221D02*
X222336D01*
X195627D02*
X198975D01*
X183479D02*
X186438D01*
X306045Y199967D02*
X307914D01*
X261815D02*
X265865D01*
X256209D02*
X258156D01*
X252783D02*
X254729D01*
X247799D02*
X249979D01*
X239467D02*
X243205D01*
X235340D02*
X236430D01*
X231524D02*
X234639D01*
X219221D02*
X222336D01*
X195704D02*
X198975D01*
X183479D02*
X186438D01*
X306045Y200044D02*
X307758D01*
X261815D02*
X265942D01*
X256365D02*
X258234D01*
X252938D02*
X254885D01*
X247955D02*
X250135D01*
X239623D02*
X243360D01*
X235340D02*
X236586D01*
X231524D02*
X234795D01*
X219377D02*
X222647D01*
X195860D02*
X199131D01*
X183635D02*
X186594D01*
X306045Y200122D02*
X307758D01*
X261815D02*
X265942D01*
X256365D02*
X258234D01*
X252938D02*
X254885D01*
X247955D02*
X250135D01*
X239623D02*
X243360D01*
X235340D02*
X236586D01*
X231524D02*
X234795D01*
X219377D02*
X222647D01*
X195938D02*
X199131D01*
X183635D02*
X186594D01*
X305890Y200200D02*
X307680D01*
X264151D02*
X266098D01*
X261971D02*
X263606D01*
X256520D02*
X258389D01*
X252938D02*
X255041D01*
X247955D02*
X250291D01*
X239778D02*
X243360D01*
X235496D02*
X236664D01*
X231524D02*
X234873D01*
X219532D02*
X222803D01*
X196172D02*
X199442D01*
X183790D02*
X186749D01*
X305890Y200278D02*
X307680D01*
X264151D02*
X266098D01*
X261971D02*
X263606D01*
X256520D02*
X258389D01*
X252938D02*
X255041D01*
X247955D02*
X250291D01*
X239778D02*
X243360D01*
X235496D02*
X236664D01*
X231524D02*
X234873D01*
X219532D02*
X222803D01*
X196172D02*
X199442D01*
X183790D02*
X186749D01*
X305734Y200356D02*
X307525D01*
X264307D02*
X266254D01*
X261971D02*
X263451D01*
X256676D02*
X258545D01*
X252938D02*
X255197D01*
X248111D02*
X250446D01*
X239934D02*
X243516D01*
X235496D02*
X236819D01*
X231524D02*
X234951D01*
X219688D02*
X222959D01*
X196327D02*
X199598D01*
X183868D02*
X186905D01*
X305734Y200434D02*
X307525D01*
X264307D02*
X266254D01*
X261971D02*
X263451D01*
X256676D02*
X258545D01*
X252938D02*
X255197D01*
X248111D02*
X250446D01*
X239934D02*
X243516D01*
X235496D02*
X236819D01*
X231524D02*
X234951D01*
X219688D02*
X222959D01*
X196327D02*
X199598D01*
X183868D02*
X186905D01*
X305578Y200511D02*
X307369D01*
X264463D02*
X266410D01*
X261971D02*
X263451D01*
X256832D02*
X258701D01*
X253094D02*
X255352D01*
X248188D02*
X250680D01*
X240090D02*
X243516D01*
X235651D02*
X236975D01*
X231680D02*
X235028D01*
X219844D02*
X223192D01*
X196483D02*
X199754D01*
X183946D02*
X187061D01*
X305578Y200589D02*
X307369D01*
X264541D02*
X266410D01*
X261971D02*
X263451D01*
X256832D02*
X258701D01*
X253094D02*
X255352D01*
X248188D02*
X250758D01*
X240090D02*
X243516D01*
X235651D02*
X236975D01*
X231680D02*
X235106D01*
X219844D02*
X223270D01*
X196639D02*
X199754D01*
X183946D02*
X187061D01*
X305578Y200667D02*
X307213D01*
X264619D02*
X266410D01*
X261971D02*
X263606D01*
X256988D02*
X258857D01*
X253094D02*
X255508D01*
X248266D02*
X250914D01*
X240246D02*
X243672D01*
X235651D02*
X237131D01*
X231680D02*
X235106D01*
X220000D02*
X223426D01*
X196795D02*
X199909D01*
X184102D02*
X187217D01*
X305578Y200745D02*
X307213D01*
X264697D02*
X266565D01*
X261971D02*
X263606D01*
X257065D02*
X258857D01*
X253094D02*
X255508D01*
X248266D02*
X250914D01*
X240246D02*
X243672D01*
X235651D02*
X237131D01*
X231680D02*
X235184D01*
X220000D02*
X223426D01*
X196795D02*
X199987D01*
X184180D02*
X187217D01*
X305422Y200823D02*
X307213D01*
X264775D02*
X266565D01*
X262127D02*
X263606D01*
X257065D02*
X259012D01*
X253094D02*
X255586D01*
X248344D02*
X251070D01*
X240401D02*
X243672D01*
X235807D02*
X237287D01*
X231680D02*
X235184D01*
X220155D02*
X223582D01*
X196950D02*
X200065D01*
X184258D02*
X187295D01*
X305422Y200901D02*
X307058D01*
X264930D02*
X266565D01*
X262127D02*
X263606D01*
X257221D02*
X259012D01*
X253094D02*
X255586D01*
X248344D02*
X251147D01*
X240401D02*
X243750D01*
X235807D02*
X237287D01*
X231680D02*
X235262D01*
X220155D02*
X223659D01*
X197106D02*
X200143D01*
X184335D02*
X187372D01*
X305267Y200979D02*
X307058D01*
X264930D02*
X266721D01*
X262127D02*
X263606D01*
X257221D02*
X259168D01*
X253016D02*
X255664D01*
X248344D02*
X251303D01*
X240479D02*
X243750D01*
X235963D02*
X237442D01*
X231680D02*
X235340D01*
X220311D02*
X223815D01*
X197184D02*
X200299D01*
X184335D02*
X187450D01*
X305267Y201057D02*
X307058D01*
X268434D02*
X268979D01*
X265086D02*
X266721D01*
X262127D02*
X263606D01*
X257377D02*
X259168D01*
X252938D02*
X255742D01*
X248500D02*
X251459D01*
X240557D02*
X243828D01*
X235963D02*
X237598D01*
X231680D02*
X235340D01*
X220311D02*
X223971D01*
X197262D02*
X200376D01*
X184491D02*
X187450D01*
X305267Y201134D02*
X306902D01*
X268201D02*
X269213D01*
X265086D02*
X266799D01*
X262127D02*
X263606D01*
X257377D02*
X259246D01*
X252938D02*
X255742D01*
X248500D02*
X251537D01*
X240635D02*
X243906D01*
X235963D02*
X237754D01*
X231680D02*
X235340D01*
X220389D02*
X223971D01*
X197340D02*
X200454D01*
X184491D02*
X187606D01*
X305111Y201212D02*
X306902D01*
X268045D02*
X269525D01*
X265164D02*
X266877D01*
X262205D02*
X263762D01*
X257455D02*
X259324D01*
X252861D02*
X255742D01*
X248500D02*
X251770D01*
X240713D02*
X243906D01*
X236119D02*
X238065D01*
X231680D02*
X235496D01*
X220467D02*
X224127D01*
X197495D02*
X200610D01*
X184647D02*
X187606D01*
X305111Y201290D02*
X306902D01*
X267967D02*
X269680D01*
X265242D02*
X266877D01*
X262283D02*
X263762D01*
X257533D02*
X259324D01*
X252783D02*
X255742D01*
X248500D02*
X251770D01*
X240791D02*
X243906D01*
X236119D02*
X238143D01*
X231680D02*
X235496D01*
X220545D02*
X224282D01*
X197573D02*
X200610D01*
X184647D02*
X187684D01*
X304955Y201368D02*
X306746D01*
X283697D02*
X284242D01*
X267889D02*
X269836D01*
X265320D02*
X267033D01*
X262283D02*
X263762D01*
X257533D02*
X259479D01*
X252549D02*
X255898D01*
X248656D02*
X252315D01*
X240869D02*
X244061D01*
X236274D02*
X238610D01*
X231680D02*
X235496D01*
X220700D02*
X224438D01*
X197729D02*
X200766D01*
X184725D02*
X187762D01*
X304955Y201446D02*
X306746D01*
X283541D02*
X284320D01*
X267889D02*
X269836D01*
X265397D02*
X267033D01*
X262283D02*
X263762D01*
X257688D02*
X259479D01*
X248656D02*
X255898D01*
X240947D02*
X244061D01*
X236274D02*
X238610D01*
X231680D02*
X235574D01*
X220700D02*
X224438D01*
X197807D02*
X200766D01*
X184803D02*
X187762D01*
X304799Y201524D02*
X306590D01*
X283385D02*
X284475D01*
X267734D02*
X270070D01*
X265475D02*
X267111D01*
X262283D02*
X263762D01*
X257688D02*
X259635D01*
X248656D02*
X255898D01*
X241024D02*
X244061D01*
X236430D02*
X239078D01*
X231758D02*
X235651D01*
X220856D02*
X224672D01*
X197963D02*
X200922D01*
X184803D02*
X187917D01*
X304799Y201602D02*
X306590D01*
X283385D02*
X284475D01*
X267734D02*
X270070D01*
X265475D02*
X267111D01*
X262283D02*
X263762D01*
X257688D02*
X259635D01*
X248656D02*
X255898D01*
X241024D02*
X244061D01*
X236430D02*
X239078D01*
X231836D02*
X235651D01*
X220856D02*
X224672D01*
X197963D02*
X200922D01*
X184803D02*
X187917D01*
X304644Y201679D02*
X306435D01*
X283307D02*
X284709D01*
X267734D02*
X270381D01*
X265631D02*
X267266D01*
X262438D02*
X263918D01*
X257844D02*
X259791D01*
X254262D02*
X255898D01*
X248811D02*
X254106D01*
X241258D02*
X244217D01*
X236586D02*
X239545D01*
X233627D02*
X235807D01*
X231836D02*
X233549D01*
X221012D02*
X224905D01*
X198118D02*
X201077D01*
X184958D02*
X188073D01*
X304644Y201757D02*
X306435D01*
X283307D02*
X284709D01*
X267734D02*
X270381D01*
X265631D02*
X267266D01*
X262438D02*
X263918D01*
X257844D02*
X259791D01*
X254262D02*
X255898D01*
X248811D02*
X254106D01*
X241258D02*
X244217D01*
X236586D02*
X239545D01*
X233627D02*
X235807D01*
X231836D02*
X233549D01*
X221012D02*
X224905D01*
X198118D02*
X201077D01*
X184958D02*
X188073D01*
X304566Y201835D02*
X306279D01*
X283230D02*
X284787D01*
X272328D02*
X273340D01*
X267578D02*
X270537D01*
X265787D02*
X267344D01*
X262438D02*
X263918D01*
X258000D02*
X259947D01*
X254418D02*
X255898D01*
X248967D02*
X254029D01*
X241414D02*
X244217D01*
X236819D02*
X239934D01*
X233783D02*
X235807D01*
X231836D02*
X233471D01*
X221168D02*
X225139D01*
X198352D02*
X201233D01*
X185114D02*
X188229D01*
X304488Y201913D02*
X306279D01*
X283230D02*
X284865D01*
X272328D02*
X273340D01*
X267578D02*
X270537D01*
X265787D02*
X267344D01*
X262438D02*
X263918D01*
X258000D02*
X259947D01*
X254496D02*
X255898D01*
X248967D02*
X254029D01*
X241414D02*
X244217D01*
X236819D02*
X240090D01*
X233783D02*
X235807D01*
X231836D02*
X233471D01*
X221168D02*
X225139D01*
X198352D02*
X201233D01*
X185114D02*
X188229D01*
X304410Y201991D02*
X306123D01*
X283230D02*
X284865D01*
X272016D02*
X273652D01*
X267578D02*
X270693D01*
X265942D02*
X267422D01*
X262594D02*
X264074D01*
X258156D02*
X260102D01*
X254729D02*
X255898D01*
X250992D02*
X253951D01*
X248967D02*
X250758D01*
X241569D02*
X244373D01*
X236975D02*
X240401D01*
X233860D02*
X235963D01*
X231836D02*
X233549D01*
X221323D02*
X225450D01*
X198586D02*
X201389D01*
X185270D02*
X188385D01*
X304410Y202069D02*
X306123D01*
X283230D02*
X284865D01*
X272016D02*
X273807D01*
X267578D02*
X270693D01*
X265942D02*
X267422D01*
X262594D02*
X264074D01*
X258156D02*
X260180D01*
X254729D02*
X255898D01*
X251070D02*
X253873D01*
X248967D02*
X250758D01*
X241569D02*
X244373D01*
X236975D02*
X240479D01*
X233860D02*
X235963D01*
X231836D02*
X233549D01*
X221479D02*
X225450D01*
X198586D02*
X201389D01*
X185270D02*
X188385D01*
X304254Y202147D02*
X306045D01*
X283230D02*
X284943D01*
X271861D02*
X273963D01*
X266098D02*
X270693D01*
X262594D02*
X264074D01*
X258311D02*
X260180D01*
X255041D02*
X255742D01*
X251303D02*
X253795D01*
X249123D02*
X250758D01*
X241725D02*
X244373D01*
X237287D02*
X240869D01*
X234016D02*
X235963D01*
X231836D02*
X233549D01*
X221557D02*
X225762D01*
X198741D02*
X201545D01*
X185426D02*
X188540D01*
X304254Y202225D02*
X305968D01*
X283230D02*
X285021D01*
X271861D02*
X274041D01*
X266098D02*
X270848D01*
X262594D02*
X264151D01*
X258311D02*
X260336D01*
X255197D02*
X255664D01*
X251303D02*
X253717D01*
X249123D02*
X250758D01*
X241725D02*
X244373D01*
X237287D02*
X240947D01*
X234016D02*
X235963D01*
X231836D02*
X233549D01*
X221635D02*
X225762D01*
X198819D02*
X201622D01*
X185426D02*
X188540D01*
X304099Y202302D02*
X305890D01*
X283230D02*
X285021D01*
X271861D02*
X274197D01*
X266254D02*
X270848D01*
X262672D02*
X264151D01*
X258467D02*
X260336D01*
X251615D02*
X253717D01*
X249279D02*
X250758D01*
X241803D02*
X244529D01*
X237442D02*
X241258D01*
X234094D02*
X236119D01*
X231836D02*
X233549D01*
X221713D02*
X225996D01*
X198975D02*
X201700D01*
X185504D02*
X188618D01*
X303943Y202380D02*
X305812D01*
X283230D02*
X285021D01*
X271705D02*
X274275D01*
X266254D02*
X271004D01*
X262672D02*
X264229D01*
X258545D02*
X260492D01*
X251770D02*
X253561D01*
X249279D02*
X250680D01*
X241881D02*
X244529D01*
X237520D02*
X241414D01*
X234172D02*
X236119D01*
X231836D02*
X233549D01*
X224127D02*
X226073D01*
X221791D02*
X223971D01*
X198975D02*
X201778D01*
X185581D02*
X188696D01*
X303943Y202458D02*
X305734D01*
X283230D02*
X285021D01*
X271705D02*
X274352D01*
X266254D02*
X271004D01*
X262750D02*
X264307D01*
X258545D02*
X260492D01*
X251926D02*
X253406D01*
X249279D02*
X250602D01*
X241881D02*
X244529D01*
X237598D02*
X241569D01*
X234172D02*
X236119D01*
X231836D02*
X233471D01*
X224127D02*
X226229D01*
X221868D02*
X223971D01*
X199131D02*
X201856D01*
X185659D02*
X188774D01*
X303787Y202536D02*
X305734D01*
X283230D02*
X285176D01*
X271627D02*
X274430D01*
X266410D02*
X271082D01*
X262828D02*
X264307D01*
X258701D02*
X260648D01*
X252160D02*
X253250D01*
X249434D02*
X250602D01*
X237832D02*
X244529D01*
X234328D02*
X236119D01*
X231836D02*
X233471D01*
X224282D02*
X226463D01*
X221946D02*
X223971D01*
X199131D02*
X201934D01*
X185737D02*
X188852D01*
X303787Y202614D02*
X305578D01*
X283307D02*
X285176D01*
X271549D02*
X274508D01*
X266410D02*
X271160D01*
X262828D02*
X264307D01*
X258701D02*
X260648D01*
X252393D02*
X253094D01*
X249434D02*
X250602D01*
X237987D02*
X244684D01*
X234328D02*
X236196D01*
X231836D02*
X233471D01*
X224282D02*
X226541D01*
X222024D02*
X223971D01*
X199286D02*
X202012D01*
X185737D02*
X188930D01*
X303631Y202692D02*
X305578D01*
X283307D02*
X285176D01*
X271549D02*
X274664D01*
X266565D02*
X271238D01*
X262828D02*
X264463D01*
X258857D02*
X260725D01*
X249590D02*
X250446D01*
X238221D02*
X244684D01*
X234483D02*
X236274D01*
X231758D02*
X233471D01*
X224438D02*
X226774D01*
X222180D02*
X224127D01*
X199442D02*
X202090D01*
X185815D02*
X188930D01*
X303631Y202770D02*
X305422D01*
X283385D02*
X285176D01*
X271549D02*
X274664D01*
X266565D02*
X271238D01*
X262828D02*
X264463D01*
X258857D02*
X260803D01*
X249590D02*
X250446D01*
X238299D02*
X244684D01*
X234483D02*
X236274D01*
X231680D02*
X233471D01*
X224516D02*
X226774D01*
X222180D02*
X224127D01*
X199442D02*
X202090D01*
X185893D02*
X189086D01*
X303476Y202848D02*
X305422D01*
X283385D02*
X285176D01*
X277934D02*
X278791D01*
X266721D02*
X274820D01*
X262983D02*
X264463D01*
X259012D02*
X260881D01*
X249746D02*
X250291D01*
X238610D02*
X244840D01*
X234561D02*
X236196D01*
X231680D02*
X233471D01*
X224750D02*
X227086D01*
X222414D02*
X224127D01*
X199598D02*
X202245D01*
X185971D02*
X189086D01*
X303398Y202925D02*
X305267D01*
X283385D02*
X285176D01*
X277934D02*
X278791D01*
X266721D02*
X274820D01*
X262983D02*
X264463D01*
X259012D02*
X260959D01*
X249746D02*
X250291D01*
X238766D02*
X244840D01*
X234639D02*
X236196D01*
X231680D02*
X233471D01*
X224750D02*
X227086D01*
X222414D02*
X224127D01*
X199598D02*
X202245D01*
X185971D02*
X189086D01*
X303242Y203003D02*
X305189D01*
X283385D02*
X285332D01*
X277623D02*
X279102D01*
X266799D02*
X274975D01*
X262983D02*
X264619D01*
X259012D02*
X261037D01*
X239078D02*
X244840D01*
X234795D02*
X236119D01*
X231680D02*
X233471D01*
X224983D02*
X227553D01*
X222647D02*
X224127D01*
X199754D02*
X202401D01*
X186126D02*
X189241D01*
X303242Y203081D02*
X305189D01*
X283385D02*
X285332D01*
X277623D02*
X279102D01*
X266799D02*
X274975D01*
X262983D02*
X264619D01*
X259012D02*
X261037D01*
X239156D02*
X244840D01*
X234795D02*
X236119D01*
X231680D02*
X233471D01*
X224983D02*
X227553D01*
X222647D02*
X224127D01*
X199754D02*
X202401D01*
X186126D02*
X189241D01*
X303086Y203159D02*
X305033D01*
X283541D02*
X285332D01*
X277467D02*
X279414D01*
X269992D02*
X275131D01*
X266955D02*
X269525D01*
X263139D02*
X264619D01*
X259168D02*
X261192D01*
X239623D02*
X244996D01*
X234951D02*
X236119D01*
X231524D02*
X233393D01*
X225139D02*
X227942D01*
X222881D02*
X224127D01*
X199909D02*
X202557D01*
X186282D02*
X189397D01*
X303086Y203237D02*
X305033D01*
X283541D02*
X285332D01*
X277467D02*
X279414D01*
X269992D02*
X275131D01*
X266955D02*
X269525D01*
X263139D02*
X264619D01*
X259168D02*
X261192D01*
X239623D02*
X244996D01*
X234951D02*
X236119D01*
X231524D02*
X233393D01*
X225139D02*
X227942D01*
X222881D02*
X224127D01*
X199909D02*
X202557D01*
X186282D02*
X189397D01*
X302775Y203315D02*
X304877D01*
X283541D02*
X285332D01*
X277467D02*
X279570D01*
X270225D02*
X275287D01*
X267111D02*
X269369D01*
X263139D02*
X264775D01*
X259324D02*
X261348D01*
X239934D02*
X244996D01*
X235184D02*
X235963D01*
X231524D02*
X233315D01*
X225450D02*
X228410D01*
X223114D02*
X224127D01*
X200065D02*
X202713D01*
X186438D02*
X189553D01*
X302775Y203393D02*
X304799D01*
X283541D02*
X285332D01*
X277467D02*
X279570D01*
X270225D02*
X275287D01*
X267111D02*
X269369D01*
X263139D02*
X264775D01*
X259324D02*
X261348D01*
X240090D02*
X244996D01*
X235184D02*
X235963D01*
X231524D02*
X233315D01*
X225450D02*
X228410D01*
X223192D02*
X224127D01*
X200065D02*
X202713D01*
X186438D02*
X189553D01*
X302619Y203470D02*
X304722D01*
X283697D02*
X285488D01*
X277311D02*
X279725D01*
X273496D02*
X275287D01*
X270537D02*
X273184D01*
X267266D02*
X269369D01*
X263139D02*
X264775D01*
X259479D02*
X261504D01*
X240401D02*
X245151D01*
X231369D02*
X233315D01*
X225606D02*
X228877D01*
X223426D02*
X224127D01*
X200221D02*
X202868D01*
X186594D02*
X189708D01*
X302619Y203548D02*
X304644D01*
X283697D02*
X285488D01*
X277311D02*
X279725D01*
X273652D02*
X275287D01*
X270537D02*
X273184D01*
X267266D02*
X269369D01*
X263217D02*
X264775D01*
X259479D02*
X261504D01*
X240401D02*
X245151D01*
X231369D02*
X233315D01*
X225606D02*
X228877D01*
X223504D02*
X224127D01*
X200299D02*
X202868D01*
X186594D02*
X189708D01*
X302463Y203626D02*
X304488D01*
X283697D02*
X285488D01*
X277234D02*
X279803D01*
X273807D02*
X275443D01*
X270693D02*
X273184D01*
X267344D02*
X269369D01*
X263295D02*
X264930D01*
X259635D02*
X261660D01*
X240791D02*
X245151D01*
X231135D02*
X233315D01*
X225918D02*
X229422D01*
X200376D02*
X202946D01*
X186594D02*
X189864D01*
X302308Y203704D02*
X304410D01*
X283697D02*
X285488D01*
X277234D02*
X279881D01*
X273807D02*
X275443D01*
X270693D02*
X273184D01*
X267422D02*
X269369D01*
X263295D02*
X264930D01*
X259635D02*
X261660D01*
X240947D02*
X245229D01*
X231057D02*
X233237D01*
X225918D02*
X229578D01*
X200454D02*
X203024D01*
X186749D02*
X189864D01*
X302230Y203782D02*
X304332D01*
X283697D02*
X285488D01*
X277234D02*
X279959D01*
X273963D02*
X275598D01*
X270848D02*
X273184D01*
X267422D02*
X269369D01*
X263295D02*
X264930D01*
X259791D02*
X261815D01*
X241180D02*
X245307D01*
X230746D02*
X233160D01*
X226073D02*
X230201D01*
X200610D02*
X203024D01*
X186749D02*
X189942D01*
X302152Y203860D02*
X304254D01*
X283853D02*
X285566D01*
X277234D02*
X280037D01*
X274041D02*
X275598D01*
X271004D02*
X273184D01*
X267578D02*
X269369D01*
X263295D02*
X264930D01*
X259869D02*
X261815D01*
X241414D02*
X245385D01*
X226229D02*
X233160D01*
X200610D02*
X203102D01*
X186827D02*
X190020D01*
X301996Y203938D02*
X304099D01*
X283853D02*
X285644D01*
X277156D02*
X280037D01*
X274119D02*
X275676D01*
X271004D02*
X273184D01*
X267578D02*
X269369D01*
X263451D02*
X265086D01*
X259869D02*
X261971D01*
X241569D02*
X245541D01*
X226385D02*
X233160D01*
X200688D02*
X203180D01*
X186905D02*
X190098D01*
X301918Y204016D02*
X304099D01*
X283853D02*
X285644D01*
X277156D02*
X280115D01*
X274197D02*
X275754D01*
X271160D02*
X273184D01*
X267734D02*
X269525D01*
X263451D02*
X265086D01*
X260025D02*
X261971D01*
X241881D02*
X245852D01*
X226463D02*
X233160D01*
X200766D02*
X203258D01*
X186983D02*
X190176D01*
X301840Y204093D02*
X303943D01*
X283853D02*
X285644D01*
X277156D02*
X280193D01*
X274275D02*
X275754D01*
X271238D02*
X273262D01*
X267734D02*
X269525D01*
X263451D02*
X265086D01*
X260025D02*
X261971D01*
X241959D02*
X246008D01*
X226618D02*
X233004D01*
X200766D02*
X203258D01*
X187061D02*
X190254D01*
X301607Y204171D02*
X303787D01*
X283930D02*
X285721D01*
X277156D02*
X280271D01*
X274352D02*
X275832D01*
X271316D02*
X273340D01*
X267734D02*
X269525D01*
X263451D02*
X265164D01*
X260180D02*
X262127D01*
X242270D02*
X246319D01*
X226774D02*
X233004D01*
X200922D02*
X203414D01*
X187139D02*
X190331D01*
X301607Y204249D02*
X303787D01*
X284008D02*
X285721D01*
X277156D02*
X280271D01*
X274352D02*
X275832D01*
X271393D02*
X273340D01*
X267889D02*
X269525D01*
X263451D02*
X265242D01*
X260180D02*
X262127D01*
X242348D02*
X246397D01*
X226774D02*
X233004D01*
X200922D02*
X203414D01*
X187139D02*
X190331D01*
X301451Y204327D02*
X303631D01*
X284008D02*
X285799D01*
X277078D02*
X280426D01*
X274430D02*
X275988D01*
X271471D02*
X273340D01*
X267889D02*
X269525D01*
X263606D02*
X265242D01*
X260336D02*
X262283D01*
X242738D02*
X246865D01*
X227086D02*
X232848D01*
X201077D02*
X203414D01*
X187295D02*
X190409D01*
X301295Y204405D02*
X303631D01*
X284008D02*
X285799D01*
X277078D02*
X280426D01*
X274430D02*
X275988D01*
X271549D02*
X273340D01*
X267889D02*
X269525D01*
X263606D02*
X265242D01*
X260336D02*
X262283D01*
X242738D02*
X246865D01*
X227086D02*
X232848D01*
X201077D02*
X203491D01*
X187295D02*
X190487D01*
X301140Y204483D02*
X303476D01*
X284008D02*
X285799D01*
X277078D02*
X280582D01*
X274508D02*
X275988D01*
X271705D02*
X273496D01*
X268045D02*
X269525D01*
X263606D02*
X265397D01*
X260492D02*
X262438D01*
X243205D02*
X247332D01*
X227397D02*
X232692D01*
X201233D02*
X203569D01*
X187450D02*
X190565D01*
X301140Y204561D02*
X303476D01*
X284008D02*
X285799D01*
X277078D02*
X280582D01*
X274508D02*
X275988D01*
X271705D02*
X273496D01*
X268045D02*
X269525D01*
X263606D02*
X265397D01*
X260492D02*
X262438D01*
X243205D02*
X247332D01*
X227397D02*
X232692D01*
X201233D02*
X203569D01*
X187450D02*
X190565D01*
X300828Y204639D02*
X303242D01*
X284164D02*
X285877D01*
X277078D02*
X280738D01*
X274664D02*
X276143D01*
X271861D02*
X273496D01*
X268201D02*
X269680D01*
X263762D02*
X265397D01*
X260648D02*
X262594D01*
X243594D02*
X247799D01*
X227709D02*
X232692D01*
X201389D02*
X203725D01*
X187606D02*
X190721D01*
X300828Y204716D02*
X303242D01*
X284164D02*
X285877D01*
X277078D02*
X280738D01*
X274664D02*
X276143D01*
X271861D02*
X273496D01*
X268201D02*
X269680D01*
X263762D02*
X265397D01*
X260648D02*
X262594D01*
X243594D02*
X247799D01*
X227709D02*
X232692D01*
X201389D02*
X203725D01*
X187606D02*
X190721D01*
X300594Y204794D02*
X303086D01*
X284164D02*
X285955D01*
X277078D02*
X280738D01*
X274820D02*
X276299D01*
X271861D02*
X273652D01*
X268356D02*
X269680D01*
X263762D02*
X265475D01*
X260648D02*
X262750D01*
X243828D02*
X248266D01*
X227942D02*
X232381D01*
X201389D02*
X203725D01*
X187684D02*
X190877D01*
X300594Y204872D02*
X303086D01*
X284164D02*
X285955D01*
X277078D02*
X280738D01*
X274820D02*
X276299D01*
X271938D02*
X273652D01*
X268356D02*
X269680D01*
X263762D02*
X265553D01*
X260648D02*
X262750D01*
X243828D02*
X248344D01*
X228020D02*
X232381D01*
X201467D02*
X203725D01*
X187762D02*
X190877D01*
X300361Y204950D02*
X302853D01*
X284320D02*
X286033D01*
X277156D02*
X280893D01*
X274820D02*
X276299D01*
X272016D02*
X273652D01*
X268512D02*
X269680D01*
X263840D02*
X265553D01*
X260803D02*
X262906D01*
X243906D02*
X248656D01*
X228410D02*
X232225D01*
X201545D02*
X203881D01*
X187762D02*
X191032D01*
X300283Y205028D02*
X302775D01*
X284320D02*
X286033D01*
X277156D02*
X280893D01*
X274897D02*
X276299D01*
X272016D02*
X273652D01*
X268512D02*
X269680D01*
X263840D02*
X265631D01*
X260803D02*
X262906D01*
X243906D02*
X248811D01*
X228410D02*
X232147D01*
X201545D02*
X203881D01*
X187762D02*
X191032D01*
X300049Y205106D02*
X302619D01*
X284320D02*
X286033D01*
X277156D02*
X281049D01*
X274975D02*
X276455D01*
X272172D02*
X273807D01*
X268590D02*
X269680D01*
X263918D02*
X265631D01*
X260959D02*
X262983D01*
X244061D02*
X249123D01*
X228721D02*
X231992D01*
X201700D02*
X203881D01*
X187917D02*
X191032D01*
X299972Y205184D02*
X302619D01*
X284398D02*
X286111D01*
X277156D02*
X281049D01*
X274975D02*
X276455D01*
X272172D02*
X273807D01*
X268668D02*
X269758D01*
X263918D02*
X265709D01*
X260959D02*
X263139D01*
X244061D02*
X249279D01*
X228877D02*
X231836D01*
X201700D02*
X203881D01*
X187917D02*
X191032D01*
X299816Y205261D02*
X302463D01*
X284398D02*
X286189D01*
X277156D02*
X281049D01*
X275131D02*
X276455D01*
X272172D02*
X273807D01*
X268746D02*
X269836D01*
X263918D02*
X265787D01*
X261115D02*
X263139D01*
X244139D02*
X249590D01*
X229344D02*
X231680D01*
X201778D02*
X204036D01*
X188073D02*
X191188D01*
X299660Y205339D02*
X302308D01*
X284475D02*
X286189D01*
X279102D02*
X281205D01*
X277156D02*
X278947D01*
X275131D02*
X276455D01*
X272328D02*
X273885D01*
X268824D02*
X269836D01*
X263996D02*
X265787D01*
X261192D02*
X263295D01*
X244217D02*
X249824D01*
X229655D02*
X231369D01*
X201778D02*
X204036D01*
X188073D02*
X191188D01*
X299504Y205417D02*
X302230D01*
X284475D02*
X286189D01*
X279102D02*
X281205D01*
X277156D02*
X278947D01*
X275131D02*
X276611D01*
X272328D02*
X273963D01*
X268902D02*
X269836D01*
X264074D02*
X265787D01*
X261270D02*
X263295D01*
X244217D02*
X249979D01*
X230201D02*
X230979D01*
X201856D02*
X204036D01*
X188229D02*
X191188D01*
X299349Y205495D02*
X302074D01*
X284553D02*
X286500D01*
X279258D02*
X281283D01*
X277234D02*
X278947D01*
X275287D02*
X276611D01*
X272328D02*
X273963D01*
X268979D02*
X269836D01*
X264074D02*
X265942D01*
X261348D02*
X263451D01*
X244373D02*
X250291D01*
X201934D02*
X204036D01*
X188229D02*
X191188D01*
X299271Y205573D02*
X301996D01*
X284553D02*
X286656D01*
X279258D02*
X281361D01*
X277234D02*
X278947D01*
X275287D02*
X276611D01*
X272484D02*
X273963D01*
X269057D02*
X269758D01*
X264074D02*
X265942D01*
X261348D02*
X263451D01*
X244373D02*
X250446D01*
X201934D02*
X204192D01*
X188307D02*
X191188D01*
X299037Y205651D02*
X301840D01*
X284475D02*
X286967D01*
X279258D02*
X281439D01*
X277234D02*
X279102D01*
X275287D02*
X276766D01*
X272484D02*
X274041D01*
X269213D02*
X269680D01*
X264151D02*
X265942D01*
X261504D02*
X263451D01*
X244373D02*
X250758D01*
X202090D02*
X204192D01*
X188385D02*
X191266D01*
X298959Y205729D02*
X301763D01*
X284475D02*
X287045D01*
X279414D02*
X281439D01*
X277234D02*
X279102D01*
X275365D02*
X276766D01*
X272484D02*
X274119D01*
X269369D02*
X269680D01*
X264151D02*
X265942D01*
X261504D02*
X263606D01*
X244529D02*
X250836D01*
X202090D02*
X204192D01*
X188385D02*
X191266D01*
X298648Y205807D02*
X301529D01*
X284398D02*
X287435D01*
X279414D02*
X281594D01*
X277234D02*
X279102D01*
X275443D02*
X276766D01*
X272639D02*
X274119D01*
X264229D02*
X266098D01*
X261660D02*
X263684D01*
X244529D02*
X251225D01*
X202090D02*
X204192D01*
X188540D02*
X191344D01*
X298648Y205884D02*
X301529D01*
X284398D02*
X287435D01*
X279414D02*
X281594D01*
X277234D02*
X279102D01*
X275443D02*
X276844D01*
X272639D02*
X274119D01*
X264229D02*
X266098D01*
X261660D02*
X263762D01*
X244529D02*
X251303D01*
X202090D02*
X204192D01*
X188618D02*
X191344D01*
X298181Y205962D02*
X301295D01*
X284320D02*
X287824D01*
X279570D02*
X281672D01*
X277311D02*
X279102D01*
X275598D02*
X276922D01*
X272639D02*
X274275D01*
X264307D02*
X266098D01*
X261815D02*
X263840D01*
X247020D02*
X251770D01*
X244684D02*
X246709D01*
X202245D02*
X204270D01*
X188774D02*
X191266D01*
X298181Y206040D02*
X301295D01*
X284320D02*
X287824D01*
X279570D02*
X281750D01*
X277311D02*
X279102D01*
X275598D02*
X276922D01*
X272639D02*
X274275D01*
X264307D02*
X266098D01*
X261815D02*
X263840D01*
X247020D02*
X251770D01*
X244684D02*
X246709D01*
X202245D02*
X204270D01*
X188774D02*
X191266D01*
X297869Y206118D02*
X300984D01*
X284320D02*
X288135D01*
X279725D02*
X281828D01*
X277311D02*
X279258D01*
X275676D02*
X277078D01*
X272795D02*
X274352D01*
X264385D02*
X266254D01*
X261971D02*
X263996D01*
X247488D02*
X252237D01*
X244840D02*
X246865D01*
X202245D02*
X204348D01*
X188930D02*
X191188D01*
X297869Y206196D02*
X300984D01*
X284320D02*
X288135D01*
X279725D02*
X281828D01*
X277311D02*
X279258D01*
X275676D02*
X277078D01*
X272795D02*
X274352D01*
X264385D02*
X266254D01*
X261971D02*
X263996D01*
X247488D02*
X252237D01*
X244840D02*
X246865D01*
X202245D02*
X204348D01*
X188930D02*
X191188D01*
X297480Y206274D02*
X300672D01*
X284242D02*
X288447D01*
X279881D02*
X281906D01*
X277389D02*
X279258D01*
X275832D02*
X277078D01*
X272873D02*
X274352D01*
X264463D02*
X266254D01*
X262127D02*
X264151D01*
X247955D02*
X252705D01*
X244840D02*
X246942D01*
X202401D02*
X204348D01*
X189241D02*
X191188D01*
X297480Y206352D02*
X300672D01*
X284242D02*
X288525D01*
X279881D02*
X281906D01*
X277389D02*
X279258D01*
X275832D02*
X277078D01*
X272873D02*
X274352D01*
X264463D02*
X266254D01*
X262127D02*
X264151D01*
X247955D02*
X252705D01*
X244918D02*
X247020D01*
X202401D02*
X204348D01*
X189241D02*
X191110D01*
X297168Y206430D02*
X300439D01*
X284164D02*
X288758D01*
X279959D02*
X282062D01*
X277467D02*
X279258D01*
X275910D02*
X277234D01*
X272951D02*
X274508D01*
X264541D02*
X266410D01*
X262127D02*
X264307D01*
X248422D02*
X253094D01*
X244996D02*
X247020D01*
X202401D02*
X204426D01*
X189397D02*
X191032D01*
X297013Y206507D02*
X300361D01*
X284164D02*
X288836D01*
X279959D02*
X282062D01*
X277467D02*
X279258D01*
X275988D02*
X277234D01*
X272951D02*
X274508D01*
X264619D02*
X266410D01*
X262205D02*
X264307D01*
X248500D02*
X253250D01*
X244996D02*
X247020D01*
X202401D02*
X204426D01*
X189397D02*
X190877D01*
X296701Y206585D02*
X300127D01*
X284164D02*
X288992D01*
X280037D02*
X282217D01*
X277389D02*
X279258D01*
X275988D02*
X277311D01*
X273029D02*
X274508D01*
X264619D02*
X266410D01*
X262283D02*
X264463D01*
X248811D02*
X253561D01*
X245151D02*
X247176D01*
X202557D02*
X204426D01*
X189786D02*
X190721D01*
X296545Y206663D02*
X299972D01*
X284164D02*
X289070D01*
X280115D02*
X282217D01*
X276066D02*
X279258D01*
X273029D02*
X274586D01*
X264619D02*
X266410D01*
X262361D02*
X264463D01*
X248967D02*
X253717D01*
X245151D02*
X247176D01*
X202557D02*
X204426D01*
X189942D02*
X190565D01*
X296390Y206741D02*
X299816D01*
X284164D02*
X289303D01*
X280193D02*
X282217D01*
X276143D02*
X279414D01*
X273029D02*
X274664D01*
X262438D02*
X266565D01*
X249279D02*
X253951D01*
X245229D02*
X247332D01*
X202557D02*
X204426D01*
X296156Y206819D02*
X299660D01*
X284164D02*
X289303D01*
X280271D02*
X282373D01*
X276143D02*
X279414D01*
X273106D02*
X274664D01*
X262516D02*
X266565D01*
X249512D02*
X254184D01*
X245307D02*
X247332D01*
X202557D02*
X204426D01*
X295922Y206897D02*
X299660D01*
X284164D02*
X289459D01*
X280271D02*
X282373D01*
X276221D02*
X279414D01*
X273184D02*
X274664D01*
X262594D02*
X266565D01*
X249746D02*
X254418D01*
X245385D02*
X247332D01*
X202635D02*
X204426D01*
X295533Y206975D02*
X299349D01*
X286967D02*
X289615D01*
X284164D02*
X286812D01*
X280426D02*
X282529D01*
X276299D02*
X279414D01*
X273184D02*
X274742D01*
X262672D02*
X266565D01*
X250057D02*
X254729D01*
X245385D02*
X247488D01*
X202713D02*
X204426D01*
X295377Y207052D02*
X299349D01*
X287123D02*
X289693D01*
X284164D02*
X286812D01*
X280426D02*
X282529D01*
X276299D02*
X279414D01*
X273184D02*
X274820D01*
X262672D02*
X266643D01*
X250135D02*
X254729D01*
X245463D02*
X247488D01*
X202713D02*
X204348D01*
X294910Y207130D02*
X299037D01*
X287512D02*
X289848D01*
X284164D02*
X286812D01*
X280582D02*
X282529D01*
X276455D02*
X279414D01*
X273184D02*
X274820D01*
X262828D02*
X266721D01*
X250602D02*
X255197D01*
X245541D02*
X247565D01*
X202713D02*
X204348D01*
X294910Y207208D02*
X298959D01*
X287590D02*
X289926D01*
X284164D02*
X286812D01*
X280582D02*
X282607D01*
X276455D02*
X279414D01*
X273262D02*
X274820D01*
X262828D02*
X266721D01*
X250602D02*
X255197D01*
X245541D02*
X247643D01*
X202713D02*
X204348D01*
X294287Y207286D02*
X298648D01*
X287980D02*
X290082D01*
X284242D02*
X286967D01*
X280738D02*
X282684D01*
X276455D02*
X279414D01*
X273340D02*
X274820D01*
X262983D02*
X266799D01*
X251070D02*
X255664D01*
X245697D02*
X247643D01*
X202868D02*
X204348D01*
X294209Y207364D02*
X298648D01*
X287980D02*
X290082D01*
X284242D02*
X286967D01*
X280738D02*
X282684D01*
X276455D02*
X279414D01*
X273340D02*
X274820D01*
X262983D02*
X266799D01*
X251070D02*
X255742D01*
X245697D02*
X247643D01*
X202868D02*
X204348D01*
X293586Y207442D02*
X298181D01*
X288291D02*
X290316D01*
X284320D02*
X286967D01*
X280738D02*
X282840D01*
X276611D02*
X279414D01*
X273340D02*
X274820D01*
X263139D02*
X266877D01*
X251615D02*
X256209D01*
X245852D02*
X247799D01*
X202946D02*
X204192D01*
X293586Y207520D02*
X298181D01*
X288291D02*
X290316D01*
X284320D02*
X286967D01*
X280738D02*
X282840D01*
X276611D02*
X279414D01*
X273340D02*
X274820D01*
X263139D02*
X266877D01*
X251615D02*
X256209D01*
X245852D02*
X247799D01*
X202946D02*
X204192D01*
X292574Y207598D02*
X297791D01*
X288603D02*
X290471D01*
X284398D02*
X287123D01*
X280893D02*
X282996D01*
X276766D02*
X279570D01*
X273807D02*
X274820D01*
X263295D02*
X267033D01*
X252082D02*
X256676D01*
X245852D02*
X247955D01*
X203102D02*
X204036D01*
X292574Y207675D02*
X297791D01*
X288603D02*
X290471D01*
X284398D02*
X287123D01*
X280893D02*
X282996D01*
X276766D02*
X279570D01*
X273807D02*
X274820D01*
X263295D02*
X267033D01*
X252082D02*
X256676D01*
X245852D02*
X247955D01*
X203102D02*
X204036D01*
X291406Y207753D02*
X297402D01*
X288836D02*
X290627D01*
X284475D02*
X287123D01*
X281049D02*
X283074D01*
X276844D02*
X279570D01*
X263451D02*
X267111D01*
X252549D02*
X257065D01*
X246008D02*
X248033D01*
X203414D02*
X203881D01*
X291250Y207831D02*
X297324D01*
X288836D02*
X290705D01*
X284475D02*
X287123D01*
X281049D02*
X283074D01*
X276922D02*
X279570D01*
X263451D02*
X267111D01*
X252627D02*
X257143D01*
X246008D02*
X248033D01*
X203414D02*
X203881D01*
X289070Y207909D02*
X297013D01*
X284631D02*
X287201D01*
X281205D02*
X283230D01*
X276922D02*
X279570D01*
X263451D02*
X267111D01*
X253016D02*
X257533D01*
X246164D02*
X248188D01*
X289148Y207987D02*
X296857D01*
X284631D02*
X287201D01*
X281205D02*
X283230D01*
X276922D02*
X279570D01*
X263606D02*
X267188D01*
X253094D02*
X257688D01*
X246164D02*
X248188D01*
X289148Y208065D02*
X296545D01*
X284709D02*
X287279D01*
X281283D02*
X283385D01*
X277078D02*
X279570D01*
X263606D02*
X267266D01*
X253484D02*
X258000D01*
X246164D02*
X248266D01*
X289303Y208143D02*
X296390D01*
X284787D02*
X287357D01*
X281361D02*
X283385D01*
X277078D02*
X279570D01*
X263762D02*
X267266D01*
X253561D02*
X258156D01*
X246319D02*
X248344D01*
X284865Y208221D02*
X296078D01*
X281361D02*
X283385D01*
X277156D02*
X279570D01*
X271316D02*
X271705D01*
X263762D02*
X267266D01*
X253873D02*
X258389D01*
X246319D02*
X248344D01*
X285021Y208298D02*
X295844D01*
X281439D02*
X283541D01*
X277234D02*
X279570D01*
X271082D02*
X272172D01*
X263840D02*
X267344D01*
X254106D02*
X258623D01*
X246397D02*
X248500D01*
X285021Y208376D02*
X295689D01*
X281516D02*
X283541D01*
X277234D02*
X279570D01*
X271004D02*
X272250D01*
X263918D02*
X267422D01*
X254262D02*
X258779D01*
X246475D02*
X248500D01*
X285176Y208454D02*
X295221D01*
X281594D02*
X283697D01*
X277311D02*
X279570D01*
X270926D02*
X272406D01*
X263996D02*
X267422D01*
X254729D02*
X259168D01*
X246475D02*
X248500D01*
X285176Y208532D02*
X295066D01*
X281594D02*
X283697D01*
X277311D02*
X279570D01*
X270848D02*
X272484D01*
X264074D02*
X267422D01*
X254729D02*
X259168D01*
X246553D02*
X248656D01*
X285332Y208610D02*
X294599D01*
X281750D02*
X283697D01*
X277234D02*
X279570D01*
X270848D02*
X272561D01*
X264151D02*
X267578D01*
X255197D02*
X259635D01*
X246631D02*
X248656D01*
X285488Y208688D02*
X294443D01*
X281750D02*
X283697D01*
X277234D02*
X279570D01*
X270848D02*
X272639D01*
X264151D02*
X267578D01*
X255197D02*
X259635D01*
X246709D02*
X248656D01*
X285644Y208766D02*
X293742D01*
X281906D02*
X283853D01*
X277234D02*
X279570D01*
X270848D02*
X272717D01*
X264307D02*
X267578D01*
X255664D02*
X260025D01*
X246787D02*
X248811D01*
X285644Y208843D02*
X293742D01*
X281906D02*
X283853D01*
X277234D02*
X279570D01*
X270848D02*
X272717D01*
X264307D02*
X267578D01*
X255742D02*
X260102D01*
X246787D02*
X248811D01*
X285955Y208921D02*
X292574D01*
X282062D02*
X284008D01*
X277156D02*
X279570D01*
X270848D02*
X272873D01*
X264463D02*
X267734D01*
X256209D02*
X260648D01*
X246865D02*
X248967D01*
X285955Y208999D02*
X292574D01*
X282062D02*
X284008D01*
X277156D02*
X279570D01*
X270848D02*
X272873D01*
X264463D02*
X267734D01*
X256209D02*
X260648D01*
X246865D02*
X248967D01*
X286189Y209077D02*
X291951D01*
X282062D02*
X284164D01*
X277156D02*
X279570D01*
X270926D02*
X272951D01*
X264619D02*
X267734D01*
X256676D02*
X261037D01*
X247020D02*
X248967D01*
X286189Y209155D02*
X291951D01*
X282139D02*
X284164D01*
X277156D02*
X279570D01*
X270926D02*
X272951D01*
X264619D02*
X267734D01*
X256676D02*
X261115D01*
X247020D02*
X248967D01*
X286344Y209233D02*
X292107D01*
X282217D02*
X284242D01*
X277156D02*
X279414D01*
X271004D02*
X273029D01*
X264775D02*
X267889D01*
X257221D02*
X261504D01*
X247176D02*
X249123D01*
X286344Y209311D02*
X292107D01*
X282217D02*
X284242D01*
X277156D02*
X279414D01*
X271004D02*
X273029D01*
X264775D02*
X267889D01*
X257221D02*
X261504D01*
X247176D02*
X249123D01*
X290471Y209389D02*
X292107D01*
X286344D02*
X288603D01*
X282373D02*
X284320D01*
X277156D02*
X279414D01*
X271004D02*
X273184D01*
X264930D02*
X267889D01*
X257688D02*
X261971D01*
X247176D02*
X249279D01*
X290549Y209466D02*
X292262D01*
X286344D02*
X287980D01*
X282373D02*
X284398D01*
X277156D02*
X279414D01*
X274352D02*
X274586D01*
X271082D02*
X273184D01*
X264930D02*
X267889D01*
X257688D02*
X261971D01*
X247332D02*
X249279D01*
X290627Y209544D02*
X292262D01*
X286500D02*
X287824D01*
X282529D02*
X284475D01*
X277156D02*
X279414D01*
X274119D02*
X274820D01*
X271160D02*
X273184D01*
X264930D02*
X268045D01*
X258078D02*
X262438D01*
X247332D02*
X249356D01*
X290705Y209622D02*
X292262D01*
X286500D02*
X287824D01*
X282529D02*
X284553D01*
X277234D02*
X279414D01*
X273963D02*
X274975D01*
X271160D02*
X273184D01*
X265086D02*
X268045D01*
X258234D02*
X262516D01*
X247332D02*
X249434D01*
X290783Y209700D02*
X292418D01*
X286500D02*
X287980D01*
X282529D02*
X284553D01*
X277234D02*
X279258D01*
X273963D02*
X274975D01*
X271238D02*
X273184D01*
X265086D02*
X268045D01*
X258545D02*
X262750D01*
X247488D02*
X249434D01*
X290783Y209778D02*
X292418D01*
X286500D02*
X287980D01*
X282684D02*
X284709D01*
X277234D02*
X279258D01*
X273963D02*
X275131D01*
X271316D02*
X273340D01*
X265242D02*
X268045D01*
X258779D02*
X262983D01*
X247488D02*
X249512D01*
X290939Y209856D02*
X292418D01*
X286656D02*
X287980D01*
X282684D02*
X284709D01*
X277234D02*
X279258D01*
X273963D02*
X275131D01*
X271316D02*
X273340D01*
X265242D02*
X268201D01*
X258857D02*
X263139D01*
X247488D02*
X249590D01*
X290939Y209934D02*
X292418D01*
X286656D02*
X287980D01*
X282840D02*
X284787D01*
X277234D02*
X279102D01*
X273963D02*
X275287D01*
X271393D02*
X273340D01*
X265320D02*
X268201D01*
X259324D02*
X263451D01*
X247643D02*
X249668D01*
X290939Y210012D02*
X292574D01*
X286656D02*
X288135D01*
X282840D02*
X284865D01*
X277234D02*
X279102D01*
X273963D02*
X275287D01*
X271393D02*
X273340D01*
X265397D02*
X268201D01*
X259324D02*
X263606D01*
X247643D02*
X249668D01*
X291094Y210089D02*
X292574D01*
X286656D02*
X288135D01*
X282918D02*
X284865D01*
X277311D02*
X278947D01*
X273963D02*
X275443D01*
X271549D02*
X273340D01*
X265475D02*
X268279D01*
X259791D02*
X263996D01*
X247799D02*
X249824D01*
X291094Y210167D02*
X292574D01*
X286656D02*
X288135D01*
X282918D02*
X284865D01*
X277311D02*
X278869D01*
X273963D02*
X275443D01*
X271549D02*
X273340D01*
X265475D02*
X268279D01*
X259869D02*
X264074D01*
X247799D02*
X249824D01*
X291250Y210245D02*
X292730D01*
X286812D02*
X288135D01*
X283074D02*
X285021D01*
X277467D02*
X278635D01*
X273963D02*
X275443D01*
X271627D02*
X273496D01*
X265631D02*
X268356D01*
X260336D02*
X264463D01*
X247877D02*
X249979D01*
X291250Y210323D02*
X292730D01*
X286812D02*
X288135D01*
X283074D02*
X285021D01*
X277467D02*
X278635D01*
X273963D02*
X275443D01*
X271705D02*
X273496D01*
X265631D02*
X268356D01*
X260336D02*
X264463D01*
X247877D02*
X249979D01*
X291328Y210401D02*
X292730D01*
X286812D02*
X288291D01*
X283230D02*
X285176D01*
X277623D02*
X278246D01*
X274041D02*
X275598D01*
X271861D02*
X273496D01*
X265787D02*
X268434D01*
X260803D02*
X264930D01*
X247955D02*
X249979D01*
X291328Y210479D02*
X292730D01*
X286812D02*
X288291D01*
X283230D02*
X285176D01*
X277623D02*
X278246D01*
X274041D02*
X275598D01*
X271861D02*
X273496D01*
X265787D02*
X268434D01*
X260803D02*
X264930D01*
X247955D02*
X249979D01*
X291406Y210557D02*
X292885D01*
X286889D02*
X288291D01*
X283385D02*
X285332D01*
X274119D02*
X275676D01*
X272016D02*
X273340D01*
X265942D02*
X268512D01*
X261348D02*
X265475D01*
X248111D02*
X250135D01*
X291406Y210634D02*
X292885D01*
X286967D02*
X288291D01*
X283385D02*
X285332D01*
X274119D02*
X275676D01*
X272016D02*
X273340D01*
X265942D02*
X268590D01*
X261348D02*
X265475D01*
X248111D02*
X250135D01*
X291562Y210712D02*
X292885D01*
X286967D02*
X288447D01*
X283463D02*
X285332D01*
X274197D02*
X275754D01*
X272328D02*
X273262D01*
X261815D02*
X268590D01*
X248266D02*
X250135D01*
X291562Y210790D02*
X292963D01*
X286967D02*
X288447D01*
X283541D02*
X285488D01*
X274275D02*
X275754D01*
X272328D02*
X273184D01*
X261815D02*
X268590D01*
X248266D02*
X250135D01*
X291639Y210868D02*
X293041D01*
X286967D02*
X288447D01*
X283541D02*
X285488D01*
X274275D02*
X275754D01*
X272639D02*
X273029D01*
X262205D02*
X268746D01*
X248344D02*
X250135D01*
X291717Y210946D02*
X293041D01*
X287045D02*
X288447D01*
X283541D02*
X285488D01*
X274352D02*
X275754D01*
X262283D02*
X268746D01*
X248344D02*
X250135D01*
X291795Y211024D02*
X293119D01*
X287123D02*
X288525D01*
X283697D02*
X285644D01*
X274430D02*
X275754D01*
X262672D02*
X268746D01*
X248500D02*
X250135D01*
X291795Y211102D02*
X293119D01*
X287123D02*
X288603D01*
X283697D02*
X285644D01*
X274430D02*
X275832D01*
X262828D02*
X268746D01*
X248500D02*
X250135D01*
X291873Y211180D02*
X293197D01*
X287123D02*
X288603D01*
X283853D02*
X285721D01*
X274508D02*
X275754D01*
X263139D02*
X268902D01*
X248656D02*
X250135D01*
X291951Y211257D02*
X293275D01*
X287123D02*
X288603D01*
X283853D02*
X285799D01*
X274586D02*
X275754D01*
X263451D02*
X268902D01*
X248656D02*
X250135D01*
X291951Y211335D02*
X293275D01*
X287201D02*
X288603D01*
X283853D02*
X285877D01*
X274664D02*
X275754D01*
X263451D02*
X268902D01*
X248656D02*
X250057D01*
X292107Y211413D02*
X293275D01*
X287279D02*
X288680D01*
X284008D02*
X285955D01*
X274664D02*
X275754D01*
X263918D02*
X268979D01*
X248811D02*
X249979D01*
X292107Y211491D02*
X293275D01*
X287279D02*
X288758D01*
X284008D02*
X285955D01*
X274820D02*
X275676D01*
X263996D02*
X269057D01*
X248967D02*
X249979D01*
X292107Y211569D02*
X293430D01*
X287357D02*
X288758D01*
X284164D02*
X286033D01*
X274975D02*
X275598D01*
X264385D02*
X269057D01*
X249123D02*
X249746D01*
X292107Y211647D02*
X293430D01*
X287357D02*
X288758D01*
X284164D02*
X286033D01*
X274975D02*
X275598D01*
X264463D02*
X269057D01*
X249201D02*
X249668D01*
X292262Y211725D02*
X293430D01*
X287435D02*
X288836D01*
X284320D02*
X286189D01*
X264930D02*
X269213D01*
X292262Y211803D02*
X293430D01*
X287435D02*
X288836D01*
X284320D02*
X286189D01*
X264930D02*
X269213D01*
X292418Y211880D02*
X293586D01*
X287512D02*
X288914D01*
X284398D02*
X286344D01*
X265397D02*
X269680D01*
X292418Y211958D02*
X293586D01*
X287512D02*
X288914D01*
X284398D02*
X286344D01*
X265397D02*
X269680D01*
X292418Y212036D02*
X293586D01*
X287512D02*
X288992D01*
X284553D02*
X286500D01*
X265942D02*
X270225D01*
X292418Y212114D02*
X293586D01*
X287512D02*
X288992D01*
X284553D02*
X286500D01*
X265942D02*
X270225D01*
X292574Y212192D02*
X293742D01*
X287668D02*
X289070D01*
X284709D02*
X286500D01*
X266410D02*
X270693D01*
X292574Y212270D02*
X293742D01*
X287668D02*
X289148D01*
X284709D02*
X286656D01*
X266410D02*
X270848D01*
X292574Y212348D02*
X293742D01*
X287668D02*
X289148D01*
X284787D02*
X286656D01*
X266799D02*
X271238D01*
X292574Y212425D02*
X293742D01*
X287668D02*
X289148D01*
X284865D02*
X286656D01*
X266955D02*
X271393D01*
X292652Y212503D02*
X293898D01*
X287746D02*
X289148D01*
X284865D02*
X286812D01*
X267266D02*
X271783D01*
X292730Y212581D02*
X293898D01*
X287824D02*
X289148D01*
X285021D02*
X286812D01*
X267422D02*
X272016D01*
X292730Y212659D02*
X293898D01*
X287824D02*
X289303D01*
X285021D02*
X286889D01*
X267734D02*
X272328D01*
X292730Y212737D02*
X293898D01*
X287824D02*
X289303D01*
X285021D02*
X286967D01*
X267889D02*
X272639D01*
X292730Y212815D02*
X293898D01*
X287824D02*
X289303D01*
X285176D02*
X286967D01*
X267889D02*
X272717D01*
X292808Y212893D02*
X294053D01*
X287980D02*
X289303D01*
X285176D02*
X287123D01*
X267889D02*
X273184D01*
X292885Y212971D02*
X294053D01*
X287980D02*
X289459D01*
X285176D02*
X287123D01*
X267967D02*
X273340D01*
X292885Y213048D02*
X294053D01*
X287980D02*
X289459D01*
X285332D02*
X287201D01*
X268045D02*
X273807D01*
X292885Y213126D02*
X294053D01*
X287980D02*
X289459D01*
X285332D02*
X287279D01*
X268045D02*
X273807D01*
X292885Y213204D02*
X294053D01*
X287980D02*
X289459D01*
X285488D02*
X287357D01*
X268201D02*
X274352D01*
X292885Y213282D02*
X294053D01*
X287980D02*
X289459D01*
X285488D02*
X287357D01*
X268201D02*
X274352D01*
X292963Y213360D02*
X294209D01*
X288135D02*
X289615D01*
X285644D02*
X287512D01*
X268356D02*
X274975D01*
X292963Y213438D02*
X294209D01*
X288135D02*
X289615D01*
X285644D02*
X287512D01*
X268356D02*
X274975D01*
X293041Y213516D02*
X294209D01*
X288135D02*
X289615D01*
X285721D02*
X287668D01*
X270303D02*
X275443D01*
X268434D02*
X270070D01*
X293041Y213594D02*
X294209D01*
X288135D02*
X289615D01*
X285799D02*
X287668D01*
X270381D02*
X275520D01*
X268434D02*
X270070D01*
X293041Y213671D02*
X294209D01*
X288291D02*
X289771D01*
X285877D02*
X287668D01*
X270848D02*
X275988D01*
X268590D02*
X270070D01*
X293041Y213749D02*
X294209D01*
X288291D02*
X289771D01*
X285877D02*
X287746D01*
X270848D02*
X276143D01*
X268590D02*
X270147D01*
X293041Y213827D02*
X294287D01*
X288291D02*
X289771D01*
X285955D02*
X287824D01*
X271316D02*
X276455D01*
X268668D02*
X270225D01*
X293041Y213905D02*
X294287D01*
X288291D02*
X289771D01*
X286033D02*
X287824D01*
X271471D02*
X276611D01*
X268746D02*
X270225D01*
X293041Y213983D02*
X294365D01*
X288291D02*
X289771D01*
X286111D02*
X287980D01*
X271861D02*
X277000D01*
X268746D02*
X270381D01*
X293041Y214061D02*
X294365D01*
X288447D02*
X289926D01*
X286189D02*
X287980D01*
X272016D02*
X277234D01*
X268902D02*
X270381D01*
X293041Y214139D02*
X294365D01*
X288447D02*
X289926D01*
X286189D02*
X287980D01*
X272328D02*
X277467D01*
X268902D02*
X270537D01*
X293041Y214216D02*
X294365D01*
X288447D02*
X289926D01*
X286344D02*
X288135D01*
X272639D02*
X277934D01*
X268979D02*
X270537D01*
X293041Y214294D02*
X294365D01*
X288447D02*
X289926D01*
X286344D02*
X288135D01*
X272795D02*
X277934D01*
X269057D02*
X270537D01*
X292963Y214372D02*
X294365D01*
X288603D02*
X290004D01*
X286500D02*
X288291D01*
X273340D02*
X278402D01*
X269057D02*
X270693D01*
X292963Y214450D02*
X294365D01*
X288603D02*
X290004D01*
X286500D02*
X288291D01*
X273340D02*
X278480D01*
X269057D02*
X270693D01*
X292885Y214528D02*
X294365D01*
X288603D02*
X290082D01*
X286500D02*
X288369D01*
X273807D02*
X279025D01*
X269213D02*
X270848D01*
X292885Y214606D02*
X294365D01*
X288603D02*
X290082D01*
X286656D02*
X288369D01*
X273885D02*
X279102D01*
X269213D02*
X270848D01*
X292730Y214684D02*
X294365D01*
X288758D02*
X290160D01*
X286656D02*
X288447D01*
X274430D02*
X279570D01*
X269369D02*
X271004D01*
X292730Y214762D02*
X294365D01*
X288758D02*
X290160D01*
X286656D02*
X288447D01*
X274430D02*
X279570D01*
X269369D02*
X271004D01*
X292730Y214839D02*
X294365D01*
X288758D02*
X290238D01*
X286812D02*
X288603D01*
X274975D02*
X280193D01*
X269525D02*
X271004D01*
X292730Y214917D02*
X294365D01*
X288758D02*
X290238D01*
X286812D02*
X288603D01*
X274975D02*
X280193D01*
X269525D02*
X271004D01*
X292574Y214995D02*
X294365D01*
X286967D02*
X290316D01*
X275598D02*
X280738D01*
X269602D02*
X271160D01*
X292418Y215073D02*
X294365D01*
X286967D02*
X290316D01*
X275598D02*
X280738D01*
X269602D02*
X271160D01*
X292418Y215151D02*
X294365D01*
X287123D02*
X290394D01*
X276143D02*
X281205D01*
X269680D02*
X271316D01*
X292262Y215229D02*
X294365D01*
X287123D02*
X290394D01*
X276221D02*
X281361D01*
X269680D02*
X271316D01*
X292262Y215307D02*
X294365D01*
X287201D02*
X290471D01*
X276611D02*
X281750D01*
X269836D02*
X271393D01*
X292107Y215385D02*
X294287D01*
X287201D02*
X290471D01*
X276766D02*
X281906D01*
X269836D02*
X271471D01*
X292107Y215462D02*
X294209D01*
X287279D02*
X290471D01*
X277156D02*
X282217D01*
X269914D02*
X271549D01*
X292029Y215540D02*
X294209D01*
X287357D02*
X290549D01*
X277389D02*
X282529D01*
X269992D02*
X271627D01*
X291951Y215618D02*
X294209D01*
X287435D02*
X290627D01*
X277623D02*
X282684D01*
X270070D02*
X271705D01*
X291951Y215696D02*
X294209D01*
X287512D02*
X290627D01*
X277934D02*
X283152D01*
X270147D02*
X271705D01*
X291951Y215774D02*
X294053D01*
X287512D02*
X290627D01*
X278090D02*
X283230D01*
X270225D02*
X271783D01*
X291873Y215852D02*
X294053D01*
X287668D02*
X290627D01*
X278557D02*
X283697D01*
X270225D02*
X271861D01*
X291873Y215930D02*
X294053D01*
X287668D02*
X290627D01*
X278635D02*
X283697D01*
X270225D02*
X271861D01*
X291795Y216007D02*
X293898D01*
X287824D02*
X290783D01*
X279102D02*
X284242D01*
X270381D02*
X272016D01*
X291795Y216085D02*
X293898D01*
X287824D02*
X290783D01*
X279180D02*
X284320D01*
X270381D02*
X272016D01*
X291795Y216163D02*
X293586D01*
X287980D02*
X290783D01*
X279725D02*
X284865D01*
X270537D02*
X272172D01*
X291795Y216241D02*
X293586D01*
X287980D02*
X290783D01*
X279725D02*
X284865D01*
X270537D02*
X272172D01*
X292029Y216319D02*
X293119D01*
X287980D02*
X290939D01*
X280271D02*
X285410D01*
X270693D02*
X272328D01*
X292029Y216397D02*
X293119D01*
X287980D02*
X290939D01*
X280271D02*
X285410D01*
X270693D02*
X272328D01*
X288135Y216475D02*
X290939D01*
X280893D02*
X285955D01*
X270693D02*
X272328D01*
X288135Y216553D02*
X290939D01*
X280893D02*
X286033D01*
X270693D02*
X272328D01*
X288291Y216630D02*
X291094D01*
X281361D02*
X286500D01*
X270848D02*
X272484D01*
X288291Y216708D02*
X291094D01*
X281516D02*
X286656D01*
X270848D02*
X272484D01*
X288447Y216786D02*
X291094D01*
X281906D02*
X286967D01*
X271004D02*
X272561D01*
X288447Y216864D02*
X291094D01*
X282062D02*
X287123D01*
X271004D02*
X272639D01*
X288525Y216942D02*
X291094D01*
X282373D02*
X287512D01*
X271082D02*
X272639D01*
X288603Y217020D02*
X291250D01*
X282684D02*
X287746D01*
X271160D02*
X272639D01*
X288603Y217098D02*
X291250D01*
X282918D02*
X287980D01*
X271160D02*
X272717D01*
X288758Y217176D02*
X291250D01*
X283307D02*
X288369D01*
X271316D02*
X272717D01*
X288680Y217253D02*
X291250D01*
X283385D02*
X288447D01*
X271316D02*
X272717D01*
X283853Y217331D02*
X291328D01*
X271393D02*
X272717D01*
X284008Y217409D02*
X291328D01*
X271393D02*
X272639D01*
X284475Y217487D02*
X291406D01*
X271549D02*
X272639D01*
X284475Y217565D02*
X291406D01*
X271549D02*
X272639D01*
X285021Y217643D02*
X291406D01*
X271861D02*
X272484D01*
X285021Y217721D02*
X291406D01*
X271861D02*
X272484D01*
X285644Y217799D02*
X291562D01*
X285644Y217876D02*
X291562D01*
X286189Y217954D02*
X291562D01*
X286189Y218032D02*
X291639D01*
X286656Y218110D02*
X291795D01*
X286812Y218188D02*
X291873D01*
X287201Y218266D02*
X292262D01*
X287435Y218344D02*
X292418D01*
X287668Y218421D02*
X292808D01*
X287980Y218499D02*
X293119D01*
X288135Y218577D02*
X293353D01*
X288603Y218655D02*
X293742D01*
X288680Y218733D02*
X293898D01*
X289148Y218811D02*
X294443D01*
X289303Y218889D02*
X294521D01*
X289771Y218967D02*
X295066D01*
X289771Y219044D02*
X295066D01*
X290238Y219122D02*
X296623D01*
X290238Y219200D02*
X296623D01*
X290394Y219278D02*
X296857D01*
X290394Y219356D02*
X296857D01*
X290471Y219434D02*
X297013D01*
X290471Y219512D02*
X297013D01*
X290627Y219590D02*
X297013D01*
X290627Y219667D02*
X297013D01*
X292418Y219745D02*
X297013D01*
X290783D02*
X292262D01*
X292418Y219823D02*
X297013D01*
X290783D02*
X292185D01*
X292808Y219901D02*
X297013D01*
X290783D02*
X292262D01*
X293119Y219979D02*
X297013D01*
X290939D02*
X292262D01*
X293353Y220057D02*
X297013D01*
X290939D02*
X292262D01*
X293742Y220135D02*
X296857D01*
X290939D02*
X292418D01*
X293898Y220212D02*
X296857D01*
X291094D02*
X292418D01*
X294443Y220290D02*
X296857D01*
X291094D02*
X292574D01*
X294521Y220368D02*
X296857D01*
X291094D02*
X292574D01*
X295066Y220446D02*
X296545D01*
X291250D02*
X292652D01*
X295066Y220524D02*
X296545D01*
X291250D02*
X292730D01*
X291406Y220602D02*
X292730D01*
X291406Y220680D02*
X292730D01*
X291406Y220758D02*
X292885D01*
X291406Y220835D02*
X292885D01*
X291562Y220913D02*
X292963D01*
X291562Y220991D02*
X292963D01*
X291639Y221069D02*
X293041D01*
X291717Y221147D02*
X293041D01*
X291795Y221225D02*
X293119D01*
X291795Y221303D02*
X293119D01*
X291873Y221381D02*
X293119D01*
X291951Y221458D02*
X293197D01*
X291951Y221536D02*
X293197D01*
X292107Y221614D02*
X293197D01*
X292107Y221692D02*
X293197D01*
X292262Y221770D02*
X293119D01*
X292262Y221848D02*
X293119D01*
X292574Y221926D02*
X292885D01*
X292574Y222003D02*
X292885D01*
D68*
X329240Y341539D02*
Y351696D01*
X326701Y354235D01*
X321623D01*
X319083Y351696D01*
Y341539D01*
X321623Y339000D01*
X326701D01*
X324162Y344078D02*
X329240Y339000D01*
X326701D02*
X329240Y341539D01*
X334318Y354235D02*
X344475D01*
X339397D01*
Y339000D01*
X349553D02*
Y354235D01*
X357171D01*
X359710Y351696D01*
Y346618D01*
X357171Y344078D01*
X349553D01*
X354632D02*
X359710Y339000D01*
X357000Y8618D02*
X367157D01*
X362078Y13696D02*
Y3539D01*
X257000Y351618D02*
X267157D01*
X262078Y356696D02*
Y346539D01*
D69*
X5000Y20000D02*
D03*
X657000D02*
D03*
D70*
X477000Y56500D02*
D03*
M02*
