M48
;Layer_Color=9474304
;FILE_FORMAT=4:4
METRIC,LZ
;TYPE=PLATED
T1F00S00C0.4000
T2F00S00C0.5000
T4F00S00C0.7000
T5F00S00C1.0000
;TYPE=NON_PLATED
T6F00S00C2.4000
%
T01
X000285Y0004375
X0005325
X00075Y000285
Y000785
X001
X00125
X001125Y000535
X000875Y001035
X00168Y00111
X00225Y000285
X0025
X00275
X003
X0032325Y000605
X0033925
X00425Y000785
X00499Y00113
X005875Y001035
X006Y001785
X00625
X006375Y002035
X00625Y002285
X006
X00575
X005875Y002535
X006125
X006375
X00625Y002785
X006
X00575
X0055
X00525
X005
X00487Y00286
X005125Y003035
X005375
X005625
X005875
X006125
X006375
X00625Y003285
X006
X00575
X0055
X005625Y003535
X005875
X006Y003785
X00625
X006375Y003535
X00575Y003785
X005125Y003535
X004625
X00475Y003785
X0044425Y002835
Y002465
X0045Y001785
X00425
X004
X004125Y002035
X003875
X00425Y001285
X0047825Y001355
X00525Y001785
X0055
X00575
X005875Y002035
X005625
X005375
X005125Y002535
X006375Y001535
X00325Y001785
X0028025Y0017025
X002935Y0020125
X00275Y002285
X0025
X00258Y0024175
X00225Y002285
X002
X00175
Y002785
X002
X002125Y003035
X001875
X001625
X001125
X000875
X000625
X000375
X0005Y003285
X00075
X001
X000875Y003535
X001Y003785
X00075
X0005
X00025
Y003285
Y002785
X0005
X00075
X001
X00125
X000875Y002535
X000625
X000375
X0005Y002285
X00075
X000875Y002035
X001125
X001375
X0015Y001785
X00175
X00165Y0015675
X0020975Y001745
X00225Y001785
X002125Y002035
X0020525Y00126
X00225Y001285
X0025
X00275Y002785
X002875Y003035
X002125Y003535
X00225Y003785
X0035
X00025Y002285
Y001785
X0005
X000625Y001535
X000375
T02
X00116Y00067
X00139Y00075
X00187Y00073
X00211Y00055
X00288Y00065
X00297
X00364Y00062
X00373
X00382
X00395Y00046
Y00031
Y00016
X0042475Y001105
X00454Y00108
X00509Y00102
X00569Y0011025
X00585Y00079
X00542Y00031
X00524Y00160924
X00588Y00142
X005965
X00605
X00423Y00144
X00413
X003765Y001395
X00428Y00189
X00411Y002145
X00409Y00298
X00499Y00304
X00346Y00281
X00343Y00268
X00331Y0024375
X00316Y0028075
X00258Y00288
X00246Y00287
X00229Y00275
X00237Y00308
X00163Y00332
X00165Y00276
X0009875Y00164
X0009025
X0008175
X00077Y00128
X0006856
X00060121
X00286Y00134
X002935Y0014575
X00307Y0015
Y00161
X0032
X0031875Y0015
X00319Y00139
X00331
X003305Y0015
X0034225
X00343Y00139
X00355
X00354Y0015
X00346Y00161
X00333
X00331Y00127
X00343
X00355
X00319
X00307
Y00139
X00365Y00198
T04
X00384167Y0037825
X00404167
X00424167
X00444167
X0048825
X0050825
X0052825
X0054825
X00551Y0026
Y0024
Y0022
X00364167Y0037825
X00320083
X00300083
X00280083
X00260083
X00240083
X00196
X00176
X00156
X00136
X00116
X00111Y0026
Y0024
Y0022
T05
X0002935Y00027
X0005475
X003173Y00025
X003427
X006088Y00027
X006342
T06
X00616Y0035
X00046
M30
